<?xml version="1.0" ?>
<svg height="224" version="1.1" width="224" xmlns="http://www.w3.org/2000/svg">
  <defs/>
  <g>
    <path d="M 166.65072631835938 89.48993682861328 C 173.6292724609375 247.29173278808594 159.29098510742188 187.2575225830078 160.38772583007812 88.19554138183594" fill="none" stroke="rgb(0, 0, 0)" stroke-linecap="round" stroke-linejoin="round" stroke-opacity="1" stroke-width="3.0"/>
    <path d="M 95.41876983642578 174.09658813476562 C 223.00982666015625 157.6222686767578 216.05807495117188 176.80650329589844 95.44550323486328 171.5155487060547" fill="none" stroke="rgb(0, 0, 0)" stroke-linecap="round" stroke-linejoin="round" stroke-opacity="1" stroke-width="3.0"/>
    <path d="M 122.48857879638672 131.09133911132812 C 116.90027618408203 208.7635040283203 123.05412292480469 9.052657127380371 122.44490814208984 170.42422485351562" fill="none" stroke="rgb(0, 0, 0)" stroke-linecap="round" stroke-linejoin="round" stroke-opacity="1" stroke-width="3.0"/>
    <path d="M -9.60946273803711 81.5165786743164 C 12.860152244567871 124.45821380615234 11.643638610839844 66.38284301757812 5.2949748039245605 160.4231719970703" fill="none" stroke="rgb(0, 0, 0)" stroke-linecap="round" stroke-linejoin="round" stroke-opacity="1" stroke-width="3.0"/>
    <path d="M 51.92475128173828 149.61862182617188 C 67.75313568115234 -0.5728118419647217 10.459518432617188 70.24959564208984 173.67689514160156 66.95494079589844" fill="none" stroke="rgb(0, 0, 0)" stroke-linecap="round" stroke-linejoin="round" stroke-opacity="1" stroke-width="3.0"/>
    <path d="M 85.16156768798828 82.96072387695312 C 108.35584259033203 84.11172485351562 165.0181884765625 85.40972900390625 169.7005615234375 88.36344909667969" fill="none" stroke="rgb(0, 0, 0)" stroke-linecap="round" stroke-linejoin="round" stroke-opacity="1" stroke-width="3.0"/>
    <path d="M 88.32292175292969 185.56991577148438 C 84.88427734375 181.54745483398438 93.86226654052734 248.47804260253906 63.993980407714844 264.0137634277344" fill="none" stroke="rgb(0, 0, 0)" stroke-linecap="round" stroke-linejoin="round" stroke-opacity="1" stroke-width="3.0"/>
    <path d="M 157.96510314941406 -4.073095798492432 C 156.26318359375 -0.1279745250940323 85.27506256103516 18.672754287719727 82.26206970214844 25.11339569091797" fill="none" stroke="rgb(0, 0, 0)" stroke-linecap="round" stroke-linejoin="round" stroke-opacity="1" stroke-width="3.0"/>
    <path d="M -13.08338737487793 197.13983154296875 C 90.18894958496094 198.5614471435547 3.646030902862549 190.49794006347656 85.3979721069336 190.2218780517578" fill="none" stroke="rgb(0, 0, 0)" stroke-linecap="round" stroke-linejoin="round" stroke-opacity="1" stroke-width="3.0"/>
    <path d="M 170.28126525878906 175.49668884277344 C 189.93333435058594 89.02230072021484 141.68130493164062 136.7996826171875 239.0096893310547 93.87191009521484" fill="none" stroke="rgb(0, 0, 0)" stroke-linecap="round" stroke-linejoin="round" stroke-opacity="1" stroke-width="3.0"/>
    <path d="M 29.087764739990234 145.2899627685547 C 34.97430419921875 51.66091537475586 43.43589401245117 45.57416534423828 26.372509002685547 132.36767578125" fill="none" stroke="rgb(0, 0, 0)" stroke-linecap="round" stroke-linejoin="round" stroke-opacity="1" stroke-width="3.0"/>
    <path d="M -5.488588809967041 215.70419311523438 C 68.68997955322266 218.60403442382812 128.0098876953125 207.85728454589844 46.82747268676758 228.36483764648438" fill="none" stroke="rgb(0, 0, 0)" stroke-linecap="round" stroke-linejoin="round" stroke-opacity="1" stroke-width="3.0"/>
    <path d="M -25.04123306274414 12.720911979675293 C -33.710350036621094 59.552040100097656 11.738393783569336 41.61541748046875 22.941884994506836 82.9229507446289" fill="none" stroke="rgb(0, 0, 0)" stroke-linecap="round" stroke-linejoin="round" stroke-opacity="1" stroke-width="3.0"/>
    <path d="M 186.6076202392578 138.96263122558594 C 193.7979736328125 210.68202209472656 170.92449951171875 165.5167999267578 233.04510498046875 189.74838256835938" fill="none" stroke="rgb(0, 0, 0)" stroke-linecap="round" stroke-linejoin="round" stroke-opacity="1" stroke-width="3.0"/>
    <path d="M -4.777062892913818 209.00204467773438 C -15.172971725463867 180.75253295898438 -102.16926574707031 131.03038024902344 14.56934642791748 140.89578247070312" fill="none" stroke="rgb(0, 0, 0)" stroke-linecap="round" stroke-linejoin="round" stroke-opacity="1" stroke-width="3.0"/>
    <path d="M 1.165785312652588 212.6577606201172 C 95.61083984375 190.62277221679688 85.59346008300781 202.0642852783203 86.01104736328125 188.95260620117188" fill="none" stroke="rgb(0, 0, 0)" stroke-linecap="round" stroke-linejoin="round" stroke-opacity="1" stroke-width="3.0"/>
    <path d="M 25.78376007080078 200.37759399414062 C -20.080242156982422 213.6433563232422 -20.35487174987793 202.88153076171875 -5.8705854415893555 233.54017639160156" fill="none" stroke="rgb(0, 0, 0)" stroke-linecap="round" stroke-linejoin="round" stroke-opacity="1" stroke-width="3.0"/>
    <path d="M 137.4652862548828 221.0875244140625 C 242.60302734375 218.6112060546875 186.1382293701172 215.07318115234375 224.61251831054688 222.25735473632812" fill="none" stroke="rgb(0, 0, 0)" stroke-linecap="round" stroke-linejoin="round" stroke-opacity="1" stroke-width="3.0"/>
    <path d="M 61.90913772583008 190.936767578125 C -53.49188995361328 196.88653564453125 -34.59245681762695 190.84632873535156 -19.0885009765625 194.50511169433594" fill="none" stroke="rgb(0, 0, 0)" stroke-linecap="round" stroke-linejoin="round" stroke-opacity="1" stroke-width="3.0"/>
    <path d="M 184.82080078125 -4.908288478851318 C 191.37298583984375 -13.951913833618164 169.3753204345703 1.8499794006347656 128.24673461914062 25.52191925048828" fill="none" stroke="rgb(0, 0, 0)" stroke-linecap="round" stroke-linejoin="round" stroke-opacity="1" stroke-width="3.0"/>
    <path d="M 10.920027732849121 185.21392822265625 C -44.72190856933594 189.5638427734375 -12.472280502319336 174.22238159179688 -5.533798694610596 151.11505126953125" fill="none" stroke="rgb(0, 0, 0)" stroke-linecap="round" stroke-linejoin="round" stroke-opacity="1" stroke-width="3.0"/>
    <path d="M 113.42376708984375 48.986000061035156 C 149.26589965820312 47.73959732055664 179.3424530029297 41.139320373535156 216.3701171875 -7.524163722991943" fill="none" stroke="rgb(0, 0, 0)" stroke-linecap="round" stroke-linejoin="round" stroke-opacity="1" stroke-width="3.0"/>
    <path d="M 21.812545776367188 240.66148376464844 C -36.514244079589844 201.84152221679688 -3.1856155395507812 207.18356323242188 44.943851470947266 202.92959594726562" fill="none" stroke="rgb(0, 0, 0)" stroke-linecap="round" stroke-linejoin="round" stroke-opacity="1" stroke-width="3.0"/>
    <path d="M 53.76451110839844 44.93369674682617 C 51.05097961425781 57.69682312011719 16.98762321472168 26.16823959350586 -3.2257232666015625 -0.9607833623886108" fill="none" stroke="rgb(0, 0, 0)" stroke-linecap="round" stroke-linejoin="round" stroke-opacity="1" stroke-width="3.0"/>
    <path d="M 174.32669067382812 79.07659912109375 C 173.5906219482422 90.23196411132812 164.8568878173828 79.82012939453125 213.22378540039062 56.469390869140625" fill="none" stroke="rgb(0, 0, 0)" stroke-linecap="round" stroke-linejoin="round" stroke-opacity="1" stroke-width="3.0"/>
    <path d="M 131.0141143798828 29.586875915527344 C 120.23638153076172 -2.4089157581329346 44.999820709228516 7.513880252838135 50.1573600769043 14.331852912902832" fill="none" stroke="rgb(0, 0, 0)" stroke-linecap="round" stroke-linejoin="round" stroke-opacity="1" stroke-width="3.0"/>
    <path d="M -10.867650985717773 47.0147819519043 C 34.54437255859375 65.47789764404297 35.090476989746094 94.93534088134766 17.43724822998047 61.34806442260742" fill="none" stroke="rgb(0, 0, 0)" stroke-linecap="round" stroke-linejoin="round" stroke-opacity="1" stroke-width="3.0"/>
    <path d="M 78.54620361328125 156.55032348632812 C 86.59708404541016 43.36323547363281 87.95954132080078 53.400386810302734 72.67955017089844 63.3405876159668" fill="none" stroke="rgb(0, 0, 0)" stroke-linecap="round" stroke-linejoin="round" stroke-opacity="1" stroke-width="3.0"/>
    <path d="M 205.14404296875 112.18331146240234 C 209.2779998779297 194.74996948242188 209.10130310058594 188.62904357910156 237.70382690429688 165.17689514160156" fill="none" stroke="rgb(0, 0, 0)" stroke-linecap="round" stroke-linejoin="round" stroke-opacity="1" stroke-width="3.0"/>
    <path d="M 23.317386627197266 131.92015075683594 C 35.931522369384766 52.46672058105469 26.88614273071289 34.08357620239258 19.453495025634766 146.54673767089844" fill="none" stroke="rgb(0, 0, 0)" stroke-linecap="round" stroke-linejoin="round" stroke-opacity="1" stroke-width="3.0"/>
    <path d="M 120.77312469482422 133.6034393310547 C 110.9771728515625 264.95989990234375 125.81368255615234 22.18243980407715 122.18450927734375 108.4917221069336" fill="none" stroke="rgb(0, 0, 0)" stroke-linecap="round" stroke-linejoin="round" stroke-opacity="1" stroke-width="3.0"/>
    <path d="M 83.34122467041016 204.91429138183594 C -15.825100898742676 197.6595001220703 -17.37816619873047 200.31512451171875 -11.256431579589844 218.65817260742188" fill="none" stroke="rgb(0, 0, 0)" stroke-linecap="round" stroke-linejoin="round" stroke-opacity="1" stroke-width="3.0"/>
    <path d="M 68.8069839477539 152.365966796875 C -58.41765594482422 151.27333068847656 19.617740631103516 143.6526641845703 -14.260720252990723 159.6181640625" fill="none" stroke="rgb(0, 0, 0)" stroke-linecap="round" stroke-linejoin="round" stroke-opacity="1" stroke-width="3.0"/>
    <path d="M 157.79537963867188 7.794175148010254 C 59.29785919189453 -2.3053035736083984 125.79908752441406 32.79744338989258 112.81974792480469 43.19304656982422" fill="none" stroke="rgb(0, 0, 0)" stroke-linecap="round" stroke-linejoin="round" stroke-opacity="1" stroke-width="3.0"/>
    <path d="M 60.764095306396484 149.37448120117188 C 73.45341491699219 -1.027434229850769 44.00212478637695 45.93848419189453 108.56928253173828 47.56145477294922" fill="none" stroke="rgb(0, 0, 0)" stroke-linecap="round" stroke-linejoin="round" stroke-opacity="1" stroke-width="3.0"/>
    <path d="M 169.93505859375 186.541748046875 C 248.06690979003906 203.3314208984375 259.16943359375 199.46739196777344 252.4140167236328 184.14659118652344" fill="none" stroke="rgb(0, 0, 0)" stroke-linecap="round" stroke-linejoin="round" stroke-opacity="1" stroke-width="3.0"/>
    <path d="M 147.70599365234375 20.604248046875 C 131.11810302734375 -4.045186519622803 155.7286834716797 9.577947616577148 89.2193832397461 7.179415702819824" fill="none" stroke="rgb(0, 0, 0)" stroke-linecap="round" stroke-linejoin="round" stroke-opacity="1" stroke-width="3.0"/>
    <path d="M 182.21800231933594 163.8236541748047 C 58.15553665161133 179.01898193359375 55.530704498291016 152.90264892578125 172.76177978515625 175.2842559814453" fill="none" stroke="rgb(0, 0, 0)" stroke-linecap="round" stroke-linejoin="round" stroke-opacity="1" stroke-width="3.0"/>
    <path d="M 87.94014739990234 176.74122619628906 C 172.20240783691406 170.31687927246094 235.263671875 145.69996643066406 122.54806518554688 153.18016052246094" fill="none" stroke="rgb(0, 0, 0)" stroke-linecap="round" stroke-linejoin="round" stroke-opacity="1" stroke-width="3.0"/>
    <path d="M 73.40715789794922 47.520225524902344 C 111.969482421875 59.52570724487305 155.79788208007812 64.39073944091797 225.77932739257812 -1.8341879844665527" fill="none" stroke="rgb(0, 0, 0)" stroke-linecap="round" stroke-linejoin="round" stroke-opacity="1" stroke-width="3.0"/>
    <path d="M 57.251136779785156 31.409833908081055 C 82.13565063476562 10.773283958435059 140.86195373535156 17.866548538208008 53.47032165527344 3.6430742740631104" fill="none" stroke="rgb(0, 0, 0)" stroke-linecap="round" stroke-linejoin="round" stroke-opacity="1" stroke-width="3.0"/>
    <path d="M 31.782018661499023 74.45902252197266 C 42.88843536376953 95.43184661865234 38.750057220458984 45.81367492675781 32.01889419555664 144.6918182373047" fill="none" stroke="rgb(0, 0, 0)" stroke-linecap="round" stroke-linejoin="round" stroke-opacity="1" stroke-width="3.0"/>
    <path d="M 232.9754638671875 28.722280502319336 C 117.34677124023438 100.30720520019531 192.5623016357422 70.4198226928711 171.93612670898438 91.50048828125" fill="none" stroke="rgb(0, 0, 0)" stroke-linecap="round" stroke-linejoin="round" stroke-opacity="1" stroke-width="3.0"/>
    <path d="M 118.41204071044922 35.72490692138672 C 62.25251770019531 50.129722595214844 74.5095443725586 47.265106201171875 82.51953125 8.209028244018555" fill="none" stroke="rgb(0, 0, 0)" stroke-linecap="round" stroke-linejoin="round" stroke-opacity="1" stroke-width="3.0"/>
    <path d="M 157.41854858398438 7.8232526779174805 C 130.7003173828125 14.391498565673828 174.16384887695312 8.246825218200684 112.27086639404297 35.13405227661133" fill="none" stroke="rgb(0, 0, 0)" stroke-linecap="round" stroke-linejoin="round" stroke-opacity="1" stroke-width="3.0"/>
    <path d="M 64.72942352294922 37.83744430541992 C 93.45532989501953 47.563297271728516 41.220951080322266 37.82865905761719 14.656280517578125 -8.91629409790039" fill="none" stroke="rgb(0, 0, 0)" stroke-linecap="round" stroke-linejoin="round" stroke-opacity="1" stroke-width="3.0"/>
    <path d="M 246.9263153076172 151.28652954101562 C 269.5709533691406 167.8267822265625 281.1040344238281 179.43524169921875 202.39842224121094 174.46966552734375" fill="none" stroke="rgb(0, 0, 0)" stroke-linecap="round" stroke-linejoin="round" stroke-opacity="1" stroke-width="3.0"/>
    <path d="M 57.43879699707031 62.589717864990234 C 5.481260299682617 1.810215950012207 14.200244903564453 36.7282829284668 63.05087661743164 6.885340690612793" fill="none" stroke="rgb(0, 0, 0)" stroke-linecap="round" stroke-linejoin="round" stroke-opacity="1" stroke-width="3.0"/>
    <path d="M -9.512632369995117 14.444426536560059 C 27.935861587524414 62.20191955566406 72.61296844482422 79.87303161621094 49.04391098022461 78.3298568725586" fill="none" stroke="rgb(0, 0, 0)" stroke-linecap="round" stroke-linejoin="round" stroke-opacity="1" stroke-width="3.0"/>
    <path d="M 7.918997764587402 -2.601881980895996 C 50.23515319824219 46.697784423828125 83.0647201538086 48.34716796875 75.8278579711914 49.085269927978516" fill="none" stroke="rgb(0, 0, 0)" stroke-linecap="round" stroke-linejoin="round" stroke-opacity="1" stroke-width="3.0"/>
    <path d="M 52.44905471801758 82.02507019042969 C 61.94969177246094 26.704471588134766 73.19647979736328 79.01868438720703 4.262237071990967 -2.193270206451416" fill="none" stroke="rgb(0, 0, 0)" stroke-linecap="round" stroke-linejoin="round" stroke-opacity="1" stroke-width="3.0"/>
    <path d="M 153.01414489746094 163.37188720703125 C 230.22108459472656 149.54371643066406 135.06231689453125 188.25482177734375 140.74867248535156 161.54287719726562" fill="none" stroke="rgb(0, 0, 0)" stroke-linecap="round" stroke-linejoin="round" stroke-opacity="1" stroke-width="3.0"/>
    <path d="M 43.68505096435547 -2.102684736251831 C 82.22575378417969 21.879215240478516 40.16898727416992 -13.734912872314453 82.34754943847656 33.36164093017578" fill="none" stroke="rgb(0, 0, 0)" stroke-linecap="round" stroke-linejoin="round" stroke-opacity="1" stroke-width="3.0"/>
  </g>
</svg>
