<?xml version="1.0" ?>
<svg height="224" version="1.1" width="224" xmlns="http://www.w3.org/2000/svg">
  <defs/>
  <g>
    <path d="M 73.00173950195312 77.0364990234375 C 54.4067497253418 202.03665161132812 75.93551635742188 211.27178955078125 75.14838409423828 71.36028289794922" fill="none" stroke="rgb(0, 0, 0)" stroke-linecap="round" stroke-linejoin="round" stroke-opacity="1" stroke-width="3.0"/>
    <path d="M 195.34303283691406 109.08063507080078 C 194.65414428710938 36.33027648925781 194.5891571044922 43.43828582763672 208.4766845703125 174.1590118408203" fill="none" stroke="rgb(0, 0, 0)" stroke-linecap="round" stroke-linejoin="round" stroke-opacity="1" stroke-width="3.0"/>
    <path d="M 25.011226654052734 53.533931732177734 C 1.9493021965026855 23.81987190246582 -5.751105785369873 18.894371032714844 -12.439302444458008 -5.1266398429870605" fill="none" stroke="rgb(0, 0, 0)" stroke-linecap="round" stroke-linejoin="round" stroke-opacity="1" stroke-width="3.0"/>
    <path d="M 60.61034393310547 33.9384765625 C 84.3089828491211 48.81272506713867 110.9003677368164 43.89130401611328 75.30449676513672 38.67384338378906" fill="none" stroke="rgb(0, 0, 0)" stroke-linecap="round" stroke-linejoin="round" stroke-opacity="1" stroke-width="3.0"/>
    <path d="M 71.08572387695312 34.06863784790039 C 79.6071548461914 49.76914596557617 42.534339904785156 19.38423728942871 60.70969009399414 33.99552917480469" fill="none" stroke="rgb(0, 0, 0)" stroke-linecap="round" stroke-linejoin="round" stroke-opacity="1" stroke-width="3.0"/>
    <path d="M 194.6139678955078 213.75807189941406 C 183.0451202392578 214.33010864257812 179.23243713378906 214.5837860107422 201.21006774902344 214.37232971191406" fill="none" stroke="rgb(0, 0, 0)" stroke-linecap="round" stroke-linejoin="round" stroke-opacity="1" stroke-width="3.0"/>
    <path d="M 161.2429962158203 167.90206909179688 C 105.94593811035156 169.5729522705078 152.5939483642578 165.92514038085938 122.9663314819336 168.9522247314453" fill="none" stroke="rgb(0, 0, 0)" stroke-linecap="round" stroke-linejoin="round" stroke-opacity="1" stroke-width="3.0"/>
    <path d="M 1.5088779926300049 -0.17108820378780365 C 59.20631408691406 67.20836639404297 83.51748657226562 44.858428955078125 138.31683349609375 41.64873123168945" fill="none" stroke="rgb(0, 0, 0)" stroke-linecap="round" stroke-linejoin="round" stroke-opacity="1" stroke-width="3.0"/>
    <path d="M 75.14064025878906 -13.792726516723633 C 67.18769836425781 33.1431884765625 82.43425750732422 43.6732063293457 61.5792350769043 32.38954544067383" fill="none" stroke="rgb(0, 0, 0)" stroke-linecap="round" stroke-linejoin="round" stroke-opacity="1" stroke-width="3.0"/>
    <path d="M 123.62976837158203 171.3480682373047 C 131.9111785888672 173.2323760986328 168.36656188964844 170.34873962402344 189.84226989746094 170.5859832763672" fill="none" stroke="rgb(0, 0, 0)" stroke-linecap="round" stroke-linejoin="round" stroke-opacity="1" stroke-width="3.0"/>
    <path d="M 228.0777130126953 211.11634826660156 C 228.2462921142578 213.5681610107422 217.4844970703125 215.18519592285156 236.81617736816406 211.58258056640625" fill="none" stroke="rgb(0, 0, 0)" stroke-linecap="round" stroke-linejoin="round" stroke-opacity="1" stroke-width="3.0"/>
    <path d="M 225.02752685546875 1.178159236907959 C 164.25965881347656 67.50260925292969 181.46656799316406 54.702430725097656 130.7391357421875 56.17746353149414" fill="none" stroke="rgb(0, 0, 0)" stroke-linecap="round" stroke-linejoin="round" stroke-opacity="1" stroke-width="3.0"/>
    <path d="M 149.10231018066406 34.87550735473633 C 150.2081298828125 38.64383316040039 138.75357055664062 44.24429702758789 157.2163543701172 32.0644416809082" fill="none" stroke="rgb(0, 0, 0)" stroke-linecap="round" stroke-linejoin="round" stroke-opacity="1" stroke-width="3.0"/>
    <path d="M 119.50491333007812 166.75555419921875 C 137.8413543701172 164.13980102539062 163.9105224609375 172.9645233154297 63.27862548828125 170.91539001464844" fill="none" stroke="rgb(0, 0, 0)" stroke-linecap="round" stroke-linejoin="round" stroke-opacity="1" stroke-width="3.0"/>
    <path d="M 152.0552215576172 51.58400344848633 C 201.97340393066406 33.017730712890625 250.191162109375 -32.58247756958008 184.3892059326172 30.277681350708008" fill="none" stroke="rgb(0, 0, 0)" stroke-linecap="round" stroke-linejoin="round" stroke-opacity="1" stroke-width="3.0"/>
    <path d="M 68.97193145751953 33.43906784057617 C 72.5555419921875 -0.9751721620559692 76.12896728515625 -8.221904754638672 71.9092788696289 -13.964139938354492" fill="none" stroke="rgb(0, 0, 0)" stroke-linecap="round" stroke-linejoin="round" stroke-opacity="1" stroke-width="3.0"/>
    <path d="M 190.930908203125 213.32833862304688 C 117.50928497314453 215.8720245361328 116.27777099609375 213.3354034423828 98.38389587402344 230.911376953125" fill="none" stroke="rgb(0, 0, 0)" stroke-linecap="round" stroke-linejoin="round" stroke-opacity="1" stroke-width="3.0"/>
    <path d="M 18.93876838684082 142.58116149902344 C 24.285676956176758 127.06819915771484 8.35315227508545 206.6103515625 24.535581588745117 152.61402893066406" fill="none" stroke="rgb(0, 0, 0)" stroke-linecap="round" stroke-linejoin="round" stroke-opacity="1" stroke-width="3.0"/>
    <path d="M 12.686437606811523 75.03672790527344 C 11.012453079223633 92.094970703125 4.824614524841309 93.21886444091797 5.576272487640381 151.2014617919922" fill="none" stroke="rgb(0, 0, 0)" stroke-linecap="round" stroke-linejoin="round" stroke-opacity="1" stroke-width="3.0"/>
    <path d="M 140.19442749023438 -4.847039699554443 C 156.71788024902344 30.25678253173828 136.40423583984375 54.96366500854492 192.49960327148438 2.9592700004577637" fill="none" stroke="rgb(0, 0, 0)" stroke-linecap="round" stroke-linejoin="round" stroke-opacity="1" stroke-width="3.0"/>
    <path d="M 141.7003631591797 39.901885986328125 C 68.91952514648438 51.69118881225586 31.96762466430664 13.162559509277344 82.37100982666016 42.03561019897461" fill="none" stroke="rgb(0, 0, 0)" stroke-linecap="round" stroke-linejoin="round" stroke-opacity="1" stroke-width="3.0"/>
    <path d="M 151.65135192871094 31.151630401611328 C 150.9967803955078 28.630823135375977 181.6728515625 18.782440185546875 150.32217407226562 31.57062530517578" fill="none" stroke="rgb(0, 0, 0)" stroke-linecap="round" stroke-linejoin="round" stroke-opacity="1" stroke-width="3.0"/>
    <path d="M 243.863525390625 180.33184814453125 C 185.45790100097656 165.68661499023438 182.5525360107422 179.6088409423828 236.6802978515625 176.76174926757812" fill="none" stroke="rgb(0, 0, 0)" stroke-linecap="round" stroke-linejoin="round" stroke-opacity="1" stroke-width="3.0"/>
    <path d="M 151.1096649169922 34.67995071411133 C 125.94155883789062 55.57294464111328 94.24967193603516 38.684818267822266 131.5238037109375 44.123958587646484" fill="none" stroke="rgb(0, 0, 0)" stroke-linecap="round" stroke-linejoin="round" stroke-opacity="1" stroke-width="3.0"/>
    <path d="M 227.36370849609375 209.45614624023438 C 250.54464721679688 216.46905517578125 262.4556884765625 210.57135009765625 151.89703369140625 216.7737579345703" fill="none" stroke="rgb(0, 0, 0)" stroke-linecap="round" stroke-linejoin="round" stroke-opacity="1" stroke-width="3.0"/>
    <path d="M 67.46827697753906 37.06086730957031 C 54.357872009277344 36.31825637817383 43.059810638427734 20.24797248840332 62.961734771728516 34.701263427734375" fill="none" stroke="rgb(0, 0, 0)" stroke-linecap="round" stroke-linejoin="round" stroke-opacity="1" stroke-width="3.0"/>
    <path d="M 22.704883575439453 53.392189025878906 C 124.6999282836914 56.96321105957031 128.26771545410156 66.5608901977539 185.4513702392578 28.870342254638672" fill="none" stroke="rgb(0, 0, 0)" stroke-linecap="round" stroke-linejoin="round" stroke-opacity="1" stroke-width="3.0"/>
    <path d="M 138.8616180419922 166.34934997558594 C 119.56490325927734 161.73696899414062 126.57152557373047 208.62303161621094 128.97276306152344 81.08058166503906" fill="none" stroke="rgb(0, 0, 0)" stroke-linecap="round" stroke-linejoin="round" stroke-opacity="1" stroke-width="3.0"/>
    <path d="M 230.3016357421875 47.19922637939453 C 189.615234375 77.20623016357422 213.9664306640625 63.892024993896484 208.57139587402344 59.223121643066406" fill="none" stroke="rgb(0, 0, 0)" stroke-linecap="round" stroke-linejoin="round" stroke-opacity="1" stroke-width="3.0"/>
    <path d="M 142.2327880859375 56.434505462646484 C 230.57923889160156 22.520923614501953 163.37612915039062 62.53298568725586 116.30220031738281 57.34422302246094" fill="none" stroke="rgb(0, 0, 0)" stroke-linecap="round" stroke-linejoin="round" stroke-opacity="1" stroke-width="3.0"/>
    <path d="M 15.025381088256836 75.81291961669922 C -0.6088736653327942 161.28070068359375 -4.126781463623047 189.73159790039062 6.3498125076293945 118.4533920288086" fill="none" stroke="rgb(0, 0, 0)" stroke-linecap="round" stroke-linejoin="round" stroke-opacity="1" stroke-width="3.0"/>
    <path d="M -1.981726884841919 12.001279830932617 C 30.78569793701172 65.5158462524414 52.73753356933594 70.57659912109375 -0.09256661683320999 12.131804466247559" fill="none" stroke="rgb(0, 0, 0)" stroke-linecap="round" stroke-linejoin="round" stroke-opacity="1" stroke-width="3.0"/>
    <path d="M -20.7084903717041 172.6134033203125 C 77.26864624023438 163.9455108642578 18.667213439941406 174.68438720703125 30.091707229614258 164.28030395507812" fill="none" stroke="rgb(0, 0, 0)" stroke-linecap="round" stroke-linejoin="round" stroke-opacity="1" stroke-width="3.0"/>
    <path d="M 138.40261840820312 -16.169353485107422 C 143.29335021972656 14.833741188049316 153.87167358398438 36.90708541870117 144.46884155273438 36.52214050292969" fill="none" stroke="rgb(0, 0, 0)" stroke-linecap="round" stroke-linejoin="round" stroke-opacity="1" stroke-width="3.0"/>
    <path d="M 182.14625549316406 111.82726287841797 C 179.1687774658203 62.41004943847656 176.344482421875 70.69720458984375 185.18304443359375 172.2681427001953" fill="none" stroke="rgb(0, 0, 0)" stroke-linecap="round" stroke-linejoin="round" stroke-opacity="1" stroke-width="3.0"/>
    <path d="M 62.506805419921875 78.50957489013672 C 61.94496536254883 141.7081298828125 64.63059997558594 148.9370880126953 69.15048217773438 78.06216430664062" fill="none" stroke="rgb(0, 0, 0)" stroke-linecap="round" stroke-linejoin="round" stroke-opacity="1" stroke-width="3.0"/>
    <path d="M 160.8193359375 25.751813888549805 C 139.2915496826172 54.704193115234375 108.21197509765625 47.35095977783203 76.66152954101562 47.884437561035156" fill="none" stroke="rgb(0, 0, 0)" stroke-linecap="round" stroke-linejoin="round" stroke-opacity="1" stroke-width="3.0"/>
    <path d="M 69.96415710449219 34.33504104614258 C 80.5838623046875 41.840091705322266 43.28661346435547 36.25382995605469 16.954992294311523 -1.751948595046997" fill="none" stroke="rgb(0, 0, 0)" stroke-linecap="round" stroke-linejoin="round" stroke-opacity="1" stroke-width="3.0"/>
    <path d="M 152.81143188476562 31.77010726928711 C 171.89239501953125 20.382076263427734 123.47593688964844 43.887821197509766 144.83509826660156 37.90105056762695" fill="none" stroke="rgb(0, 0, 0)" stroke-linecap="round" stroke-linejoin="round" stroke-opacity="1" stroke-width="3.0"/>
    <path d="M 91.58660125732422 40.9680061340332 C 129.0247344970703 48.70064163208008 138.76654052734375 48.49991226196289 90.58773040771484 44.766990661621094" fill="none" stroke="rgb(0, 0, 0)" stroke-linecap="round" stroke-linejoin="round" stroke-opacity="1" stroke-width="3.0"/>
    <path d="M 62.00502014160156 32.8768424987793 C 81.13163757324219 35.68216323852539 69.61470794677734 34.41734313964844 70.18077087402344 28.8344783782959" fill="none" stroke="rgb(0, 0, 0)" stroke-linecap="round" stroke-linejoin="round" stroke-opacity="1" stroke-width="3.0"/>
    <path d="M -12.640177726745605 82.76085662841797 C 17.053857803344727 109.60525512695312 16.326608657836914 79.0060043334961 8.099775314331055 135.78076171875" fill="none" stroke="rgb(0, 0, 0)" stroke-linecap="round" stroke-linejoin="round" stroke-opacity="1" stroke-width="3.0"/>
    <path d="M 61.861045837402344 163.53977966308594 C 69.3346939086914 25.959068298339844 69.08560943603516 29.081811904907227 58.34391403198242 164.6279296875" fill="none" stroke="rgb(0, 0, 0)" stroke-linecap="round" stroke-linejoin="round" stroke-opacity="1" stroke-width="3.0"/>
  </g>
</svg>
