<?xml version="1.0" ?>
<svg height="224" version="1.1" width="224" xmlns="http://www.w3.org/2000/svg">
  <defs/>
  <g>
    <path d="M 117.68515014648438 101.97463989257812 C 146.2283935546875 76.2772445678711 127.73963165283203 9.920794486999512 136.31947326660156 161.6959228515625" fill="none" stroke="rgb(0, 0, 0)" stroke-linecap="round" stroke-linejoin="round" stroke-opacity="1" stroke-width="3.0"/>
    <path d="M 122.01058959960938 238.6446533203125 C 112.3907241821289 199.93202209472656 78.78496551513672 207.77471923828125 176.4244384765625 212.52040100097656" fill="none" stroke="rgb(0, 0, 0)" stroke-linecap="round" stroke-linejoin="round" stroke-opacity="1" stroke-width="3.0"/>
    <path d="M 165.8551025390625 124.09961700439453 C 101.74048614501953 173.61801147460938 114.65977478027344 210.96261596679688 109.00059509277344 88.0880355834961" fill="none" stroke="rgb(0, 0, 0)" stroke-linecap="round" stroke-linejoin="round" stroke-opacity="1" stroke-width="3.0"/>
    <path d="M 76.67443084716797 38.581825256347656 C 82.28966522216797 71.36932373046875 61.76202392578125 65.82526397705078 62.34817123413086 43.86185073852539" fill="none" stroke="rgb(0, 0, 0)" stroke-linecap="round" stroke-linejoin="round" stroke-opacity="1" stroke-width="3.0"/>
    <path d="M -5.979410171508789 138.15293884277344 C -27.016817092895508 150.82064819335938 -41.68003463745117 167.93057250976562 26.2082462310791 175.99952697753906" fill="none" stroke="rgb(0, 0, 0)" stroke-linecap="round" stroke-linejoin="round" stroke-opacity="1" stroke-width="3.0"/>
    <path d="M 123.26766204833984 68.15326690673828 C 130.2480010986328 43.974178314208984 102.52696228027344 61.65746307373047 183.87921142578125 69.77407836914062" fill="none" stroke="rgb(0, 0, 0)" stroke-linecap="round" stroke-linejoin="round" stroke-opacity="1" stroke-width="3.0"/>
    <path d="M 49.53203201293945 213.53912353515625 C 53.79442596435547 209.75181579589844 70.3984375 200.42762756347656 77.72122955322266 199.67623901367188" fill="none" stroke="rgb(0, 0, 0)" stroke-linecap="round" stroke-linejoin="round" stroke-opacity="1" stroke-width="3.0"/>
    <path d="M 111.4093017578125 -3.3565776348114014 C 113.7037582397461 76.08455657958984 115.37010955810547 59.259063720703125 84.7773208618164 55.11507034301758" fill="none" stroke="rgb(0, 0, 0)" stroke-linecap="round" stroke-linejoin="round" stroke-opacity="1" stroke-width="3.0"/>
    <path d="M 36.612640380859375 212.79541015625 C 24.968608856201172 200.066162109375 23.16742515563965 195.2562713623047 54.336280822753906 200.77464294433594" fill="none" stroke="rgb(0, 0, 0)" stroke-linecap="round" stroke-linejoin="round" stroke-opacity="1" stroke-width="3.0"/>
    <path d="M 175.4387969970703 177.34588623046875 C 202.26918029785156 97.13700866699219 188.88304138183594 96.9356918334961 204.73060607910156 12.997774124145508" fill="none" stroke="rgb(0, 0, 0)" stroke-linecap="round" stroke-linejoin="round" stroke-opacity="1" stroke-width="3.0"/>
    <path d="M 34.346702575683594 104.78912353515625 C 12.264087677001953 55.44229507446289 34.059776306152344 6.244166374206543 61.50438690185547 161.07177734375" fill="none" stroke="rgb(0, 0, 0)" stroke-linecap="round" stroke-linejoin="round" stroke-opacity="1" stroke-width="3.0"/>
    <path d="M 62.326820373535156 167.57850646972656 C 17.088712692260742 226.03163146972656 18.242212295532227 248.09259033203125 -5.120486259460449 251.85472106933594" fill="none" stroke="rgb(0, 0, 0)" stroke-linecap="round" stroke-linejoin="round" stroke-opacity="1" stroke-width="3.0"/>
    <path d="M 3.8828206062316895 -28.87109375 C 9.918947219848633 8.139383316040039 21.450292587280273 56.23139953613281 32.28083038330078 111.32573699951172" fill="none" stroke="rgb(0, 0, 0)" stroke-linecap="round" stroke-linejoin="round" stroke-opacity="1" stroke-width="3.0"/>
    <path d="M 200.57249450683594 261.61468505859375 C 208.19329833984375 230.2864227294922 222.5261993408203 166.09471130371094 227.69822692871094 161.94073486328125" fill="none" stroke="rgb(0, 0, 0)" stroke-linecap="round" stroke-linejoin="round" stroke-opacity="1" stroke-width="3.0"/>
    <path d="M 39.780548095703125 198.62709045410156 C 92.57986450195312 195.97142028808594 105.0785903930664 201.75100708007812 111.5561752319336 190.3702392578125" fill="none" stroke="rgb(0, 0, 0)" stroke-linecap="round" stroke-linejoin="round" stroke-opacity="1" stroke-width="3.0"/>
    <path d="M 162.64389038085938 206.83456420898438 C 203.69125366210938 188.22854614257812 163.73367309570312 259.9058532714844 182.31796264648438 70.3679428100586" fill="none" stroke="rgb(0, 0, 0)" stroke-linecap="round" stroke-linejoin="round" stroke-opacity="1" stroke-width="3.0"/>
    <path d="M 22.590627670288086 186.000244140625 C 5.853679656982422 193.12860107421875 24.240001678466797 208.35829162597656 -8.257144927978516 152.30255126953125" fill="none" stroke="rgb(0, 0, 0)" stroke-linecap="round" stroke-linejoin="round" stroke-opacity="1" stroke-width="3.0"/>
    <path d="M 146.4640350341797 33.16322326660156 C 148.6239776611328 -19.769737243652344 147.62374877929688 -1.251887321472168 105.1203842163086 -5.322631359100342" fill="none" stroke="rgb(0, 0, 0)" stroke-linecap="round" stroke-linejoin="round" stroke-opacity="1" stroke-width="3.0"/>
    <path d="M 28.72794532775879 154.92869567871094 C 33.85528564453125 100.17374420166016 -12.131217956542969 203.39730834960938 36.808197021484375 138.8040008544922" fill="none" stroke="rgb(0, 0, 0)" stroke-linecap="round" stroke-linejoin="round" stroke-opacity="1" stroke-width="3.0"/>
    <path d="M 161.27867126464844 33.87308883666992 C 159.46859741210938 36.97969436645508 170.83387756347656 -10.108783721923828 151.8066864013672 -3.230233669281006" fill="none" stroke="rgb(0, 0, 0)" stroke-linecap="round" stroke-linejoin="round" stroke-opacity="1" stroke-width="3.0"/>
    <path d="M 9.12236213684082 168.1710205078125 C -10.93910026550293 61.5550422668457 1.7192878723144531 61.295921325683594 -13.06187629699707 82.72349548339844" fill="none" stroke="rgb(0, 0, 0)" stroke-linecap="round" stroke-linejoin="round" stroke-opacity="1" stroke-width="3.0"/>
    <path d="M 191.123046875 62.04573059082031 C 93.4904556274414 57.95286560058594 126.34223937988281 22.995071411132812 115.84765625 65.8658218383789" fill="none" stroke="rgb(0, 0, 0)" stroke-linecap="round" stroke-linejoin="round" stroke-opacity="1" stroke-width="3.0"/>
    <path d="M 115.68659973144531 41.51033401489258 C 113.68690490722656 70.32389831542969 109.88999938964844 48.201995849609375 79.57196044921875 51.728878021240234" fill="none" stroke="rgb(0, 0, 0)" stroke-linecap="round" stroke-linejoin="round" stroke-opacity="1" stroke-width="3.0"/>
    <path d="M -12.067837715148926 211.48851013183594 C 19.593015670776367 160.1942901611328 89.81857299804688 143.44076538085938 17.894163131713867 149.7242889404297" fill="none" stroke="rgb(0, 0, 0)" stroke-linecap="round" stroke-linejoin="round" stroke-opacity="1" stroke-width="3.0"/>
    <path d="M 11.150423049926758 117.99786376953125 C -8.480271339416504 30.333288192749023 -0.4017985165119171 75.50221252441406 -10.70195484161377 70.23949432373047" fill="none" stroke="rgb(0, 0, 0)" stroke-linecap="round" stroke-linejoin="round" stroke-opacity="1" stroke-width="3.0"/>
    <path d="M 39.09956359863281 105.60955810546875 C 24.498859405517578 91.60028839111328 78.70368194580078 70.04534912109375 85.0529556274414 67.20842742919922" fill="none" stroke="rgb(0, 0, 0)" stroke-linecap="round" stroke-linejoin="round" stroke-opacity="1" stroke-width="3.0"/>
    <path d="M 214.781005859375 101.0205078125 C 260.7605285644531 122.63067626953125 269.8193359375 112.29277038574219 233.41310119628906 140.92428588867188" fill="none" stroke="rgb(0, 0, 0)" stroke-linecap="round" stroke-linejoin="round" stroke-opacity="1" stroke-width="3.0"/>
    <path d="M -9.019186973571777 134.75259399414062 C 55.22241973876953 107.5272216796875 66.56027221679688 108.43443298339844 -1.8157174587249756 168.59132385253906" fill="none" stroke="rgb(0, 0, 0)" stroke-linecap="round" stroke-linejoin="round" stroke-opacity="1" stroke-width="3.0"/>
    <path d="M 118.06871795654297 135.77706909179688 C 112.9267349243164 71.33918762207031 131.07498168945312 70.31710815429688 127.5794677734375 121.64804077148438" fill="none" stroke="rgb(0, 0, 0)" stroke-linecap="round" stroke-linejoin="round" stroke-opacity="1" stroke-width="3.0"/>
    <path d="M 12.161262512207031 144.2222900390625 C 56.625125885009766 110.7425537109375 53.2296028137207 131.83160400390625 9.510431289672852 178.5653076171875" fill="none" stroke="rgb(0, 0, 0)" stroke-linecap="round" stroke-linejoin="round" stroke-opacity="1" stroke-width="3.0"/>
    <path d="M 129.94749450683594 68.44055938720703 C 129.2586669921875 68.95710754394531 150.2436981201172 82.1407699584961 84.92644500732422 66.44923400878906" fill="none" stroke="rgb(0, 0, 0)" stroke-linecap="round" stroke-linejoin="round" stroke-opacity="1" stroke-width="3.0"/>
    <path d="M 130.44801330566406 76.8915786743164 C 121.07421875 107.6294174194336 142.2398681640625 71.49095153808594 110.22968292236328 87.15475463867188" fill="none" stroke="rgb(0, 0, 0)" stroke-linecap="round" stroke-linejoin="round" stroke-opacity="1" stroke-width="3.0"/>
    <path d="M 127.55535125732422 28.68977928161621 C 131.68609619140625 -40.59440994262695 104.8958511352539 -15.17930793762207 104.12449645996094 -4.099740982055664" fill="none" stroke="rgb(0, 0, 0)" stroke-linecap="round" stroke-linejoin="round" stroke-opacity="1" stroke-width="3.0"/>
    <path d="M 182.94512939453125 190.20835876464844 C 66.76248931884766 182.92425537109375 123.04470825195312 162.836181640625 134.66070556640625 175.92616271972656" fill="none" stroke="rgb(0, 0, 0)" stroke-linecap="round" stroke-linejoin="round" stroke-opacity="1" stroke-width="3.0"/>
    <path d="M 174.45339965820312 151.89822387695312 C 204.9520721435547 172.3541259765625 182.23956298828125 117.41363525390625 147.4641571044922 135.43165588378906" fill="none" stroke="rgb(0, 0, 0)" stroke-linecap="round" stroke-linejoin="round" stroke-opacity="1" stroke-width="3.0"/>
    <path d="M 191.40621948242188 -1.6265474557876587 C 185.3528594970703 46.01445388793945 177.1708984375 49.136497497558594 193.3222198486328 9.508199691772461" fill="none" stroke="rgb(0, 0, 0)" stroke-linecap="round" stroke-linejoin="round" stroke-opacity="1" stroke-width="3.0"/>
    <path d="M 101.8314437866211 48.5106086730957 C 104.98944854736328 9.529388427734375 94.92571258544922 -60.643524169921875 95.88739776611328 -33.008216857910156" fill="none" stroke="rgb(0, 0, 0)" stroke-linecap="round" stroke-linejoin="round" stroke-opacity="1" stroke-width="3.0"/>
    <path d="M 139.36753845214844 41.38960647583008 C 92.64656066894531 23.462316513061523 112.0629653930664 38.52618408203125 157.96728515625 53.520904541015625" fill="none" stroke="rgb(0, 0, 0)" stroke-linecap="round" stroke-linejoin="round" stroke-opacity="1" stroke-width="3.0"/>
    <path d="M 49.722694396972656 66.3572998046875 C 44.483497619628906 31.099910736083984 50.01313018798828 72.18771362304688 47.690887451171875 56.70810317993164" fill="none" stroke="rgb(0, 0, 0)" stroke-linecap="round" stroke-linejoin="round" stroke-opacity="1" stroke-width="3.0"/>
    <path d="M 38.648223876953125 66.43809509277344 C 38.88031768798828 83.2892074584961 41.80998992919922 77.55774688720703 46.952980041503906 147.95948791503906" fill="none" stroke="rgb(0, 0, 0)" stroke-linecap="round" stroke-linejoin="round" stroke-opacity="1" stroke-width="3.0"/>
    <path d="M 200.3999481201172 83.01212310791016 C 210.3414306640625 50.04421615600586 179.8419647216797 120.34066772460938 191.8875732421875 60.56983184814453" fill="none" stroke="rgb(0, 0, 0)" stroke-linecap="round" stroke-linejoin="round" stroke-opacity="1" stroke-width="3.0"/>
    <path d="M 85.569580078125 -20.060821533203125 C 80.47989654541016 -31.925256729125977 86.76974487304688 -16.710588455200195 91.99372863769531 45.555076599121094" fill="none" stroke="rgb(0, 0, 0)" stroke-linecap="round" stroke-linejoin="round" stroke-opacity="1" stroke-width="3.0"/>
    <path d="M 97.92008972167969 31.00621223449707 C 133.86216735839844 33.13720703125 121.71119689941406 46.87244415283203 216.33529663085938 52.61485290527344" fill="none" stroke="rgb(0, 0, 0)" stroke-linecap="round" stroke-linejoin="round" stroke-opacity="1" stroke-width="3.0"/>
    <path d="M 84.9435043334961 50.112152099609375 C 44.98878860473633 86.01049041748047 63.48170471191406 57.656471252441406 48.35646438598633 -12.637407302856445" fill="none" stroke="rgb(0, 0, 0)" stroke-linecap="round" stroke-linejoin="round" stroke-opacity="1" stroke-width="3.0"/>
    <path d="M 233.75479125976562 120.32876586914062 C 224.02822875976562 100.69921875 225.25851440429688 124.31263732910156 205.8159942626953 187.40579223632812" fill="none" stroke="rgb(0, 0, 0)" stroke-linecap="round" stroke-linejoin="round" stroke-opacity="1" stroke-width="3.0"/>
    <path d="M 28.79143714904785 9.020153999328613 C 50.09198760986328 105.68793487548828 26.267078399658203 79.17876434326172 81.55671691894531 51.28672409057617" fill="none" stroke="rgb(0, 0, 0)" stroke-linecap="round" stroke-linejoin="round" stroke-opacity="1" stroke-width="3.0"/>
    <path d="M -10.994976043701172 91.63523864746094 C 22.555932998657227 53.097904205322266 25.246400833129883 75.1850357055664 20.470375061035156 41.829463958740234" fill="none" stroke="rgb(0, 0, 0)" stroke-linecap="round" stroke-linejoin="round" stroke-opacity="1" stroke-width="3.0"/>
    <path d="M 19.305540084838867 65.45484924316406 C 58.454566955566406 27.18393325805664 47.50231170654297 69.72428131103516 43.214866638183594 -1.566988468170166" fill="none" stroke="rgb(0, 0, 0)" stroke-linecap="round" stroke-linejoin="round" stroke-opacity="1" stroke-width="3.0"/>
    <path d="M 21.414127349853516 2.833697557449341 C 37.30419921875 -2.664553165435791 35.7823600769043 63.28363037109375 32.29943084716797 7.4645676612854" fill="none" stroke="rgb(0, 0, 0)" stroke-linecap="round" stroke-linejoin="round" stroke-opacity="1" stroke-width="3.0"/>
    <path d="M 139.30335998535156 121.1876449584961 C 149.99417114257812 125.1345443725586 83.5422592163086 149.9392547607422 130.77435302734375 128.77761840820312" fill="none" stroke="rgb(0, 0, 0)" stroke-linecap="round" stroke-linejoin="round" stroke-opacity="1" stroke-width="3.0"/>
    <path d="M 71.88372802734375 -4.479200839996338 C 58.83987045288086 -23.084177017211914 65.67337036132812 -23.431556701660156 71.24304962158203 48.900970458984375" fill="none" stroke="rgb(0, 0, 0)" stroke-linecap="round" stroke-linejoin="round" stroke-opacity="1" stroke-width="3.0"/>
  </g>
</svg>
