<?xml version="1.0" ?>
<svg height="224" version="1.1" width="224" xmlns="http://www.w3.org/2000/svg">
  <defs/>
  <g>
    <path d="M 78.30401611328125 70.94840240478516 C 73.94884490966797 196.1291961669922 65.30458068847656 206.0509490966797 61.92807388305664 81.49105072021484" fill="none" stroke="rgb(0, 0, 0)" stroke-linecap="round" stroke-linejoin="round" stroke-opacity="1" stroke-width="3.0"/>
    <path d="M 189.42759704589844 107.90521240234375 C 190.1279296875 34.56866455078125 195.5456085205078 46.296539306640625 209.0700225830078 167.08755493164062" fill="none" stroke="rgb(0, 0, 0)" stroke-linecap="round" stroke-linejoin="round" stroke-opacity="1" stroke-width="2.999992847442627"/>
    <path d="M 24.42938804626465 55.01756286621094 C 1.738210916519165 28.024879455566406 -6.202567100524902 17.14150047302246 -14.757255554199219 -4.999113082885742" fill="none" stroke="rgb(0, 0, 0)" stroke-linecap="round" stroke-linejoin="round" stroke-opacity="1" stroke-width="3.0"/>
    <path d="M 86.5575942993164 -0.7912502884864807 C 87.37200164794922 -10.085050582885742 105.14833068847656 -14.202898025512695 107.26457977294922 -13.424128532409668" fill="none" stroke="rgb(0, 0, 0)" stroke-linecap="round" stroke-linejoin="round" stroke-opacity="1" stroke-width="2.4777629375457764"/>
    <path d="M 176.11935424804688 176.5526123046875 C 92.51040649414062 172.2713623046875 142.80987548828125 169.54371643066406 115.05877685546875 166.9781951904297" fill="none" stroke="rgb(0, 0, 0)" stroke-linecap="round" stroke-linejoin="round" stroke-opacity="1" stroke-width="3.0"/>
    <path d="M 2.072943925857544 5.2971038818359375 C 61.546531677246094 61.17286682128906 93.12989807128906 47.1795539855957 158.62356567382812 41.0394401550293" fill="none" stroke="rgb(0, 0, 0)" stroke-linecap="round" stroke-linejoin="round" stroke-opacity="1" stroke-width="2.999998092651367"/>
    <path d="M 73.47867584228516 -21.041601181030273 C 65.4384765625 39.27986526489258 80.2737045288086 40.69945526123047 64.45053100585938 31.584239959716797" fill="none" stroke="rgb(0, 0, 0)" stroke-linecap="round" stroke-linejoin="round" stroke-opacity="1" stroke-width="3.0"/>
    <path d="M 221.09056091308594 3.8041422367095947 C 159.3482666015625 67.52113342285156 189.31871032714844 55.958274841308594 119.48408508300781 50.71128463745117" fill="none" stroke="rgb(0, 0, 0)" stroke-linecap="round" stroke-linejoin="round" stroke-opacity="1" stroke-width="3.0"/>
    <path d="M 150.4333953857422 32.47283935546875 C 149.70187377929688 34.934593200683594 137.536376953125 41.5444221496582 147.6966552734375 29.6507625579834" fill="none" stroke="rgb(0, 0, 0)" stroke-linecap="round" stroke-linejoin="round" stroke-opacity="1" stroke-width="2.9788315296173096"/>
    <path d="M 116.92951202392578 166.61375427246094 C 138.64431762695312 162.92654418945312 168.11277770996094 175.43557739257812 52.2902717590332 166.32034301757812" fill="none" stroke="rgb(0, 0, 0)" stroke-linecap="round" stroke-linejoin="round" stroke-opacity="1" stroke-width="2.9999992847442627"/>
    <path d="M 155.6239013671875 47.47095489501953 C 195.8166961669922 29.24701499938965 242.99867248535156 -36.6289176940918 183.14320373535156 34.715694427490234" fill="none" stroke="rgb(0, 0, 0)" stroke-linecap="round" stroke-linejoin="round" stroke-opacity="1" stroke-width="2.965902805328369"/>
    <path d="M 74.24469757080078 34.89122772216797 C 73.72320556640625 14.285187721252441 83.46580505371094 -2.763889789581299 77.92965698242188 -14.080424308776855" fill="none" stroke="rgb(0, 0, 0)" stroke-linecap="round" stroke-linejoin="round" stroke-opacity="1" stroke-width="3.0"/>
    <path d="M 203.93960571289062 234.3477325439453 C 137.22239685058594 221.41326904296875 118.79309844970703 217.3211212158203 105.02055358886719 229.53005981445312" fill="none" stroke="rgb(0, 0, 0)" stroke-linecap="round" stroke-linejoin="round" stroke-opacity="1" stroke-width="3.0"/>
    <path d="M 19.976655960083008 144.32240295410156 C 25.712160110473633 129.79156494140625 13.238058090209961 201.2811737060547 18.271387100219727 151.9664306640625" fill="none" stroke="rgb(0, 0, 0)" stroke-linecap="round" stroke-linejoin="round" stroke-opacity="1" stroke-width="3.0"/>
    <path d="M 228.6452178955078 217.0245361328125 C 221.35926818847656 209.5789031982422 228.0794219970703 211.45205688476562 226.4562225341797 212.61383056640625" fill="none" stroke="rgb(0, 0, 0)" stroke-linecap="round" stroke-linejoin="round" stroke-opacity="1" stroke-width="2.9822514057159424"/>
    <path d="M 15.256192207336426 68.0230484008789 C 11.039403915405273 90.07195281982422 12.606033325195312 101.08329772949219 7.354105472564697 152.9564971923828" fill="none" stroke="rgb(0, 0, 0)" stroke-linecap="round" stroke-linejoin="round" stroke-opacity="1" stroke-width="2.9999890327453613"/>
    <path d="M 226.0797119140625 210.81356811523438 C 234.24647521972656 213.36534118652344 219.38038635253906 217.27490234375 226.98574829101562 218.5770263671875" fill="none" stroke="rgb(0, 0, 0)" stroke-linecap="round" stroke-linejoin="round" stroke-opacity="1" stroke-width="2.991490125656128"/>
    <path d="M 142.62376403808594 -9.112070083618164 C 152.83700561523438 27.599458694458008 136.05020141601562 50.31031036376953 189.44192504882812 6.228363990783691" fill="none" stroke="rgb(0, 0, 0)" stroke-linecap="round" stroke-linejoin="round" stroke-opacity="1" stroke-width="3.0"/>
    <path d="M 130.99095153808594 49.30922317504883 C 64.8975601196289 69.61375427246094 18.16010093688965 37.399269104003906 70.20073699951172 54.921669006347656" fill="none" stroke="rgb(0, 0, 0)" stroke-linecap="round" stroke-linejoin="round" stroke-opacity="1" stroke-width="2.9749341011047363"/>
    <path d="M 253.93533325195312 177.2802276611328 C 188.1986083984375 171.9791259765625 187.26954650878906 174.65663146972656 243.23660278320312 178.86767578125" fill="none" stroke="rgb(0, 0, 0)" stroke-linecap="round" stroke-linejoin="round" stroke-opacity="1" stroke-width="3.0"/>
    <path d="M 166.4982452392578 52.22993850708008 C 127.47608947753906 63.11250305175781 99.07655334472656 63.48235321044922 143.29270935058594 42.67182159423828" fill="none" stroke="rgb(0, 0, 0)" stroke-linecap="round" stroke-linejoin="round" stroke-opacity="1" stroke-width="2.999213457107544"/>
    <path d="M 92.68685913085938 37.731964111328125 C 61.7120361328125 35.4539680480957 55.359764099121094 11.157024383544922 70.23531341552734 35.46110153198242" fill="none" stroke="rgb(0, 0, 0)" stroke-linecap="round" stroke-linejoin="round" stroke-opacity="1" stroke-width="2.999784469604492"/>
    <path d="M 24.39402198791504 59.827510833740234 C 131.91986083984375 52.692142486572266 131.17430114746094 69.84344482421875 185.4832000732422 36.49370574951172" fill="none" stroke="rgb(0, 0, 0)" stroke-linecap="round" stroke-linejoin="round" stroke-opacity="1" stroke-width="3.0"/>
    <path d="M 137.88787841796875 170.3200225830078 C 125.6734848022461 158.740478515625 126.2527084350586 200.85562133789062 131.21444702148438 83.19239807128906" fill="none" stroke="rgb(0, 0, 0)" stroke-linecap="round" stroke-linejoin="round" stroke-opacity="1" stroke-width="3.0"/>
    <path d="M 229.90167236328125 49.06817626953125 C 187.326416015625 79.26045989990234 213.51637268066406 60.140987396240234 193.46212768554688 73.50769805908203" fill="none" stroke="rgb(0, 0, 0)" stroke-linecap="round" stroke-linejoin="round" stroke-opacity="1" stroke-width="2.9999122619628906"/>
    <path d="M 141.42547607421875 49.39234924316406 C 215.63905334472656 9.775205612182617 160.794189453125 61.664588928222656 104.34514617919922 57.93198776245117" fill="none" stroke="rgb(0, 0, 0)" stroke-linecap="round" stroke-linejoin="round" stroke-opacity="1" stroke-width="2.934354305267334"/>
    <path d="M 15.668509483337402 79.53081512451172 C 1.6117236614227295 164.49888610839844 -1.8187044858932495 194.49627685546875 15.288838386535645 77.96435546875" fill="none" stroke="rgb(0, 0, 0)" stroke-linecap="round" stroke-linejoin="round" stroke-opacity="1" stroke-width="2.9968347549438477"/>
    <path d="M -2.9781241416931152 10.038840293884277 C 34.85315704345703 57.09980010986328 46.399471282958984 66.72241973876953 -3.8073525428771973 17.61812400817871" fill="none" stroke="rgb(0, 0, 0)" stroke-linecap="round" stroke-linejoin="round" stroke-opacity="1" stroke-width="2.997042417526245"/>
    <path d="M -26.368030548095703 163.5961456298828 C 75.06433868408203 159.8734130859375 19.866443634033203 166.97265625 27.61244010925293 161.97047424316406" fill="none" stroke="rgb(0, 0, 0)" stroke-linecap="round" stroke-linejoin="round" stroke-opacity="1" stroke-width="3.0"/>
    <path d="M 134.39468383789062 -12.692906379699707 C 148.8582305908203 22.458768844604492 158.81935119628906 41.260498046875 115.26560974121094 45.36885070800781" fill="none" stroke="rgb(0, 0, 0)" stroke-linecap="round" stroke-linejoin="round" stroke-opacity="1" stroke-width="2.9733197689056396"/>
    <path d="M 180.419189453125 117.86865234375 C 178.6013946533203 64.41703033447266 179.9432830810547 75.31825256347656 182.2449188232422 170.29888916015625" fill="none" stroke="rgb(0, 0, 0)" stroke-linecap="round" stroke-linejoin="round" stroke-opacity="1" stroke-width="3.0"/>
    <path d="M 73.61605072021484 36.74203872680664 C 85.07536315917969 43.88420104980469 44.02491760253906 36.39875793457031 13.037918090820312 -2.2889533042907715" fill="none" stroke="rgb(0, 0, 0)" stroke-linecap="round" stroke-linejoin="round" stroke-opacity="1" stroke-width="3.0"/>
    <path d="M 147.560302734375 31.850391387939453 C 167.63931274414062 19.831708908081055 130.93026733398438 48.953556060791016 125.7913589477539 34.07612228393555" fill="none" stroke="rgb(0, 0, 0)" stroke-linecap="round" stroke-linejoin="round" stroke-opacity="1" stroke-width="3.0"/>
    <path d="M 71.97541809082031 37.32050323486328 C 122.6566162109375 52.58811569213867 141.8758087158203 51.69150924682617 76.26908111572266 45.51445388793945" fill="none" stroke="rgb(0, 0, 0)" stroke-linecap="round" stroke-linejoin="round" stroke-opacity="1" stroke-width="2.999986410140991"/>
    <path d="M 69.71289825439453 30.411121368408203 C 71.80117797851562 38.844444274902344 67.19384002685547 33.80724334716797 69.10302734375 25.03191566467285" fill="none" stroke="rgb(0, 0, 0)" stroke-linecap="round" stroke-linejoin="round" stroke-opacity="1" stroke-width="3.0"/>
    <path d="M -14.352635383605957 82.9166030883789 C 12.912667274475098 105.47640228271484 -0.026197047904133797 72.14655303955078 -5.282596588134766 137.81886291503906" fill="none" stroke="rgb(0, 0, 0)" stroke-linecap="round" stroke-linejoin="round" stroke-opacity="1" stroke-width="3.0"/>
    <path d="M 66.68861389160156 162.3552703857422 C 64.98446655273438 27.81276512145996 94.0871810913086 46.62556076049805 69.5250015258789 166.84893798828125" fill="none" stroke="rgb(0, 0, 0)" stroke-linecap="round" stroke-linejoin="round" stroke-opacity="1" stroke-width="3.0"/>
  </g>
</svg>
