<?xml version="1.0" ?>
<svg height="224" version="1.1" width="224" xmlns="http://www.w3.org/2000/svg">
  <defs/>
  <g>
    <path d="M 166.44827270507812 82.50865936279297 C 173.8589324951172 248.67877197265625 161.72158813476562 188.98622131347656 159.95924377441406 92.3923568725586" fill="none" stroke="rgb(0, 0, 0)" stroke-linecap="round" stroke-linejoin="round" stroke-opacity="1" stroke-width="3.0"/>
    <path d="M 86.11651611328125 174.85931396484375 C 232.50424194335938 155.4999542236328 225.00152587890625 181.99159240722656 97.5876235961914 175.26145935058594" fill="none" stroke="rgb(0, 0, 0)" stroke-linecap="round" stroke-linejoin="round" stroke-opacity="1" stroke-width="2.9993746280670166"/>
    <path d="M 120.95987701416016 142.84652709960938 C 119.78907775878906 214.35708618164062 125.63525390625 3.667645215988159 121.20954132080078 169.24378967285156" fill="none" stroke="rgb(0, 0, 0)" stroke-linecap="round" stroke-linejoin="round" stroke-opacity="1" stroke-width="2.9972920417785645"/>
    <path d="M -7.474928855895996 82.46309661865234 C 14.114891052246094 125.82444763183594 7.713370323181152 61.99090576171875 1.6554934978485107 160.4759979248047" fill="none" stroke="rgb(0, 0, 0)" stroke-linecap="round" stroke-linejoin="round" stroke-opacity="1" stroke-width="2.8783981800079346"/>
    <path d="M 51.99008560180664 148.3589324951172 C 65.76441955566406 -5.697507858276367 8.573943138122559 71.63327026367188 170.3665008544922 63.42704391479492" fill="none" stroke="rgb(0, 0, 0)" stroke-linecap="round" stroke-linejoin="round" stroke-opacity="1" stroke-width="2.9999985694885254"/>
    <path d="M 81.71055603027344 81.91059112548828 C 105.41251373291016 84.51445770263672 177.55361938476562 89.09122467041016 159.96994018554688 89.56561279296875" fill="none" stroke="rgb(0, 0, 0)" stroke-linecap="round" stroke-linejoin="round" stroke-opacity="1" stroke-width="3.0"/>
    <path d="M 83.89019775390625 181.19415283203125 C 79.6328353881836 176.2639617919922 91.73267364501953 237.36163330078125 55.73677062988281 245.6370086669922" fill="none" stroke="rgb(0, 0, 0)" stroke-linecap="round" stroke-linejoin="round" stroke-opacity="1" stroke-width="3.0"/>
    <path d="M 148.2852020263672 -10.791813850402832 C 151.69671630859375 -5.286188125610352 88.27388000488281 22.017234802246094 80.60182189941406 30.50950050354004" fill="none" stroke="rgb(0, 0, 0)" stroke-linecap="round" stroke-linejoin="round" stroke-opacity="1" stroke-width="2.8876872062683105"/>
    <path d="M -2.130950927734375 202.81729125976562 C 100.8611068725586 197.28611755371094 0.6608873009681702 197.80706787109375 81.54549407958984 196.0824737548828" fill="none" stroke="rgb(0, 0, 0)" stroke-linecap="round" stroke-linejoin="round" stroke-opacity="1" stroke-width="3.0"/>
    <path d="M 180.92762756347656 183.46173095703125 C 179.13002014160156 80.00651550292969 155.94570922851562 131.5991973876953 239.85711669921875 89.31230163574219" fill="none" stroke="rgb(0, 0, 0)" stroke-linecap="round" stroke-linejoin="round" stroke-opacity="1" stroke-width="3.0"/>
    <path d="M 23.94452476501465 145.6003875732422 C 29.35316276550293 45.10261154174805 44.53380584716797 42.43149948120117 28.3400821685791 133.84413146972656" fill="none" stroke="rgb(0, 0, 0)" stroke-linecap="round" stroke-linejoin="round" stroke-opacity="1" stroke-width="2.9998393058776855"/>
    <path d="M -6.909145355224609 211.7561798095703 C 64.48683166503906 209.74635314941406 131.1152801513672 194.9670867919922 41.93733596801758 225.75238037109375" fill="none" stroke="rgb(0, 0, 0)" stroke-linecap="round" stroke-linejoin="round" stroke-opacity="1" stroke-width="3.0"/>
    <path d="M -26.086589813232422 13.446854591369629 C -35.163124084472656 62.4537467956543 15.470559120178223 39.85810470581055 29.490015029907227 82.12609100341797" fill="none" stroke="rgb(0, 0, 0)" stroke-linecap="round" stroke-linejoin="round" stroke-opacity="1" stroke-width="3.0"/>
    <path d="M 190.07363891601562 135.73135375976562 C 193.72898864746094 204.97964477539062 159.17660522460938 168.84347534179688 237.46302795410156 190.33651733398438" fill="none" stroke="rgb(0, 0, 0)" stroke-linecap="round" stroke-linejoin="round" stroke-opacity="1" stroke-width="2.999983787536621"/>
    <path d="M -12.90622615814209 215.1982421875 C -22.717098236083984 187.69583129882812 -103.85504913330078 132.2096710205078 13.698516845703125 140.31039428710938" fill="none" stroke="rgb(0, 0, 0)" stroke-linecap="round" stroke-linejoin="round" stroke-opacity="1" stroke-width="3.0"/>
    <path d="M -2.1621108055114746 216.07382202148438 C 102.92584991455078 191.69546508789062 77.23821258544922 210.41278076171875 81.56665802001953 183.4663543701172" fill="none" stroke="rgb(0, 0, 0)" stroke-linecap="round" stroke-linejoin="round" stroke-opacity="1" stroke-width="2.999999523162842"/>
    <path d="M 35.5084114074707 209.17666625976562 C -16.76660919189453 216.20399475097656 -18.655710220336914 204.42481994628906 -5.290144920349121 233.75509643554688" fill="none" stroke="rgb(0, 0, 0)" stroke-linecap="round" stroke-linejoin="round" stroke-opacity="1" stroke-width="3.0"/>
    <path d="M 130.8275909423828 215.33216857910156 C 246.91140747070312 213.46726989746094 180.82054138183594 210.9346160888672 225.0509796142578 217.91712951660156" fill="none" stroke="rgb(0, 0, 0)" stroke-linecap="round" stroke-linejoin="round" stroke-opacity="1" stroke-width="2.9999990463256836"/>
    <path d="M 67.41083526611328 201.56663513183594 C -47.1627197265625 191.7769317626953 -29.86739730834961 191.30262756347656 -16.41640281677246 196.17169189453125" fill="none" stroke="rgb(0, 0, 0)" stroke-linecap="round" stroke-linejoin="round" stroke-opacity="1" stroke-width="2.997936487197876"/>
    <path d="M 12.554874420166016 184.46621704101562 C -38.534263610839844 189.1553192138672 -13.72418212890625 167.95176696777344 -13.151196479797363 137.48060607910156" fill="none" stroke="rgb(0, 0, 0)" stroke-linecap="round" stroke-linejoin="round" stroke-opacity="1" stroke-width="3.0"/>
    <path d="M 108.87018585205078 44.64222717285156 C 142.302978515625 44.97642135620117 175.632568359375 34.550926208496094 214.8731231689453 -11.605937957763672" fill="none" stroke="rgb(0, 0, 0)" stroke-linecap="round" stroke-linejoin="round" stroke-opacity="1" stroke-width="3.0"/>
    <path d="M 13.720571517944336 246.6768798828125 C -42.76675033569336 204.5894317626953 -15.183693885803223 205.714111328125 34.34135818481445 196.0970001220703" fill="none" stroke="rgb(0, 0, 0)" stroke-linecap="round" stroke-linejoin="round" stroke-opacity="1" stroke-width="2.999997615814209"/>
    <path d="M 52.82594680786133 53.281620025634766 C 55.43598937988281 55.52685546875 15.770591735839844 27.067106246948242 -5.6658525466918945 1.208512306213379" fill="none" stroke="rgb(0, 0, 0)" stroke-linecap="round" stroke-linejoin="round" stroke-opacity="1" stroke-width="3.0"/>
    <path d="M 172.74993896484375 79.32164764404297 C 164.3992919921875 87.73746490478516 164.0977020263672 78.9498291015625 223.70143127441406 49.63774871826172" fill="none" stroke="rgb(0, 0, 0)" stroke-linecap="round" stroke-linejoin="round" stroke-opacity="1" stroke-width="2.996992826461792"/>
    <path d="M 137.88499450683594 33.39038848876953 C 118.86145782470703 -8.292360305786133 34.6457633972168 -0.35876747965812683 42.19847869873047 -1.2535204887390137" fill="none" stroke="rgb(0, 0, 0)" stroke-linecap="round" stroke-linejoin="round" stroke-opacity="1" stroke-width="3.0"/>
    <path d="M -13.083995819091797 47.74018859863281 C 39.65949630737305 67.60314178466797 47.74497985839844 89.90850067138672 15.045280456542969 61.166385650634766" fill="none" stroke="rgb(0, 0, 0)" stroke-linecap="round" stroke-linejoin="round" stroke-opacity="1" stroke-width="3.0"/>
    <path d="M 76.72891235351562 170.99610900878906 C 80.7791748046875 46.141090393066406 84.7588882446289 59.69671630859375 80.02072143554688 66.26050567626953" fill="none" stroke="rgb(0, 0, 0)" stroke-linecap="round" stroke-linejoin="round" stroke-opacity="1" stroke-width="3.0"/>
    <path d="M 209.51504516601562 103.38445281982422 C 219.82928466796875 200.7417755126953 204.6410369873047 190.9805145263672 241.3597412109375 174.24107360839844" fill="none" stroke="rgb(0, 0, 0)" stroke-linecap="round" stroke-linejoin="round" stroke-opacity="1" stroke-width="2.9999947547912598"/>
    <path d="M 31.351783752441406 134.69908142089844 C 36.864078521728516 50.293399810791016 30.876312255859375 31.672643661499023 22.417268753051758 150.78009033203125" fill="none" stroke="rgb(0, 0, 0)" stroke-linecap="round" stroke-linejoin="round" stroke-opacity="1" stroke-width="3.0"/>
    <path d="M 81.47552490234375 215.53321838378906 C -22.141803741455078 206.9888153076172 -23.954723358154297 203.92347717285156 -14.991374969482422 223.29098510742188" fill="none" stroke="rgb(0, 0, 0)" stroke-linecap="round" stroke-linejoin="round" stroke-opacity="1" stroke-width="2.9993951320648193"/>
    <path d="M 77.82344818115234 153.46853637695312 C -66.16143035888672 152.07945251464844 10.813949584960938 146.96949768066406 -25.363317489624023 164.3501434326172" fill="none" stroke="rgb(0, 0, 0)" stroke-linecap="round" stroke-linejoin="round" stroke-opacity="1" stroke-width="2.9999992847442627"/>
    <path d="M 155.3035430908203 7.649282932281494 C 51.27492141723633 -10.091983795166016 119.25019073486328 22.758615493774414 114.51402282714844 44.90049362182617" fill="none" stroke="rgb(0, 0, 0)" stroke-linecap="round" stroke-linejoin="round" stroke-opacity="1" stroke-width="3.0"/>
    <path d="M 68.79438018798828 151.08224487304688 C 79.7862548828125 -0.2336520403623581 49.92121505737305 48.32193374633789 107.06049346923828 43.35649490356445" fill="none" stroke="rgb(0, 0, 0)" stroke-linecap="round" stroke-linejoin="round" stroke-opacity="1" stroke-width="2.999277114868164"/>
    <path d="M 161.66600036621094 184.02809143066406 C 244.74899291992188 207.73793029785156 253.4867706298828 204.8060302734375 246.48495483398438 187.2025604248047" fill="none" stroke="rgb(0, 0, 0)" stroke-linecap="round" stroke-linejoin="round" stroke-opacity="1" stroke-width="2.999941349029541"/>
    <path d="M 154.8670654296875 25.39620590209961 C 137.29888916015625 5.833652496337891 166.25294494628906 20.590423583984375 86.48938751220703 5.408005714416504" fill="none" stroke="rgb(0, 0, 0)" stroke-linecap="round" stroke-linejoin="round" stroke-opacity="1" stroke-width="3.0"/>
    <path d="M 84.1651840209961 172.31678771972656 C 171.0543212890625 171.53390502929688 234.05947875976562 151.79637145996094 130.37217712402344 148.6092071533203" fill="none" stroke="rgb(0, 0, 0)" stroke-linecap="round" stroke-linejoin="round" stroke-opacity="1" stroke-width="2.999537229537964"/>
    <path d="M 72.45310974121094 46.19357681274414 C 114.58501434326172 55.03761672973633 154.90817260742188 63.28678512573242 218.59625244140625 -7.06496000289917" fill="none" stroke="rgb(0, 0, 0)" stroke-linecap="round" stroke-linejoin="round" stroke-opacity="1" stroke-width="3.0"/>
    <path d="M 51.937110900878906 33.61500549316406 C 85.84447479248047 3.007200002670288 132.43630981445312 10.411886215209961 45.34184265136719 -3.739722728729248" fill="none" stroke="rgb(0, 0, 0)" stroke-linecap="round" stroke-linejoin="round" stroke-opacity="1" stroke-width="2.99995493888855"/>
    <path d="M 30.278778076171875 75.38645935058594 C 42.937896728515625 84.38317108154297 42.20967483520508 39.019432067871094 35.78073501586914 148.00634765625" fill="none" stroke="rgb(0, 0, 0)" stroke-linecap="round" stroke-linejoin="round" stroke-opacity="1" stroke-width="3.0"/>
    <path d="M 228.52536010742188 28.28053855895996 C 116.67213439941406 102.70387268066406 184.00596618652344 62.56114959716797 174.798828125 86.73851013183594" fill="none" stroke="rgb(0, 0, 0)" stroke-linecap="round" stroke-linejoin="round" stroke-opacity="1" stroke-width="2.9999256134033203"/>
    <path d="M 126.92546844482422 36.248233795166016 C 59.96867370605469 51.53040313720703 76.81285095214844 45.42179870605469 88.17822265625 5.951982021331787" fill="none" stroke="rgb(0, 0, 0)" stroke-linecap="round" stroke-linejoin="round" stroke-opacity="1" stroke-width="2.37707257270813"/>
    <path d="M 163.21986389160156 -1.1497056484222412 C 133.43605041503906 19.38058853149414 167.98390197753906 3.969573736190796 103.9450454711914 46.52211380004883" fill="none" stroke="rgb(0, 0, 0)" stroke-linecap="round" stroke-linejoin="round" stroke-opacity="1" stroke-width="3.0"/>
    <path d="M 255.607177734375 151.7669219970703 C 279.49468994140625 167.80697631835938 288.2048645019531 179.3173065185547 200.9488983154297 176.90628051757812" fill="none" stroke="rgb(0, 0, 0)" stroke-linecap="round" stroke-linejoin="round" stroke-opacity="1" stroke-width="3.0"/>
    <path d="M 55.706478118896484 61.6475944519043 C 1.2286731004714966 5.004753112792969 12.46595573425293 39.597496032714844 63.74563980102539 -1.354371190071106" fill="none" stroke="rgb(0, 0, 0)" stroke-linecap="round" stroke-linejoin="round" stroke-opacity="1" stroke-width="3.0"/>
    <path d="M -9.466670036315918 10.593522071838379 C 29.517719268798828 56.938087463378906 69.3787841796875 71.42687225341797 47.519046783447266 72.32179260253906" fill="none" stroke="rgb(0, 0, 0)" stroke-linecap="round" stroke-linejoin="round" stroke-opacity="1" stroke-width="3.0"/>
    <path d="M 1.366701364517212 -1.8818762302398682 C 47.216304779052734 47.3895378112793 82.01421356201172 46.80758285522461 85.18692779541016 50.11483383178711" fill="none" stroke="rgb(0, 0, 0)" stroke-linecap="round" stroke-linejoin="round" stroke-opacity="1" stroke-width="3.0"/>
    <path d="M 54.084312438964844 88.20881652832031 C 60.95524215698242 20.996868133544922 72.45802307128906 77.09020233154297 -7.620269298553467 -0.9191014766693115" fill="none" stroke="rgb(0, 0, 0)" stroke-linecap="round" stroke-linejoin="round" stroke-opacity="1" stroke-width="3.0"/>
    <path d="M 155.73635864257812 163.1693115234375 C 225.4544677734375 145.79415893554688 130.94764709472656 192.63121032714844 137.9313201904297 158.88905334472656" fill="none" stroke="rgb(0, 0, 0)" stroke-linecap="round" stroke-linejoin="round" stroke-opacity="1" stroke-width="3.0"/>
    <path d="M 44.23516082763672 -3.1089093685150146 C 81.14642333984375 24.9909725189209 36.27306365966797 -9.365734100341797 82.83287048339844 33.498687744140625" fill="none" stroke="rgb(0, 0, 0)" stroke-linecap="round" stroke-linejoin="round" stroke-opacity="1" stroke-width="2.9999992847442627"/>
  </g>
</svg>
