<?xml version="1.0" ?>
<svg height="224" version="1.1" width="224" xmlns="http://www.w3.org/2000/svg">
  <defs/>
  <g>
    <path d="M 124.18268585205078 97.45531463623047 C 153.6337127685547 81.45915222167969 143.38987731933594 10.781036376953125 142.1236114501953 164.3175506591797" fill="none" stroke="rgb(0, 0, 0)" stroke-linecap="round" stroke-linejoin="round" stroke-opacity="1" stroke-width="3.0"/>
    <path d="M 111.17174530029297 239.89125061035156 C 106.12488555908203 196.70301818847656 75.91133117675781 199.55419921875 176.3403778076172 205.85971069335938" fill="none" stroke="rgb(0, 0, 0)" stroke-linecap="round" stroke-linejoin="round" stroke-opacity="1" stroke-width="2.9577016830444336"/>
    <path d="M 167.84164428710938 138.68719482421875 C 96.0495376586914 157.7042236328125 119.11943054199219 202.5016632080078 115.51547241210938 88.36344909667969" fill="none" stroke="rgb(0, 0, 0)" stroke-linecap="round" stroke-linejoin="round" stroke-opacity="1" stroke-width="3.0"/>
    <path d="M 71.70733642578125 30.353282928466797 C 77.22142028808594 79.71176147460938 54.98965835571289 81.12699890136719 58.69374084472656 49.733726501464844" fill="none" stroke="rgb(0, 0, 0)" stroke-linecap="round" stroke-linejoin="round" stroke-opacity="1" stroke-width="2.9999818801879883"/>
    <path d="M -5.789061546325684 130.9858856201172 C -21.189350128173828 148.6759796142578 -37.65024185180664 161.15625 25.0103759765625 172.35281372070312" fill="none" stroke="rgb(0, 0, 0)" stroke-linecap="round" stroke-linejoin="round" stroke-opacity="1" stroke-width="3.0"/>
    <path d="M 130.666748046875 70.0087661743164 C 136.46270751953125 45.18449783325195 112.66888427734375 66.04532623291016 197.1265411376953 64.26071166992188" fill="none" stroke="rgb(0, 0, 0)" stroke-linecap="round" stroke-linejoin="round" stroke-opacity="1" stroke-width="3.0"/>
    <path d="M 114.86980438232422 -1.264466404914856 C 117.22635650634766 99.34540557861328 120.52921295166016 50.12746047973633 78.3044662475586 51.31809616088867" fill="none" stroke="rgb(0, 0, 0)" stroke-linecap="round" stroke-linejoin="round" stroke-opacity="1" stroke-width="3.0"/>
    <path d="M 33.539031982421875 215.80442810058594 C 27.40359878540039 207.5874786376953 20.035015106201172 211.96597290039062 57.3901252746582 205.92852783203125" fill="none" stroke="rgb(0, 0, 0)" stroke-linecap="round" stroke-linejoin="round" stroke-opacity="1" stroke-width="2.9999992847442627"/>
    <path d="M 193.57142639160156 182.79196166992188 C 194.78892517089844 103.75241088867188 201.06362915039062 111.8016128540039 212.53201293945312 14.071986198425293" fill="none" stroke="rgb(0, 0, 0)" stroke-linecap="round" stroke-linejoin="round" stroke-opacity="1" stroke-width="3.0"/>
    <path d="M 46.898216247558594 104.12284851074219 C 31.629770278930664 48.578731536865234 33.12257766723633 6.8231282234191895 56.64777755737305 165.1978759765625" fill="none" stroke="rgb(0, 0, 0)" stroke-linecap="round" stroke-linejoin="round" stroke-opacity="1" stroke-width="2.9999942779541016"/>
    <path d="M 69.60418701171875 168.28570556640625 C 19.571203231811523 227.76625061035156 20.305166244506836 249.91505432128906 -7.154056549072266 246.4822540283203" fill="none" stroke="rgb(0, 0, 0)" stroke-linecap="round" stroke-linejoin="round" stroke-opacity="1" stroke-width="3.0"/>
    <path d="M -5.819130897521973 -22.725595474243164 C 2.1141774654388428 12.248759269714355 14.139994621276855 59.8856086730957 21.812089920043945 108.94914245605469" fill="none" stroke="rgb(0, 0, 0)" stroke-linecap="round" stroke-linejoin="round" stroke-opacity="1" stroke-width="3.0"/>
    <path d="M 191.96607971191406 257.90185546875 C 203.21031188964844 228.21153259277344 222.446044921875 171.13998413085938 227.37469482421875 172.5697021484375" fill="none" stroke="rgb(0, 0, 0)" stroke-linecap="round" stroke-linejoin="round" stroke-opacity="1" stroke-width="2.9990034103393555"/>
    <path d="M 5.1222639083862305 229.03701782226562 C 6.516267776489258 221.9276123046875 -9.179949760437012 254.2477569580078 -0.1211853101849556 186.39828491210938" fill="none" stroke="rgb(0, 0, 0)" stroke-linecap="round" stroke-linejoin="round" stroke-opacity="1" stroke-width="2.8626153469085693"/>
    <path d="M 59.59368133544922 211.41673278808594 C 120.8879165649414 216.47744750976562 91.43038177490234 219.2236328125 114.6393814086914 186.79922485351562" fill="none" stroke="rgb(0, 0, 0)" stroke-linecap="round" stroke-linejoin="round" stroke-opacity="1" stroke-width="3.0"/>
    <path d="M 167.09632873535156 199.7780303955078 C 199.16986083984375 172.7427978515625 162.2378387451172 269.2293701171875 185.6184539794922 70.43566131591797" fill="none" stroke="rgb(0, 0, 0)" stroke-linecap="round" stroke-linejoin="round" stroke-opacity="1" stroke-width="3.0"/>
    <path d="M 138.60499572753906 29.470672607421875 C 142.4980010986328 -14.514053344726562 134.8452911376953 -4.463052749633789 94.03952026367188 -12.349126815795898" fill="none" stroke="rgb(0, 0, 0)" stroke-linecap="round" stroke-linejoin="round" stroke-opacity="1" stroke-width="2.9919650554656982"/>
    <path d="M 36.37938690185547 152.1748046875 C 43.0293083190918 103.95659637451172 -22.177927017211914 211.85462951660156 26.169557571411133 143.93515014648438" fill="none" stroke="rgb(0, 0, 0)" stroke-linecap="round" stroke-linejoin="round" stroke-opacity="1" stroke-width="3.0"/>
    <path d="M 163.93434143066406 30.698013305664062 C 161.7528839111328 34.087547302246094 173.61026000976562 -5.970891952514648 157.7852325439453 -6.86477518081665" fill="none" stroke="rgb(0, 0, 0)" stroke-linecap="round" stroke-linejoin="round" stroke-opacity="1" stroke-width="3.0"/>
    <path d="M 18.810882568359375 166.98272705078125 C -8.0824613571167 58.3105354309082 4.1210527420043945 62.502323150634766 -18.090530395507812 87.7063217163086" fill="none" stroke="rgb(0, 0, 0)" stroke-linecap="round" stroke-linejoin="round" stroke-opacity="1" stroke-width="3.0"/>
    <path d="M 199.7355194091797 56.78009033203125 C 89.8732681274414 56.80373001098633 111.20468139648438 9.314051628112793 107.40357971191406 63.39068603515625" fill="none" stroke="rgb(0, 0, 0)" stroke-linecap="round" stroke-linejoin="round" stroke-opacity="1" stroke-width="2.9998021125793457"/>
    <path d="M 120.56330871582031 47.7190055847168 C 119.57038879394531 92.76335144042969 125.59803009033203 63.38701248168945 80.9327163696289 59.30957794189453" fill="none" stroke="rgb(0, 0, 0)" stroke-linecap="round" stroke-linejoin="round" stroke-opacity="1" stroke-width="3.0"/>
    <path d="M 35.446266174316406 103.87141418457031 C 20.0967960357666 88.40120697021484 75.63477325439453 62.57158660888672 83.46320343017578 63.0534782409668" fill="none" stroke="rgb(0, 0, 0)" stroke-linecap="round" stroke-linejoin="round" stroke-opacity="1" stroke-width="3.0"/>
    <path d="M 206.2213134765625 109.22425079345703 C 252.08151245117188 130.0798797607422 262.58917236328125 117.84996795654297 233.30526733398438 144.2447052001953" fill="none" stroke="rgb(0, 0, 0)" stroke-linecap="round" stroke-linejoin="round" stroke-opacity="1" stroke-width="2.9999051094055176"/>
    <path d="M -4.53222131729126 138.99876403808594 C 53.164024353027344 100.13565063476562 61.08512878417969 101.94287109375 -4.287040710449219 165.64186096191406" fill="none" stroke="rgb(0, 0, 0)" stroke-linecap="round" stroke-linejoin="round" stroke-opacity="1" stroke-width="3.0"/>
    <path d="M 122.9417495727539 133.25038146972656 C 116.84337615966797 76.35545349121094 149.895263671875 61.2252311706543 132.14370727539062 127.12467956542969" fill="none" stroke="rgb(0, 0, 0)" stroke-linecap="round" stroke-linejoin="round" stroke-opacity="1" stroke-width="2.999999523162842"/>
    <path d="M 22.60441017150879 161.0069580078125 C 56.623172760009766 123.87496948242188 59.414093017578125 138.05226135253906 2.7624189853668213 182.99395751953125" fill="none" stroke="rgb(0, 0, 0)" stroke-linecap="round" stroke-linejoin="round" stroke-opacity="1" stroke-width="3.0"/>
    <path d="M 146.03919982910156 74.95679473876953 C 101.13301849365234 76.66842651367188 141.02389526367188 96.05538940429688 84.22613525390625 63.13895797729492" fill="none" stroke="rgb(0, 0, 0)" stroke-linecap="round" stroke-linejoin="round" stroke-opacity="1" stroke-width="3.0"/>
    <path d="M 135.0525665283203 30.059162139892578 C 142.24339294433594 -51.69595718383789 113.99546813964844 -24.280824661254883 105.744873046875 -10.765141487121582" fill="none" stroke="rgb(0, 0, 0)" stroke-linecap="round" stroke-linejoin="round" stroke-opacity="1" stroke-width="2.9370930194854736"/>
    <path d="M 178.71160888671875 187.31759643554688 C 71.20835876464844 175.60670471191406 122.11001586914062 177.31346130371094 137.25962829589844 195.36419677734375" fill="none" stroke="rgb(0, 0, 0)" stroke-linecap="round" stroke-linejoin="round" stroke-opacity="1" stroke-width="2.999385356903076"/>
    <path d="M 179.86436462402344 172.39959716796875 C 217.1301727294922 177.54832458496094 188.96505737304688 139.0594940185547 142.45196533203125 140.20245361328125" fill="none" stroke="rgb(0, 0, 0)" stroke-linecap="round" stroke-linejoin="round" stroke-opacity="1" stroke-width="3.0"/>
    <path d="M 184.2920684814453 -11.48365306854248 C 178.02777099609375 41.23881149291992 177.1165771484375 47.72461700439453 185.34628295898438 7.429709434509277" fill="none" stroke="rgb(0, 0, 0)" stroke-linecap="round" stroke-linejoin="round" stroke-opacity="1" stroke-width="2.9999985694885254"/>
    <path d="M 97.8476333618164 55.36545944213867 C 104.61181640625 22.383291244506836 90.51679229736328 -56.03718185424805 93.21487426757812 -33.067176818847656" fill="none" stroke="rgb(0, 0, 0)" stroke-linecap="round" stroke-linejoin="round" stroke-opacity="1" stroke-width="3.0"/>
    <path d="M 136.54080200195312 40.470542907714844 C 79.98197937011719 18.984683990478516 107.78327178955078 44.2496452331543 148.24549865722656 51.89170837402344" fill="none" stroke="rgb(0, 0, 0)" stroke-linecap="round" stroke-linejoin="round" stroke-opacity="1" stroke-width="3.0"/>
    <path d="M 60.88933181762695 74.56086730957031 C 45.402164459228516 28.902599334716797 65.77705383300781 68.03046417236328 50.296409606933594 67.1948013305664" fill="none" stroke="rgb(0, 0, 0)" stroke-linecap="round" stroke-linejoin="round" stroke-opacity="1" stroke-width="2.999998092651367"/>
    <path d="M 30.788555145263672 58.67824172973633 C 36.97754669189453 87.64772033691406 38.564517974853516 84.14545440673828 45.83338928222656 147.33673095703125" fill="none" stroke="rgb(0, 0, 0)" stroke-linecap="round" stroke-linejoin="round" stroke-opacity="1" stroke-width="3.0"/>
    <path d="M 189.2595977783203 56.206146240234375 C 209.2455291748047 45.66249465942383 180.93846130371094 136.89920043945312 188.86148071289062 64.32518005371094" fill="none" stroke="rgb(0, 0, 0)" stroke-linecap="round" stroke-linejoin="round" stroke-opacity="1" stroke-width="2.9250648021698"/>
    <path d="M -1.2005116939544678 221.04832458496094 C 1.943554162979126 244.03201293945312 1.594382643699646 225.4375762939453 8.610236167907715 228.4606170654297" fill="none" stroke="rgb(0, 0, 0)" stroke-linecap="round" stroke-linejoin="round" stroke-opacity="1" stroke-width="2.9262609481811523"/>
    <path d="M 101.3825454711914 29.25397300720215 C 141.997802734375 36.7857780456543 136.5346221923828 50.33591079711914 204.60626220703125 49.128116607666016" fill="none" stroke="rgb(0, 0, 0)" stroke-linecap="round" stroke-linejoin="round" stroke-opacity="1" stroke-width="3.0"/>
    <path d="M 236.62158203125 124.16089630126953 C 222.36793518066406 103.6313705444336 217.07550048828125 119.84162902832031 215.4473114013672 173.29498291015625" fill="none" stroke="rgb(0, 0, 0)" stroke-linecap="round" stroke-linejoin="round" stroke-opacity="1" stroke-width="3.0"/>
    <path d="M 15.46989631652832 5.136171340942383 C 40.60483932495117 132.80885314941406 14.76088809967041 93.7733154296875 81.58514404296875 64.03759002685547" fill="none" stroke="rgb(0, 0, 0)" stroke-linecap="round" stroke-linejoin="round" stroke-opacity="1" stroke-width="3.0"/>
    <path d="M 30.127960205078125 58.9019775390625 C 71.65917205810547 33.681827545166016 54.230857849121094 67.37456512451172 50.41545486450195 -5.059449195861816" fill="none" stroke="rgb(0, 0, 0)" stroke-linecap="round" stroke-linejoin="round" stroke-opacity="1" stroke-width="3.0"/>
    <path d="M 24.28040313720703 4.252204418182373 C 21.4637451171875 -6.661935806274414 38.197166442871094 72.53973388671875 24.165790557861328 3.3588201999664307" fill="none" stroke="rgb(0, 0, 0)" stroke-linecap="round" stroke-linejoin="round" stroke-opacity="1" stroke-width="3.0"/>
    <path d="M 144.99952697753906 124.6116714477539 C 152.9561309814453 127.66515350341797 94.27421569824219 147.28823852539062 135.49391174316406 125.71566009521484" fill="none" stroke="rgb(0, 0, 0)" stroke-linecap="round" stroke-linejoin="round" stroke-opacity="1" stroke-width="3.0"/>
    <path d="M 81.83279418945312 -14.805612564086914 C 62.145240783691406 -31.313467025756836 75.84356689453125 -29.459505081176758 79.30919647216797 47.917205810546875" fill="none" stroke="rgb(0, 0, 0)" stroke-linecap="round" stroke-linejoin="round" stroke-opacity="1" stroke-width="3.0"/>
  </g>
</svg>
