<?xml version="1.0" ?>
<svg height="224" version="1.1" width="224" xmlns="http://www.w3.org/2000/svg">
  <defs/>
  <g>
    <path d="M 165.39804077148438 75.47091674804688 C 173.8803253173828 242.71432495117188 158.05047607421875 190.8467254638672 156.74290466308594 85.08866119384766" fill="none" stroke="rgb(0, 0, 0)" stroke-linecap="round" stroke-linejoin="round" stroke-opacity="1" stroke-width="3.0"/>
    <path d="M 77.11860656738281 168.3670654296875 C 235.93405151367188 158.23838806152344 225.37278747558594 187.02529907226562 98.06832885742188 167.46429443359375" fill="none" stroke="rgb(0, 0, 0)" stroke-linecap="round" stroke-linejoin="round" stroke-opacity="1" stroke-width="3.0"/>
    <path d="M 19.599571228027344 79.34660339355469 C 11.350020408630371 130.6097412109375 17.191287994384766 66.26060485839844 7.415951251983643 153.412353515625" fill="none" stroke="rgb(0, 0, 0)" stroke-linecap="round" stroke-linejoin="round" stroke-opacity="1" stroke-width="2.999992847442627"/>
    <path d="M 52.676082611083984 145.96865844726562 C 66.73109436035156 6.2966461181640625 21.063629150390625 78.74734497070312 170.9014892578125 59.54412078857422" fill="none" stroke="rgb(0, 0, 0)" stroke-linecap="round" stroke-linejoin="round" stroke-opacity="1" stroke-width="3.0"/>
    <path d="M 86.34452056884766 80.0105209350586 C 102.83565521240234 81.91815948486328 173.22702026367188 82.23899841308594 161.63735961914062 91.76563262939453" fill="none" stroke="rgb(0, 0, 0)" stroke-linecap="round" stroke-linejoin="round" stroke-opacity="1" stroke-width="3.0"/>
    <path d="M 18.008895874023438 206.81549072265625 C 87.30058288574219 198.9210205078125 -1.9892278909683228 200.62599182128906 79.23677825927734 201.27621459960938" fill="none" stroke="rgb(0, 0, 0)" stroke-linecap="round" stroke-linejoin="round" stroke-opacity="1" stroke-width="2.999998092651367"/>
    <path d="M 175.95973205566406 172.26165771484375 C 174.86964416503906 82.3086929321289 155.65928649902344 131.56492614746094 235.1213836669922 88.40680694580078" fill="none" stroke="rgb(0, 0, 0)" stroke-linecap="round" stroke-linejoin="round" stroke-opacity="1" stroke-width="3.0"/>
    <path d="M 23.220666885375977 143.34487915039062 C 27.101285934448242 45.258750915527344 35.339908599853516 45.800811767578125 29.968076705932617 127.58272552490234" fill="none" stroke="rgb(0, 0, 0)" stroke-linecap="round" stroke-linejoin="round" stroke-opacity="1" stroke-width="2.94791841506958"/>
    <path d="M -6.734955787658691 210.20135498046875 C 67.9215316772461 228.49574279785156 97.21500396728516 207.5369415283203 40.186309814453125 231.300048828125" fill="none" stroke="rgb(0, 0, 0)" stroke-linecap="round" stroke-linejoin="round" stroke-opacity="1" stroke-width="2.999999523162842"/>
    <path d="M 190.0595703125 143.040283203125 C 197.37489318847656 204.36483764648438 174.3855743408203 171.56735229492188 239.0348663330078 188.17677307128906" fill="none" stroke="rgb(0, 0, 0)" stroke-linecap="round" stroke-linejoin="round" stroke-opacity="1" stroke-width="3.0"/>
    <path d="M -10.088557243347168 222.93519592285156 C -17.879955291748047 194.18975830078125 -90.60313415527344 135.16305541992188 19.222280502319336 140.71844482421875" fill="none" stroke="rgb(0, 0, 0)" stroke-linecap="round" stroke-linejoin="round" stroke-opacity="1" stroke-width="2.997425079345703"/>
    <path d="M -2.8401107788085938 217.36961364746094 C 110.13195037841797 182.82998657226562 70.7822036743164 209.22610473632812 80.41407012939453 180.31056213378906" fill="none" stroke="rgb(0, 0, 0)" stroke-linecap="round" stroke-linejoin="round" stroke-opacity="1" stroke-width="3.0"/>
    <path d="M 42.89480972290039 212.5880126953125 C 0.4666496515274048 226.51272583007812 -0.38279908895492554 224.7657470703125 -3.799384117126465 258.6517333984375" fill="none" stroke="rgb(0, 0, 0)" stroke-linecap="round" stroke-linejoin="round" stroke-opacity="1" stroke-width="2.8032078742980957"/>
    <path d="M 129.2504425048828 208.30502319335938 C 238.14901733398438 218.9529266357422 168.35731506347656 207.240478515625 222.26693725585938 221.5410919189453" fill="none" stroke="rgb(0, 0, 0)" stroke-linecap="round" stroke-linejoin="round" stroke-opacity="1" stroke-width="2.9992215633392334"/>
    <path d="M 185.65321350097656 -19.899606704711914 C 183.89239501953125 -21.02775764465332 162.16319274902344 -1.9238801002502441 131.3563995361328 33.87461853027344" fill="none" stroke="rgb(0, 0, 0)" stroke-linecap="round" stroke-linejoin="round" stroke-opacity="1" stroke-width="2.9969985485076904"/>
    <path d="M 13.4921293258667 184.3189697265625 C -47.22180938720703 194.9763946533203 -29.165721893310547 172.87777709960938 -22.592761993408203 153.58363342285156" fill="none" stroke="rgb(0, 0, 0)" stroke-linecap="round" stroke-linejoin="round" stroke-opacity="1" stroke-width="2.9965269565582275"/>
    <path d="M 114.07921600341797 44.580936431884766 C 145.04800415039062 42.030982971191406 178.5419464111328 35.387550354003906 212.53468322753906 -8.580151557922363" fill="none" stroke="rgb(0, 0, 0)" stroke-linecap="round" stroke-linejoin="round" stroke-opacity="1" stroke-width="3.0"/>
    <path d="M 53.31386947631836 52.520347595214844 C 56.00352096557617 60.359275817871094 11.686585426330566 31.37417984008789 -9.999735832214355 12.052656173706055" fill="none" stroke="rgb(0, 0, 0)" stroke-linecap="round" stroke-linejoin="round" stroke-opacity="1" stroke-width="2.999998092651367"/>
    <path d="M 177.27085876464844 67.70899200439453 C 141.1650390625 92.96649169921875 140.64785766601562 69.29524993896484 209.31277465820312 33.57827377319336" fill="none" stroke="rgb(0, 0, 0)" stroke-linecap="round" stroke-linejoin="round" stroke-opacity="1" stroke-width="2.999997138977051"/>
    <path d="M 138.05203247070312 32.724586486816406 C 105.00460815429688 0.6661666035652161 35.92698287963867 2.012258529663086 46.284515380859375 -5.780902862548828" fill="none" stroke="rgb(0, 0, 0)" stroke-linecap="round" stroke-linejoin="round" stroke-opacity="1" stroke-width="2.999999523162842"/>
    <path d="M -10.904436111450195 50.86124801635742 C 40.71710205078125 66.22441864013672 56.15228271484375 79.53083038330078 17.525279998779297 62.97000503540039" fill="none" stroke="rgb(0, 0, 0)" stroke-linecap="round" stroke-linejoin="round" stroke-opacity="1" stroke-width="2.999997615814209"/>
    <path d="M 81.42208862304688 169.75775146484375 C 87.85428619384766 49.96515655517578 89.31387329101562 63.14970397949219 86.22293853759766 71.62342834472656" fill="none" stroke="rgb(0, 0, 0)" stroke-linecap="round" stroke-linejoin="round" stroke-opacity="1" stroke-width="2.978803873062134"/>
    <path d="M 211.36436462402344 102.01005554199219 C 219.0863037109375 200.81016540527344 205.6839599609375 186.94906616210938 240.90786743164062 175.0057830810547" fill="none" stroke="rgb(0, 0, 0)" stroke-linecap="round" stroke-linejoin="round" stroke-opacity="1" stroke-width="2.999955654144287"/>
    <path d="M 142.4294891357422 137.6137237548828 C 149.3756866455078 262.9332580566406 146.99095153808594 27.6695613861084 145.08026123046875 100.83746337890625" fill="none" stroke="rgb(0, 0, 0)" stroke-linecap="round" stroke-linejoin="round" stroke-opacity="1" stroke-width="2.999516487121582"/>
    <path d="M 72.59266662597656 212.8106689453125 C -20.30147933959961 209.63905334472656 -17.68145751953125 208.23451232910156 -9.31422233581543 225.32850646972656" fill="none" stroke="rgb(0, 0, 0)" stroke-linecap="round" stroke-linejoin="round" stroke-opacity="1" stroke-width="2.989675521850586"/>
    <path d="M 77.37509155273438 150.35787963867188 C -69.12471771240234 153.102783203125 16.677776336669922 152.63145446777344 -9.814813613891602 167.5238800048828" fill="none" stroke="rgb(0, 0, 0)" stroke-linecap="round" stroke-linejoin="round" stroke-opacity="1" stroke-width="3.0"/>
    <path d="M 144.28041076660156 18.329933166503906 C 41.07623291015625 -21.372875213623047 105.8409423828125 20.444185256958008 109.9263916015625 38.771339416503906" fill="none" stroke="rgb(0, 0, 0)" stroke-linecap="round" stroke-linejoin="round" stroke-opacity="1" stroke-width="3.0"/>
    <path d="M 154.69061279296875 181.54653930664062 C 244.7010040283203 208.75135803222656 255.67254638671875 204.0904083251953 244.78842163085938 191.2874755859375" fill="none" stroke="rgb(0, 0, 0)" stroke-linecap="round" stroke-linejoin="round" stroke-opacity="1" stroke-width="2.9999966621398926"/>
    <path d="M 84.13819885253906 169.95001220703125 C 182.05259704589844 174.585693359375 238.33023071289062 158.67251586914062 137.2668914794922 169.25726318359375" fill="none" stroke="rgb(0, 0, 0)" stroke-linecap="round" stroke-linejoin="round" stroke-opacity="1" stroke-width="3.0"/>
    <path d="M 227.1836700439453 23.61631202697754 C 211.4618377685547 -39.56315994262695 212.96229553222656 -68.2583236694336 227.8378448486328 34.52812957763672" fill="none" stroke="rgb(0, 0, 0)" stroke-linecap="round" stroke-linejoin="round" stroke-opacity="1" stroke-width="2.9999992847442627"/>
    <path d="M 82.61116790771484 45.79237747192383 C 112.690185546875 53.81598663330078 158.29835510253906 58.66299819946289 224.94705200195312 -3.7115650177001953" fill="none" stroke="rgb(0, 0, 0)" stroke-linecap="round" stroke-linejoin="round" stroke-opacity="1" stroke-width="3.0"/>
    <path d="M 35.22542953491211 57.70354461669922 C 47.07512664794922 70.72315216064453 43.317543029785156 43.17734909057617 37.13399887084961 147.99530029296875" fill="none" stroke="rgb(0, 0, 0)" stroke-linecap="round" stroke-linejoin="round" stroke-opacity="1" stroke-width="3.0"/>
    <path d="M 226.43832397460938 23.702333450317383 C 115.11453247070312 103.62034606933594 177.24288940429688 70.054443359375 162.73324584960938 87.71746063232422" fill="none" stroke="rgb(0, 0, 0)" stroke-linecap="round" stroke-linejoin="round" stroke-opacity="1" stroke-width="3.0"/>
    <path d="M 131.03469848632812 37.521514892578125 C 45.172096252441406 47.95723342895508 75.22830200195312 48.807395935058594 84.82735443115234 6.425896644592285" fill="none" stroke="rgb(0, 0, 0)" stroke-linecap="round" stroke-linejoin="round" stroke-opacity="1" stroke-width="2.999999523162842"/>
    <path d="M 168.89236450195312 -0.02061726152896881 C 137.013671875 28.6294002532959 162.44334411621094 12.486485481262207 99.42750549316406 52.15970993041992" fill="none" stroke="rgb(0, 0, 0)" stroke-linecap="round" stroke-linejoin="round" stroke-opacity="1" stroke-width="3.0"/>
    <path d="M 61.415462493896484 38.38614273071289 C 89.48961639404297 47.28767013549805 43.2154426574707 43.49482345581055 16.831872940063477 -7.203917503356934" fill="none" stroke="rgb(0, 0, 0)" stroke-linecap="round" stroke-linejoin="round" stroke-opacity="1" stroke-width="3.0"/>
    <path d="M 261.28521728515625 154.997314453125 C 280.1402282714844 167.1591339111328 285.3844909667969 183.77003479003906 202.78956604003906 178.91275024414062" fill="none" stroke="rgb(0, 0, 0)" stroke-linecap="round" stroke-linejoin="round" stroke-opacity="1" stroke-width="3.0"/>
    <path d="M 59.16878890991211 55.28540802001953 C 6.0087761878967285 10.697867393493652 22.78215217590332 45.001319885253906 69.16546630859375 0.9835947751998901" fill="none" stroke="rgb(0, 0, 0)" stroke-linecap="round" stroke-linejoin="round" stroke-opacity="1" stroke-width="3.0"/>
    <path d="M 1.1058714389801025 6.621371746063232 C 37.151485443115234 54.15714645385742 76.51312255859375 74.18177032470703 61.56033706665039 66.78899383544922" fill="none" stroke="rgb(0, 0, 0)" stroke-linecap="round" stroke-linejoin="round" stroke-opacity="1" stroke-width="3.0"/>
    <path d="M 3.803753137588501 -2.8200762271881104 C 45.24447250366211 49.47771072387695 73.66284942626953 52.40283203125 94.95779418945312 55.28334426879883" fill="none" stroke="rgb(0, 0, 0)" stroke-linecap="round" stroke-linejoin="round" stroke-opacity="1" stroke-width="3.0"/>
    <path d="M 57.638153076171875 88.38679504394531 C 60.65691375732422 25.486316680908203 70.02546691894531 81.97913360595703 -4.398075103759766 -3.9547438621520996" fill="none" stroke="rgb(0, 0, 0)" stroke-linecap="round" stroke-linejoin="round" stroke-opacity="1" stroke-width="3.0"/>
    <path d="M 154.29916381835938 154.2353057861328 C 201.3719482421875 148.0528564453125 120.50259399414062 193.67279052734375 128.30828857421875 155.5017852783203" fill="none" stroke="rgb(0, 0, 0)" stroke-linecap="round" stroke-linejoin="round" stroke-opacity="1" stroke-width="3.0"/>
  </g>
</svg>
