<?xml version="1.0" ?>
<svg height="224" version="1.1" width="224" xmlns="http://www.w3.org/2000/svg">
  <defs/>
  <g>
    <path d="M 79.26078796386719 67.45660400390625 C 78.07286071777344 200.02200317382812 59.07221603393555 208.12603759765625 67.00129699707031 79.49849700927734" fill="none" stroke="rgb(0, 0, 0)" stroke-linecap="round" stroke-linejoin="round" stroke-opacity="1" stroke-width="3.0"/>
    <path d="M 196.88450622558594 111.73004150390625 C 192.07281494140625 32.1164436340332 194.51669311523438 48.099849700927734 207.32208251953125 167.5309600830078" fill="none" stroke="rgb(0, 0, 0)" stroke-linecap="round" stroke-linejoin="round" stroke-opacity="1" stroke-width="3.0"/>
    <path d="M 193.61985778808594 171.81565856933594 C 86.51251983642578 170.2415313720703 127.25875091552734 164.88681030273438 143.354736328125 172.63197326660156" fill="none" stroke="rgb(0, 0, 0)" stroke-linecap="round" stroke-linejoin="round" stroke-opacity="1" stroke-width="2.999999523162842"/>
    <path d="M 11.009639739990234 -6.81227445602417 C 61.37848663330078 55.40565490722656 116.43888854980469 47.069190979003906 161.07797241210938 29.120037078857422" fill="none" stroke="rgb(0, 0, 0)" stroke-linecap="round" stroke-linejoin="round" stroke-opacity="1" stroke-width="3.0"/>
    <path d="M 81.50848388671875 -17.409381866455078 C 70.93375396728516 48.268436431884766 86.46356964111328 45.529109954833984 50.03995895385742 27.63913917541504" fill="none" stroke="rgb(0, 0, 0)" stroke-linecap="round" stroke-linejoin="round" stroke-opacity="1" stroke-width="3.0"/>
    <path d="M 221.34359741210938 -7.655827045440674 C 150.85508728027344 56.74782180786133 158.158447265625 44.328433990478516 113.74070739746094 45.439788818359375" fill="none" stroke="rgb(0, 0, 0)" stroke-linecap="round" stroke-linejoin="round" stroke-opacity="1" stroke-width="3.0"/>
    <path d="M 136.3099365234375 38.3087043762207 C 151.94808959960938 27.484100341796875 137.92062377929688 38.320865631103516 162.0635528564453 25.94244956970215" fill="none" stroke="rgb(0, 0, 0)" stroke-linecap="round" stroke-linejoin="round" stroke-opacity="1" stroke-width="3.0"/>
    <path d="M 126.26734161376953 165.95791625976562 C 152.07553100585938 160.65350341796875 165.69627380371094 175.02528381347656 12.149127006530762 162.47657775878906" fill="none" stroke="rgb(0, 0, 0)" stroke-linecap="round" stroke-linejoin="round" stroke-opacity="1" stroke-width="2.999972343444824"/>
    <path d="M 164.232421875 52.2956657409668 C 195.30877685546875 35.3959846496582 248.70521545410156 -24.20197296142578 193.2367706298828 38.609527587890625" fill="none" stroke="rgb(0, 0, 0)" stroke-linecap="round" stroke-linejoin="round" stroke-opacity="1" stroke-width="3.0"/>
    <path d="M 72.59246063232422 38.82754135131836 C 69.836181640625 29.911035537719727 75.95500183105469 -12.65007209777832 83.40704345703125 -29.29227066040039" fill="none" stroke="rgb(0, 0, 0)" stroke-linecap="round" stroke-linejoin="round" stroke-opacity="1" stroke-width="2.9999523162841797"/>
    <path d="M 8.068731307983398 67.88633728027344 C 17.178831100463867 85.43049621582031 7.9120988845825195 109.3783950805664 6.157337665557861 152.36758422851562" fill="none" stroke="rgb(0, 0, 0)" stroke-linecap="round" stroke-linejoin="round" stroke-opacity="1" stroke-width="3.0"/>
    <path d="M 140.06443786621094 -6.141896724700928 C 157.45889282226562 27.997282028198242 137.3971710205078 52.31586456298828 188.87188720703125 2.892975091934204" fill="none" stroke="rgb(0, 0, 0)" stroke-linecap="round" stroke-linejoin="round" stroke-opacity="1" stroke-width="2.999326705932617"/>
    <path d="M 141.74940490722656 60.42937088012695 C 69.35919189453125 55.471824645996094 12.768098831176758 40.015960693359375 83.20767211914062 55.06336212158203" fill="none" stroke="rgb(0, 0, 0)" stroke-linecap="round" stroke-linejoin="round" stroke-opacity="1" stroke-width="3.0"/>
    <path d="M 260.7036437988281 178.8373260498047 C 191.93240356445312 170.4814453125 185.72433471679688 171.50392150878906 248.2046661376953 175.8909912109375" fill="none" stroke="rgb(0, 0, 0)" stroke-linecap="round" stroke-linejoin="round" stroke-opacity="1" stroke-width="3.0"/>
    <path d="M 174.26626586914062 56.43777084350586 C 131.64431762695312 57.935916900634766 105.14993286132812 56.3979606628418 176.03907775878906 53.28122329711914" fill="none" stroke="rgb(0, 0, 0)" stroke-linecap="round" stroke-linejoin="round" stroke-opacity="1" stroke-width="3.0"/>
    <path d="M 123.85398864746094 43.78616714477539 C 58.23674011230469 51.697998046875 47.342742919921875 21.025341033935547 77.0421371459961 39.12092971801758" fill="none" stroke="rgb(0, 0, 0)" stroke-linecap="round" stroke-linejoin="round" stroke-opacity="1" stroke-width="3.0"/>
    <path d="M 22.9560489654541 55.82564163208008 C 128.78463745117188 54.8010139465332 129.7605743408203 64.11100006103516 194.55398559570312 32.83038330078125" fill="none" stroke="rgb(0, 0, 0)" stroke-linecap="round" stroke-linejoin="round" stroke-opacity="1" stroke-width="3.0"/>
    <path d="M 137.0875701904297 166.63172912597656 C 126.49151611328125 153.1282958984375 129.13909912109375 194.74119567871094 128.47268676757812 79.07681274414062" fill="none" stroke="rgb(0, 0, 0)" stroke-linecap="round" stroke-linejoin="round" stroke-opacity="1" stroke-width="3.0"/>
    <path d="M 153.8278350830078 50.22758102416992 C 231.0495147705078 8.04907512664795 176.1597137451172 73.38302612304688 84.12732696533203 63.052734375" fill="none" stroke="rgb(0, 0, 0)" stroke-linecap="round" stroke-linejoin="round" stroke-opacity="1" stroke-width="3.0"/>
    <path d="M -7.93170690536499 11.135984420776367 C 32.20359802246094 59.09660339355469 34.990848541259766 78.23251342773438 -1.9016337394714355 13.908438682556152" fill="none" stroke="rgb(0, 0, 0)" stroke-linecap="round" stroke-linejoin="round" stroke-opacity="1" stroke-width="3.0"/>
    <path d="M -20.427600860595703 171.8285675048828 C 84.5850601196289 157.2159881591797 16.61652374267578 182.64845275878906 28.48879051208496 153.25315856933594" fill="none" stroke="rgb(0, 0, 0)" stroke-linecap="round" stroke-linejoin="round" stroke-opacity="1" stroke-width="3.0"/>
    <path d="M 138.36273193359375 -16.88705062866211 C 151.04612731933594 28.401927947998047 165.04339599609375 44.585391998291016 106.45501708984375 43.69133758544922" fill="none" stroke="rgb(0, 0, 0)" stroke-linecap="round" stroke-linejoin="round" stroke-opacity="1" stroke-width="3.0"/>
    <path d="M 189.58670043945312 116.04134368896484 C 178.02923583984375 56.07033920288086 176.38885498046875 72.6719741821289 188.00320434570312 169.6464385986328" fill="none" stroke="rgb(0, 0, 0)" stroke-linecap="round" stroke-linejoin="round" stroke-opacity="1" stroke-width="3.0"/>
    <path d="M 61.75459671020508 79.08743286132812 C 56.453330993652344 178.87193298339844 56.03677749633789 175.3381805419922 72.52384948730469 74.65963745117188" fill="none" stroke="rgb(0, 0, 0)" stroke-linecap="round" stroke-linejoin="round" stroke-opacity="1" stroke-width="3.0"/>
    <path d="M 87.08174133300781 54.130699157714844 C 75.28823852539062 53.22848129272461 40.545074462890625 43.29053497314453 0.3601660430431366 -0.6379196643829346" fill="none" stroke="rgb(0, 0, 0)" stroke-linecap="round" stroke-linejoin="round" stroke-opacity="1" stroke-width="3.0"/>
    <path d="M 67.68264770507812 49.68767547607422 C 97.27013397216797 57.094566345214844 82.14479064941406 58.352169036865234 66.0082778930664 50.14817428588867" fill="none" stroke="rgb(0, 0, 0)" stroke-linecap="round" stroke-linejoin="round" stroke-opacity="1" stroke-width="3.0"/>
    <path d="M -8.566450119018555 82.3024673461914 C 9.192235946655273 108.09477996826172 -3.3883745670318604 67.00878143310547 -4.168340682983398 133.59800720214844" fill="none" stroke="rgb(0, 0, 0)" stroke-linecap="round" stroke-linejoin="round" stroke-opacity="1" stroke-width="3.0"/>
    <path d="M 72.35824584960938 166.08404541015625 C 75.5025405883789 44.187007904052734 65.92198181152344 51.982460021972656 61.82120132446289 162.86328125" fill="none" stroke="rgb(0, 0, 0)" stroke-linecap="round" stroke-linejoin="round" stroke-opacity="1" stroke-width="3.0"/>
  </g>
</svg>
