<?xml version="1.0" ?>
<svg height="224" version="1.1" width="224" xmlns="http://www.w3.org/2000/svg">
  <defs/>
  <g>
    <path d="M 144.31927490234375 125.41460418701172 C 152.8680877685547 87.60784149169922 150.401123046875 -4.761127948760986 143.5373077392578 161.87234497070312" fill="none" stroke="rgb(0, 0, 0)" stroke-linecap="round" stroke-linejoin="round" stroke-opacity="1" stroke-width="3.0"/>
    <path d="M 168.95343017578125 143.9587860107422 C 97.17781829833984 160.00389099121094 120.90015411376953 227.06265258789062 123.2979507446289 80.3044204711914" fill="none" stroke="rgb(0, 0, 0)" stroke-linecap="round" stroke-linejoin="round" stroke-opacity="1" stroke-width="3.0"/>
    <path d="M 117.52102661132812 69.82709503173828 C 122.65970611572266 40.793601989746094 95.1705551147461 67.17743682861328 188.65567016601562 57.61185073852539" fill="none" stroke="rgb(0, 0, 0)" stroke-linecap="round" stroke-linejoin="round" stroke-opacity="1" stroke-width="3.0"/>
    <path d="M 97.43080139160156 14.250504493713379 C 104.5691909790039 82.07740783691406 115.42594909667969 63.07317352294922 79.0680923461914 53.866233825683594" fill="none" stroke="rgb(0, 0, 0)" stroke-linecap="round" stroke-linejoin="round" stroke-opacity="1" stroke-width="3.0"/>
    <path d="M 217.57911682128906 187.5334014892578 C 199.1702880859375 124.51942443847656 202.93601989746094 103.52887725830078 206.0815887451172 10.516803741455078" fill="none" stroke="rgb(0, 0, 0)" stroke-linecap="round" stroke-linejoin="round" stroke-opacity="1" stroke-width="2.9999992847442627"/>
    <path d="M 46.53346252441406 168.66783142089844 C 6.0224504470825195 221.3565216064453 11.15176010131836 246.56101989746094 -5.451883792877197 252.49818420410156" fill="none" stroke="rgb(0, 0, 0)" stroke-linecap="round" stroke-linejoin="round" stroke-opacity="1" stroke-width="2.8448567390441895"/>
    <path d="M 26.391996383666992 196.09283447265625 C 123.16133880615234 201.79098510742188 89.31417846679688 210.38528442382812 115.50981903076172 187.9132843017578" fill="none" stroke="rgb(0, 0, 0)" stroke-linecap="round" stroke-linejoin="round" stroke-opacity="1" stroke-width="3.0"/>
    <path d="M 165.8115234375 219.85781860351562 C 190.57403564453125 200.43104553222656 173.39822387695312 294.0183410644531 192.43504333496094 47.11355972290039" fill="none" stroke="rgb(0, 0, 0)" stroke-linecap="round" stroke-linejoin="round" stroke-opacity="1" stroke-width="3.0"/>
    <path d="M -1.1294307708740234 78.17658996582031 C 2.8494656085968018 76.91522216796875 -13.423060417175293 78.84184265136719 -12.012243270874023 66.50651550292969" fill="none" stroke="rgb(0, 0, 0)" stroke-linecap="round" stroke-linejoin="round" stroke-opacity="1" stroke-width="2.968869686126709"/>
    <path d="M 165.64898681640625 24.1423397064209 C 158.79368591308594 -42.197723388671875 159.72137451171875 -19.123580932617188 110.89041137695312 -17.14219093322754" fill="none" stroke="rgb(0, 0, 0)" stroke-linecap="round" stroke-linejoin="round" stroke-opacity="1" stroke-width="3.0"/>
    <path d="M 33.99980163574219 156.00927734375 C 43.14611053466797 113.0249252319336 -33.40681076049805 235.3577117919922 19.214866638183594 149.8704071044922" fill="none" stroke="rgb(0, 0, 0)" stroke-linecap="round" stroke-linejoin="round" stroke-opacity="1" stroke-width="2.9983322620391846"/>
    <path d="M 9.909014701843262 181.0359649658203 C -9.06519603729248 54.09805679321289 0.8849955797195435 38.00581359863281 -25.336183547973633 50.24266052246094" fill="none" stroke="rgb(0, 0, 0)" stroke-linecap="round" stroke-linejoin="round" stroke-opacity="1" stroke-width="2.9996657371520996"/>
    <path d="M 192.1700897216797 48.116180419921875 C 81.2750015258789 67.38846588134766 93.44471740722656 4.527595520019531 95.8473129272461 56.12641906738281" fill="none" stroke="rgb(0, 0, 0)" stroke-linecap="round" stroke-linejoin="round" stroke-opacity="1" stroke-width="3.0"/>
    <path d="M -2.468205690383911 135.16651916503906 C 53.28034973144531 88.18045043945312 69.44527435302734 100.09308624267578 -6.065658092498779 166.85040283203125" fill="none" stroke="rgb(0, 0, 0)" stroke-linecap="round" stroke-linejoin="round" stroke-opacity="1" stroke-width="3.0"/>
    <path d="M 131.43212890625 131.22335815429688 C 127.94036865234375 57.86787796020508 142.2771759033203 43.12216567993164 135.02056884765625 116.74573516845703" fill="none" stroke="rgb(0, 0, 0)" stroke-linecap="round" stroke-linejoin="round" stroke-opacity="1" stroke-width="3.0"/>
    <path d="M 150.35897827148438 70.35100555419922 C 95.87017059326172 72.26032257080078 158.9444122314453 94.11917114257812 74.19039154052734 62.50148391723633" fill="none" stroke="rgb(0, 0, 0)" stroke-linecap="round" stroke-linejoin="round" stroke-opacity="1" stroke-width="2.999990463256836"/>
    <path d="M 182.9509735107422 193.23760986328125 C 86.71978759765625 148.4427032470703 128.19924926757812 159.88217163085938 145.33267211914062 170.1831512451172" fill="none" stroke="rgb(0, 0, 0)" stroke-linecap="round" stroke-linejoin="round" stroke-opacity="1" stroke-width="3.0"/>
    <path d="M 168.80133056640625 181.0707244873047 C 209.78195190429688 163.35906982421875 183.5733642578125 154.4927215576172 125.81082153320312 135.58180236816406" fill="none" stroke="rgb(0, 0, 0)" stroke-linecap="round" stroke-linejoin="round" stroke-opacity="1" stroke-width="3.0"/>
    <path d="M 86.12906646728516 49.1165771484375 C 84.11414337158203 45.094600677490234 76.38188934326172 -50.95753479003906 77.60748291015625 -30.049072265625" fill="none" stroke="rgb(0, 0, 0)" stroke-linecap="round" stroke-linejoin="round" stroke-opacity="1" stroke-width="2.999999523162842"/>
    <path d="M 41.86278533935547 68.52458953857422 C 45.17470932006836 96.04700469970703 47.86326217651367 80.85372924804688 51.09820556640625 158.53713989257812" fill="none" stroke="rgb(0, 0, 0)" stroke-linecap="round" stroke-linejoin="round" stroke-opacity="1" stroke-width="3.0"/>
    <path d="M 76.5665054321289 29.603673934936523 C 125.9834976196289 44.135677337646484 148.1956024169922 45.77074432373047 192.90682983398438 26.968629837036133" fill="none" stroke="rgb(0, 0, 0)" stroke-linecap="round" stroke-linejoin="round" stroke-opacity="1" stroke-width="3.0"/>
    <path d="M 18.01926040649414 4.143399715423584 C 44.097286224365234 150.37765502929688 7.172956943511963 93.6502914428711 79.12774658203125 61.43898391723633" fill="none" stroke="rgb(0, 0, 0)" stroke-linecap="round" stroke-linejoin="round" stroke-opacity="1" stroke-width="3.0"/>
    <path d="M 45.650814056396484 65.34673309326172 C 77.75684356689453 42.08280563354492 59.6361083984375 75.28691864013672 60.60441970825195 -12.963319778442383" fill="none" stroke="rgb(0, 0, 0)" stroke-linecap="round" stroke-linejoin="round" stroke-opacity="1" stroke-width="3.0"/>
    <path d="M 25.99848175048828 -0.820346474647522 C 24.292583465576172 2.1666183471679688 39.91651153564453 100.53390502929688 26.975122451782227 1.7192941904067993" fill="none" stroke="rgb(0, 0, 0)" stroke-linecap="round" stroke-linejoin="round" stroke-opacity="1" stroke-width="3.0"/>
    <path d="M 84.62638854980469 -21.830045700073242 C 59.900543212890625 -39.71079635620117 66.75836944580078 -29.08296012878418 75.7921371459961 45.42580795288086" fill="none" stroke="rgb(0, 0, 0)" stroke-linecap="round" stroke-linejoin="round" stroke-opacity="1" stroke-width="2.999988555908203"/>
  </g>
</svg>
