<?xml version="1.0" ?>
<svg height="224" version="1.1" width="224" xmlns="http://www.w3.org/2000/svg">
  <defs/>
  <g>
    <path d="M 164.8018341064453 76.07556915283203 C 161.03651428222656 259.7128601074219 163.00115966796875 199.33843994140625 153.59715270996094 91.95288848876953" fill="none" stroke="rgb(0, 0, 0)" stroke-linecap="round" stroke-linejoin="round" stroke-opacity="1" stroke-width="3.0"/>
    <path d="M 103.25411987304688 166.392578125 C 269.8751220703125 157.42031860351562 253.0797882080078 183.98805236816406 113.17122650146484 161.7645721435547" fill="none" stroke="rgb(0, 0, 0)" stroke-linecap="round" stroke-linejoin="round" stroke-opacity="1" stroke-width="3.0"/>
    <path d="M 7.090832233428955 63.825279235839844 C -0.4849635660648346 142.7127685546875 0.9440798759460449 47.42359161376953 -11.674281120300293 145.98927307128906" fill="none" stroke="rgb(0, 0, 0)" stroke-linecap="round" stroke-linejoin="round" stroke-opacity="1" stroke-width="2.999983549118042"/>
    <path d="M 64.92378997802734 152.52520751953125 C 69.8927230834961 15.059314727783203 30.45207977294922 74.53265380859375 173.02296447753906 68.3786849975586" fill="none" stroke="rgb(0, 0, 0)" stroke-linecap="round" stroke-linejoin="round" stroke-opacity="1" stroke-width="3.0"/>
    <path d="M 91.47541809082031 77.46524047851562 C 102.52848052978516 78.21607971191406 198.8238983154297 79.30799865722656 154.61097717285156 92.0528564453125" fill="none" stroke="rgb(0, 0, 0)" stroke-linecap="round" stroke-linejoin="round" stroke-opacity="1" stroke-width="3.0"/>
    <path d="M 176.69390869140625 168.99008178710938 C 177.2236328125 81.47395324707031 152.9630889892578 132.70362854003906 239.52658081054688 87.93598175048828" fill="none" stroke="rgb(0, 0, 0)" stroke-linecap="round" stroke-linejoin="round" stroke-opacity="1" stroke-width="3.0"/>
    <path d="M 199.89805603027344 137.96881103515625 C 208.046875 205.4743194580078 180.45005798339844 169.33981323242188 236.71926879882812 193.85699462890625" fill="none" stroke="rgb(0, 0, 0)" stroke-linecap="round" stroke-linejoin="round" stroke-opacity="1" stroke-width="3.0"/>
    <path d="M -19.76886558532715 215.8724822998047 C -37.26911926269531 194.8306884765625 -110.28364562988281 126.6424789428711 11.870739936828613 133.64450073242188" fill="none" stroke="rgb(0, 0, 0)" stroke-linecap="round" stroke-linejoin="round" stroke-opacity="1" stroke-width="3.0"/>
    <path d="M -13.646930694580078 225.81993103027344 C 109.92930603027344 198.9009552001953 61.64067459106445 202.7972412109375 73.04881286621094 193.6420135498047" fill="none" stroke="rgb(0, 0, 0)" stroke-linecap="round" stroke-linejoin="round" stroke-opacity="1" stroke-width="3.0"/>
    <path d="M 107.54959106445312 51.599449157714844 C 150.2306365966797 48.067054748535156 180.2249755859375 38.945045471191406 222.01568603515625 -8.305008888244629" fill="none" stroke="rgb(0, 0, 0)" stroke-linecap="round" stroke-linejoin="round" stroke-opacity="1" stroke-width="2.999993324279785"/>
    <path d="M 174.4089813232422 66.09283447265625 C 135.41836547851562 86.7097396850586 144.31515502929688 82.76688385009766 228.16822814941406 41.19670486450195" fill="none" stroke="rgb(0, 0, 0)" stroke-linecap="round" stroke-linejoin="round" stroke-opacity="1" stroke-width="2.989670991897583"/>
    <path d="M 148.949951171875 38.09925842285156 C 87.04054260253906 12.922857284545898 36.7545051574707 -6.453951835632324 45.93309783935547 -13.329343795776367" fill="none" stroke="rgb(0, 0, 0)" stroke-linecap="round" stroke-linejoin="round" stroke-opacity="1" stroke-width="3.0"/>
    <path d="M -9.902115821838379 44.41798782348633 C 54.200584411621094 73.4881591796875 80.35258483886719 95.61781311035156 -2.5512430667877197 55.047454833984375" fill="none" stroke="rgb(0, 0, 0)" stroke-linecap="round" stroke-linejoin="round" stroke-opacity="1" stroke-width="2.9989778995513916"/>
    <path d="M 89.32781219482422 167.47552490234375 C 88.25955200195312 41.94243621826172 87.21770477294922 61.35175323486328 92.23828887939453 71.15206146240234" fill="none" stroke="rgb(0, 0, 0)" stroke-linecap="round" stroke-linejoin="round" stroke-opacity="1" stroke-width="3.0"/>
    <path d="M 212.70730590820312 101.71546936035156 C 220.2313995361328 188.41741943359375 211.72686767578125 149.10287475585938 226.1491241455078 159.78099060058594" fill="none" stroke="rgb(0, 0, 0)" stroke-linecap="round" stroke-linejoin="round" stroke-opacity="1" stroke-width="3.0"/>
    <path d="M 144.43365478515625 136.82974243164062 C 146.9258270263672 271.805908203125 143.6040802001953 17.350345611572266 143.89932250976562 95.8858642578125" fill="none" stroke="rgb(0, 0, 0)" stroke-linecap="round" stroke-linejoin="round" stroke-opacity="1" stroke-width="2.9588265419006348"/>
    <path d="M 81.73653411865234 156.92788696289062 C -68.16798400878906 165.84165954589844 15.274674415588379 154.07778930664062 -14.330904006958008 165.08270263671875" fill="none" stroke="rgb(0, 0, 0)" stroke-linecap="round" stroke-linejoin="round" stroke-opacity="1" stroke-width="3.0"/>
    <path d="M 82.95269012451172 165.76161193847656 C 192.0183563232422 174.52517700195312 251.09185791015625 162.93618774414062 144.38865661621094 159.45635986328125" fill="none" stroke="rgb(0, 0, 0)" stroke-linecap="round" stroke-linejoin="round" stroke-opacity="1" stroke-width="3.0"/>
    <path d="M 54.16856384277344 48.55563735961914 C 123.51422119140625 60.89839553833008 160.5460968017578 66.8480224609375 229.06564331054688 -5.3750715255737305" fill="none" stroke="rgb(0, 0, 0)" stroke-linecap="round" stroke-linejoin="round" stroke-opacity="1" stroke-width="3.0"/>
    <path d="M 38.20331954956055 58.1859130859375 C 58.82710266113281 80.81188201904297 48.48569869995117 49.218502044677734 49.92029571533203 155.1560821533203" fill="none" stroke="rgb(0, 0, 0)" stroke-linecap="round" stroke-linejoin="round" stroke-opacity="1" stroke-width="3.0"/>
    <path d="M 243.23255920410156 38.45356369018555 C 100.36093139648438 109.7748794555664 165.21710205078125 78.40699768066406 153.87417602539062 99.59846496582031" fill="none" stroke="rgb(0, 0, 0)" stroke-linecap="round" stroke-linejoin="round" stroke-opacity="1" stroke-width="3.0"/>
    <path d="M 125.8841781616211 43.96535873413086 C 31.856782913208008 42.67308044433594 74.19525146484375 48.45768356323242 104.35670471191406 1.1685281991958618" fill="none" stroke="rgb(0, 0, 0)" stroke-linecap="round" stroke-linejoin="round" stroke-opacity="1" stroke-width="3.0"/>
    <path d="M 168.49874877929688 -6.104807376861572 C 141.26739501953125 32.58815002441406 156.69931030273438 10.701586723327637 111.88871002197266 46.189151763916016" fill="none" stroke="rgb(0, 0, 0)" stroke-linecap="round" stroke-linejoin="round" stroke-opacity="1" stroke-width="2.9980077743530273"/>
    <path d="M 51.2447509765625 35.38084030151367 C 90.55984497070312 48.53580856323242 43.14572525024414 49.02090072631836 4.870023727416992 -7.368999481201172" fill="none" stroke="rgb(0, 0, 0)" stroke-linecap="round" stroke-linejoin="round" stroke-opacity="1" stroke-width="2.979491710662842"/>
    <path d="M 261.18072509765625 157.426025390625 C 284.11102294921875 175.57412719726562 308.3560485839844 181.58026123046875 206.97181701660156 174.32455444335938" fill="none" stroke="rgb(0, 0, 0)" stroke-linecap="round" stroke-linejoin="round" stroke-opacity="1" stroke-width="2.9999992847442627"/>
    <path d="M 59.8505859375 56.79620361328125 C 2.3369410037994385 12.319419860839844 11.821975708007812 43.472747802734375 80.53065490722656 -7.067989826202393" fill="none" stroke="rgb(0, 0, 0)" stroke-linecap="round" stroke-linejoin="round" stroke-opacity="1" stroke-width="2.999999523162842"/>
    <path d="M 58.22654724121094 95.77655792236328 C 56.611576080322266 9.738347053527832 74.86334228515625 85.62188720703125 -5.6192474365234375 -7.393090724945068" fill="none" stroke="rgb(0, 0, 0)" stroke-linecap="round" stroke-linejoin="round" stroke-opacity="1" stroke-width="2.558347702026367"/>
    <path d="M 158.720703125 155.11508178710938 C 211.84857177734375 145.2355499267578 106.62490844726562 193.11184692382812 113.64752197265625 148.02110290527344" fill="none" stroke="rgb(0, 0, 0)" stroke-linecap="round" stroke-linejoin="round" stroke-opacity="1" stroke-width="3.0"/>
  </g>
</svg>
