<?xml version="1.0" ?>
<svg height="224" version="1.1" width="224" xmlns="http://www.w3.org/2000/svg">
  <defs/>
  <g>
    <path d="M 153.11239624023438 151.97756958007812 C 98.08267974853516 149.6133270263672 128.02642822265625 235.54824829101562 129.71340942382812 84.85308074951172" fill="none" stroke="rgb(0, 0, 0)" stroke-linecap="round" stroke-linejoin="round" stroke-opacity="1" stroke-width="3.0"/>
    <path d="M 126.81017303466797 76.18004608154297 C 131.68292236328125 44.126922607421875 106.25942993164062 77.41290283203125 199.3419189453125 44.112510681152344" fill="none" stroke="rgb(0, 0, 0)" stroke-linecap="round" stroke-linejoin="round" stroke-opacity="1" stroke-width="3.0"/>
    <path d="M 219.85382080078125 154.77037048339844 C 183.0986785888672 140.76882934570312 205.3419952392578 162.18971252441406 205.2471160888672 22.170761108398438" fill="none" stroke="rgb(0, 0, 0)" stroke-linecap="round" stroke-linejoin="round" stroke-opacity="1" stroke-width="2.999999523162842"/>
    <path d="M 32.21023178100586 189.71800231933594 C 135.088623046875 199.9114990234375 87.4515380859375 203.68626403808594 117.57325744628906 189.36325073242188" fill="none" stroke="rgb(0, 0, 0)" stroke-linecap="round" stroke-linejoin="round" stroke-opacity="1" stroke-width="3.0"/>
    <path d="M 167.25929260253906 215.53492736816406 C 173.556884765625 178.51292419433594 177.3384246826172 277.0402526855469 188.47950744628906 56.89067077636719" fill="none" stroke="rgb(0, 0, 0)" stroke-linecap="round" stroke-linejoin="round" stroke-opacity="1" stroke-width="3.0"/>
    <path d="M 30.886844635009766 160.74420166015625 C 15.217275619506836 9.329042434692383 28.458864212036133 19.975374221801758 -1.7391420602798462 13.167250633239746" fill="none" stroke="rgb(0, 0, 0)" stroke-linecap="round" stroke-linejoin="round" stroke-opacity="1" stroke-width="2.998244047164917"/>
    <path d="M 205.22283935546875 36.224815368652344 C 86.62626647949219 77.6065673828125 126.90438079833984 23.512922286987305 117.29351806640625 78.17499542236328" fill="none" stroke="rgb(0, 0, 0)" stroke-linecap="round" stroke-linejoin="round" stroke-opacity="1" stroke-width="3.0"/>
    <path d="M 143.08717346191406 138.24362182617188 C 148.49075317382812 53.717838287353516 143.92796325683594 34.86111831665039 136.03250122070312 125.98847961425781" fill="none" stroke="rgb(0, 0, 0)" stroke-linecap="round" stroke-linejoin="round" stroke-opacity="1" stroke-width="3.0"/>
    <path d="M 151.78675842285156 61.976600646972656 C 110.74766540527344 73.36946868896484 180.6399383544922 98.23123931884766 85.37509155273438 71.02041625976562" fill="none" stroke="rgb(0, 0, 0)" stroke-linecap="round" stroke-linejoin="round" stroke-opacity="1" stroke-width="3.0"/>
    <path d="M 178.0505828857422 196.55517578125 C 89.23371124267578 148.8965606689453 118.32292175292969 167.8472442626953 141.71328735351562 180.968505859375" fill="none" stroke="rgb(0, 0, 0)" stroke-linecap="round" stroke-linejoin="round" stroke-opacity="1" stroke-width="3.0"/>
    <path d="M 158.8667755126953 191.98715209960938 C 205.44815063476562 152.48399353027344 194.27957153320312 166.90573120117188 125.65233612060547 139.81202697753906" fill="none" stroke="rgb(0, 0, 0)" stroke-linecap="round" stroke-linejoin="round" stroke-opacity="1" stroke-width="3.0"/>
    <path d="M 74.18406677246094 70.72750854492188 C 74.42491149902344 41.844608306884766 66.7933120727539 -42.54051971435547 61.351810455322266 -19.22648811340332" fill="none" stroke="rgb(0, 0, 0)" stroke-linecap="round" stroke-linejoin="round" stroke-opacity="1" stroke-width="3.0"/>
    <path d="M 42.708290100097656 64.02367401123047 C 45.858421325683594 101.49351501464844 37.61402893066406 86.8893051147461 45.27228927612305 146.01402282714844" fill="none" stroke="rgb(0, 0, 0)" stroke-linecap="round" stroke-linejoin="round" stroke-opacity="1" stroke-width="3.0"/>
    <path d="M 72.00120544433594 17.99264144897461 C 113.89081573486328 41.75728988647461 164.78952026367188 39.667781829833984 204.87771606445312 7.221474647521973" fill="none" stroke="rgb(0, 0, 0)" stroke-linecap="round" stroke-linejoin="round" stroke-opacity="1" stroke-width="3.0"/>
    <path d="M 37.21176528930664 0.782074511051178 C 51.61881637573242 135.05319213867188 24.6445369720459 85.79313659667969 89.13581085205078 70.10518646240234" fill="none" stroke="rgb(0, 0, 0)" stroke-linecap="round" stroke-linejoin="round" stroke-opacity="1" stroke-width="3.0"/>
    <path d="M 50.57373809814453 76.13381958007812 C 68.90850067138672 59.173160552978516 66.00527954101562 100.87693786621094 58.406925201416016 -11.60478401184082" fill="none" stroke="rgb(0, 0, 0)" stroke-linecap="round" stroke-linejoin="round" stroke-opacity="1" stroke-width="3.0"/>
  </g>
</svg>
