<?xml version="1.0" ?>
<svg height="224" version="1.1" width="224" xmlns="http://www.w3.org/2000/svg">
  <defs/>
  <g>
    <path d="M 75.31891632080078 75.52352905273438 C 77.2667465209961 196.92459106445312 62.1423454284668 203.96836853027344 65.98204803466797 81.4013671875" fill="none" stroke="rgb(0, 0, 0)" stroke-linecap="round" stroke-linejoin="round" stroke-opacity="1" stroke-width="3.0"/>
    <path d="M 202.94126892089844 164.18600463867188 C 187.39207458496094 21.93055534362793 194.78228759765625 45.7789306640625 206.9390869140625 171.42086791992188" fill="none" stroke="rgb(0, 0, 0)" stroke-linecap="round" stroke-linejoin="round" stroke-opacity="1" stroke-width="3.0"/>
    <path d="M 225.4421844482422 175.1465606689453 C 97.42363739013672 161.6553955078125 133.0491943359375 175.12530517578125 161.6853485107422 166.8925018310547" fill="none" stroke="rgb(0, 0, 0)" stroke-linecap="round" stroke-linejoin="round" stroke-opacity="1" stroke-width="2.999908924102783"/>
    <path d="M 1.4240506887435913 -9.24177360534668 C 62.555477142333984 51.872650146484375 127.02220153808594 58.10548400878906 162.08424377441406 28.323246002197266" fill="none" stroke="rgb(0, 0, 0)" stroke-linecap="round" stroke-linejoin="round" stroke-opacity="1" stroke-width="3.0"/>
    <path d="M 227.4234161376953 -1.3579785823822021 C 161.12229919433594 68.97233581542969 164.46363830566406 45.09537887573242 112.7088851928711 45.03616714477539" fill="none" stroke="rgb(0, 0, 0)" stroke-linecap="round" stroke-linejoin="round" stroke-opacity="1" stroke-width="3.0"/>
    <path d="M 141.5487823486328 40.65446472167969 C 168.88710021972656 15.339380264282227 152.51968383789062 44.224849700927734 189.6297607421875 3.574540138244629" fill="none" stroke="rgb(0, 0, 0)" stroke-linecap="round" stroke-linejoin="round" stroke-opacity="1" stroke-width="2.9997403621673584"/>
    <path d="M 8.089882850646973 31.816335678100586 C 32.774017333984375 54.11980056762695 3.8469464778900146 94.22942352294922 5.782485008239746 167.67648315429688" fill="none" stroke="rgb(0, 0, 0)" stroke-linecap="round" stroke-linejoin="round" stroke-opacity="1" stroke-width="3.0"/>
    <path d="M 142.4313201904297 -7.2138543128967285 C 153.60357666015625 36.212249755859375 150.16299438476562 51.22954559326172 141.56260681152344 -14.281793594360352" fill="none" stroke="rgb(0, 0, 0)" stroke-linecap="round" stroke-linejoin="round" stroke-opacity="1" stroke-width="2.999997854232788"/>
    <path d="M 133.50381469726562 56.704097747802734 C 49.435306549072266 53.64457702636719 -60.739166259765625 64.15692901611328 71.50525665283203 66.8423080444336" fill="none" stroke="rgb(0, 0, 0)" stroke-linecap="round" stroke-linejoin="round" stroke-opacity="1" stroke-width="3.0"/>
    <path d="M 170.21200561523438 57.74867630004883 C 117.3565902709961 57.05353927612305 100.40586853027344 63.08921432495117 183.67489624023438 37.47285461425781" fill="none" stroke="rgb(0, 0, 0)" stroke-linecap="round" stroke-linejoin="round" stroke-opacity="1" stroke-width="3.0"/>
    <path d="M 19.71870994567871 53.42213821411133 C 135.45826721191406 52.479434967041016 138.59410095214844 80.08271789550781 210.82786560058594 0.04533839970827103" fill="none" stroke="rgb(0, 0, 0)" stroke-linecap="round" stroke-linejoin="round" stroke-opacity="1" stroke-width="3.0"/>
    <path d="M 139.11146545410156 164.7767333984375 C 119.5630111694336 158.0301971435547 132.905029296875 195.0773162841797 127.53546905517578 83.53809356689453" fill="none" stroke="rgb(0, 0, 0)" stroke-linecap="round" stroke-linejoin="round" stroke-opacity="1" stroke-width="3.0"/>
    <path d="M -8.414603233337402 12.651062965393066 C 33.85197830200195 58.68439483642578 31.505123138427734 85.74163818359375 -1.8898335695266724 18.532934188842773" fill="none" stroke="rgb(0, 0, 0)" stroke-linecap="round" stroke-linejoin="round" stroke-opacity="1" stroke-width="3.0"/>
    <path d="M -35.92400360107422 170.33328247070312 C 96.31485748291016 163.61813354492188 31.512914657592773 173.3125457763672 31.091182708740234 162.45196533203125" fill="none" stroke="rgb(0, 0, 0)" stroke-linecap="round" stroke-linejoin="round" stroke-opacity="1" stroke-width="3.0"/>
    <path d="M 137.25018310546875 -15.07624626159668 C 151.4024658203125 25.07427215576172 170.74514770507812 54.1554069519043 72.67896270751953 39.05955505371094" fill="none" stroke="rgb(0, 0, 0)" stroke-linecap="round" stroke-linejoin="round" stroke-opacity="1" stroke-width="3.0"/>
    <path d="M 181.02630615234375 120.01441955566406 C 178.22952270507812 46.1860466003418 179.40792846679688 83.06023406982422 184.16024780273438 168.29541015625" fill="none" stroke="rgb(0, 0, 0)" stroke-linecap="round" stroke-linejoin="round" stroke-opacity="1" stroke-width="3.0"/>
    <path d="M 105.74528503417969 55.31901931762695 C 75.663818359375 53.97232437133789 35.224056243896484 51.065853118896484 -0.12530413269996643 -4.666331768035889" fill="none" stroke="rgb(0, 0, 0)" stroke-linecap="round" stroke-linejoin="round" stroke-opacity="1" stroke-width="2.9999871253967285"/>
    <path d="M 60.359619140625 53.734397888183594 C 102.88563537597656 57.031349182128906 84.79631042480469 54.6755485534668 58.78119659423828 55.00936508178711" fill="none" stroke="rgb(0, 0, 0)" stroke-linecap="round" stroke-linejoin="round" stroke-opacity="1" stroke-width="2.993557929992676"/>
    <path d="M 72.9373550415039 169.93336486816406 C 81.8920669555664 27.162004470825195 74.48361206054688 40.17265701293945 60.55462646484375 164.47320556640625" fill="none" stroke="rgb(0, 0, 0)" stroke-linecap="round" stroke-linejoin="round" stroke-opacity="1" stroke-width="3.0"/>
  </g>
</svg>
