<?xml version="1.0" ?>
<svg height="224" version="1.1" width="224" xmlns="http://www.w3.org/2000/svg">
  <defs/>
  <g>
    <path d="M 78.10406494140625 68.94776153564453 C 75.97697448730469 202.9713134765625 64.43456268310547 205.7752227783203 63.49208450317383 79.19615936279297" fill="none" stroke="rgb(0, 0, 0)" stroke-linecap="round" stroke-linejoin="round" stroke-opacity="1" stroke-width="3.0"/>
    <path d="M 204.04759216308594 166.06231689453125 C 188.7528533935547 14.550381660461426 194.4599609375 40.84699249267578 209.78536987304688 168.61192321777344" fill="none" stroke="rgb(0, 0, 0)" stroke-linecap="round" stroke-linejoin="round" stroke-opacity="1" stroke-width="3.0"/>
    <path d="M 227.98948669433594 175.4884490966797 C 99.54940032958984 166.57443237304688 129.45468139648438 168.79623413085938 180.44583129882812 160.01231384277344" fill="none" stroke="rgb(0, 0, 0)" stroke-linecap="round" stroke-linejoin="round" stroke-opacity="1" stroke-width="3.0"/>
    <path d="M 13.717371940612793 -11.880508422851562 C 40.058807373046875 54.23739242553711 151.52801513671875 56.40412139892578 168.11495971679688 26.349712371826172" fill="none" stroke="rgb(0, 0, 0)" stroke-linecap="round" stroke-linejoin="round" stroke-opacity="1" stroke-width="3.0"/>
    <path d="M 6.157085418701172 31.302032470703125 C 30.26569938659668 50.89794921875 4.557188987731934 88.36457824707031 6.118838787078857 165.97006225585938" fill="none" stroke="rgb(0, 0, 0)" stroke-linecap="round" stroke-linejoin="round" stroke-opacity="1" stroke-width="3.0"/>
    <path d="M 134.41217041015625 65.69023895263672 C 40.765625 60.02130126953125 -67.85405731201172 63.3217658996582 70.96273803710938 71.06383514404297" fill="none" stroke="rgb(0, 0, 0)" stroke-linecap="round" stroke-linejoin="round" stroke-opacity="1" stroke-width="3.0"/>
    <path d="M 173.27162170410156 59.02904510498047 C 106.41787719726562 55.99771499633789 106.116455078125 67.55440521240234 182.8544158935547 14.68880558013916" fill="none" stroke="rgb(0, 0, 0)" stroke-linecap="round" stroke-linejoin="round" stroke-opacity="1" stroke-width="3.0"/>
    <path d="M 17.783161163330078 53.53464889526367 C 132.93930053710938 48.29648971557617 149.26608276367188 82.36933135986328 224.05764770507812 2.889899253845215" fill="none" stroke="rgb(0, 0, 0)" stroke-linecap="round" stroke-linejoin="round" stroke-opacity="1" stroke-width="3.0"/>
    <path d="M 167.35174560546875 165.94302368164062 C 108.19474029541016 152.50291442871094 132.2516326904297 197.2278594970703 127.75027465820312 82.61109924316406" fill="none" stroke="rgb(0, 0, 0)" stroke-linecap="round" stroke-linejoin="round" stroke-opacity="1" stroke-width="3.0"/>
    <path d="M -3.2092626094818115 11.625468254089355 C 19.630455017089844 76.12394714355469 42.71284484863281 81.72675323486328 -1.8174395561218262 17.74462890625" fill="none" stroke="rgb(0, 0, 0)" stroke-linecap="round" stroke-linejoin="round" stroke-opacity="1" stroke-width="3.0"/>
    <path d="M -35.72101974487305 172.4237823486328 C 98.54452514648438 163.48538208007812 10.382769584655762 174.66183471679688 26.271297454833984 163.7017822265625" fill="none" stroke="rgb(0, 0, 0)" stroke-linecap="round" stroke-linejoin="round" stroke-opacity="1" stroke-width="3.0"/>
    <path d="M 139.90374755859375 -20.2271671295166 C 152.0446319580078 32.33791732788086 172.9961700439453 58.30726623535156 72.619873046875 53.39651107788086" fill="none" stroke="rgb(0, 0, 0)" stroke-linecap="round" stroke-linejoin="round" stroke-opacity="1" stroke-width="3.0"/>
    <path d="M 183.763427734375 151.1474151611328 C 178.37440490722656 39.6540412902832 174.3009490966797 78.30945587158203 187.60958862304688 170.40818786621094" fill="none" stroke="rgb(0, 0, 0)" stroke-linecap="round" stroke-linejoin="round" stroke-opacity="1" stroke-width="3.0"/>
    <path d="M 107.18295288085938 53.51764678955078 C 73.54495239257812 53.136295318603516 42.08515167236328 49.11779022216797 -3.374058246612549 -6.448159217834473" fill="none" stroke="rgb(0, 0, 0)" stroke-linecap="round" stroke-linejoin="round" stroke-opacity="1" stroke-width="3.0"/>
    <path d="M 50.280982971191406 29.760461807250977 C 126.4478988647461 66.82494354248047 99.28694915771484 52.53145217895508 53.848304748535156 50.389259338378906" fill="none" stroke="rgb(0, 0, 0)" stroke-linecap="round" stroke-linejoin="round" stroke-opacity="1" stroke-width="3.0"/>
    <path d="M 64.931396484375 171.20433044433594 C 72.31588745117188 34.43042755126953 68.87771606445312 46.74361038208008 57.92973709106445 163.61444091796875" fill="none" stroke="rgb(0, 0, 0)" stroke-linecap="round" stroke-linejoin="round" stroke-opacity="1" stroke-width="3.0"/>
  </g>
</svg>
