<?xml version="1.0" ?>
<svg height="224" version="1.1" width="224" xmlns="http://www.w3.org/2000/svg">
  <defs/>
  <g>
    <path d="M 138.78570556640625 146.6162109375 C 87.52032470703125 149.3431396484375 122.93133544921875 256.0008850097656 121.66802215576172 77.88352966308594" fill="none" stroke="rgb(0, 0, 0)" stroke-linecap="round" stroke-linejoin="round" stroke-opacity="1" stroke-width="3.0"/>
    <path d="M 221.23223876953125 179.75682067871094 C 206.94749450683594 173.20291137695312 220.8052215576172 240.61892700195312 211.06619262695312 -14.505184173583984" fill="none" stroke="rgb(0, 0, 0)" stroke-linecap="round" stroke-linejoin="round" stroke-opacity="1" stroke-width="2.999999523162842"/>
    <path d="M 17.291921615600586 210.0951385498047 C 51.341705322265625 213.474365234375 -25.03961181640625 214.8443603515625 108.36136627197266 180.02682495117188" fill="none" stroke="rgb(0, 0, 0)" stroke-linecap="round" stroke-linejoin="round" stroke-opacity="1" stroke-width="3.0"/>
    <path d="M 183.09068298339844 214.27293395996094 C 203.47702026367188 211.11170959472656 180.60194396972656 300.513916015625 201.60789489746094 10.527115821838379" fill="none" stroke="rgb(0, 0, 0)" stroke-linecap="round" stroke-linejoin="round" stroke-opacity="1" stroke-width="3.0"/>
    <path d="M 143.1837158203125 133.36866760253906 C 150.00244140625 16.00029754638672 131.87562561035156 -1.629435420036316 128.98619079589844 122.0768051147461" fill="none" stroke="rgb(0, 0, 0)" stroke-linecap="round" stroke-linejoin="round" stroke-opacity="1" stroke-width="3.0"/>
    <path d="M 144.445068359375 34.50259780883789 C 92.05364990234375 100.99851989746094 174.81698608398438 113.47246551513672 70.5677719116211 85.59291076660156" fill="none" stroke="rgb(0, 0, 0)" stroke-linecap="round" stroke-linejoin="round" stroke-opacity="1" stroke-width="3.0"/>
    <path d="M 186.08705139160156 198.2915496826172 C 75.05474853515625 146.19017028808594 112.43390655517578 159.86309814453125 148.46600341796875 175.03009033203125" fill="none" stroke="rgb(0, 0, 0)" stroke-linecap="round" stroke-linejoin="round" stroke-opacity="1" stroke-width="3.0"/>
    <path d="M 160.6876983642578 182.2903594970703 C 203.01512145996094 144.14724731445312 225.5580291748047 165.2827911376953 123.44763946533203 134.78086853027344" fill="none" stroke="rgb(0, 0, 0)" stroke-linecap="round" stroke-linejoin="round" stroke-opacity="1" stroke-width="3.0"/>
    <path d="M 66.22245025634766 90.19281768798828 C 67.75438690185547 48.2110710144043 56.90073776245117 -35.96613693237305 28.47791290283203 -4.6677703857421875" fill="none" stroke="rgb(0, 0, 0)" stroke-linecap="round" stroke-linejoin="round" stroke-opacity="1" stroke-width="3.0"/>
    <path d="M 18.954545974731445 23.798120498657227 C 25.864755630493164 26.23464584350586 23.669010162353516 61.14468765258789 32.651641845703125 144.39126586914062" fill="none" stroke="rgb(0, 0, 0)" stroke-linecap="round" stroke-linejoin="round" stroke-opacity="1" stroke-width="3.0"/>
    <path d="M 43.20751190185547 4.060144901275635 C 89.51866912841797 28.332073211669922 179.5651092529297 27.432636260986328 210.17364501953125 6.562914848327637" fill="none" stroke="rgb(0, 0, 0)" stroke-linecap="round" stroke-linejoin="round" stroke-opacity="1" stroke-width="3.0"/>
    <path d="M 40.61738204956055 -3.616584300994873 C 61.13364791870117 171.02960205078125 28.052165985107422 93.17076873779297 76.74517059326172 92.33274841308594" fill="none" stroke="rgb(0, 0, 0)" stroke-linecap="round" stroke-linejoin="round" stroke-opacity="1" stroke-width="3.0"/>
    <path d="M 52.32349395751953 81.97434997558594 C 61.82117462158203 89.09721374511719 57.62852096557617 127.5878677368164 51.10250473022461 -14.162052154541016" fill="none" stroke="rgb(0, 0, 0)" stroke-linecap="round" stroke-linejoin="round" stroke-opacity="1" stroke-width="3.0"/>
  </g>
</svg>
