<?xml version="1.0" ?>
<svg height="224" version="1.1" width="224" xmlns="http://www.w3.org/2000/svg">
  <defs/>
  <g>
    <path d="M 160.9028778076172 82.60218811035156 C 159.20701599121094 260.0543518066406 158.23939514160156 200.2034912109375 151.14649963378906 91.23108673095703" fill="none" stroke="rgb(0, 0, 0)" stroke-linecap="round" stroke-linejoin="round" stroke-opacity="1" stroke-width="3.0"/>
    <path d="M 90.54389953613281 167.2877197265625 C 284.66851806640625 170.2242431640625 265.274169921875 202.37744140625 128.71632385253906 162.0009765625" fill="none" stroke="rgb(0, 0, 0)" stroke-linecap="round" stroke-linejoin="round" stroke-opacity="1" stroke-width="3.0"/>
    <path d="M 60.01643753051758 144.2837371826172 C 74.37242889404297 7.951991081237793 28.622114181518555 68.10157012939453 172.3050994873047 68.04304504394531" fill="none" stroke="rgb(0, 0, 0)" stroke-linecap="round" stroke-linejoin="round" stroke-opacity="1" stroke-width="3.0"/>
    <path d="M 84.8932113647461 75.37989807128906 C 108.26875305175781 78.51644897460938 199.2324676513672 78.61759948730469 157.35816955566406 89.56144714355469" fill="none" stroke="rgb(0, 0, 0)" stroke-linecap="round" stroke-linejoin="round" stroke-opacity="1" stroke-width="3.0"/>
    <path d="M 174.4627685546875 163.1290740966797 C 176.73521423339844 84.09442901611328 147.2399139404297 135.66004943847656 235.775146484375 88.58021545410156" fill="none" stroke="rgb(0, 0, 0)" stroke-linecap="round" stroke-linejoin="round" stroke-opacity="1" stroke-width="3.0"/>
    <path d="M 190.03057861328125 144.47201538085938 C 194.56654357910156 194.14297485351562 175.966552734375 162.82383728027344 242.9049835205078 187.16139221191406" fill="none" stroke="rgb(0, 0, 0)" stroke-linecap="round" stroke-linejoin="round" stroke-opacity="1" stroke-width="3.0"/>
    <path d="M 164.5027618408203 -31.270427703857422 C 158.4932861328125 -39.09463119506836 152.31736755371094 -10.544825553894043 109.83062744140625 32.18598175048828" fill="none" stroke="rgb(0, 0, 0)" stroke-linecap="round" stroke-linejoin="round" stroke-opacity="1" stroke-width="2.3311519622802734"/>
    <path d="M 122.99944305419922 49.96832275390625 C 150.1731414794922 44.17442321777344 176.1522216796875 36.05689239501953 210.85772705078125 -14.441086769104004" fill="none" stroke="rgb(0, 0, 0)" stroke-linecap="round" stroke-linejoin="round" stroke-opacity="1" stroke-width="3.0"/>
    <path d="M -8.844789505004883 46.1549072265625 C 58.65914535522461 69.5383071899414 90.17913055419922 82.20805358886719 -0.10343363881111145 44.66865158081055" fill="none" stroke="rgb(0, 0, 0)" stroke-linecap="round" stroke-linejoin="round" stroke-opacity="1" stroke-width="3.0"/>
    <path d="M 82.7706298828125 164.91966247558594 C 84.89158630371094 23.70562171936035 78.73894500732422 68.6638412475586 91.59778594970703 62.5770378112793" fill="none" stroke="rgb(0, 0, 0)" stroke-linecap="round" stroke-linejoin="round" stroke-opacity="1" stroke-width="3.0"/>
    <path d="M 195.66517639160156 102.8200912475586 C 203.0098876953125 181.61341857910156 195.2191925048828 108.14989471435547 199.56837463378906 107.34562683105469" fill="none" stroke="rgb(0, 0, 0)" stroke-linecap="round" stroke-linejoin="round" stroke-opacity="1" stroke-width="2.9803199768066406"/>
    <path d="M 82.00135040283203 142.64190673828125 C -83.68611907958984 154.71624755859375 -1.8591703176498413 143.42239379882812 -15.73477554321289 160.1259307861328" fill="none" stroke="rgb(0, 0, 0)" stroke-linecap="round" stroke-linejoin="round" stroke-opacity="1" stroke-width="3.0"/>
    <path d="M 81.85958862304688 165.82696533203125 C 211.3188018798828 163.39231872558594 278.5846862792969 168.3241424560547 165.4637451171875 160.3829345703125" fill="none" stroke="rgb(0, 0, 0)" stroke-linecap="round" stroke-linejoin="round" stroke-opacity="1" stroke-width="3.0"/>
    <path d="M 50.495296478271484 36.837371826171875 C 116.67704010009766 71.8801498413086 151.9834442138672 65.08879089355469 227.81488037109375 -3.7017650604248047" fill="none" stroke="rgb(0, 0, 0)" stroke-linecap="round" stroke-linejoin="round" stroke-opacity="1" stroke-width="3.0"/>
    <path d="M 33.02998352050781 59.1635627746582 C 56.01248550415039 75.68975830078125 50.70063781738281 46.38877868652344 47.956050872802734 144.5298309326172" fill="none" stroke="rgb(0, 0, 0)" stroke-linecap="round" stroke-linejoin="round" stroke-opacity="1" stroke-width="3.0"/>
    <path d="M 240.32034301757812 38.229793548583984 C 101.17256927490234 114.8890151977539 161.96047973632812 76.57762908935547 152.78334045410156 104.03826904296875" fill="none" stroke="rgb(0, 0, 0)" stroke-linecap="round" stroke-linejoin="round" stroke-opacity="1" stroke-width="3.0"/>
    <path d="M 125.81167602539062 51.71843719482422 C 38.06060791015625 37.08211135864258 75.07495880126953 46.961692810058594 114.8852767944336 -10.460050582885742" fill="none" stroke="rgb(0, 0, 0)" stroke-linecap="round" stroke-linejoin="round" stroke-opacity="1" stroke-width="2.9999990463256836"/>
    <path d="M 170.61102294921875 -2.049422025680542 C 141.63131713867188 37.411903381347656 154.68785095214844 16.802799224853516 94.59065246582031 37.167999267578125" fill="none" stroke="rgb(0, 0, 0)" stroke-linecap="round" stroke-linejoin="round" stroke-opacity="1" stroke-width="2.9950203895568848"/>
    <path d="M 64.96530151367188 36.58906555175781 C 92.40222930908203 45.00444030761719 46.38321304321289 42.572513580322266 12.109910011291504 -15.933302879333496" fill="none" stroke="rgb(0, 0, 0)" stroke-linecap="round" stroke-linejoin="round" stroke-opacity="1" stroke-width="3.0"/>
    <path d="M -1.7305285930633545 -1.1084448099136353 C 33.51887893676758 46.540523529052734 88.21107482910156 66.04464721679688 62.392913818359375 58.93132781982422" fill="none" stroke="rgb(0, 0, 0)" stroke-linecap="round" stroke-linejoin="round" stroke-opacity="1" stroke-width="3.0"/>
    <path d="M 155.59176635742188 150.52906799316406 C 213.19908142089844 145.0384063720703 94.56348419189453 190.6493377685547 105.40909576416016 153.01402282714844" fill="none" stroke="rgb(0, 0, 0)" stroke-linecap="round" stroke-linejoin="round" stroke-opacity="1" stroke-width="3.0"/>
  </g>
</svg>
