<?xml version="1.0" ?>
<svg height="224" version="1.1" width="224" xmlns="http://www.w3.org/2000/svg">
  <defs/>
  <g>
    <path d="M 131.36376953125 141.4276580810547 C 83.0401840209961 122.60987091064453 124.72402954101562 251.5623321533203 108.2991714477539 42.64506149291992" fill="none" stroke="rgb(0, 0, 0)" stroke-linecap="round" stroke-linejoin="round" stroke-opacity="1" stroke-width="3.0"/>
    <path d="M 230.47044372558594 189.47311401367188 C 173.28082275390625 142.75082397460938 201.73873901367188 233.4285430908203 205.288818359375 -26.313251495361328" fill="none" stroke="rgb(0, 0, 0)" stroke-linecap="round" stroke-linejoin="round" stroke-opacity="1" stroke-width="2.999999523162842"/>
    <path d="M 25.37134552001953 182.2490692138672 C 15.994508743286133 190.1338653564453 -44.99391555786133 169.38551330566406 138.65765380859375 220.89768981933594" fill="none" stroke="rgb(0, 0, 0)" stroke-linecap="round" stroke-linejoin="round" stroke-opacity="1" stroke-width="3.0"/>
    <path d="M 159.38526916503906 211.698486328125 C 188.07899475097656 190.5931396484375 171.4932098388672 288.9250793457031 196.34518432617188 3.40238618850708" fill="none" stroke="rgb(0, 0, 0)" stroke-linecap="round" stroke-linejoin="round" stroke-opacity="1" stroke-width="3.0"/>
    <path d="M 147.4448699951172 109.67330932617188 C 144.11248779296875 -12.378350257873535 161.7250518798828 -30.175601959228516 153.526611328125 126.29440307617188" fill="none" stroke="rgb(0, 0, 0)" stroke-linecap="round" stroke-linejoin="round" stroke-opacity="1" stroke-width="2.9997506141662598"/>
    <path d="M 156.22816467285156 25.114887237548828 C 148.57969665527344 145.8074493408203 190.5745086669922 119.43856048583984 68.7132568359375 99.16742706298828" fill="none" stroke="rgb(0, 0, 0)" stroke-linecap="round" stroke-linejoin="round" stroke-opacity="1" stroke-width="2.9999990463256836"/>
    <path d="M 181.93850708007812 161.5487518310547 C 12.596597671508789 110.8726806640625 39.52410125732422 108.60404205322266 162.02633666992188 152.3104248046875" fill="none" stroke="rgb(0, 0, 0)" stroke-linecap="round" stroke-linejoin="round" stroke-opacity="1" stroke-width="3.0"/>
    <path d="M 176.561767578125 183.7516326904297 C 162.59828186035156 109.50724029541016 234.57957458496094 135.53842163085938 144.22373962402344 114.96334838867188" fill="none" stroke="rgb(0, 0, 0)" stroke-linecap="round" stroke-linejoin="round" stroke-opacity="1" stroke-width="3.0"/>
    <path d="M 67.04759979248047 125.61100769042969 C 55.898826599121094 9.437697410583496 49.87777328491211 -54.90032196044922 32.62590026855469 -21.81781578063965" fill="none" stroke="rgb(0, 0, 0)" stroke-linecap="round" stroke-linejoin="round" stroke-opacity="1" stroke-width="3.0"/>
    <path d="M 27.680341720581055 -8.344564437866211 C 113.95719909667969 25.606470108032227 146.33660888671875 23.220657348632812 192.0952911376953 -5.98564338684082" fill="none" stroke="rgb(0, 0, 0)" stroke-linecap="round" stroke-linejoin="round" stroke-opacity="1" stroke-width="3.0"/>
    <path d="M 0.7298344969749451 4.988839626312256 C 38.60203170776367 167.52655029296875 -0.00866262149065733 124.85346221923828 52.988914489746094 111.69854736328125" fill="none" stroke="rgb(0, 0, 0)" stroke-linecap="round" stroke-linejoin="round" stroke-opacity="1" stroke-width="3.0"/>
    <path d="M 20.69032859802246 119.81465148925781 C 45.30946731567383 99.38182067871094 35.59157943725586 157.39810180664062 10.918901443481445 -32.72220993041992" fill="none" stroke="rgb(0, 0, 0)" stroke-linecap="round" stroke-linejoin="round" stroke-opacity="1" stroke-width="3.0"/>
  </g>
</svg>
