<?xml version="1.0" ?>
<svg height="224" version="1.1" width="224" xmlns="http://www.w3.org/2000/svg">
  <defs/>
  <g>
    <path d="M 172.5580596923828 92.35816955566406 C 158.8546600341797 287.74591064453125 159.98895263671875 224.49725341796875 163.8187255859375 92.01395416259766" fill="none" stroke="rgb(0, 0, 0)" stroke-linecap="round" stroke-linejoin="round" stroke-opacity="1" stroke-width="3.0"/>
    <path d="M 75.83499145507812 169.67025756835938 C 297.706787109375 171.87094116210938 273.4944152832031 214.76368713378906 133.26083374023438 167.07940673828125" fill="none" stroke="rgb(0, 0, 0)" stroke-linecap="round" stroke-linejoin="round" stroke-opacity="1" stroke-width="2.7917542457580566"/>
    <path d="M 90.77607727050781 84.31866455078125 C 134.88705444335938 82.09892272949219 221.55474853515625 68.59321594238281 155.45681762695312 95.05077362060547" fill="none" stroke="rgb(0, 0, 0)" stroke-linecap="round" stroke-linejoin="round" stroke-opacity="1" stroke-width="3.0"/>
    <path d="M 178.7522430419922 170.6184844970703 C 182.82083129882812 79.85733032226562 154.52151489257812 131.67578125 249.98709106445312 90.19413757324219" fill="none" stroke="rgb(0, 0, 0)" stroke-linecap="round" stroke-linejoin="round" stroke-opacity="1" stroke-width="3.0"/>
    <path d="M 204.5157928466797 134.56153869628906 C 205.24131774902344 218.8437042236328 190.7501983642578 176.76953125 233.76388549804688 205.4169921875" fill="none" stroke="rgb(0, 0, 0)" stroke-linecap="round" stroke-linejoin="round" stroke-opacity="1" stroke-width="3.0"/>
    <path d="M 136.71116638183594 47.958316802978516 C 140.59747314453125 40.84697723388672 180.34927368164062 39.50296401977539 218.5519561767578 -19.995744705200195" fill="none" stroke="rgb(0, 0, 0)" stroke-linecap="round" stroke-linejoin="round" stroke-opacity="1" stroke-width="2.9999985694885254"/>
    <path d="M -12.348553657531738 50.75612258911133 C 86.67609405517578 81.28504180908203 147.12220764160156 81.53604125976562 -9.459344863891602 38.85779571533203" fill="none" stroke="rgb(0, 0, 0)" stroke-linecap="round" stroke-linejoin="round" stroke-opacity="1" stroke-width="2.999943256378174"/>
    <path d="M 83.69082641601562 170.38290405273438 C 86.61880493164062 19.423114776611328 70.78445434570312 76.86653137207031 117.5436019897461 63.14968490600586" fill="none" stroke="rgb(0, 0, 0)" stroke-linecap="round" stroke-linejoin="round" stroke-opacity="1" stroke-width="3.0"/>
    <path d="M 76.29396057128906 155.71173095703125 C -102.19418334960938 161.3259735107422 -7.137253761291504 156.67506408691406 -18.936002731323242 168.80799865722656" fill="none" stroke="rgb(0, 0, 0)" stroke-linecap="round" stroke-linejoin="round" stroke-opacity="1" stroke-width="3.0"/>
    <path d="M 69.36875915527344 172.28578186035156 C 213.63392639160156 169.26791381835938 288.1353759765625 201.21133422851562 157.76730346679688 167.42372131347656" fill="none" stroke="rgb(0, 0, 0)" stroke-linecap="round" stroke-linejoin="round" stroke-opacity="1" stroke-width="3.0"/>
    <path d="M 13.05514144897461 36.27074432373047 C 127.52473449707031 72.87646484375 147.1829376220703 69.19913482666016 229.41717529296875 -12.579508781433105" fill="none" stroke="rgb(0, 0, 0)" stroke-linecap="round" stroke-linejoin="round" stroke-opacity="1" stroke-width="3.0"/>
    <path d="M 5.185490608215332 55.03089141845703 C 32.091758728027344 69.30033111572266 22.030139923095703 45.4974365234375 17.923389434814453 153.88241577148438" fill="none" stroke="rgb(0, 0, 0)" stroke-linecap="round" stroke-linejoin="round" stroke-opacity="1" stroke-width="3.0"/>
    <path d="M 249.11500549316406 38.67084503173828 C 124.1566390991211 118.37193298339844 162.21786499023438 57.55664825439453 150.64195251464844 147.65756225585938" fill="none" stroke="rgb(0, 0, 0)" stroke-linecap="round" stroke-linejoin="round" stroke-opacity="1" stroke-width="3.0"/>
    <path d="M 135.59396362304688 50.81052017211914 C -9.46513843536377 26.865867614746094 53.331321716308594 41.634647369384766 150.3563232421875 -2.011491298675537" fill="none" stroke="rgb(0, 0, 0)" stroke-linecap="round" stroke-linejoin="round" stroke-opacity="1" stroke-width="2.999999523162842"/>
    <path d="M -1.0912551879882812 -9.919401168823242 C 30.684648513793945 35.81195068359375 102.96571350097656 41.60913848876953 85.94486236572266 42.3456916809082" fill="none" stroke="rgb(0, 0, 0)" stroke-linecap="round" stroke-linejoin="round" stroke-opacity="1" stroke-width="2.734236001968384"/>
    <path d="M 151.6188507080078 155.31898498535156 C 226.46444702148438 157.6786651611328 92.8091812133789 196.1206512451172 106.8812255859375 159.5662384033203" fill="none" stroke="rgb(0, 0, 0)" stroke-linecap="round" stroke-linejoin="round" stroke-opacity="1" stroke-width="3.0"/>
  </g>
</svg>
