<?xml version="1.0" ?>
<svg height="224" version="1.1" width="224" xmlns="http://www.w3.org/2000/svg">
  <defs/>
  <g>
    <path d="M 77.32344055175781 70.33280944824219 C 74.39136505126953 201.36268615722656 62.71788787841797 204.33734130859375 64.86945343017578 81.091552734375" fill="none" stroke="rgb(0, 0, 0)" stroke-linecap="round" stroke-linejoin="round" stroke-opacity="1" stroke-width="3.0"/>
    <path d="M 209.91270446777344 168.0673828125 C 191.8795928955078 15.226322174072266 189.54884338378906 44.54254913330078 203.50279235839844 165.544921875" fill="none" stroke="rgb(0, 0, 0)" stroke-linecap="round" stroke-linejoin="round" stroke-opacity="1" stroke-width="3.0"/>
    <path d="M 234.63961791992188 174.58560180664062 C 104.25435638427734 161.9581756591797 124.2408218383789 166.7388916015625 178.46832275390625 158.87619018554688" fill="none" stroke="rgb(0, 0, 0)" stroke-linecap="round" stroke-linejoin="round" stroke-opacity="1" stroke-width="3.0"/>
    <path d="M 8.203317642211914 -13.522018432617188 C 49.369510650634766 59.034828186035156 145.66238403320312 63.02879333496094 204.02333068847656 11.205310821533203" fill="none" stroke="rgb(0, 0, 0)" stroke-linecap="round" stroke-linejoin="round" stroke-opacity="1" stroke-width="3.0"/>
    <path d="M 5.750062465667725 29.24546241760254 C 30.124950408935547 51.911869049072266 6.706884860992432 88.57164764404297 2.252364158630371 162.7704315185547" fill="none" stroke="rgb(0, 0, 0)" stroke-linecap="round" stroke-linejoin="round" stroke-opacity="1" stroke-width="3.0"/>
    <path d="M 160.78245544433594 56.29318618774414 C 42.62384033203125 53.34514617919922 -62.280216217041016 65.85163116455078 74.2836685180664 67.91254425048828" fill="none" stroke="rgb(0, 0, 0)" stroke-linecap="round" stroke-linejoin="round" stroke-opacity="1" stroke-width="2.999990701675415"/>
    <path d="M 172.4682159423828 63.02192306518555 C 105.9363784790039 53.4699592590332 133.1613006591797 73.52597045898438 203.61520385742188 8.369911193847656" fill="none" stroke="rgb(0, 0, 0)" stroke-linecap="round" stroke-linejoin="round" stroke-opacity="1" stroke-width="2.9999332427978516"/>
    <path d="M 16.959196090698242 56.918426513671875 C 130.27381896972656 49.519527435302734 160.06259155273438 76.59011840820312 226.38095092773438 -0.025464288890361786" fill="none" stroke="rgb(0, 0, 0)" stroke-linecap="round" stroke-linejoin="round" stroke-opacity="1" stroke-width="3.0"/>
    <path d="M 166.29837036132812 164.78652954101562 C 108.64723205566406 148.39427185058594 130.0674591064453 196.40379333496094 127.29612731933594 82.51388549804688" fill="none" stroke="rgb(0, 0, 0)" stroke-linecap="round" stroke-linejoin="round" stroke-opacity="1" stroke-width="3.0"/>
    <path d="M -4.268005847930908 9.8704252243042 C 21.93672752380371 72.60611724853516 42.21792984008789 79.31684875488281 -0.7799149751663208 17.211755752563477" fill="none" stroke="rgb(0, 0, 0)" stroke-linecap="round" stroke-linejoin="round" stroke-opacity="1" stroke-width="3.0"/>
    <path d="M 138.2321014404297 -17.93189239501953 C 149.81155395507812 30.11688232421875 172.83331298828125 57.89397048950195 62.61824417114258 34.861900329589844" fill="none" stroke="rgb(0, 0, 0)" stroke-linecap="round" stroke-linejoin="round" stroke-opacity="1" stroke-width="3.0"/>
    <path d="M 182.8640594482422 149.2758331298828 C 178.70716857910156 37.657859802246094 176.03958129882812 76.99626159667969 185.74559020996094 170.6720428466797" fill="none" stroke="rgb(0, 0, 0)" stroke-linecap="round" stroke-linejoin="round" stroke-opacity="1" stroke-width="3.0"/>
    <path d="M 114.0103988647461 55.73502731323242 C 74.73931121826172 56.345008850097656 36.434486389160156 52.049034118652344 -13.053397178649902 0.9051976799964905" fill="none" stroke="rgb(0, 0, 0)" stroke-linecap="round" stroke-linejoin="round" stroke-opacity="1" stroke-width="2.999999523162842"/>
    <path d="M 60.769126892089844 163.43743896484375 C 80.74437713623047 33.95475387573242 69.05597686767578 46.69676971435547 58.171836853027344 163.68502807617188" fill="none" stroke="rgb(0, 0, 0)" stroke-linecap="round" stroke-linejoin="round" stroke-opacity="1" stroke-width="3.0"/>
  </g>
</svg>
