<?xml version="1.0" ?>
<svg height="224" version="1.1" width="224" xmlns="http://www.w3.org/2000/svg">
  <defs/>
  <g>
    <path d="M 77.98797607421875 70.98384094238281 C 77.35476684570312 202.5685577392578 61.124332427978516 206.56881713867188 68.95435333251953 79.49138641357422" fill="none" stroke="rgb(0, 0, 0)" stroke-linecap="round" stroke-linejoin="round" stroke-opacity="1" stroke-width="3.0"/>
    <path d="M 209.37840270996094 168.19810485839844 C 190.87530517578125 16.260417938232422 190.09780883789062 45.024375915527344 203.3418426513672 165.59210205078125" fill="none" stroke="rgb(0, 0, 0)" stroke-linecap="round" stroke-linejoin="round" stroke-opacity="1" stroke-width="3.0"/>
    <path d="M 233.9326629638672 174.75498962402344 C 103.30144500732422 165.16494750976562 121.82127380371094 158.65818786621094 178.97329711914062 156.37232971191406" fill="none" stroke="rgb(0, 0, 0)" stroke-linecap="round" stroke-linejoin="round" stroke-opacity="1" stroke-width="3.0"/>
    <path d="M 7.7640557289123535 -13.791704177856445 C 52.552547454833984 59.571048736572266 155.62257385253906 68.41519165039062 211.33985900878906 1.5031124353408813" fill="none" stroke="rgb(0, 0, 0)" stroke-linecap="round" stroke-linejoin="round" stroke-opacity="1" stroke-width="3.0"/>
    <path d="M 6.459805011749268 29.5133056640625 C 33.00473403930664 55.67384719848633 4.648987293243408 86.56314849853516 8.046188354492188 167.4664306640625" fill="none" stroke="rgb(0, 0, 0)" stroke-linecap="round" stroke-linejoin="round" stroke-opacity="1" stroke-width="3.0"/>
    <path d="M 165.33236694335938 170.29302978515625 C 109.36637115478516 141.27381896972656 130.19869995117188 204.03001403808594 128.48365783691406 81.56584930419922" fill="none" stroke="rgb(0, 0, 0)" stroke-linecap="round" stroke-linejoin="round" stroke-opacity="1" stroke-width="3.0"/>
    <path d="M -6.6671528816223145 9.656241416931152 C 24.0131893157959 66.06980895996094 39.35554885864258 75.54202270507812 -1.2669621706008911 18.458045959472656" fill="none" stroke="rgb(0, 0, 0)" stroke-linecap="round" stroke-linejoin="round" stroke-opacity="1" stroke-width="3.0"/>
    <path d="M 141.1995391845703 -16.274885177612305 C 154.40760803222656 26.415203094482422 174.85733032226562 60.27450942993164 66.2681884765625 37.460514068603516" fill="none" stroke="rgb(0, 0, 0)" stroke-linecap="round" stroke-linejoin="round" stroke-opacity="1" stroke-width="3.0"/>
    <path d="M 183.0847625732422 147.66981506347656 C 177.75096130371094 39.024024963378906 176.97412109375 77.34915924072266 184.97915649414062 170.06935119628906" fill="none" stroke="rgb(0, 0, 0)" stroke-linecap="round" stroke-linejoin="round" stroke-opacity="1" stroke-width="3.0"/>
    <path d="M 101.8531723022461 55.753047943115234 C 76.0298080444336 52.782989501953125 34.477970123291016 51.13738250732422 -13.424193382263184 2.778992176055908" fill="none" stroke="rgb(0, 0, 0)" stroke-linecap="round" stroke-linejoin="round" stroke-opacity="1" stroke-width="2.999992847442627"/>
    <path d="M 62.50035095214844 162.32797241210938 C 70.82206726074219 24.868000030517578 64.63508605957031 40.29961013793945 58.940757751464844 162.6261749267578" fill="none" stroke="rgb(0, 0, 0)" stroke-linecap="round" stroke-linejoin="round" stroke-opacity="1" stroke-width="3.0"/>
  </g>
</svg>
