<?xml version="1.0" ?>
<svg height="224" version="1.1" width="224" xmlns="http://www.w3.org/2000/svg">
  <defs/>
  <g>
    <path d="M 182.87588500976562 72.90595245361328 C 187.1381072998047 309.9399108886719 184.4966583251953 246.496826171875 175.91656494140625 90.80387878417969" fill="none" stroke="rgb(0, 0, 0)" stroke-linecap="round" stroke-linejoin="round" stroke-opacity="1" stroke-width="3.0"/>
    <path d="M 100.362548828125 89.19081115722656 C 163.53993225097656 65.73019409179688 252.36524963378906 43.89187240600586 145.15623474121094 87.67935943603516" fill="none" stroke="rgb(0, 0, 0)" stroke-linecap="round" stroke-linejoin="round" stroke-opacity="1" stroke-width="3.0"/>
    <path d="M 192.08921813964844 180.86911010742188 C 186.94796752929688 70.7301025390625 170.7545928955078 129.8574676513672 257.04327392578125 94.02552032470703" fill="none" stroke="rgb(0, 0, 0)" stroke-linecap="round" stroke-linejoin="round" stroke-opacity="1" stroke-width="3.0"/>
    <path d="M 100.35505676269531 59.195438385009766 C 139.47434997558594 37.34526824951172 168.3634033203125 28.599245071411133 209.5408477783203 -34.42605972290039" fill="none" stroke="rgb(0, 0, 0)" stroke-linecap="round" stroke-linejoin="round" stroke-opacity="1" stroke-width="2.9999942779541016"/>
    <path d="M -15.268500328063965 59.436771392822266 C 114.41384887695312 83.45103454589844 188.8669891357422 80.08753967285156 -4.30118989944458 49.290950775146484" fill="none" stroke="rgb(0, 0, 0)" stroke-linecap="round" stroke-linejoin="round" stroke-opacity="1" stroke-width="3.0"/>
    <path d="M 91.77133178710938 164.86935424804688 C 104.36620330810547 19.954763412475586 72.48869323730469 106.04994201660156 174.21929931640625 47.31814193725586" fill="none" stroke="rgb(0, 0, 0)" stroke-linecap="round" stroke-linejoin="round" stroke-opacity="1" stroke-width="3.0"/>
    <path d="M 89.49281311035156 165.0615234375 C -147.85443115234375 173.80079650878906 -36.84402084350586 156.9473876953125 -21.46409797668457 169.19384765625" fill="none" stroke="rgb(0, 0, 0)" stroke-linecap="round" stroke-linejoin="round" stroke-opacity="1" stroke-width="3.0"/>
    <path d="M 93.03697967529297 163.90625 C 184.3548583984375 174.24819946289062 261.303466796875 198.6650848388672 151.36270141601562 167.7642364501953" fill="none" stroke="rgb(0, 0, 0)" stroke-linecap="round" stroke-linejoin="round" stroke-opacity="1" stroke-width="3.0"/>
    <path d="M 99.6090316772461 -10.597227096557617 C 107.0440673828125 -16.560773849487305 104.03077697753906 -4.922168254852295 102.17432403564453 -0.8420621752738953" fill="none" stroke="rgb(0, 0, 0)" stroke-linecap="round" stroke-linejoin="round" stroke-opacity="1" stroke-width="2.5010552406311035"/>
    <path d="M -6.708909034729004 -5.350630283355713 C 102.77276611328125 75.28076934814453 174.5276641845703 63.36140060424805 231.3468780517578 -13.706250190734863" fill="none" stroke="rgb(0, 0, 0)" stroke-linecap="round" stroke-linejoin="round" stroke-opacity="1" stroke-width="3.0"/>
    <path d="M 236.00233459472656 28.931087493896484 C 117.79291534423828 114.88279724121094 148.02708435058594 45.7850227355957 140.70327758789062 128.2015838623047" fill="none" stroke="rgb(0, 0, 0)" stroke-linecap="round" stroke-linejoin="round" stroke-opacity="1" stroke-width="3.0"/>
    <path d="M 165.61563110351562 167.96156311035156 C 243.2527313232422 159.76416015625 90.60587310791016 191.4703369140625 105.24736022949219 152.3006134033203" fill="none" stroke="rgb(0, 0, 0)" stroke-linecap="round" stroke-linejoin="round" stroke-opacity="1" stroke-width="3.0"/>
  </g>
</svg>
