<?xml version="1.0" ?>
<svg height="224" version="1.1" width="224" xmlns="http://www.w3.org/2000/svg">
  <defs/>
  <g>
    <path d="M 54.94191360473633 229.48797607421875 C -84.93961334228516 129.61264038085938 34.02082824707031 286.197265625 -22.403486251831055 -10.112586975097656" fill="none" stroke="rgb(0, 0, 0)" stroke-linecap="round" stroke-linejoin="round" stroke-opacity="1" stroke-width="3.0"/>
    <path d="M 225.43673706054688 273.3550109863281 C 144.3072967529297 190.83627319335938 193.52806091308594 365.74847412109375 189.82052612304688 -126.17049407958984" fill="none" stroke="rgb(0, 0, 0)" stroke-linecap="round" stroke-linejoin="round" stroke-opacity="1" stroke-width="3.0"/>
    <path d="M -11.10262680053711 81.43161010742188 C -51.899688720703125 143.3410186767578 -57.025299072265625 106.9951400756836 180.4785919189453 231.6123046875" fill="none" stroke="rgb(0, 0, 0)" stroke-linecap="round" stroke-linejoin="round" stroke-opacity="1" stroke-width="3.0"/>
    <path d="M 176.05799865722656 251.26634216308594 C 234.6331329345703 231.6001739501953 161.8430938720703 312.4471740722656 210.92169189453125 -161.13865661621094" fill="none" stroke="rgb(0, 0, 0)" stroke-linecap="round" stroke-linejoin="round" stroke-opacity="1" stroke-width="3.0"/>
    <path d="M 272.27294921875 -7.465930461883545 C 264.43609619140625 281.2569885253906 354.366943359375 153.79299926757812 102.95567321777344 57.5626106262207" fill="none" stroke="rgb(0, 0, 0)" stroke-linecap="round" stroke-linejoin="round" stroke-opacity="1" stroke-width="2.9999992847442627"/>
    <path d="M 118.56086730957031 132.97235107421875 C -113.05562591552734 33.14592361450195 -80.42564392089844 60.31682205200195 267.6229553222656 42.9238395690918" fill="none" stroke="rgb(0, 0, 0)" stroke-linecap="round" stroke-linejoin="round" stroke-opacity="1" stroke-width="3.0"/>
    <path d="M -83.00076293945312 39.05118179321289 C 117.2702407836914 24.008695602416992 165.5548095703125 57.99250793457031 265.88287353515625 82.24396514892578" fill="none" stroke="rgb(0, 0, 0)" stroke-linecap="round" stroke-linejoin="round" stroke-opacity="1" stroke-width="3.0"/>
    <path d="M -63.77296447753906 -0.699401319026947 C -42.29281234741211 339.0088806152344 -75.51133728027344 153.77601623535156 17.436485290527344 91.56388092041016" fill="none" stroke="rgb(0, 0, 0)" stroke-linecap="round" stroke-linejoin="round" stroke-opacity="1" stroke-width="3.0"/>
  </g>
</svg>
