<?xml version="1.0" ?>
<svg height="224" version="1.1" width="224" xmlns="http://www.w3.org/2000/svg">
  <defs/>
  <g>
    <path d="M 80.09400939941406 70.85005187988281 C 74.93864440917969 205.61341857910156 64.3805923461914 205.2683563232422 64.1855239868164 79.89863586425781" fill="none" stroke="rgb(0, 0, 0)" stroke-linecap="round" stroke-linejoin="round" stroke-opacity="1" stroke-width="3.0"/>
    <path d="M 201.37193298339844 164.7435760498047 C 186.82254028320312 17.81760597229004 195.464111328125 40.09519958496094 208.55044555664062 169.91326904296875" fill="none" stroke="rgb(0, 0, 0)" stroke-linecap="round" stroke-linejoin="round" stroke-opacity="1" stroke-width="3.0"/>
    <path d="M 231.3667755126953 175.31796264648438 C 109.1364517211914 164.22686767578125 119.97772979736328 168.99151611328125 178.13975524902344 158.2967071533203" fill="none" stroke="rgb(0, 0, 0)" stroke-linecap="round" stroke-linejoin="round" stroke-opacity="1" stroke-width="3.0"/>
    <path d="M -1.9177592992782593 -4.491580486297607 C 54.73520278930664 70.02265167236328 152.66079711914062 80.16232299804688 212.68919372558594 -3.957202434539795" fill="none" stroke="rgb(0, 0, 0)" stroke-linecap="round" stroke-linejoin="round" stroke-opacity="1" stroke-width="3.0"/>
    <path d="M 165.66111755371094 165.44717407226562 C 109.916015625 150.64125061035156 131.81027221679688 195.40122985839844 127.20480346679688 82.17144012451172" fill="none" stroke="rgb(0, 0, 0)" stroke-linecap="round" stroke-linejoin="round" stroke-opacity="1" stroke-width="3.0"/>
    <path d="M -8.341409683227539 5.977668762207031 C 18.686786651611328 54.37211227416992 30.052186965942383 59.13742446899414 -4.502347469329834 15.977771759033203" fill="none" stroke="rgb(0, 0, 0)" stroke-linecap="round" stroke-linejoin="round" stroke-opacity="1" stroke-width="3.0"/>
    <path d="M 139.4755096435547 -11.969261169433594 C 148.93899536132812 26.095565795898438 176.06643676757812 56.534523010253906 61.055118560791016 36.51849365234375" fill="none" stroke="rgb(0, 0, 0)" stroke-linecap="round" stroke-linejoin="round" stroke-opacity="1" stroke-width="3.0"/>
    <path d="M 186.9761199951172 168.84107971191406 C 172.27899169921875 42.60090637207031 183.40530395507812 67.61439514160156 183.35604858398438 167.7025146484375" fill="none" stroke="rgb(0, 0, 0)" stroke-linecap="round" stroke-linejoin="round" stroke-opacity="1" stroke-width="3.0"/>
    <path d="M 56.087432861328125 163.17884826660156 C 74.7426986694336 20.01004981994629 74.30074310302734 41.93666458129883 63.82426452636719 165.06541442871094" fill="none" stroke="rgb(0, 0, 0)" stroke-linecap="round" stroke-linejoin="round" stroke-opacity="1" stroke-width="3.0"/>
  </g>
</svg>
