<?xml version="1.0" ?>
<svg height="224" version="1.1" width="224" xmlns="http://www.w3.org/2000/svg">
  <defs/>
  <g>
    <path d="M 186.39483642578125 88.64430236816406 C 200.8145751953125 286.8975524902344 207.359619140625 231.0546112060547 193.2071990966797 76.9026870727539" fill="none" stroke="rgb(0, 0, 0)" stroke-linecap="round" stroke-linejoin="round" stroke-opacity="1" stroke-width="3.0"/>
    <path d="M 212.77334594726562 223.62013244628906 C 202.34814453125 54.063987731933594 184.11058044433594 140.708984375 245.99668884277344 90.80140686035156" fill="none" stroke="rgb(0, 0, 0)" stroke-linecap="round" stroke-linejoin="round" stroke-opacity="1" stroke-width="3.0"/>
    <path d="M -16.84466552734375 60.49641418457031 C 146.12710571289062 95.56953430175781 237.97434997558594 92.63355255126953 -0.2573722302913666 45.361968994140625" fill="none" stroke="rgb(0, 0, 0)" stroke-linecap="round" stroke-linejoin="round" stroke-opacity="1" stroke-width="3.0"/>
    <path d="M 93.34806060791016 167.38446044921875 C 96.34276580810547 3.852532386779785 68.26068115234375 130.95054626464844 199.86529541015625 19.892780303955078" fill="none" stroke="rgb(0, 0, 0)" stroke-linecap="round" stroke-linejoin="round" stroke-opacity="1" stroke-width="3.0"/>
    <path d="M 92.6787109375 194.4249267578125 C -208.8086700439453 201.8137969970703 -67.19676208496094 172.50872802734375 -26.985158920288086 176.86228942871094" fill="none" stroke="rgb(0, 0, 0)" stroke-linecap="round" stroke-linejoin="round" stroke-opacity="1" stroke-width="3.0"/>
    <path d="M 86.4943618774414 167.76321411132812 C 166.15574645996094 157.86215209960938 263.9017028808594 186.0030975341797 154.8388214111328 156.94363403320312" fill="none" stroke="rgb(0, 0, 0)" stroke-linecap="round" stroke-linejoin="round" stroke-opacity="1" stroke-width="3.0"/>
    <path d="M -12.7221040725708 -17.15606689453125 C 109.60282135009766 64.36064147949219 185.84051513671875 64.4403076171875 225.6505889892578 -25.417705535888672" fill="none" stroke="rgb(0, 0, 0)" stroke-linecap="round" stroke-linejoin="round" stroke-opacity="1" stroke-width="3.0"/>
    <path d="M 242.1106414794922 36.30524444580078 C 114.9791259765625 138.2798309326172 151.2560577392578 41.929813385009766 144.93789672851562 167.65606689453125" fill="none" stroke="rgb(0, 0, 0)" stroke-linecap="round" stroke-linejoin="round" stroke-opacity="1" stroke-width="3.0"/>
    <path d="M 155.361083984375 156.9191436767578 C 269.7682189941406 141.42430114746094 88.0608901977539 189.43896484375 104.1406478881836 157.43817138671875" fill="none" stroke="rgb(0, 0, 0)" stroke-linecap="round" stroke-linejoin="round" stroke-opacity="1" stroke-width="3.0"/>
  </g>
</svg>
