<?xml version="1.0" ?>
<svg height="224" version="1.1" width="224" xmlns="http://www.w3.org/2000/svg">
  <defs/>
  <g>
    <path d="M 74.11251068115234 71.66452026367188 C 69.13867950439453 201.70626831054688 57.848487854003906 202.61154174804688 64.09827423095703 82.37944793701172" fill="none" stroke="rgb(0, 0, 0)" stroke-linecap="round" stroke-linejoin="round" stroke-opacity="1" stroke-width="3.0"/>
    <path d="M 201.42892456054688 164.4178924560547 C 188.23468017578125 19.433387756347656 195.98777770996094 40.64737319946289 207.0820770263672 170.51470947265625" fill="none" stroke="rgb(0, 0, 0)" stroke-linecap="round" stroke-linejoin="round" stroke-opacity="1" stroke-width="3.0"/>
    <path d="M 229.7337646484375 176.5769500732422 C 113.24292755126953 167.12539672851562 119.61522674560547 175.0906524658203 178.0377197265625 156.8801727294922" fill="none" stroke="rgb(0, 0, 0)" stroke-linecap="round" stroke-linejoin="round" stroke-opacity="1" stroke-width="3.0"/>
    <path d="M 0.010633841156959534 -3.3334412574768066 C 56.07561492919922 71.26911926269531 149.97146606445312 81.14341735839844 212.48037719726562 -0.7343486547470093" fill="none" stroke="rgb(0, 0, 0)" stroke-linecap="round" stroke-linejoin="round" stroke-opacity="1" stroke-width="3.0"/>
    <path d="M 163.60159301757812 165.45968627929688 C 107.25810241699219 157.2406005859375 132.1130828857422 199.96067810058594 127.7820816040039 83.07659912109375" fill="none" stroke="rgb(0, 0, 0)" stroke-linecap="round" stroke-linejoin="round" stroke-opacity="1" stroke-width="3.0"/>
    <path d="M -9.052721977233887 6.1831512451171875 C 15.591968536376953 49.946075439453125 24.74282455444336 54.05447006225586 -4.391880035400391 14.583418846130371" fill="none" stroke="rgb(0, 0, 0)" stroke-linecap="round" stroke-linejoin="round" stroke-opacity="1" stroke-width="3.0"/>
    <path d="M 141.7468719482422 -10.765813827514648 C 151.34872436523438 22.998395919799805 176.8640899658203 58.24209976196289 63.03927230834961 37.32554244995117" fill="none" stroke="rgb(0, 0, 0)" stroke-linecap="round" stroke-linejoin="round" stroke-opacity="1" stroke-width="3.0"/>
    <path d="M 187.8716583251953 170.41717529296875 C 171.2540283203125 42.84132766723633 184.06224060058594 63.16136932373047 183.3380584716797 170.49176025390625" fill="none" stroke="rgb(0, 0, 0)" stroke-linecap="round" stroke-linejoin="round" stroke-opacity="1" stroke-width="3.0"/>
  </g>
</svg>
