<?xml version="1.0" ?>
<svg height="224" version="1.1" width="224" xmlns="http://www.w3.org/2000/svg">
  <defs/>
  <g>
    <path d="M 194.01976013183594 122.7105941772461 C 211.0812225341797 275.7959289550781 209.7741241455078 241.3792724609375 198.18478393554688 80.79927062988281" fill="none" stroke="rgb(0, 0, 0)" stroke-linecap="round" stroke-linejoin="round" stroke-opacity="1" stroke-width="3.0"/>
    <path d="M 212.1366729736328 212.80862426757812 C 214.6842803955078 47.468204498291016 188.00831604003906 135.78366088867188 247.4155731201172 86.29293060302734" fill="none" stroke="rgb(0, 0, 0)" stroke-linecap="round" stroke-linejoin="round" stroke-opacity="1" stroke-width="3.0"/>
    <path d="M -27.790563583374023 67.75528717041016 C 173.7271728515625 107.6498794555664 281.2545471191406 109.38680267333984 -17.683271408081055 53.06554412841797" fill="none" stroke="rgb(0, 0, 0)" stroke-linecap="round" stroke-linejoin="round" stroke-opacity="1" stroke-width="3.0"/>
    <path d="M 90.6713638305664 158.1783905029297 C 81.87594604492188 -2.7733802795410156 58.38334274291992 140.0146026611328 172.26626586914062 -14.18101692199707" fill="none" stroke="rgb(0, 0, 0)" stroke-linecap="round" stroke-linejoin="round" stroke-opacity="1" stroke-width="3.0"/>
    <path d="M 141.13038635253906 205.9315948486328 C -193.54327392578125 188.24322509765625 -87.35490417480469 183.6581573486328 -28.226348876953125 194.7245635986328" fill="none" stroke="rgb(0, 0, 0)" stroke-linecap="round" stroke-linejoin="round" stroke-opacity="1" stroke-width="3.0"/>
    <path d="M 72.14161682128906 161.23326110839844 C 172.27334594726562 157.2095947265625 256.2219543457031 180.83810424804688 172.9810028076172 158.420654296875" fill="none" stroke="rgb(0, 0, 0)" stroke-linecap="round" stroke-linejoin="round" stroke-opacity="1" stroke-width="3.0"/>
    <path d="M -5.881293296813965 -3.792797803878784 C 86.71314239501953 80.21427154541016 190.61685180664062 73.03822326660156 235.2640380859375 -14.96294116973877" fill="none" stroke="rgb(0, 0, 0)" stroke-linecap="round" stroke-linejoin="round" stroke-opacity="1" stroke-width="3.0"/>
    <path d="M 257.1548767089844 42.244876861572266 C 132.580810546875 119.31398010253906 165.53260803222656 46.63701629638672 164.31556701660156 155.5155487060547" fill="none" stroke="rgb(0, 0, 0)" stroke-linecap="round" stroke-linejoin="round" stroke-opacity="1" stroke-width="3.0"/>
    <path d="M 152.9465789794922 152.3173065185547 C 290.3734436035156 149.9056396484375 90.92237091064453 182.1557159423828 104.739013671875 154.06700134277344" fill="none" stroke="rgb(0, 0, 0)" stroke-linecap="round" stroke-linejoin="round" stroke-opacity="1" stroke-width="3.0"/>
  </g>
</svg>
