<?xml version="1.0" ?>
<svg height="224" version="1.1" width="224" xmlns="http://www.w3.org/2000/svg">
  <defs/>
  <g>
    <path d="M 116.65341186523438 137.2818145751953 C 110.47442626953125 104.28443145751953 117.93920135498047 97.75153350830078 148.67982482910156 112.02851104736328" fill="none" stroke="rgb(0, 0, 0)" stroke-linecap="round" stroke-linejoin="round" stroke-opacity="1" stroke-width="3.0"/>
    <path d="M 124.02287292480469 44.74473190307617 C 103.99124145507812 50.22336196899414 117.19711303710938 34.304847717285156 130.33425903320312 33.072113037109375" fill="none" stroke="rgb(0, 0, 0)" stroke-linecap="round" stroke-linejoin="round" stroke-opacity="1" stroke-width="3.0"/>
    <path d="M 107.48795318603516 194.1045379638672 C 117.54660034179688 159.3975372314453 114.48445129394531 121.5706558227539 115.96937561035156 179.73037719726562" fill="none" stroke="rgb(0, 0, 0)" stroke-linecap="round" stroke-linejoin="round" stroke-opacity="1" stroke-width="3.0"/>
    <path d="M 121.44322967529297 85.513427734375 C 115.10575103759766 94.07859802246094 108.0877456665039 87.86479187011719 112.18106079101562 85.95099639892578" fill="none" stroke="rgb(0, 0, 0)" stroke-linecap="round" stroke-linejoin="round" stroke-opacity="1" stroke-width="3.0"/>
    <path d="M 124.8547134399414 106.58719635009766 C 125.54886627197266 127.89071655273438 123.71278381347656 126.08560943603516 120.31073760986328 168.5037384033203" fill="none" stroke="rgb(0, 0, 0)" stroke-linecap="round" stroke-linejoin="round" stroke-opacity="1" stroke-width="3.0"/>
    <path d="M 113.09358215332031 66.21112060546875 C 128.25088500976562 43.23488998413086 98.37212371826172 49.6801872253418 79.11143493652344 66.57621765136719" fill="none" stroke="rgb(0, 0, 0)" stroke-linecap="round" stroke-linejoin="round" stroke-opacity="1" stroke-width="3.0"/>
    <path d="M 149.0709991455078 44.18071746826172 C 158.84002685546875 34.36846923828125 161.9870147705078 33.15986633300781 146.65570068359375 9.688834190368652" fill="none" stroke="rgb(0, 0, 0)" stroke-linecap="round" stroke-linejoin="round" stroke-opacity="1" stroke-width="3.0"/>
    <path d="M 110.98408508300781 85.53174591064453 C 121.24559783935547 76.16110229492188 124.04903411865234 79.6113510131836 118.31494903564453 84.65567779541016" fill="none" stroke="rgb(0, 0, 0)" stroke-linecap="round" stroke-linejoin="round" stroke-opacity="1" stroke-width="3.0"/>
    <path d="M 115.8529281616211 54.87209701538086 C 90.53484344482422 91.8358154296875 92.0196304321289 64.59683227539062 114.34224700927734 55.914329528808594" fill="none" stroke="rgb(0, 0, 0)" stroke-linecap="round" stroke-linejoin="round" stroke-opacity="1" stroke-width="3.0"/>
    <path d="M 121.93531036376953 161.03176879882812 C 112.68605041503906 135.1825408935547 113.39185333251953 116.79705810546875 108.7689437866211 107.71322631835938" fill="none" stroke="rgb(0, 0, 0)" stroke-linecap="round" stroke-linejoin="round" stroke-opacity="1" stroke-width="3.0"/>
    <path d="M 126.63079071044922 38.66392517089844 C 119.37735748291016 77.95354461669922 126.52925872802734 39.55031967163086 104.12908935546875 57.77214813232422" fill="none" stroke="rgb(0, 0, 0)" stroke-linecap="round" stroke-linejoin="round" stroke-opacity="1" stroke-width="3.0"/>
    <path d="M 122.2227783203125 110.06559753417969 C 116.98627471923828 124.18940734863281 112.95254516601562 134.1561279296875 113.56270599365234 110.25836944580078" fill="none" stroke="rgb(0, 0, 0)" stroke-linecap="round" stroke-linejoin="round" stroke-opacity="1" stroke-width="3.0"/>
    <path d="M 63.21949768066406 107.64920043945312 C 62.04145812988281 108.47061157226562 95.95397186279297 82.40457153320312 108.73921966552734 88.33570098876953" fill="none" stroke="rgb(0, 0, 0)" stroke-linecap="round" stroke-linejoin="round" stroke-opacity="1" stroke-width="3.0"/>
    <path d="M 129.6161651611328 63.40721130371094 C 127.27167510986328 42.907474517822266 106.36296844482422 46.638084411621094 131.07562255859375 57.379276275634766" fill="none" stroke="rgb(0, 0, 0)" stroke-linecap="round" stroke-linejoin="round" stroke-opacity="1" stroke-width="3.0"/>
    <path d="M 98.74799346923828 115.47168731689453 C 117.67919921875 101.2027587890625 119.186767578125 109.72927856445312 115.69652557373047 139.30319213867188" fill="none" stroke="rgb(0, 0, 0)" stroke-linecap="round" stroke-linejoin="round" stroke-opacity="1" stroke-width="3.0"/>
    <path d="M 130.6488037109375 36.12276077270508 C 120.74822235107422 58.982391357421875 106.20893096923828 38.479759216308594 125.80036163330078 26.075668334960938" fill="none" stroke="rgb(0, 0, 0)" stroke-linecap="round" stroke-linejoin="round" stroke-opacity="1" stroke-width="3.0"/>
    <path d="M 107.19837188720703 137.1777801513672 C 105.24275970458984 131.3070068359375 106.88687133789062 131.69248962402344 109.1319580078125 148.9159393310547" fill="none" stroke="rgb(0, 0, 0)" stroke-linecap="round" stroke-linejoin="round" stroke-opacity="1" stroke-width="3.0"/>
    <path d="M 116.57801818847656 158.72340393066406 C 119.34612274169922 230.0194854736328 111.13671112060547 159.42982482910156 114.92105865478516 215.08335876464844" fill="none" stroke="rgb(0, 0, 0)" stroke-linecap="round" stroke-linejoin="round" stroke-opacity="1" stroke-width="3.0"/>
    <path d="M 112.56948852539062 181.48046875 C 106.75759887695312 147.14048767089844 105.93034362792969 133.6234588623047 105.3279800415039 113.6600570678711" fill="none" stroke="rgb(0, 0, 0)" stroke-linecap="round" stroke-linejoin="round" stroke-opacity="1" stroke-width="3.0"/>
    <path d="M 101.95365142822266 95.36372375488281 C 114.06019592285156 80.78470611572266 104.98458862304688 81.56043243408203 116.94113159179688 87.47601318359375" fill="none" stroke="rgb(0, 0, 0)" stroke-linecap="round" stroke-linejoin="round" stroke-opacity="1" stroke-width="3.0"/>
    <path d="M 155.5870361328125 27.50352668762207 C 158.2098846435547 35.75349807739258 119.3989028930664 75.50729370117188 123.42909240722656 29.847553253173828" fill="none" stroke="rgb(0, 0, 0)" stroke-linecap="round" stroke-linejoin="round" stroke-opacity="1" stroke-width="3.0"/>
    <path d="M 115.61872100830078 210.1475067138672 C 102.5951156616211 180.2703399658203 119.83973693847656 236.23440551757812 106.94258117675781 208.0423583984375" fill="none" stroke="rgb(0, 0, 0)" stroke-linecap="round" stroke-linejoin="round" stroke-opacity="1" stroke-width="3.0"/>
    <path d="M 114.77883911132812 84.60803985595703 C 108.40727996826172 51.411197662353516 115.97212982177734 49.268211364746094 114.46167755126953 85.98331451416016" fill="none" stroke="rgb(0, 0, 0)" stroke-linecap="round" stroke-linejoin="round" stroke-opacity="1" stroke-width="3.0"/>
    <path d="M 117.98290252685547 146.25656127929688 C 127.99888610839844 102.50868225097656 112.71099853515625 105.50109100341797 147.08013916015625 112.03247833251953" fill="none" stroke="rgb(0, 0, 0)" stroke-linecap="round" stroke-linejoin="round" stroke-opacity="1" stroke-width="3.0"/>
    <path d="M 100.83602905273438 75.29666900634766 C 129.7744903564453 73.43363952636719 118.04576110839844 76.86164093017578 102.84578704833984 84.45552825927734" fill="none" stroke="rgb(0, 0, 0)" stroke-linecap="round" stroke-linejoin="round" stroke-opacity="1" stroke-width="3.0"/>
    <path d="M 128.64735412597656 45.332576751708984 C 127.44142150878906 17.620515823364258 109.00005340576172 23.651460647583008 111.09037780761719 38.14336013793945" fill="none" stroke="rgb(0, 0, 0)" stroke-linecap="round" stroke-linejoin="round" stroke-opacity="1" stroke-width="3.0"/>
    <path d="M 116.23886108398438 148.778076171875 C 114.79418182373047 128.30384826660156 117.41818237304688 135.25497436523438 121.35658264160156 147.44717407226562" fill="none" stroke="rgb(0, 0, 0)" stroke-linecap="round" stroke-linejoin="round" stroke-opacity="1" stroke-width="3.0"/>
    <path d="M 156.9432830810547 109.68221282958984 C 148.69497680664062 115.30424499511719 152.6763153076172 106.58707427978516 125.49407958984375 94.48616027832031" fill="none" stroke="rgb(0, 0, 0)" stroke-linecap="round" stroke-linejoin="round" stroke-opacity="1" stroke-width="3.0"/>
    <path d="M 105.60663604736328 131.91189575195312 C 113.25212097167969 100.55416107177734 98.4815444946289 105.45750427246094 105.12416076660156 129.43482971191406" fill="none" stroke="rgb(0, 0, 0)" stroke-linecap="round" stroke-linejoin="round" stroke-opacity="1" stroke-width="3.0"/>
    <path d="M 144.76333618164062 107.29010009765625 C 107.48457336425781 89.85393524169922 146.67416381835938 93.23358154296875 158.80067443847656 108.28160858154297" fill="none" stroke="rgb(0, 0, 0)" stroke-linecap="round" stroke-linejoin="round" stroke-opacity="1" stroke-width="3.0"/>
    <path d="M 109.47991943359375 152.47470092773438 C 107.41912078857422 137.4296417236328 105.02096557617188 135.47840881347656 108.35588836669922 147.88430786132812" fill="none" stroke="rgb(0, 0, 0)" stroke-linecap="round" stroke-linejoin="round" stroke-opacity="1" stroke-width="3.0"/>
    <path d="M 114.3442153930664 124.92174530029297 C 107.12843322753906 145.9498291015625 130.24288940429688 163.31764221191406 113.04190826416016 187.35256958007812" fill="none" stroke="rgb(0, 0, 0)" stroke-linecap="round" stroke-linejoin="round" stroke-opacity="1" stroke-width="3.0"/>
    <path d="M 137.85157775878906 8.751315116882324 C 149.76156616210938 8.649460792541504 145.03115844726562 15.458395957946777 139.5145263671875 8.641341209411621" fill="none" stroke="rgb(0, 0, 0)" stroke-linecap="round" stroke-linejoin="round" stroke-opacity="1" stroke-width="3.0"/>
    <path d="M 130.43667602539062 38.79068374633789 C 103.26714324951172 57.32952880859375 137.44700622558594 53.275150299072266 129.8548126220703 49.046504974365234" fill="none" stroke="rgb(0, 0, 0)" stroke-linecap="round" stroke-linejoin="round" stroke-opacity="1" stroke-width="3.0"/>
    <path d="M 115.37808227539062 54.72971725463867 C 101.07396697998047 71.8370590209961 93.29478454589844 73.99935913085938 115.16117858886719 67.97891235351562" fill="none" stroke="rgb(0, 0, 0)" stroke-linecap="round" stroke-linejoin="round" stroke-opacity="1" stroke-width="3.0"/>
    <path d="M 122.24016571044922 49.27724838256836 C 80.1450424194336 50.98603820800781 83.50274658203125 78.15017700195312 98.81220245361328 54.26353454589844" fill="none" stroke="rgb(0, 0, 0)" stroke-linecap="round" stroke-linejoin="round" stroke-opacity="1" stroke-width="3.0"/>
    <path d="M 97.54277038574219 106.6295394897461 C 92.79171752929688 109.50421905517578 104.07058715820312 131.55142211914062 105.60167694091797 130.6897430419922" fill="none" stroke="rgb(0, 0, 0)" stroke-linecap="round" stroke-linejoin="round" stroke-opacity="1" stroke-width="3.0"/>
    <path d="M 118.62334442138672 82.06734466552734 C 107.80218505859375 93.18944549560547 116.32691192626953 93.1090316772461 117.2693862915039 70.44889068603516" fill="none" stroke="rgb(0, 0, 0)" stroke-linecap="round" stroke-linejoin="round" stroke-opacity="1" stroke-width="3.0"/>
    <path d="M 107.12794494628906 136.209716796875 C 103.36337280273438 123.4266128540039 104.62561798095703 126.99858093261719 109.3595199584961 143.1343536376953" fill="none" stroke="rgb(0, 0, 0)" stroke-linecap="round" stroke-linejoin="round" stroke-opacity="1" stroke-width="3.0"/>
    <path d="M 114.7524642944336 52.41230010986328 C 106.16744232177734 64.525390625 102.25348663330078 35.941165924072266 97.31151580810547 62.00516891479492" fill="none" stroke="rgb(0, 0, 0)" stroke-linecap="round" stroke-linejoin="round" stroke-opacity="1" stroke-width="3.0"/>
    <path d="M 101.8313980102539 72.4084243774414 C 98.36090850830078 96.82953643798828 108.47802734375 76.40049743652344 108.414306640625 95.94194793701172" fill="none" stroke="rgb(0, 0, 0)" stroke-linecap="round" stroke-linejoin="round" stroke-opacity="1" stroke-width="3.0"/>
    <path d="M 144.8083953857422 16.199926376342773 C 136.863037109375 -2.8021538257598877 136.53172302246094 14.48599910736084 148.33331298828125 16.1129093170166" fill="none" stroke="rgb(0, 0, 0)" stroke-linecap="round" stroke-linejoin="round" stroke-opacity="1" stroke-width="3.0"/>
    <path d="M 118.41993713378906 132.38458251953125 C 122.11971282958984 100.52379608154297 114.45379638671875 107.80998992919922 134.86778259277344 112.53533172607422" fill="none" stroke="rgb(0, 0, 0)" stroke-linecap="round" stroke-linejoin="round" stroke-opacity="1" stroke-width="3.0"/>
    <path d="M 119.5741195678711 75.29862976074219 C 95.37348937988281 80.0599136352539 101.83614349365234 88.08354187011719 71.09950256347656 107.63310241699219" fill="none" stroke="rgb(0, 0, 0)" stroke-linecap="round" stroke-linejoin="round" stroke-opacity="1" stroke-width="3.0"/>
    <path d="M 131.767822265625 62.224796295166016 C 148.2730255126953 45.81637954711914 153.47314453125 38.79085922241211 143.10475158691406 48.48704528808594" fill="none" stroke="rgb(0, 0, 0)" stroke-linecap="round" stroke-linejoin="round" stroke-opacity="1" stroke-width="3.0"/>
    <path d="M 101.17951202392578 125.6396713256836 C 107.95095825195312 136.43264770507812 106.93568420410156 135.1941375732422 112.3319091796875 149.38111877441406" fill="none" stroke="rgb(0, 0, 0)" stroke-linecap="round" stroke-linejoin="round" stroke-opacity="1" stroke-width="3.0"/>
    <path d="M 107.1441879272461 152.38438415527344 C 123.80136108398438 139.9311981201172 129.2440948486328 163.69224548339844 116.24536895751953 179.3896942138672" fill="none" stroke="rgb(0, 0, 0)" stroke-linecap="round" stroke-linejoin="round" stroke-opacity="1" stroke-width="3.0"/>
    <path d="M 118.59425354003906 54.54591751098633 C 122.94290161132812 39.15671920776367 122.36361694335938 18.028156280517578 112.77327728271484 31.67570686340332" fill="none" stroke="rgb(0, 0, 0)" stroke-linecap="round" stroke-linejoin="round" stroke-opacity="1" stroke-width="3.0"/>
    <path d="M 134.5886688232422 41.167320251464844 C 131.8147430419922 21.656694412231445 121.0765609741211 17.550291061401367 132.07945251464844 42.92139434814453" fill="none" stroke="rgb(0, 0, 0)" stroke-linecap="round" stroke-linejoin="round" stroke-opacity="1" stroke-width="3.0"/>
    <path d="M 121.20636749267578 82.94264221191406 C 126.41934967041016 90.70817565917969 117.10321044921875 75.75579833984375 104.58242797851562 86.22452545166016" fill="none" stroke="rgb(0, 0, 0)" stroke-linecap="round" stroke-linejoin="round" stroke-opacity="1" stroke-width="3.0"/>
    <path d="M 107.26863861083984 110.67964172363281 C 97.24156188964844 110.53987121582031 97.82935333251953 101.9902114868164 102.14862823486328 126.00955963134766" fill="none" stroke="rgb(0, 0, 0)" stroke-linecap="round" stroke-linejoin="round" stroke-opacity="1" stroke-width="3.0"/>
    <path d="M 114.03370666503906 81.38082885742188 C 107.998291015625 67.23342895507812 94.2824935913086 73.81221008300781 116.2940444946289 84.07059478759766" fill="none" stroke="rgb(0, 0, 0)" stroke-linecap="round" stroke-linejoin="round" stroke-opacity="1" stroke-width="3.0"/>
    <path d="M 95.79610443115234 93.65503692626953 C 66.4437484741211 122.88885498046875 76.92549133300781 101.7025146484375 104.2966537475586 111.45036315917969" fill="none" stroke="rgb(0, 0, 0)" stroke-linecap="round" stroke-linejoin="round" stroke-opacity="1" stroke-width="3.0"/>
    <path d="M 130.35350036621094 52.8887825012207 C 147.060791015625 54.583221435546875 118.12934875488281 49.689884185791016 127.30574035644531 68.76691436767578" fill="none" stroke="rgb(0, 0, 0)" stroke-linecap="round" stroke-linejoin="round" stroke-opacity="1" stroke-width="3.0"/>
    <path d="M 116.62223815917969 87.17355346679688 C 118.54828643798828 95.36273193359375 128.5601348876953 88.28759002685547 154.6805419921875 109.4540786743164" fill="none" stroke="rgb(0, 0, 0)" stroke-linecap="round" stroke-linejoin="round" stroke-opacity="1" stroke-width="3.0"/>
    <path d="M 80.77791595458984 108.53255462646484 C 69.01263427734375 101.26747131347656 103.07830047607422 113.37358856201172 120.36788177490234 111.09065246582031" fill="none" stroke="rgb(0, 0, 0)" stroke-linecap="round" stroke-linejoin="round" stroke-opacity="1" stroke-width="3.0"/>
    <path d="M 91.51602172851562 101.35456085205078 C 90.86412048339844 109.42485809326172 55.42354965209961 110.17736053466797 57.4725456237793 104.01362609863281" fill="none" stroke="rgb(0, 0, 0)" stroke-linecap="round" stroke-linejoin="round" stroke-opacity="1" stroke-width="3.0"/>
    <path d="M 129.48150634765625 66.99250793457031 C 153.90945434570312 46.84626770019531 159.65701293945312 35.325584411621094 152.0769805908203 23.581390380859375" fill="none" stroke="rgb(0, 0, 0)" stroke-linecap="round" stroke-linejoin="round" stroke-opacity="1" stroke-width="3.0"/>
    <path d="M 141.35923767089844 50.31916427612305 C 125.94109344482422 60.323402404785156 129.6997528076172 69.53076934814453 127.5127182006836 62.13336181640625" fill="none" stroke="rgb(0, 0, 0)" stroke-linecap="round" stroke-linejoin="round" stroke-opacity="1" stroke-width="3.0"/>
    <path d="M 112.65528869628906 64.7474136352539 C 97.05864715576172 76.01738739013672 86.24129486083984 85.44351196289062 111.90687561035156 75.9602279663086" fill="none" stroke="rgb(0, 0, 0)" stroke-linecap="round" stroke-linejoin="round" stroke-opacity="1" stroke-width="3.0"/>
    <path d="M 114.01530456542969 72.8332290649414 C 99.16514587402344 67.50840759277344 99.0504150390625 101.9986801147461 85.39059448242188 72.5671615600586" fill="none" stroke="rgb(0, 0, 0)" stroke-linecap="round" stroke-linejoin="round" stroke-opacity="1" stroke-width="3.0"/>
    <path d="M 117.60832214355469 87.05854797363281 C 121.64688873291016 86.4889907836914 123.72213745117188 93.71044921875 120.90038299560547 71.78592681884766" fill="none" stroke="rgb(0, 0, 0)" stroke-linecap="round" stroke-linejoin="round" stroke-opacity="1" stroke-width="3.0"/>
    <path d="M 118.75579071044922 72.2195053100586 C 121.10673522949219 91.62525939941406 119.50855255126953 87.4609375 111.05773162841797 88.0314712524414" fill="none" stroke="rgb(0, 0, 0)" stroke-linecap="round" stroke-linejoin="round" stroke-opacity="1" stroke-width="3.0"/>
    <path d="M 84.8973159790039 77.31278228759766 C 117.05066680908203 100.68670654296875 103.47693634033203 73.34735107421875 61.68518829345703 103.64979553222656" fill="none" stroke="rgb(0, 0, 0)" stroke-linecap="round" stroke-linejoin="round" stroke-opacity="1" stroke-width="3.0"/>
  </g>
</svg>
