<?xml version="1.0" ?>
<svg height="224" version="1.1" width="224" xmlns="http://www.w3.org/2000/svg">
  <defs/>
  <g>
    <path d="M 91.8438491821289 99.79192352294922 C 95.3384017944336 101.50648498535156 90.25593566894531 100.23680114746094 99.87626647949219 93.08014678955078" fill="none" stroke="rgb(0, 0, 0)" stroke-linecap="round" stroke-linejoin="round" stroke-opacity="1" stroke-width="3.0"/>
    <path d="M 101.61219024658203 119.40280151367188 C 115.35638427734375 112.14530944824219 116.5134506225586 117.06884002685547 120.4966812133789 112.32484436035156" fill="none" stroke="rgb(0, 0, 0)" stroke-linecap="round" stroke-linejoin="round" stroke-opacity="1" stroke-width="3.0"/>
    <path d="M 100.08367919921875 114.82247161865234 C 118.2142333984375 107.26451873779297 125.58892822265625 99.43097686767578 120.06294250488281 123.47852325439453" fill="none" stroke="rgb(0, 0, 0)" stroke-linecap="round" stroke-linejoin="round" stroke-opacity="1" stroke-width="3.0"/>
    <path d="M 124.4461898803711 90.49606323242188 C 135.14266967773438 110.62762451171875 127.80491638183594 100.66015625 146.16517639160156 112.86911010742188" fill="none" stroke="rgb(0, 0, 0)" stroke-linecap="round" stroke-linejoin="round" stroke-opacity="1" stroke-width="3.0"/>
    <path d="M 116.65615844726562 75.92181396484375 C 115.89707946777344 89.11132049560547 120.99179077148438 87.33454895019531 130.208740234375 94.6556167602539" fill="none" stroke="rgb(0, 0, 0)" stroke-linecap="round" stroke-linejoin="round" stroke-opacity="1" stroke-width="3.0"/>
    <path d="M 114.09618377685547 115.27662658691406 C 102.45317077636719 116.42091369628906 105.03812408447266 122.0905990600586 121.0314712524414 115.79065704345703" fill="none" stroke="rgb(0, 0, 0)" stroke-linecap="round" stroke-linejoin="round" stroke-opacity="1" stroke-width="3.0"/>
    <path d="M 118.95387268066406 87.3803482055664 C 132.07891845703125 89.10237884521484 125.82940673828125 93.80101013183594 120.07340240478516 89.14800262451172" fill="none" stroke="rgb(0, 0, 0)" stroke-linecap="round" stroke-linejoin="round" stroke-opacity="1" stroke-width="3.0"/>
    <path d="M 112.43168640136719 153.09173583984375 C 101.42031860351562 102.31668090820312 101.27857971191406 135.7289581298828 111.90061950683594 152.9469451904297" fill="none" stroke="rgb(0, 0, 0)" stroke-linecap="round" stroke-linejoin="round" stroke-opacity="1" stroke-width="3.0"/>
    <path d="M 113.38092803955078 160.5681915283203 C 113.98686981201172 178.96034240722656 107.71928405761719 168.9033203125 109.04010009765625 147.72486877441406" fill="none" stroke="rgb(0, 0, 0)" stroke-linecap="round" stroke-linejoin="round" stroke-opacity="1" stroke-width="3.0"/>
    <path d="M 93.30144500732422 87.75971984863281 C 92.03866577148438 88.34131622314453 92.81745910644531 86.80028533935547 93.54241943359375 88.06168365478516" fill="none" stroke="rgb(0, 0, 0)" stroke-linecap="round" stroke-linejoin="round" stroke-opacity="1" stroke-width="3.0"/>
    <path d="M 97.76754760742188 109.78942108154297 C 96.85726928710938 126.07220458984375 102.28266143798828 129.80746459960938 122.71443176269531 125.25231170654297" fill="none" stroke="rgb(0, 0, 0)" stroke-linecap="round" stroke-linejoin="round" stroke-opacity="1" stroke-width="3.0"/>
    <path d="M 156.50726318359375 108.95774841308594 C 139.98944091796875 92.21023559570312 140.56002807617188 94.25653839111328 125.46488189697266 87.23047637939453" fill="none" stroke="rgb(0, 0, 0)" stroke-linecap="round" stroke-linejoin="round" stroke-opacity="1" stroke-width="3.0"/>
    <path d="M 132.34893798828125 108.72953796386719 C 126.09291076660156 93.91075134277344 134.9522705078125 91.66891479492188 152.09396362304688 109.27130889892578" fill="none" stroke="rgb(0, 0, 0)" stroke-linecap="round" stroke-linejoin="round" stroke-opacity="1" stroke-width="3.0"/>
    <path d="M 122.11431884765625 123.16107940673828 C 114.34748840332031 150.38973999023438 126.6571044921875 157.38519287109375 119.20005798339844 170.60948181152344" fill="none" stroke="rgb(0, 0, 0)" stroke-linecap="round" stroke-linejoin="round" stroke-opacity="1" stroke-width="3.0"/>
    <path d="M 150.67770385742188 14.704079627990723 C 162.3372802734375 38.19487380981445 157.6264190673828 30.31080436706543 150.67721557617188 45.13630676269531" fill="none" stroke="rgb(0, 0, 0)" stroke-linecap="round" stroke-linejoin="round" stroke-opacity="1" stroke-width="3.0"/>
    <path d="M 117.23933410644531 43.8546028137207 C 100.3005142211914 41.03270721435547 114.86526489257812 42.135108947753906 135.14773559570312 35.9126091003418" fill="none" stroke="rgb(0, 0, 0)" stroke-linecap="round" stroke-linejoin="round" stroke-opacity="1" stroke-width="3.0"/>
    <path d="M 137.17727661132812 8.537256240844727 C 146.71649169921875 6.619288921356201 147.5898895263672 8.599079132080078 153.7354736328125 24.581192016601562" fill="none" stroke="rgb(0, 0, 0)" stroke-linecap="round" stroke-linejoin="round" stroke-opacity="1" stroke-width="3.0"/>
    <path d="M 119.66829681396484 125.9250717163086 C 111.68197631835938 136.03785705566406 110.59906768798828 116.48248291015625 116.48686218261719 142.3985137939453" fill="none" stroke="rgb(0, 0, 0)" stroke-linecap="round" stroke-linejoin="round" stroke-opacity="1" stroke-width="3.0"/>
    <path d="M 117.27779388427734 137.44126892089844 C 122.2485122680664 120.84783935546875 110.34654998779297 129.65939331054688 102.6131820678711 119.2904052734375" fill="none" stroke="rgb(0, 0, 0)" stroke-linecap="round" stroke-linejoin="round" stroke-opacity="1" stroke-width="3.0"/>
    <path d="M 108.28905487060547 124.17555236816406 C 120.63824462890625 167.06549072265625 124.73453521728516 169.69496154785156 124.3266372680664 110.62016296386719" fill="none" stroke="rgb(0, 0, 0)" stroke-linecap="round" stroke-linejoin="round" stroke-opacity="1" stroke-width="3.0"/>
    <path d="M 108.3925552368164 204.16058349609375 C 126.32489013671875 193.3827362060547 110.20814514160156 196.8126678466797 113.07254028320312 160.74148559570312" fill="none" stroke="rgb(0, 0, 0)" stroke-linecap="round" stroke-linejoin="round" stroke-opacity="1" stroke-width="3.0"/>
    <path d="M 110.61711120605469 114.6602783203125 C 124.83924102783203 104.43463134765625 128.39370727539062 120.72466278076172 112.81155395507812 132.07215881347656" fill="none" stroke="rgb(0, 0, 0)" stroke-linecap="round" stroke-linejoin="round" stroke-opacity="1" stroke-width="3.0"/>
    <path d="M 119.58808898925781 93.55408477783203 C 114.6955795288086 84.48377990722656 113.3750991821289 85.46752166748047 115.61648559570312 85.96650695800781" fill="none" stroke="rgb(0, 0, 0)" stroke-linecap="round" stroke-linejoin="round" stroke-opacity="1" stroke-width="3.0"/>
    <path d="M 102.98014068603516 130.49191284179688 C 88.22626495361328 111.7574462890625 107.17815399169922 106.15975952148438 77.08474731445312 108.96018981933594" fill="none" stroke="rgb(0, 0, 0)" stroke-linecap="round" stroke-linejoin="round" stroke-opacity="1" stroke-width="3.0"/>
    <path d="M 146.993896484375 43.89618682861328 C 144.7446746826172 43.361358642578125 157.6921844482422 44.73640060424805 152.93968200683594 25.903976440429688" fill="none" stroke="rgb(0, 0, 0)" stroke-linecap="round" stroke-linejoin="round" stroke-opacity="1" stroke-width="3.0"/>
    <path d="M 59.58298873901367 104.46862030029297 C 59.8420295715332 112.08885192871094 87.56938171386719 100.52179718017578 91.1740493774414 107.08427429199219" fill="none" stroke="rgb(0, 0, 0)" stroke-linecap="round" stroke-linejoin="round" stroke-opacity="1" stroke-width="3.0"/>
    <path d="M 146.35105895996094 49.84225845336914 C 119.51836395263672 56.271209716796875 126.17759704589844 53.84151077270508 148.8168487548828 45.9438362121582" fill="none" stroke="rgb(0, 0, 0)" stroke-linecap="round" stroke-linejoin="round" stroke-opacity="1" stroke-width="3.0"/>
    <path d="M 118.0013198852539 179.4215545654297 C 117.4789047241211 144.944580078125 120.03163146972656 147.8124542236328 119.09768676757812 152.4657440185547" fill="none" stroke="rgb(0, 0, 0)" stroke-linecap="round" stroke-linejoin="round" stroke-opacity="1" stroke-width="3.0"/>
    <path d="M 160.3880157470703 108.20304870605469 C 148.82656860351562 92.28813171386719 129.2903594970703 91.46086120605469 137.88656616210938 96.97982788085938" fill="none" stroke="rgb(0, 0, 0)" stroke-linecap="round" stroke-linejoin="round" stroke-opacity="1" stroke-width="3.0"/>
    <path d="M 94.6751480102539 88.15638732910156 C 92.46500396728516 91.35191345214844 94.13898468017578 86.78266143798828 65.95606231689453 106.69243621826172" fill="none" stroke="rgb(0, 0, 0)" stroke-linecap="round" stroke-linejoin="round" stroke-opacity="1" stroke-width="3.0"/>
    <path d="M 114.68292236328125 75.54373931884766 C 131.01844787597656 68.87137603759766 130.696044921875 41.91743087768555 117.86812591552734 74.02299499511719" fill="none" stroke="rgb(0, 0, 0)" stroke-linecap="round" stroke-linejoin="round" stroke-opacity="1" stroke-width="3.0"/>
    <path d="M 117.9403076171875 123.48680114746094 C 101.0455322265625 126.81163787841797 98.87236785888672 119.44590759277344 101.86398315429688 110.54454803466797" fill="none" stroke="rgb(0, 0, 0)" stroke-linecap="round" stroke-linejoin="round" stroke-opacity="1" stroke-width="3.0"/>
    <path d="M 111.79733276367188 90.10840606689453 C 117.74340057373047 86.8260726928711 127.65258026123047 89.04881286621094 106.04347229003906 83.83898162841797" fill="none" stroke="rgb(0, 0, 0)" stroke-linecap="round" stroke-linejoin="round" stroke-opacity="1" stroke-width="3.0"/>
    <path d="M 130.692138671875 99.21778869628906 C 141.51644897460938 106.28116607666016 132.90975952148438 99.93311309814453 122.03819274902344 91.98067474365234" fill="none" stroke="rgb(0, 0, 0)" stroke-linecap="round" stroke-linejoin="round" stroke-opacity="1" stroke-width="3.0"/>
    <path d="M 140.4067840576172 8.999277114868164 C 142.17796325683594 7.436888694763184 153.45091247558594 26.06644058227539 138.93775939941406 10.785187721252441" fill="none" stroke="rgb(0, 0, 0)" stroke-linecap="round" stroke-linejoin="round" stroke-opacity="1" stroke-width="3.0"/>
    <path d="M 122.35540008544922 113.59494018554688 C 114.6875991821289 105.95684051513672 114.38896942138672 106.6309585571289 117.09272766113281 147.83734130859375" fill="none" stroke="rgb(0, 0, 0)" stroke-linecap="round" stroke-linejoin="round" stroke-opacity="1" stroke-width="3.0"/>
    <path d="M 98.2420883178711 98.98106384277344 C 88.73516082763672 115.0418701171875 97.44583129882812 103.42271423339844 108.37065124511719 112.76763153076172" fill="none" stroke="rgb(0, 0, 0)" stroke-linecap="round" stroke-linejoin="round" stroke-opacity="1" stroke-width="3.0"/>
    <path d="M 128.0815887451172 106.26158142089844 C 111.41571807861328 87.23271179199219 111.81587982177734 85.5151596069336 130.64686584472656 104.0889892578125" fill="none" stroke="rgb(0, 0, 0)" stroke-linecap="round" stroke-linejoin="round" stroke-opacity="1" stroke-width="3.0"/>
    <path d="M 112.25840759277344 163.8102264404297 C 117.52536010742188 147.15841674804688 108.2349624633789 151.49635314941406 112.19287109375 165.20306396484375" fill="none" stroke="rgb(0, 0, 0)" stroke-linecap="round" stroke-linejoin="round" stroke-opacity="1" stroke-width="3.0"/>
    <path d="M 115.41078186035156 118.8158187866211 C 96.0647964477539 122.07520294189453 103.42847442626953 103.38748168945312 88.4612045288086 102.9847183227539" fill="none" stroke="rgb(0, 0, 0)" stroke-linecap="round" stroke-linejoin="round" stroke-opacity="1" stroke-width="3.0"/>
    <path d="M 79.85707092285156 65.95283508300781 C 108.68563079833984 89.23722839355469 79.62969970703125 75.9747543334961 83.23773193359375 72.64740753173828" fill="none" stroke="rgb(0, 0, 0)" stroke-linecap="round" stroke-linejoin="round" stroke-opacity="1" stroke-width="3.0"/>
    <path d="M 108.79417419433594 87.23033142089844 C 123.00465393066406 88.44065856933594 116.72470092773438 80.67977905273438 115.96353149414062 81.4364013671875" fill="none" stroke="rgb(0, 0, 0)" stroke-linecap="round" stroke-linejoin="round" stroke-opacity="1" stroke-width="3.0"/>
    <path d="M 101.67977905273438 115.87140655517578 C 108.29740142822266 125.5611801147461 115.81804656982422 120.49181365966797 123.31665802001953 118.76251220703125" fill="none" stroke="rgb(0, 0, 0)" stroke-linecap="round" stroke-linejoin="round" stroke-opacity="1" stroke-width="3.0"/>
    <path d="M 109.79412078857422 35.91896057128906 C 106.1067123413086 21.486726760864258 156.10031127929688 24.75675392150879 115.7080078125 30.620040893554688" fill="none" stroke="rgb(0, 0, 0)" stroke-linecap="round" stroke-linejoin="round" stroke-opacity="1" stroke-width="3.0"/>
    <path d="M 112.17774963378906 107.69011688232422 C 113.06349182128906 114.1283950805664 92.00332641601562 104.58411407470703 111.90386199951172 119.96183776855469" fill="none" stroke="rgb(0, 0, 0)" stroke-linecap="round" stroke-linejoin="round" stroke-opacity="1" stroke-width="3.0"/>
    <path d="M 104.09435272216797 115.74244689941406 C 116.05296325683594 108.69330596923828 117.11872863769531 108.73589324951172 116.76753234863281 125.80035400390625" fill="none" stroke="rgb(0, 0, 0)" stroke-linecap="round" stroke-linejoin="round" stroke-opacity="1" stroke-width="3.0"/>
    <path d="M 78.9746322631836 63.92805099487305 C 88.16890716552734 54.22221755981445 99.73275756835938 72.98857879638672 98.38800811767578 52.789649963378906" fill="none" stroke="rgb(0, 0, 0)" stroke-linecap="round" stroke-linejoin="round" stroke-opacity="1" stroke-width="3.0"/>
    <path d="M 144.79672241210938 48.65623092651367 C 132.90789794921875 54.02989196777344 153.77830505371094 35.22764587402344 152.50985717773438 35.16158676147461" fill="none" stroke="rgb(0, 0, 0)" stroke-linecap="round" stroke-linejoin="round" stroke-opacity="1" stroke-width="3.0"/>
    <path d="M 122.02876281738281 85.85722351074219 C 109.0523681640625 78.19493103027344 127.9806137084961 68.45171356201172 120.88538360595703 79.7448959350586" fill="none" stroke="rgb(0, 0, 0)" stroke-linecap="round" stroke-linejoin="round" stroke-opacity="1" stroke-width="3.0"/>
    <path d="M 117.9961166381836 70.60164642333984 C 115.79711151123047 71.29610443115234 110.0066909790039 81.7163314819336 118.98213195800781 84.67936706542969" fill="none" stroke="rgb(0, 0, 0)" stroke-linecap="round" stroke-linejoin="round" stroke-opacity="1" stroke-width="3.0"/>
    <path d="M 128.93502807617188 100.84286499023438 C 156.51950073242188 108.27651977539062 143.34359741210938 115.97319030761719 155.3848419189453 109.22087097167969" fill="none" stroke="rgb(0, 0, 0)" stroke-linecap="round" stroke-linejoin="round" stroke-opacity="1" stroke-width="3.0"/>
    <path d="M 142.86866760253906 105.1628189086914 C 120.27417755126953 80.10711669921875 116.68756866455078 85.29497528076172 118.96673583984375 78.05751037597656" fill="none" stroke="rgb(0, 0, 0)" stroke-linecap="round" stroke-linejoin="round" stroke-opacity="1" stroke-width="3.0"/>
    <path d="M 112.87051391601562 188.28445434570312 C 118.18756866455078 216.9108123779297 104.06723022460938 232.24525451660156 113.15005493164062 187.67742919921875" fill="none" stroke="rgb(0, 0, 0)" stroke-linecap="round" stroke-linejoin="round" stroke-opacity="1" stroke-width="3.0"/>
    <path d="M 118.98065948486328 32.00318908691406 C 158.0440673828125 19.994224548339844 109.05390930175781 61.54679489135742 127.4259262084961 51.721466064453125" fill="none" stroke="rgb(0, 0, 0)" stroke-linecap="round" stroke-linejoin="round" stroke-opacity="1" stroke-width="3.0"/>
    <path d="M 150.02320861816406 45.66448211669922 C 138.942626953125 62.01332473754883 144.38343811035156 51.827537536621094 136.9485626220703 61.552337646484375" fill="none" stroke="rgb(0, 0, 0)" stroke-linecap="round" stroke-linejoin="round" stroke-opacity="1" stroke-width="3.0"/>
    <path d="M 98.59430694580078 56.405189514160156 C 62.46268844604492 85.96219635009766 95.05711364746094 42.30991744995117 116.6979751586914 52.45663070678711" fill="none" stroke="rgb(0, 0, 0)" stroke-linecap="round" stroke-linejoin="round" stroke-opacity="1" stroke-width="3.0"/>
    <path d="M 142.91651916503906 107.5015869140625 C 115.92878723144531 114.55669403076172 119.70549774169922 102.00589752197266 111.27204132080078 112.67706298828125" fill="none" stroke="rgb(0, 0, 0)" stroke-linecap="round" stroke-linejoin="round" stroke-opacity="1" stroke-width="3.0"/>
    <path d="M 120.81937408447266 73.98340606689453 C 147.31613159179688 52.78276824951172 122.98969268798828 64.0655288696289 139.89605712890625 57.32944869995117" fill="none" stroke="rgb(0, 0, 0)" stroke-linecap="round" stroke-linejoin="round" stroke-opacity="1" stroke-width="3.0"/>
    <path d="M 62.79500961303711 103.10910034179688 C 87.15023803710938 87.5869369506836 87.00474548339844 86.61048126220703 96.52518463134766 86.41387176513672" fill="none" stroke="rgb(0, 0, 0)" stroke-linecap="round" stroke-linejoin="round" stroke-opacity="1" stroke-width="3.0"/>
    <path d="M 97.93391418457031 79.26103210449219 C 96.50381469726562 72.61319732666016 98.26959991455078 81.68643188476562 97.7534408569336 79.78632354736328" fill="none" stroke="rgb(0, 0, 0)" stroke-linecap="round" stroke-linejoin="round" stroke-opacity="1" stroke-width="3.0"/>
    <path d="M 143.2244873046875 52.14149475097656 C 131.76962280273438 62.980411529541016 82.26026916503906 52.505821228027344 138.61758422851562 54.78114318847656" fill="none" stroke="rgb(0, 0, 0)" stroke-linecap="round" stroke-linejoin="round" stroke-opacity="1" stroke-width="3.0"/>
    <path d="M 113.87593841552734 34.169891357421875 C 157.75775146484375 29.894115447998047 120.95442199707031 36.60272216796875 109.29460144042969 38.312232971191406" fill="none" stroke="rgb(0, 0, 0)" stroke-linecap="round" stroke-linejoin="round" stroke-opacity="1" stroke-width="3.0"/>
    <path d="M 141.50067138671875 109.14857482910156 C 136.3490447998047 111.25527954101562 118.62205505371094 105.74535369873047 119.97879028320312 96.21600341796875" fill="none" stroke="rgb(0, 0, 0)" stroke-linecap="round" stroke-linejoin="round" stroke-opacity="1" stroke-width="3.0"/>
    <path d="M 119.96429443359375 60.03853225708008 C 110.3616943359375 40.56489944458008 136.44129943847656 30.68471908569336 118.9203872680664 52.3261833190918" fill="none" stroke="rgb(0, 0, 0)" stroke-linecap="round" stroke-linejoin="round" stroke-opacity="1" stroke-width="3.0"/>
  </g>
</svg>
