<?xml version="1.0" ?>
<svg height="224" version="1.1" width="224" xmlns="http://www.w3.org/2000/svg">
  <defs/>
  <g>
    <path d="M 116.94847869873047 118.44683074951172 C 126.32825469970703 119.62356567382812 117.70120239257812 118.86287689208984 117.33409881591797 118.71322631835938" fill="none" stroke="rgb(0, 0, 0)" stroke-linecap="round" stroke-linejoin="round" stroke-opacity="1" stroke-width="3.0"/>
    <path d="M 111.74750518798828 60.69554901123047 C 119.34091186523438 53.574249267578125 123.04485321044922 44.07131576538086 120.75169372558594 25.791656494140625" fill="none" stroke="rgb(0, 0, 0)" stroke-linecap="round" stroke-linejoin="round" stroke-opacity="1" stroke-width="3.0"/>
    <path d="M 106.7896957397461 178.0478515625 C 113.10645294189453 166.46795654296875 107.35221862792969 136.53421020507812 106.40534210205078 173.70933532714844" fill="none" stroke="rgb(0, 0, 0)" stroke-linecap="round" stroke-linejoin="round" stroke-opacity="1" stroke-width="3.0"/>
    <path d="M 110.91387939453125 77.14883422851562 C 102.89987182617188 106.2676773071289 118.27877044677734 89.61087799072266 113.38655090332031 98.0301284790039" fill="none" stroke="rgb(0, 0, 0)" stroke-linecap="round" stroke-linejoin="round" stroke-opacity="1" stroke-width="3.0"/>
    <path d="M 117.46656799316406 117.62925720214844 C 117.18690490722656 137.62818908691406 123.54679870605469 144.38365173339844 121.972900390625 159.7809600830078" fill="none" stroke="rgb(0, 0, 0)" stroke-linecap="round" stroke-linejoin="round" stroke-opacity="1" stroke-width="3.0"/>
    <path d="M 128.20794677734375 49.85476303100586 C 110.49789428710938 58.861995697021484 93.48430633544922 42.16917037963867 103.82179260253906 68.41746520996094" fill="none" stroke="rgb(0, 0, 0)" stroke-linecap="round" stroke-linejoin="round" stroke-opacity="1" stroke-width="3.0"/>
    <path d="M 146.56082153320312 10.089556694030762 C 153.94961547851562 13.312657356262207 156.43182373046875 29.479232788085938 140.8540802001953 13.067037582397461" fill="none" stroke="rgb(0, 0, 0)" stroke-linecap="round" stroke-linejoin="round" stroke-opacity="1" stroke-width="3.0"/>
    <path d="M 109.60726165771484 91.41064453125 C 117.94356536865234 89.31665802001953 121.3685531616211 92.38740539550781 125.18940734863281 65.08788299560547" fill="none" stroke="rgb(0, 0, 0)" stroke-linecap="round" stroke-linejoin="round" stroke-opacity="1" stroke-width="3.0"/>
    <path d="M 117.7952880859375 69.28128814697266 C 101.09644317626953 53.74913024902344 109.60889434814453 45.18233871459961 118.33242797851562 69.11273956298828" fill="none" stroke="rgb(0, 0, 0)" stroke-linecap="round" stroke-linejoin="round" stroke-opacity="1" stroke-width="3.0"/>
    <path d="M 115.83445739746094 118.359375 C 116.72525024414062 106.22765350341797 115.51945495605469 116.69171142578125 122.71866607666016 140.7625732421875" fill="none" stroke="rgb(0, 0, 0)" stroke-linecap="round" stroke-linejoin="round" stroke-opacity="1" stroke-width="3.0"/>
    <path d="M 131.631591796875 43.549530029296875 C 128.57818603515625 76.11395263671875 122.89041900634766 59.30034637451172 131.1487274169922 53.27433776855469" fill="none" stroke="rgb(0, 0, 0)" stroke-linecap="round" stroke-linejoin="round" stroke-opacity="1" stroke-width="3.0"/>
    <path d="M 123.96939086914062 122.5047836303711 C 105.12081146240234 116.64527130126953 113.67121124267578 125.48826599121094 113.92081451416016 109.77958679199219" fill="none" stroke="rgb(0, 0, 0)" stroke-linecap="round" stroke-linejoin="round" stroke-opacity="1" stroke-width="3.0"/>
    <path d="M 78.29719543457031 70.08875274658203 C 82.16693878173828 88.60116577148438 97.33538818359375 75.79316711425781 119.52062225341797 82.7198486328125" fill="none" stroke="rgb(0, 0, 0)" stroke-linecap="round" stroke-linejoin="round" stroke-opacity="1" stroke-width="3.0"/>
    <path d="M 119.91696166992188 54.820526123046875 C 135.74913024902344 28.144378662109375 109.51805114746094 17.58951187133789 110.49917602539062 36.61795425415039" fill="none" stroke="rgb(0, 0, 0)" stroke-linecap="round" stroke-linejoin="round" stroke-opacity="1" stroke-width="3.0"/>
    <path d="M 110.76591491699219 123.5512924194336 C 110.54866790771484 104.3782730102539 128.97853088378906 109.99424743652344 122.99935913085938 134.46043395996094" fill="none" stroke="rgb(0, 0, 0)" stroke-linecap="round" stroke-linejoin="round" stroke-opacity="1" stroke-width="3.0"/>
    <path d="M 121.9922866821289 26.91657829284668 C 132.07028198242188 54.13949203491211 125.9635009765625 56.28954315185547 124.49181365966797 27.530033111572266" fill="none" stroke="rgb(0, 0, 0)" stroke-linecap="round" stroke-linejoin="round" stroke-opacity="1" stroke-width="3.0"/>
    <path d="M 108.87074279785156 113.4307632446289 C 106.68608856201172 132.68548583984375 113.3526611328125 122.82683563232422 110.55318450927734 130.06602478027344" fill="none" stroke="rgb(0, 0, 0)" stroke-linecap="round" stroke-linejoin="round" stroke-opacity="1" stroke-width="3.0"/>
    <path d="M 116.87773895263672 155.91322326660156 C 122.94580078125 208.49195861816406 103.26142883300781 153.50660705566406 115.12871551513672 212.1886749267578" fill="none" stroke="rgb(0, 0, 0)" stroke-linecap="round" stroke-linejoin="round" stroke-opacity="1" stroke-width="3.0"/>
    <path d="M 113.250732421875 176.78965759277344 C 131.6804962158203 160.91127014160156 109.1267318725586 156.15574645996094 115.23910522460938 120.30721282958984" fill="none" stroke="rgb(0, 0, 0)" stroke-linecap="round" stroke-linejoin="round" stroke-opacity="1" stroke-width="3.0"/>
    <path d="M 111.45147705078125 92.56499481201172 C 112.76217651367188 89.05084991455078 105.72856140136719 82.98753356933594 92.96951293945312 85.96563720703125" fill="none" stroke="rgb(0, 0, 0)" stroke-linecap="round" stroke-linejoin="round" stroke-opacity="1" stroke-width="3.0"/>
    <path d="M 150.71070861816406 14.44355297088623 C 161.09246826171875 35.880271911621094 163.193115234375 31.535816192626953 136.64476013183594 58.013641357421875" fill="none" stroke="rgb(0, 0, 0)" stroke-linecap="round" stroke-linejoin="round" stroke-opacity="1" stroke-width="3.0"/>
    <path d="M 113.92150115966797 190.92276000976562 C 95.23661041259766 174.33177185058594 125.80961608886719 236.1484832763672 107.9593276977539 208.17398071289062" fill="none" stroke="rgb(0, 0, 0)" stroke-linecap="round" stroke-linejoin="round" stroke-opacity="1" stroke-width="3.0"/>
    <path d="M 113.76608276367188 88.5918960571289 C 116.06001281738281 64.14256286621094 124.57526397705078 64.16896057128906 113.51470947265625 95.6189193725586" fill="none" stroke="rgb(0, 0, 0)" stroke-linecap="round" stroke-linejoin="round" stroke-opacity="1" stroke-width="3.0"/>
    <path d="M 117.86293029785156 117.74124908447266 C 116.60772705078125 117.35372161865234 118.92057037353516 110.22480010986328 137.5178985595703 111.87952423095703" fill="none" stroke="rgb(0, 0, 0)" stroke-linecap="round" stroke-linejoin="round" stroke-opacity="1" stroke-width="3.0"/>
    <path d="M 94.07171630859375 96.3805160522461 C 120.97232818603516 61.633018493652344 122.880126953125 69.38285827636719 101.7076644897461 90.08049774169922" fill="none" stroke="rgb(0, 0, 0)" stroke-linecap="round" stroke-linejoin="round" stroke-opacity="1" stroke-width="3.0"/>
    <path d="M 119.48021697998047 29.898727416992188 C 112.63817596435547 21.383684158325195 137.12828063964844 31.285127639770508 126.82891845703125 43.1133918762207" fill="none" stroke="rgb(0, 0, 0)" stroke-linecap="round" stroke-linejoin="round" stroke-opacity="1" stroke-width="3.0"/>
    <path d="M 121.99512481689453 145.21580505371094 C 130.52076721191406 115.38101959228516 124.16578674316406 97.10394287109375 121.47274780273438 138.73565673828125" fill="none" stroke="rgb(0, 0, 0)" stroke-linecap="round" stroke-linejoin="round" stroke-opacity="1" stroke-width="3.0"/>
    <path d="M 154.63609313964844 109.16313934326172 C 139.62147521972656 114.15477752685547 142.27049255371094 115.11297607421875 127.9058837890625 101.57369995117188" fill="none" stroke="rgb(0, 0, 0)" stroke-linecap="round" stroke-linejoin="round" stroke-opacity="1" stroke-width="3.0"/>
    <path d="M 112.7486801147461 113.38423919677734 C 122.3848648071289 119.2793197631836 118.28739929199219 106.1558609008789 120.76776885986328 127.33690643310547" fill="none" stroke="rgb(0, 0, 0)" stroke-linecap="round" stroke-linejoin="round" stroke-opacity="1" stroke-width="3.0"/>
    <path d="M 114.06609344482422 90.3783187866211 C 120.23509216308594 90.13097381591797 141.67897033691406 86.82576751708984 161.44705200195312 107.04730987548828" fill="none" stroke="rgb(0, 0, 0)" stroke-linecap="round" stroke-linejoin="round" stroke-opacity="1" stroke-width="3.0"/>
    <path d="M 113.3153305053711 115.32134246826172 C 113.67223358154297 135.9879913330078 114.3164291381836 143.14210510253906 110.8699722290039 128.9327392578125" fill="none" stroke="rgb(0, 0, 0)" stroke-linecap="round" stroke-linejoin="round" stroke-opacity="1" stroke-width="3.0"/>
    <path d="M 109.6053695678711 126.43421936035156 C 112.93302154541016 153.54249572753906 137.52005004882812 158.51321411132812 112.1907730102539 171.29441833496094" fill="none" stroke="rgb(0, 0, 0)" stroke-linecap="round" stroke-linejoin="round" stroke-opacity="1" stroke-width="3.0"/>
    <path d="M 146.0155487060547 10.378150939941406 C 157.50160217285156 14.679692268371582 127.71199798583984 0.09683400392532349 145.8620147705078 10.602869987487793" fill="none" stroke="rgb(0, 0, 0)" stroke-linecap="round" stroke-linejoin="round" stroke-opacity="1" stroke-width="3.0"/>
    <path d="M 128.3314666748047 45.935604095458984 C 131.81756591796875 43.30233383178711 118.95849609375 19.7238712310791 128.56459045410156 28.799482345581055" fill="none" stroke="rgb(0, 0, 0)" stroke-linecap="round" stroke-linejoin="round" stroke-opacity="1" stroke-width="3.0"/>
    <path d="M 123.13639831542969 72.35401916503906 C 103.19791412353516 74.27210235595703 107.76102447509766 58.37683868408203 115.94493103027344 72.00736999511719" fill="none" stroke="rgb(0, 0, 0)" stroke-linecap="round" stroke-linejoin="round" stroke-opacity="1" stroke-width="3.0"/>
    <path d="M 124.55736541748047 46.81834411621094 C 110.91791534423828 54.377601623535156 113.85853576660156 44.52560806274414 125.82620239257812 36.9033088684082" fill="none" stroke="rgb(0, 0, 0)" stroke-linecap="round" stroke-linejoin="round" stroke-opacity="1" stroke-width="3.0"/>
    <path d="M 118.87004089355469 112.79359436035156 C 123.54257202148438 110.11822509765625 72.5328369140625 114.47636413574219 64.88595581054688 107.38780212402344" fill="none" stroke="rgb(0, 0, 0)" stroke-linecap="round" stroke-linejoin="round" stroke-opacity="1" stroke-width="3.0"/>
    <path d="M 151.96458435058594 104.01516723632812 C 126.79064178466797 82.60169219970703 110.57132720947266 99.82804870605469 116.69270324707031 75.21915435791016" fill="none" stroke="rgb(0, 0, 0)" stroke-linecap="round" stroke-linejoin="round" stroke-opacity="1" stroke-width="3.0"/>
    <path d="M 110.24515533447266 134.0071258544922 C 108.46700286865234 125.38751220703125 112.42645263671875 122.80970001220703 110.33069610595703 123.24849700927734" fill="none" stroke="rgb(0, 0, 0)" stroke-linecap="round" stroke-linejoin="round" stroke-opacity="1" stroke-width="3.0"/>
    <path d="M 135.11605834960938 50.057193756103516 C 120.42615509033203 56.64656448364258 93.487548828125 48.570701599121094 109.38246154785156 59.9488525390625" fill="none" stroke="rgb(0, 0, 0)" stroke-linecap="round" stroke-linejoin="round" stroke-opacity="1" stroke-width="3.0"/>
    <path d="M 108.12744140625 57.419647216796875 C 114.8023452758789 99.00529479980469 109.73741912841797 105.32058715820312 106.90827941894531 90.40934753417969" fill="none" stroke="rgb(0, 0, 0)" stroke-linecap="round" stroke-linejoin="round" stroke-opacity="1" stroke-width="3.0"/>
    <path d="M 153.3436279296875 23.260761260986328 C 146.20669555664062 9.235158920288086 150.3786163330078 13.5593900680542 137.1376495361328 8.147890090942383" fill="none" stroke="rgb(0, 0, 0)" stroke-linecap="round" stroke-linejoin="round" stroke-opacity="1" stroke-width="3.0"/>
    <path d="M 122.36796569824219 117.93711853027344 C 117.00296783447266 105.40117645263672 149.27203369140625 111.07501220703125 144.95814514160156 112.91351318359375" fill="none" stroke="rgb(0, 0, 0)" stroke-linecap="round" stroke-linejoin="round" stroke-opacity="1" stroke-width="3.0"/>
    <path d="M 110.07242584228516 89.79812622070312 C 107.84759521484375 83.19782257080078 111.78400421142578 76.80545043945312 102.0464096069336 110.89950561523438" fill="none" stroke="rgb(0, 0, 0)" stroke-linecap="round" stroke-linejoin="round" stroke-opacity="1" stroke-width="3.0"/>
    <path d="M 124.3317642211914 55.75778579711914 C 143.02511596679688 51.747623443603516 141.3909454345703 49.73434066772461 154.39772033691406 36.91661834716797" fill="none" stroke="rgb(0, 0, 0)" stroke-linecap="round" stroke-linejoin="round" stroke-opacity="1" stroke-width="3.0"/>
    <path d="M 108.92201232910156 160.1782989501953 C 114.95677185058594 129.9073486328125 101.53369903564453 140.4010467529297 97.14447021484375 114.44633483886719" fill="none" stroke="rgb(0, 0, 0)" stroke-linecap="round" stroke-linejoin="round" stroke-opacity="1" stroke-width="3.0"/>
    <path d="M 121.86375427246094 162.7766876220703 C 111.78350067138672 164.8070068359375 113.29446411132812 179.5726776123047 115.06556701660156 145.88644409179688" fill="none" stroke="rgb(0, 0, 0)" stroke-linecap="round" stroke-linejoin="round" stroke-opacity="1" stroke-width="3.0"/>
    <path d="M 116.1426010131836 39.83308792114258 C 123.66059112548828 30.497705459594727 122.0630874633789 15.477808952331543 114.57759094238281 34.286415100097656" fill="none" stroke="rgb(0, 0, 0)" stroke-linecap="round" stroke-linejoin="round" stroke-opacity="1" stroke-width="3.0"/>
    <path d="M 118.59664916992188 24.46532440185547 C 135.46112060546875 24.196483612060547 126.48764038085938 30.3138484954834 113.82369232177734 43.01927947998047" fill="none" stroke="rgb(0, 0, 0)" stroke-linecap="round" stroke-linejoin="round" stroke-opacity="1" stroke-width="3.0"/>
    <path d="M 121.54309844970703 81.52932739257812 C 116.51583862304688 101.07328796386719 117.18696594238281 94.87775421142578 122.65226745605469 61.34745788574219" fill="none" stroke="rgb(0, 0, 0)" stroke-linecap="round" stroke-linejoin="round" stroke-opacity="1" stroke-width="3.0"/>
    <path d="M 104.0800552368164 97.56715393066406 C 106.5323257446289 120.52680969238281 108.53369903564453 111.64788818359375 120.68544006347656 112.93862915039062" fill="none" stroke="rgb(0, 0, 0)" stroke-linecap="round" stroke-linejoin="round" stroke-opacity="1" stroke-width="3.0"/>
    <path d="M 133.0302734375 56.46953201293945 C 127.05033874511719 80.8976058959961 120.1899642944336 75.11837768554688 123.56026458740234 89.3111343383789" fill="none" stroke="rgb(0, 0, 0)" stroke-linecap="round" stroke-linejoin="round" stroke-opacity="1" stroke-width="3.0"/>
    <path d="M 85.73226928710938 107.94879150390625 C 75.44718933105469 116.69453430175781 96.71687316894531 115.26276397705078 100.47708129882812 102.92130279541016" fill="none" stroke="rgb(0, 0, 0)" stroke-linecap="round" stroke-linejoin="round" stroke-opacity="1" stroke-width="3.0"/>
    <path d="M 157.5568389892578 33.596431732177734 C 147.49085998535156 50.729408264160156 141.2838134765625 60.94804763793945 128.3303680419922 57.0123405456543" fill="none" stroke="rgb(0, 0, 0)" stroke-linecap="round" stroke-linejoin="round" stroke-opacity="1" stroke-width="3.0"/>
    <path d="M 128.68756103515625 90.01920318603516 C 123.97760009765625 73.01326751708984 121.4551773071289 76.18717193603516 125.51775360107422 90.39073181152344" fill="none" stroke="rgb(0, 0, 0)" stroke-linecap="round" stroke-linejoin="round" stroke-opacity="1" stroke-width="3.0"/>
    <path d="M 76.11811065673828 96.06855010986328 C 95.34716796875 80.32200622558594 107.85259246826172 76.63372802734375 116.14629364013672 97.11425018310547" fill="none" stroke="rgb(0, 0, 0)" stroke-linecap="round" stroke-linejoin="round" stroke-opacity="1" stroke-width="3.0"/>
    <path d="M 59.92415237426758 99.64971923828125 C 93.42509460449219 74.17041015625 100.5679931640625 95.81538391113281 78.48310089111328 67.21881103515625" fill="none" stroke="rgb(0, 0, 0)" stroke-linecap="round" stroke-linejoin="round" stroke-opacity="1" stroke-width="3.0"/>
    <path d="M 131.2952117919922 55.09785461425781 C 152.3653564453125 34.25242233276367 162.3922576904297 39.42042922973633 149.82479858398438 22.013639450073242" fill="none" stroke="rgb(0, 0, 0)" stroke-linecap="round" stroke-linejoin="round" stroke-opacity="1" stroke-width="3.0"/>
    <path d="M 142.5940704345703 53.744102478027344 C 114.18126678466797 59.35641860961914 124.03297424316406 53.94038009643555 126.69325256347656 68.847900390625" fill="none" stroke="rgb(0, 0, 0)" stroke-linecap="round" stroke-linejoin="round" stroke-opacity="1" stroke-width="3.0"/>
    <path d="M 106.07978820800781 66.87678527832031 C 114.98867797851562 82.30106353759766 100.6323013305664 89.6646957397461 105.76004028320312 61.14131546020508" fill="none" stroke="rgb(0, 0, 0)" stroke-linecap="round" stroke-linejoin="round" stroke-opacity="1" stroke-width="3.0"/>
    <path d="M 121.1047592163086 71.06954956054688 C 114.03848266601562 57.707157135009766 104.49810791015625 49.88852310180664 95.88900756835938 74.78768920898438" fill="none" stroke="rgb(0, 0, 0)" stroke-linecap="round" stroke-linejoin="round" stroke-opacity="1" stroke-width="3.0"/>
    <path d="M 126.43421936035156 89.33892059326172 C 135.44737243652344 87.22084045410156 121.0531005859375 79.74072265625 127.42153930664062 63.729759216308594" fill="none" stroke="rgb(0, 0, 0)" stroke-linecap="round" stroke-linejoin="round" stroke-opacity="1" stroke-width="3.0"/>
    <path d="M 124.12128448486328 89.35990142822266 C 105.87105560302734 95.67603302001953 127.46600341796875 88.41018676757812 145.03677368164062 103.98833465576172" fill="none" stroke="rgb(0, 0, 0)" stroke-linecap="round" stroke-linejoin="round" stroke-opacity="1" stroke-width="3.0"/>
    <path d="M 92.53511047363281 53.5197868347168 C 70.25263214111328 65.66650390625 74.24568176269531 73.1176986694336 94.7560806274414 53.73393630981445" fill="none" stroke="rgb(0, 0, 0)" stroke-linecap="round" stroke-linejoin="round" stroke-opacity="1" stroke-width="3.0"/>
  </g>
</svg>
