<?xml version="1.0" ?>
<svg height="224" version="1.1" width="224" xmlns="http://www.w3.org/2000/svg">
  <defs/>
  <g>
    <path d="M 119.8467788696289 132.50950622558594 C 106.69874572753906 105.78821563720703 111.8406982421875 101.29222106933594 144.1242218017578 112.04815673828125" fill="none" stroke="rgb(0, 0, 0)" stroke-linecap="round" stroke-linejoin="round" stroke-opacity="1" stroke-width="3.0"/>
    <path d="M 127.26129913330078 45.51921463012695 C 103.87249755859375 50.378257751464844 117.7393569946289 29.499164581298828 128.80299377441406 29.459285736083984" fill="none" stroke="rgb(0, 0, 0)" stroke-linecap="round" stroke-linejoin="round" stroke-opacity="1" stroke-width="2.9996728897094727"/>
    <path d="M 125.13785552978516 105.52421569824219 C 128.5499267578125 127.79613494873047 120.44993591308594 125.03539276123047 115.0971908569336 171.42105102539062" fill="none" stroke="rgb(0, 0, 0)" stroke-linecap="round" stroke-linejoin="round" stroke-opacity="1" stroke-width="3.0"/>
    <path d="M 115.90904235839844 65.94454956054688 C 130.0248260498047 47.9835319519043 99.63748168945312 53.43988037109375 79.88813781738281 67.23709869384766" fill="none" stroke="rgb(0, 0, 0)" stroke-linecap="round" stroke-linejoin="round" stroke-opacity="1" stroke-width="3.0"/>
    <path d="M 143.49229431152344 46.640987396240234 C 159.02801513671875 29.629173278808594 163.6691131591797 34.51917266845703 146.2822265625 10.618337631225586" fill="none" stroke="rgb(0, 0, 0)" stroke-linecap="round" stroke-linejoin="round" stroke-opacity="1" stroke-width="3.0"/>
    <path d="M 111.2790756225586 86.1828842163086 C 117.94690704345703 78.02005767822266 124.23258209228516 85.71369934082031 116.51082611083984 88.34662628173828" fill="none" stroke="rgb(0, 0, 0)" stroke-linecap="round" stroke-linejoin="round" stroke-opacity="1" stroke-width="2.999990701675415"/>
    <path d="M 111.30374908447266 51.629486083984375 C 99.3581771850586 101.15641021728516 91.97100830078125 62.14165496826172 117.63631439208984 54.642486572265625" fill="none" stroke="rgb(0, 0, 0)" stroke-linecap="round" stroke-linejoin="round" stroke-opacity="1" stroke-width="2.9972944259643555"/>
    <path d="M 123.94924926757812 159.1355743408203 C 114.1217041015625 135.24777221679688 114.9449462890625 118.5050048828125 112.19451141357422 108.22550201416016" fill="none" stroke="rgb(0, 0, 0)" stroke-linecap="round" stroke-linejoin="round" stroke-opacity="1" stroke-width="2.999321460723877"/>
    <path d="M 131.68077087402344 37.88304138183594 C 116.2681655883789 71.53669738769531 122.65640258789062 34.89666748046875 101.28433990478516 62.14017105102539" fill="none" stroke="rgb(0, 0, 0)" stroke-linecap="round" stroke-linejoin="round" stroke-opacity="1" stroke-width="3.0"/>
    <path d="M 118.13567352294922 108.55268859863281 C 120.9828872680664 130.3583221435547 115.57469177246094 143.42820739746094 115.64036560058594 106.69157409667969" fill="none" stroke="rgb(0, 0, 0)" stroke-linecap="round" stroke-linejoin="round" stroke-opacity="1" stroke-width="3.0"/>
    <path d="M 62.92404556274414 104.71585083007812 C 60.90824508666992 108.55431365966797 91.80730438232422 78.15829467773438 113.39998626708984 87.43959045410156" fill="none" stroke="rgb(0, 0, 0)" stroke-linecap="round" stroke-linejoin="round" stroke-opacity="1" stroke-width="3.0"/>
    <path d="M 129.4801025390625 61.729331970214844 C 131.455322265625 38.91962814331055 110.02635192871094 42.849246978759766 136.91241455078125 52.215728759765625" fill="none" stroke="rgb(0, 0, 0)" stroke-linecap="round" stroke-linejoin="round" stroke-opacity="1" stroke-width="2.9999992847442627"/>
    <path d="M 95.1585464477539 109.92110443115234 C 118.62979125976562 104.20817565917969 119.3537368774414 110.86140441894531 117.40157318115234 137.15875244140625" fill="none" stroke="rgb(0, 0, 0)" stroke-linecap="round" stroke-linejoin="round" stroke-opacity="1" stroke-width="2.9999189376831055"/>
    <path d="M 128.88577270507812 38.07653045654297 C 124.57374572753906 57.8442497253418 107.85194396972656 36.78226089477539 127.18565368652344 33.41697311401367" fill="none" stroke="rgb(0, 0, 0)" stroke-linecap="round" stroke-linejoin="round" stroke-opacity="1" stroke-width="2.9998748302459717"/>
    <path d="M 105.15873718261719 136.92105102539062 C 102.9839859008789 133.6859588623047 102.39466857910156 133.87408447265625 114.364990234375 151.1453399658203" fill="none" stroke="rgb(0, 0, 0)" stroke-linecap="round" stroke-linejoin="round" stroke-opacity="1" stroke-width="3.0"/>
    <path d="M 124.10733032226562 160.86216735839844 C 113.0071792602539 230.61756896972656 114.00210571289062 162.7584991455078 119.98177337646484 213.64881896972656" fill="none" stroke="rgb(0, 0, 0)" stroke-linecap="round" stroke-linejoin="round" stroke-opacity="1" stroke-width="3.0"/>
    <path d="M 107.64234924316406 194.90650939941406 C 117.30777740478516 158.117919921875 96.3425521850586 149.8103485107422 107.64334106445312 106.24642944335938" fill="none" stroke="rgb(0, 0, 0)" stroke-linecap="round" stroke-linejoin="round" stroke-opacity="1" stroke-width="3.0"/>
    <path d="M 104.50238037109375 94.6113510131836 C 118.57573699951172 87.52518463134766 102.20161437988281 85.18479919433594 117.89164733886719 91.85218048095703" fill="none" stroke="rgb(0, 0, 0)" stroke-linecap="round" stroke-linejoin="round" stroke-opacity="1" stroke-width="3.0"/>
    <path d="M 154.8248748779297 27.129150390625 C 162.46253967285156 38.70559310913086 118.38151550292969 79.26420593261719 125.4412612915039 32.67354965209961" fill="none" stroke="rgb(0, 0, 0)" stroke-linecap="round" stroke-linejoin="round" stroke-opacity="1" stroke-width="2.9998998641967773"/>
    <path d="M 114.96537017822266 215.14295959472656 C 107.06641387939453 172.63381958007812 129.22142028808594 239.96206665039062 109.4249496459961 211.84561157226562" fill="none" stroke="rgb(0, 0, 0)" stroke-linecap="round" stroke-linejoin="round" stroke-opacity="1" stroke-width="3.0"/>
    <path d="M 111.86041259765625 87.13420104980469 C 109.17188262939453 45.98454666137695 119.85868072509766 42.300357818603516 114.22590637207031 85.4653091430664" fill="none" stroke="rgb(0, 0, 0)" stroke-linecap="round" stroke-linejoin="round" stroke-opacity="1" stroke-width="2.9999990463256836"/>
    <path d="M 119.7011947631836 145.54896545410156 C 130.78712463378906 96.23005676269531 110.98921203613281 110.853271484375 149.6658477783203 112.98583984375" fill="none" stroke="rgb(0, 0, 0)" stroke-linecap="round" stroke-linejoin="round" stroke-opacity="1" stroke-width="3.0"/>
    <path d="M 105.2860107421875 83.9581298828125 C 132.5530548095703 79.61172485351562 116.53668212890625 81.18160247802734 92.09817504882812 79.57413482666016" fill="none" stroke="rgb(0, 0, 0)" stroke-linecap="round" stroke-linejoin="round" stroke-opacity="1" stroke-width="3.0"/>
    <path d="M 127.99077606201172 44.221866607666016 C 121.53569793701172 20.239748001098633 109.79621124267578 24.783065795898438 109.1330795288086 36.57927703857422" fill="none" stroke="rgb(0, 0, 0)" stroke-linecap="round" stroke-linejoin="round" stroke-opacity="1" stroke-width="3.0"/>
    <path d="M 118.03385162353516 149.08827209472656 C 112.40969848632812 125.18000793457031 119.51193237304688 130.42066955566406 119.06780242919922 149.49761962890625" fill="none" stroke="rgb(0, 0, 0)" stroke-linecap="round" stroke-linejoin="round" stroke-opacity="1" stroke-width="2.999948024749756"/>
    <path d="M 160.3659210205078 108.3631362915039 C 147.88697814941406 114.83787536621094 152.71823120117188 106.53358459472656 126.40840148925781 93.25643157958984" fill="none" stroke="rgb(0, 0, 0)" stroke-linecap="round" stroke-linejoin="round" stroke-opacity="1" stroke-width="3.0"/>
    <path d="M 104.67122650146484 126.96399688720703 C 117.86492919921875 98.12942504882812 101.86980438232422 105.76728057861328 105.17483520507812 135.30935668945312" fill="none" stroke="rgb(0, 0, 0)" stroke-linecap="round" stroke-linejoin="round" stroke-opacity="1" stroke-width="3.0"/>
    <path d="M 145.63893127441406 111.06472778320312 C 105.1591567993164 83.25454711914062 140.95030212402344 93.24750518798828 156.50341796875 109.28057098388672" fill="none" stroke="rgb(0, 0, 0)" stroke-linecap="round" stroke-linejoin="round" stroke-opacity="1" stroke-width="2.9300146102905273"/>
    <path d="M 111.96382141113281 160.3982391357422 C 106.17156219482422 140.08273315429688 104.85035705566406 136.4208984375 111.17931365966797 155.9207763671875" fill="none" stroke="rgb(0, 0, 0)" stroke-linecap="round" stroke-linejoin="round" stroke-opacity="1" stroke-width="3.0"/>
    <path d="M 114.92472076416016 126.41378784179688 C 107.88517761230469 151.7991943359375 134.54965209960938 159.49893188476562 114.58521270751953 187.76507568359375" fill="none" stroke="rgb(0, 0, 0)" stroke-linecap="round" stroke-linejoin="round" stroke-opacity="1" stroke-width="3.0"/>
    <path d="M 140.23411560058594 8.205855369567871 C 146.78863525390625 10.49971866607666 146.8055877685547 20.75821876525879 136.8292236328125 8.596054077148438" fill="none" stroke="rgb(0, 0, 0)" stroke-linecap="round" stroke-linejoin="round" stroke-opacity="1" stroke-width="2.999999523162842"/>
    <path d="M 128.3729705810547 35.527400970458984 C 98.08211517333984 55.33769607543945 141.47027587890625 55.01182556152344 126.29180145263672 48.45505142211914" fill="none" stroke="rgb(0, 0, 0)" stroke-linecap="round" stroke-linejoin="round" stroke-opacity="1" stroke-width="2.999960422515869"/>
    <path d="M 115.35696411132812 54.07073974609375 C 105.63096618652344 73.3967056274414 100.12976837158203 74.03417205810547 111.13711547851562 71.69599151611328" fill="none" stroke="rgb(0, 0, 0)" stroke-linecap="round" stroke-linejoin="round" stroke-opacity="1" stroke-width="2.9999992847442627"/>
    <path d="M 127.9773941040039 49.81612014770508 C 79.04712677001953 52.86850357055664 84.39364624023438 82.43043518066406 104.85248565673828 50.28422546386719" fill="none" stroke="rgb(0, 0, 0)" stroke-linecap="round" stroke-linejoin="round" stroke-opacity="1" stroke-width="3.0"/>
    <path d="M 100.06057739257812 108.51625061035156 C 92.73040771484375 109.6256332397461 102.81634521484375 131.95562744140625 103.11714172363281 127.66091918945312" fill="none" stroke="rgb(0, 0, 0)" stroke-linecap="round" stroke-linejoin="round" stroke-opacity="1" stroke-width="2.902508020401001"/>
    <path d="M 116.30255126953125 81.98633575439453 C 105.08179473876953 87.08441162109375 120.43547058105469 92.60057830810547 119.27163696289062 69.48958587646484" fill="none" stroke="rgb(0, 0, 0)" stroke-linecap="round" stroke-linejoin="round" stroke-opacity="1" stroke-width="3.0"/>
    <path d="M 107.09271240234375 141.32862854003906 C 101.83230590820312 125.98817443847656 106.43692779541016 127.40743255615234 113.98954010009766 158.279052734375" fill="none" stroke="rgb(0, 0, 0)" stroke-linecap="round" stroke-linejoin="round" stroke-opacity="1" stroke-width="2.9998936653137207"/>
    <path d="M 109.74774169921875 65.79825592041016 C 103.6615219116211 92.17741394042969 117.51061248779297 70.9014892578125 109.53131103515625 96.99922943115234" fill="none" stroke="rgb(0, 0, 0)" stroke-linecap="round" stroke-linejoin="round" stroke-opacity="1" stroke-width="3.0"/>
    <path d="M 119.55368041992188 136.76951599121094 C 123.7923812866211 98.38624572753906 114.08250427246094 101.83023834228516 139.23439025878906 107.53767395019531" fill="none" stroke="rgb(0, 0, 0)" stroke-linecap="round" stroke-linejoin="round" stroke-opacity="1" stroke-width="3.0"/>
    <path d="M 116.46851348876953 77.10249328613281 C 96.60140991210938 76.54475402832031 104.6942367553711 88.03457641601562 73.66327667236328 109.10547637939453" fill="none" stroke="rgb(0, 0, 0)" stroke-linecap="round" stroke-linejoin="round" stroke-opacity="1" stroke-width="2.999983787536621"/>
    <path d="M 131.48370361328125 60.39571762084961 C 147.77349853515625 45.93954849243164 155.16929626464844 39.00728225708008 135.4800262451172 52.51512908935547" fill="none" stroke="rgb(0, 0, 0)" stroke-linecap="round" stroke-linejoin="round" stroke-opacity="1" stroke-width="2.9831132888793945"/>
    <path d="M 103.39451599121094 126.49034118652344 C 107.46957397460938 139.94644165039062 107.02603149414062 136.02915954589844 115.81493377685547 152.15032958984375" fill="none" stroke="rgb(0, 0, 0)" stroke-linecap="round" stroke-linejoin="round" stroke-opacity="1" stroke-width="3.0"/>
    <path d="M 115.30461120605469 155.3707275390625 C 116.09464263916016 144.64129638671875 123.89108276367188 167.65721130371094 116.08966064453125 177.4556121826172" fill="none" stroke="rgb(0, 0, 0)" stroke-linecap="round" stroke-linejoin="round" stroke-opacity="1" stroke-width="2.9999966621398926"/>
    <path d="M 114.97396087646484 45.92417526245117 C 125.7609634399414 38.53608703613281 127.44571685791016 15.127315521240234 115.0931167602539 33.23316955566406" fill="none" stroke="rgb(0, 0, 0)" stroke-linecap="round" stroke-linejoin="round" stroke-opacity="1" stroke-width="3.0"/>
    <path d="M 130.0768585205078 39.34959030151367 C 130.65725708007812 21.713884353637695 113.56723022460938 20.11064338684082 125.74371337890625 45.94520568847656" fill="none" stroke="rgb(0, 0, 0)" stroke-linecap="round" stroke-linejoin="round" stroke-opacity="1" stroke-width="3.0"/>
    <path d="M 114.11943817138672 81.45177459716797 C 123.34529876708984 94.40963745117188 116.29924774169922 82.43413543701172 99.82479095458984 89.20195770263672" fill="none" stroke="rgb(0, 0, 0)" stroke-linecap="round" stroke-linejoin="round" stroke-opacity="1" stroke-width="3.0"/>
    <path d="M 106.99193572998047 108.00060272216797 C 101.6634750366211 110.39653778076172 101.71110534667969 101.8591537475586 104.43387603759766 121.96027374267578" fill="none" stroke="rgb(0, 0, 0)" stroke-linecap="round" stroke-linejoin="round" stroke-opacity="1" stroke-width="2.9999284744262695"/>
    <path d="M 116.82746887207031 78.87548065185547 C 111.69985961914062 60.02846145629883 90.42587280273438 68.34364318847656 117.57244110107422 78.1659927368164" fill="none" stroke="rgb(0, 0, 0)" stroke-linecap="round" stroke-linejoin="round" stroke-opacity="1" stroke-width="3.0"/>
    <path d="M 95.92706298828125 98.4875259399414 C 73.21737670898438 124.3835220336914 80.34076690673828 100.48863220214844 107.45806884765625 110.66313171386719" fill="none" stroke="rgb(0, 0, 0)" stroke-linecap="round" stroke-linejoin="round" stroke-opacity="1" stroke-width="3.0"/>
    <path d="M 125.25311279296875 48.066741943359375 C 147.87916564941406 59.69441223144531 120.67411804199219 51.75035858154297 128.20724487304688 68.24139404296875" fill="none" stroke="rgb(0, 0, 0)" stroke-linecap="round" stroke-linejoin="round" stroke-opacity="1" stroke-width="2.9946482181549072"/>
    <path d="M 116.32886505126953 84.85244750976562 C 118.84273529052734 94.56461334228516 134.26705932617188 85.40289306640625 159.8031768798828 106.96989440917969" fill="none" stroke="rgb(0, 0, 0)" stroke-linecap="round" stroke-linejoin="round" stroke-opacity="1" stroke-width="3.0"/>
    <path d="M 90.13665008544922 103.86800384521484 C 90.8454818725586 107.51432800292969 53.12310791015625 109.67526245117188 56.2470588684082 103.4496841430664" fill="none" stroke="rgb(0, 0, 0)" stroke-linecap="round" stroke-linejoin="round" stroke-opacity="1" stroke-width="3.0"/>
    <path d="M 129.29495239257812 65.90216827392578 C 154.89637756347656 44.5260124206543 162.3207244873047 39.798038482666016 148.0838623046875 19.524858474731445" fill="none" stroke="rgb(0, 0, 0)" stroke-linecap="round" stroke-linejoin="round" stroke-opacity="1" stroke-width="3.0"/>
    <path d="M 139.78976440429688 49.4329719543457 C 119.44402313232422 54.33602523803711 124.72576904296875 56.160736083984375 126.01034545898438 55.039066314697266" fill="none" stroke="rgb(0, 0, 0)" stroke-linecap="round" stroke-linejoin="round" stroke-opacity="1" stroke-width="3.0"/>
    <path d="M 112.47428894042969 67.57421875 C 103.30414581298828 80.88970947265625 90.24789428710938 86.44074249267578 113.0202407836914 79.80319213867188" fill="none" stroke="rgb(0, 0, 0)" stroke-linecap="round" stroke-linejoin="round" stroke-opacity="1" stroke-width="2.9990551471710205"/>
    <path d="M 110.744140625 78.08464050292969 C 102.66161346435547 65.9645767211914 96.18163299560547 97.035888671875 78.87560272216797 72.56537628173828" fill="none" stroke="rgb(0, 0, 0)" stroke-linecap="round" stroke-linejoin="round" stroke-opacity="1" stroke-width="3.0"/>
    <path d="M 118.02616119384766 82.84829711914062 C 122.60189056396484 84.90559387207031 119.5982894897461 99.12919616699219 118.61311340332031 66.75567626953125" fill="none" stroke="rgb(0, 0, 0)" stroke-linecap="round" stroke-linejoin="round" stroke-opacity="1" stroke-width="2.999728202819824"/>
    <path d="M 111.40215301513672 70.2469711303711 C 121.05450439453125 96.93122100830078 121.69755554199219 89.79435729980469 107.32672119140625 88.99137115478516" fill="none" stroke="rgb(0, 0, 0)" stroke-linecap="round" stroke-linejoin="round" stroke-opacity="1" stroke-width="2.9999842643737793"/>
    <path d="M 93.51542663574219 74.87580108642578 C 117.95952606201172 102.36050415039062 98.62955474853516 70.33241271972656 59.85432434082031 103.10199737548828" fill="none" stroke="rgb(0, 0, 0)" stroke-linecap="round" stroke-linejoin="round" stroke-opacity="1" stroke-width="3.0"/>
  </g>
</svg>
