<?xml version="1.0" ?>
<svg height="224" version="1.1" width="224" xmlns="http://www.w3.org/2000/svg">
  <defs/>
  <g>
    <path d="M 119.4153823852539 117.2786636352539 C 132.43960571289062 119.65483856201172 120.8917007446289 121.53292846679688 114.50898742675781 119.1807861328125" fill="none" stroke="rgb(0, 0, 0)" stroke-linecap="round" stroke-linejoin="round" stroke-opacity="1" stroke-width="3.0"/>
    <path d="M 113.46720886230469 54.54228210449219 C 126.47586822509766 55.059879302978516 120.76346588134766 47.98494338989258 115.90524291992188 31.397994995117188" fill="none" stroke="rgb(0, 0, 0)" stroke-linecap="round" stroke-linejoin="round" stroke-opacity="1" stroke-width="2.999866485595703"/>
    <path d="M 106.5419692993164 184.0630645751953 C 111.21882629394531 173.1304931640625 107.58670806884766 153.20547485351562 108.86064910888672 175.74490356445312" fill="none" stroke="rgb(0, 0, 0)" stroke-linecap="round" stroke-linejoin="round" stroke-opacity="1" stroke-width="2.999962329864502"/>
    <path d="M 109.52359771728516 74.90971374511719 C 104.8512191772461 105.1377182006836 116.28289031982422 85.73677825927734 117.37081909179688 95.57445526123047" fill="none" stroke="rgb(0, 0, 0)" stroke-linecap="round" stroke-linejoin="round" stroke-opacity="1" stroke-width="2.714444637298584"/>
    <path d="M 116.05835723876953 113.01832580566406 C 113.5491714477539 132.3590850830078 121.48258972167969 144.33248901367188 120.28717803955078 164.0039520263672" fill="none" stroke="rgb(0, 0, 0)" stroke-linecap="round" stroke-linejoin="round" stroke-opacity="1" stroke-width="3.0"/>
    <path d="M 127.9775161743164 50.66320037841797 C 112.27005767822266 61.60435104370117 94.80017852783203 41.08717346191406 100.34042358398438 69.12911987304688" fill="none" stroke="rgb(0, 0, 0)" stroke-linecap="round" stroke-linejoin="round" stroke-opacity="1" stroke-width="3.0"/>
    <path d="M 139.72091674804688 7.596737861633301 C 150.14170837402344 13.892165184020996 154.10585021972656 28.290781021118164 141.57997131347656 10.47589111328125" fill="none" stroke="rgb(0, 0, 0)" stroke-linecap="round" stroke-linejoin="round" stroke-opacity="1" stroke-width="2.999999523162842"/>
    <path d="M 108.88004302978516 96.41979217529297 C 113.25019073486328 83.3182373046875 117.74507904052734 88.04710388183594 120.28843688964844 58.276588439941406" fill="none" stroke="rgb(0, 0, 0)" stroke-linecap="round" stroke-linejoin="round" stroke-opacity="1" stroke-width="2.9999985694885254"/>
    <path d="M 115.89642333984375 70.33821105957031 C 103.83736419677734 53.68878173828125 111.12118530273438 44.881072998046875 118.41340637207031 68.31648254394531" fill="none" stroke="rgb(0, 0, 0)" stroke-linecap="round" stroke-linejoin="round" stroke-opacity="1" stroke-width="2.9942116737365723"/>
    <path d="M 115.58672332763672 121.86425018310547 C 119.5517349243164 102.07036590576172 115.47689056396484 117.53974914550781 121.0753402709961 140.64109802246094" fill="none" stroke="rgb(0, 0, 0)" stroke-linecap="round" stroke-linejoin="round" stroke-opacity="1" stroke-width="2.999356746673584"/>
    <path d="M 132.40516662597656 49.53761291503906 C 131.61376953125 80.06298065185547 123.67268371582031 60.56382369995117 131.6318359375 54.20508575439453" fill="none" stroke="rgb(0, 0, 0)" stroke-linecap="round" stroke-linejoin="round" stroke-opacity="1" stroke-width="3.0"/>
    <path d="M 125.1328353881836 116.89328002929688 C 107.210693359375 112.00313568115234 118.70645141601562 120.97032928466797 110.96707153320312 104.10595703125" fill="none" stroke="rgb(0, 0, 0)" stroke-linecap="round" stroke-linejoin="round" stroke-opacity="1" stroke-width="3.0"/>
    <path d="M 80.42548370361328 65.1104736328125 C 86.34500122070312 91.71161651611328 99.39118194580078 80.89971923828125 120.69617462158203 86.37512969970703" fill="none" stroke="rgb(0, 0, 0)" stroke-linecap="round" stroke-linejoin="round" stroke-opacity="1" stroke-width="3.0"/>
    <path d="M 120.58354187011719 53.48582077026367 C 136.62698364257812 30.724367141723633 110.46014404296875 18.802316665649414 109.04397583007812 36.51540756225586" fill="none" stroke="rgb(0, 0, 0)" stroke-linecap="round" stroke-linejoin="round" stroke-opacity="1" stroke-width="2.999998092651367"/>
    <path d="M 114.21602630615234 120.65441131591797 C 112.7665023803711 108.04386138916016 129.92922973632812 111.35424041748047 122.18241882324219 136.88717651367188" fill="none" stroke="rgb(0, 0, 0)" stroke-linecap="round" stroke-linejoin="round" stroke-opacity="1" stroke-width="2.9999661445617676"/>
    <path d="M 124.37955474853516 26.222803115844727 C 130.768798828125 52.028255462646484 122.76838684082031 55.9262580871582 122.50518798828125 27.04510498046875" fill="none" stroke="rgb(0, 0, 0)" stroke-linecap="round" stroke-linejoin="round" stroke-opacity="1" stroke-width="2.9998562335968018"/>
    <path d="M 108.97988891601562 106.4940185546875 C 113.30563354492188 132.4582977294922 112.4178466796875 120.13552856445312 111.49515533447266 131.8507537841797" fill="none" stroke="rgb(0, 0, 0)" stroke-linecap="round" stroke-linejoin="round" stroke-opacity="1" stroke-width="3.0"/>
    <path d="M 115.32331848144531 155.68975830078125 C 122.41626739501953 221.5107879638672 102.7972412109375 164.28543090820312 114.87321472167969 215.12197875976562" fill="none" stroke="rgb(0, 0, 0)" stroke-linecap="round" stroke-linejoin="round" stroke-opacity="1" stroke-width="3.0"/>
    <path d="M 112.52167510986328 187.01600646972656 C 132.01893615722656 159.3838348388672 110.23106384277344 153.69143676757812 107.79411315917969 113.69519805908203" fill="none" stroke="rgb(0, 0, 0)" stroke-linecap="round" stroke-linejoin="round" stroke-opacity="1" stroke-width="3.0"/>
    <path d="M 115.11656188964844 88.13652801513672 C 119.74691009521484 82.33639526367188 111.18439483642578 77.87561798095703 92.27938079833984 86.94380187988281" fill="none" stroke="rgb(0, 0, 0)" stroke-linecap="round" stroke-linejoin="round" stroke-opacity="1" stroke-width="3.0"/>
    <path d="M 150.59332275390625 13.70065975189209 C 160.36460876464844 34.69129180908203 163.71910095214844 32.6943473815918 136.4925537109375 57.75003433227539" fill="none" stroke="rgb(0, 0, 0)" stroke-linecap="round" stroke-linejoin="round" stroke-opacity="1" stroke-width="2.999997138977051"/>
    <path d="M 108.9521713256836 202.3268585205078 C 93.55062866210938 185.169189453125 126.15828704833984 233.53318786621094 106.15235900878906 211.06524658203125" fill="none" stroke="rgb(0, 0, 0)" stroke-linecap="round" stroke-linejoin="round" stroke-opacity="1" stroke-width="3.0"/>
    <path d="M 111.07337951660156 86.23141479492188 C 110.49527740478516 55.33085632324219 120.3504638671875 53.65141296386719 108.68719482421875 97.34730529785156" fill="none" stroke="rgb(0, 0, 0)" stroke-linecap="round" stroke-linejoin="round" stroke-opacity="1" stroke-width="2.999999523162842"/>
    <path d="M 118.69618225097656 118.86566162109375 C 116.94283294677734 116.02468872070312 117.90735626220703 110.90702819824219 138.76260375976562 112.37776184082031" fill="none" stroke="rgb(0, 0, 0)" stroke-linecap="round" stroke-linejoin="round" stroke-opacity="1" stroke-width="3.0"/>
    <path d="M 90.05176544189453 97.58663177490234 C 119.97213745117188 59.567562103271484 122.28963470458984 70.30986785888672 105.16426086425781 97.60140991210938" fill="none" stroke="rgb(0, 0, 0)" stroke-linecap="round" stroke-linejoin="round" stroke-opacity="1" stroke-width="3.0"/>
    <path d="M 118.23760223388672 28.851728439331055 C 111.56253814697266 21.46938133239746 141.43002319335938 32.86737823486328 127.63496398925781 41.24378967285156" fill="none" stroke="rgb(0, 0, 0)" stroke-linecap="round" stroke-linejoin="round" stroke-opacity="1" stroke-width="3.0"/>
    <path d="M 120.802734375 146.6684112548828 C 132.0919647216797 113.42720794677734 121.07618713378906 90.24715423583984 122.1201171875 138.14035034179688" fill="none" stroke="rgb(0, 0, 0)" stroke-linecap="round" stroke-linejoin="round" stroke-opacity="1" stroke-width="2.9999964237213135"/>
    <path d="M 156.8292236328125 111.13831329345703 C 135.26437377929688 113.42589569091797 142.2417755126953 117.71449279785156 127.41333770751953 100.24819946289062" fill="none" stroke="rgb(0, 0, 0)" stroke-linecap="round" stroke-linejoin="round" stroke-opacity="1" stroke-width="3.0"/>
    <path d="M 111.2834243774414 116.35967254638672 C 125.2850341796875 121.13479614257812 119.61689758300781 104.76337432861328 121.57467651367188 129.92727661132812" fill="none" stroke="rgb(0, 0, 0)" stroke-linecap="round" stroke-linejoin="round" stroke-opacity="1" stroke-width="3.0"/>
    <path d="M 112.1399917602539 89.90953063964844 C 121.286376953125 89.11100769042969 141.17140197753906 85.86565399169922 159.9272003173828 108.18374633789062" fill="none" stroke="rgb(0, 0, 0)" stroke-linecap="round" stroke-linejoin="round" stroke-opacity="1" stroke-width="2.964407444000244"/>
    <path d="M 112.06580352783203 107.32447814941406 C 110.95635223388672 137.30990600585938 112.83914184570312 140.67593383789062 106.79952239990234 133.88507080078125" fill="none" stroke="rgb(0, 0, 0)" stroke-linecap="round" stroke-linejoin="round" stroke-opacity="1" stroke-width="3.0"/>
    <path d="M 121.29496002197266 119.63624572753906 C 115.73348999023438 148.87115478515625 133.71725463867188 158.70916748046875 113.81214904785156 175.13427734375" fill="none" stroke="rgb(0, 0, 0)" stroke-linecap="round" stroke-linejoin="round" stroke-opacity="1" stroke-width="3.0"/>
    <path d="M 148.3416290283203 18.544023513793945 C 151.39187622070312 20.687509536743164 121.52835845947266 1.071933627128601 146.348876953125 10.863896369934082" fill="none" stroke="rgb(0, 0, 0)" stroke-linecap="round" stroke-linejoin="round" stroke-opacity="1" stroke-width="2.999988079071045"/>
    <path d="M 128.31484985351562 46.25437545776367 C 134.96932983398438 41.38054275512695 119.30062103271484 18.666934967041016 130.70620727539062 34.13593292236328" fill="none" stroke="rgb(0, 0, 0)" stroke-linecap="round" stroke-linejoin="round" stroke-opacity="1" stroke-width="2.9999852180480957"/>
    <path d="M 118.30912780761719 70.47215270996094 C 106.50357055664062 74.20011901855469 109.77981567382812 56.83091354370117 114.4894027709961 70.83661651611328" fill="none" stroke="rgb(0, 0, 0)" stroke-linecap="round" stroke-linejoin="round" stroke-opacity="1" stroke-width="2.9999990463256836"/>
    <path d="M 125.55181121826172 46.54849624633789 C 113.42877197265625 56.483211517333984 113.58568572998047 45.60734558105469 128.94651794433594 38.481937408447266" fill="none" stroke="rgb(0, 0, 0)" stroke-linecap="round" stroke-linejoin="round" stroke-opacity="1" stroke-width="2.999999523162842"/>
    <path d="M 110.6947021484375 111.56832885742188 C 123.11936950683594 106.6689224243164 69.34835052490234 116.17508697509766 60.20140075683594 104.6452865600586" fill="none" stroke="rgb(0, 0, 0)" stroke-linecap="round" stroke-linejoin="round" stroke-opacity="1" stroke-width="2.999990463256836"/>
    <path d="M 153.47726440429688 107.30319213867188 C 124.73686981201172 83.13601684570312 114.15982818603516 94.2662124633789 118.95600891113281 70.56818389892578" fill="none" stroke="rgb(0, 0, 0)" stroke-linecap="round" stroke-linejoin="round" stroke-opacity="1" stroke-width="3.0"/>
    <path d="M 110.78919219970703 132.10208129882812 C 105.82719421386719 126.51165771484375 112.08558654785156 122.85494232177734 110.12560272216797 124.82769775390625" fill="none" stroke="rgb(0, 0, 0)" stroke-linecap="round" stroke-linejoin="round" stroke-opacity="1" stroke-width="2.9998278617858887"/>
    <path d="M 106.82727813720703 53.30070114135742 C 112.98280334472656 94.67072296142578 108.87210083007812 103.70755004882812 111.90754699707031 88.21476745605469" fill="none" stroke="rgb(0, 0, 0)" stroke-linecap="round" stroke-linejoin="round" stroke-opacity="1" stroke-width="3.0"/>
    <path d="M 154.01206970214844 29.961408615112305 C 143.2764129638672 12.031587600708008 146.78115844726562 16.89537239074707 138.29763793945312 10.249003410339355" fill="none" stroke="rgb(0, 0, 0)" stroke-linecap="round" stroke-linejoin="round" stroke-opacity="1" stroke-width="2.9999985694885254"/>
    <path d="M 121.82872772216797 121.01692199707031 C 118.3678970336914 107.38668060302734 150.71218872070312 108.10012817382812 141.84938049316406 111.75894927978516" fill="none" stroke="rgb(0, 0, 0)" stroke-linecap="round" stroke-linejoin="round" stroke-opacity="1" stroke-width="3.0"/>
    <path d="M 110.90882110595703 91.15849304199219 C 108.86560821533203 82.05657958984375 119.61458587646484 86.82456970214844 105.39471435546875 111.24365234375" fill="none" stroke="rgb(0, 0, 0)" stroke-linecap="round" stroke-linejoin="round" stroke-opacity="1" stroke-width="2.9999589920043945"/>
    <path d="M 122.38008880615234 52.62493896484375 C 143.12716674804688 54.44850540161133 141.6648712158203 52.490928649902344 154.15965270996094 33.837467193603516" fill="none" stroke="rgb(0, 0, 0)" stroke-linecap="round" stroke-linejoin="round" stroke-opacity="1" stroke-width="2.925340175628662"/>
    <path d="M 113.44976043701172 165.24148559570312 C 117.83110809326172 128.77984619140625 102.7650375366211 141.35072326660156 95.40015411376953 115.50245666503906" fill="none" stroke="rgb(0, 0, 0)" stroke-linecap="round" stroke-linejoin="round" stroke-opacity="1" stroke-width="3.0"/>
    <path d="M 121.54508972167969 165.6385955810547 C 110.3405990600586 166.4466552734375 112.686767578125 181.3491668701172 121.98049926757812 150.3491668701172" fill="none" stroke="rgb(0, 0, 0)" stroke-linecap="round" stroke-linejoin="round" stroke-opacity="1" stroke-width="2.99998140335083"/>
    <path d="M 122.95378875732422 42.04172897338867 C 121.45496368408203 33.880218505859375 125.97042846679688 19.776033401489258 115.79820251464844 40.10049819946289" fill="none" stroke="rgb(0, 0, 0)" stroke-linecap="round" stroke-linejoin="round" stroke-opacity="1" stroke-width="2.9999992847442627"/>
    <path d="M 116.47624206542969 25.826190948486328 C 136.0095672607422 22.7838077545166 128.02719116210938 30.398115158081055 113.77883911132812 44.42918014526367" fill="none" stroke="rgb(0, 0, 0)" stroke-linecap="round" stroke-linejoin="round" stroke-opacity="1" stroke-width="3.0"/>
    <path d="M 123.4159927368164 80.71105194091797 C 111.66484832763672 103.2763900756836 115.46129608154297 95.62461853027344 123.50566101074219 57.34967041015625" fill="none" stroke="rgb(0, 0, 0)" stroke-linecap="round" stroke-linejoin="round" stroke-opacity="1" stroke-width="3.0"/>
    <path d="M 130.57098388671875 54.39748764038086 C 124.7747573852539 80.28117370605469 117.63743591308594 72.83702087402344 120.12195587158203 88.8925552368164" fill="none" stroke="rgb(0, 0, 0)" stroke-linecap="round" stroke-linejoin="round" stroke-opacity="1" stroke-width="3.0"/>
    <path d="M 82.4372329711914 107.58567810058594 C 76.65198516845703 112.15386962890625 103.09028625488281 113.92089080810547 100.8273696899414 104.7105712890625" fill="none" stroke="rgb(0, 0, 0)" stroke-linecap="round" stroke-linejoin="round" stroke-opacity="1" stroke-width="3.0"/>
    <path d="M 156.05197143554688 28.83285140991211 C 148.80909729003906 53.72311782836914 139.72286987304688 63.93714141845703 127.31600952148438 50.79549789428711" fill="none" stroke="rgb(0, 0, 0)" stroke-linecap="round" stroke-linejoin="round" stroke-opacity="1" stroke-width="2.9999961853027344"/>
    <path d="M 126.250732421875 90.69332885742188 C 122.1359634399414 70.92524719238281 120.40901947021484 74.13333892822266 124.84263610839844 88.33367156982422" fill="none" stroke="rgb(0, 0, 0)" stroke-linecap="round" stroke-linejoin="round" stroke-opacity="1" stroke-width="3.0"/>
    <path d="M 76.46794891357422 95.34015655517578 C 91.22418975830078 83.04890441894531 110.67794799804688 83.2110824584961 119.73379516601562 97.37239837646484" fill="none" stroke="rgb(0, 0, 0)" stroke-linecap="round" stroke-linejoin="round" stroke-opacity="1" stroke-width="2.9990763664245605"/>
    <path d="M 58.58498001098633 100.85517120361328 C 95.48719024658203 70.38399505615234 100.68026733398438 99.09133911132812 76.90294647216797 68.05953979492188" fill="none" stroke="rgb(0, 0, 0)" stroke-linecap="round" stroke-linejoin="round" stroke-opacity="1" stroke-width="3.0"/>
    <path d="M 129.9522705078125 57.48846435546875 C 153.52232360839844 31.528057098388672 161.8773193359375 40.903358459472656 152.63893127441406 17.94725227355957" fill="none" stroke="rgb(0, 0, 0)" stroke-linecap="round" stroke-linejoin="round" stroke-opacity="1" stroke-width="2.999999523162842"/>
    <path d="M 142.41098022460938 51.6965217590332 C 118.00788879394531 63.98463439941406 128.27288818359375 54.765403747558594 129.0227813720703 63.28227233886719" fill="none" stroke="rgb(0, 0, 0)" stroke-linecap="round" stroke-linejoin="round" stroke-opacity="1" stroke-width="2.9999992847442627"/>
    <path d="M 104.7332763671875 64.36212158203125 C 117.8193588256836 83.11093139648438 102.49382781982422 92.45174407958984 107.10734558105469 61.40354537963867" fill="none" stroke="rgb(0, 0, 0)" stroke-linecap="round" stroke-linejoin="round" stroke-opacity="1" stroke-width="2.9993293285369873"/>
    <path d="M 118.0536880493164 72.66180419921875 C 113.74092102050781 57.9161376953125 107.85344696044922 49.466861724853516 97.53433227539062 76.19926452636719" fill="none" stroke="rgb(0, 0, 0)" stroke-linecap="round" stroke-linejoin="round" stroke-opacity="1" stroke-width="3.0"/>
    <path d="M 130.66773986816406 86.23634338378906 C 132.36463928222656 85.8086929321289 117.47329711914062 82.14486694335938 126.40359497070312 56.82781982421875" fill="none" stroke="rgb(0, 0, 0)" stroke-linecap="round" stroke-linejoin="round" stroke-opacity="1" stroke-width="2.9999117851257324"/>
    <path d="M 124.50560760498047 85.04205322265625 C 103.62572479248047 93.54268646240234 125.83610534667969 86.21582794189453 149.65530395507812 109.67721557617188" fill="none" stroke="rgb(0, 0, 0)" stroke-linecap="round" stroke-linejoin="round" stroke-opacity="1" stroke-width="2.999999523162842"/>
    <path d="M 91.89227294921875 56.023860931396484 C 69.66437530517578 66.64533996582031 71.58377075195312 72.0107650756836 100.25576782226562 56.17504119873047" fill="none" stroke="rgb(0, 0, 0)" stroke-linecap="round" stroke-linejoin="round" stroke-opacity="1" stroke-width="3.0"/>
  </g>
</svg>
