<?xml version="1.0" ?>
<svg height="224" version="1.1" width="224" xmlns="http://www.w3.org/2000/svg">
  <defs/>
  <g>
    <path d="M 89.18031311035156 103.69733428955078 C 95.00590515136719 101.5118179321289 91.15803527832031 101.12334442138672 101.45743560791016 93.58384704589844" fill="none" stroke="rgb(0, 0, 0)" stroke-linecap="round" stroke-linejoin="round" stroke-opacity="1" stroke-width="2.999999523162842"/>
    <path d="M 102.34066772460938 112.59876251220703 C 121.74835205078125 110.01453399658203 126.24903106689453 100.91572570800781 123.25496673583984 124.48481750488281" fill="none" stroke="rgb(0, 0, 0)" stroke-linecap="round" stroke-linejoin="round" stroke-opacity="1" stroke-width="2.9997947216033936"/>
    <path d="M 124.14244079589844 91.97737121582031 C 133.05331420898438 108.88096618652344 128.80612182617188 98.35446166992188 149.1844482421875 110.29903411865234" fill="none" stroke="rgb(0, 0, 0)" stroke-linecap="round" stroke-linejoin="round" stroke-opacity="1" stroke-width="2.9315218925476074"/>
    <path d="M 116.39106750488281 66.24797058105469 C 114.34613037109375 91.19017791748047 118.98226928710938 90.76451110839844 133.4929962158203 95.32312774658203" fill="none" stroke="rgb(0, 0, 0)" stroke-linecap="round" stroke-linejoin="round" stroke-opacity="1" stroke-width="2.9991183280944824"/>
    <path d="M 115.39519500732422 112.25151062011719 C 98.75540161132812 117.10198211669922 104.04996490478516 124.64476776123047 120.5831069946289 113.19364166259766" fill="none" stroke="rgb(0, 0, 0)" stroke-linecap="round" stroke-linejoin="round" stroke-opacity="1" stroke-width="3.0"/>
    <path d="M 116.95569610595703 84.47090911865234 C 131.9636688232422 87.93477630615234 126.14532470703125 95.63794708251953 116.41136169433594 91.15003204345703" fill="none" stroke="rgb(0, 0, 0)" stroke-linecap="round" stroke-linejoin="round" stroke-opacity="1" stroke-width="3.0"/>
    <path d="M 109.25166320800781 151.03614807128906 C 104.9655532836914 100.33441925048828 99.43504333496094 135.1087188720703 110.00393676757812 153.8893280029297" fill="none" stroke="rgb(0, 0, 0)" stroke-linecap="round" stroke-linejoin="round" stroke-opacity="1" stroke-width="3.0"/>
    <path d="M 85.90225219726562 91.41209411621094 C 83.71900177001953 90.98214721679688 84.86884307861328 90.08454895019531 93.3758773803711 88.34075927734375" fill="none" stroke="rgb(0, 0, 0)" stroke-linecap="round" stroke-linejoin="round" stroke-opacity="1" stroke-width="2.9999938011169434"/>
    <path d="M 98.19109344482422 109.73820495605469 C 100.81157684326172 125.30198669433594 107.26056671142578 129.36582946777344 119.487548828125 122.23997497558594" fill="none" stroke="rgb(0, 0, 0)" stroke-linecap="round" stroke-linejoin="round" stroke-opacity="1" stroke-width="2.9999985694885254"/>
    <path d="M 152.50209045410156 106.30989074707031 C 135.01979064941406 97.99408721923828 140.4987030029297 93.0633316040039 125.7711181640625 88.53504943847656" fill="none" stroke="rgb(0, 0, 0)" stroke-linecap="round" stroke-linejoin="round" stroke-opacity="1" stroke-width="3.0"/>
    <path d="M 132.29896545410156 104.82312774658203 C 127.85330963134766 88.49916076660156 134.92115783691406 88.76242065429688 149.87411499023438 106.51502990722656" fill="none" stroke="rgb(0, 0, 0)" stroke-linecap="round" stroke-linejoin="round" stroke-opacity="1" stroke-width="2.997559070587158"/>
    <path d="M 121.7715835571289 124.6808853149414 C 112.93463897705078 151.85601806640625 125.76824951171875 152.66534423828125 119.44194030761719 169.26768493652344" fill="none" stroke="rgb(0, 0, 0)" stroke-linecap="round" stroke-linejoin="round" stroke-opacity="1" stroke-width="3.0"/>
    <path d="M 147.1428985595703 11.35519790649414 C 162.7852783203125 35.4637565612793 157.5186004638672 32.447940826416016 150.11224365234375 43.15748596191406" fill="none" stroke="rgb(0, 0, 0)" stroke-linecap="round" stroke-linejoin="round" stroke-opacity="1" stroke-width="2.999999523162842"/>
    <path d="M 122.31918334960938 45.84052658081055 C 102.98717498779297 41.696414947509766 113.4329833984375 39.42107009887695 130.0608367919922 37.66911315917969" fill="none" stroke="rgb(0, 0, 0)" stroke-linecap="round" stroke-linejoin="round" stroke-opacity="1" stroke-width="3.0"/>
    <path d="M 137.24609375 8.552478790283203 C 144.90692138671875 10.210432052612305 149.00735473632812 9.61861801147461 155.34646606445312 31.021472930908203" fill="none" stroke="rgb(0, 0, 0)" stroke-linecap="round" stroke-linejoin="round" stroke-opacity="1" stroke-width="3.0"/>
    <path d="M 118.5907974243164 124.13758850097656 C 114.5428237915039 136.84283447265625 112.0084457397461 115.71649932861328 115.86959075927734 137.33921813964844" fill="none" stroke="rgb(0, 0, 0)" stroke-linecap="round" stroke-linejoin="round" stroke-opacity="1" stroke-width="2.7185442447662354"/>
    <path d="M 113.94973754882812 129.2107391357422 C 116.11357116699219 118.83617401123047 111.92303466796875 124.28458404541016 101.6295166015625 111.68177795410156" fill="none" stroke="rgb(0, 0, 0)" stroke-linecap="round" stroke-linejoin="round" stroke-opacity="1" stroke-width="3.0"/>
    <path d="M 107.29390716552734 121.64942169189453 C 118.7662124633789 161.54127502441406 119.15068054199219 163.4000244140625 118.98966979980469 109.80937194824219" fill="none" stroke="rgb(0, 0, 0)" stroke-linecap="round" stroke-linejoin="round" stroke-opacity="1" stroke-width="3.0"/>
    <path d="M 110.35954284667969 203.85891723632812 C 117.49298095703125 188.1505584716797 110.25714111328125 190.33621215820312 110.85208129882812 162.03538513183594" fill="none" stroke="rgb(0, 0, 0)" stroke-linecap="round" stroke-linejoin="round" stroke-opacity="1" stroke-width="3.0"/>
    <path d="M 107.19482421875 117.91928100585938 C 120.06832885742188 106.82561492919922 120.85855865478516 115.09467315673828 109.5117416381836 124.67272186279297" fill="none" stroke="rgb(0, 0, 0)" stroke-linecap="round" stroke-linejoin="round" stroke-opacity="1" stroke-width="3.0"/>
    <path d="M 115.8237075805664 92.01986694335938 C 112.5505599975586 87.01355743408203 111.92630004882812 86.42696380615234 107.5510482788086 86.50596618652344" fill="none" stroke="rgb(0, 0, 0)" stroke-linecap="round" stroke-linejoin="round" stroke-opacity="1" stroke-width="2.9154930114746094"/>
    <path d="M 102.42752075195312 128.09246826171875 C 87.1658935546875 111.11895751953125 106.23767852783203 107.36233520507812 78.83399200439453 106.9914779663086" fill="none" stroke="rgb(0, 0, 0)" stroke-linecap="round" stroke-linejoin="round" stroke-opacity="1" stroke-width="2.9988949298858643"/>
    <path d="M 145.9672393798828 50.829349517822266 C 143.439697265625 46.30244064331055 157.01878356933594 41.09898376464844 150.17588806152344 30.749542236328125" fill="none" stroke="rgb(0, 0, 0)" stroke-linecap="round" stroke-linejoin="round" stroke-opacity="1" stroke-width="2.9736037254333496"/>
    <path d="M 58.93449401855469 104.62735748291016 C 56.811363220214844 110.3902816772461 89.24478149414062 103.96981811523438 95.04335021972656 109.20792388916016" fill="none" stroke="rgb(0, 0, 0)" stroke-linecap="round" stroke-linejoin="round" stroke-opacity="1" stroke-width="3.0"/>
    <path d="M 145.111328125 48.386783599853516 C 118.0041732788086 56.282466888427734 129.26202392578125 55.44419479370117 145.9337921142578 48.73517990112305" fill="none" stroke="rgb(0, 0, 0)" stroke-linecap="round" stroke-linejoin="round" stroke-opacity="1" stroke-width="3.0"/>
    <path d="M 117.42509460449219 180.85694885253906 C 117.12239837646484 150.45281982421875 118.67605590820312 149.87046813964844 119.36286163330078 152.26242065429688" fill="none" stroke="rgb(0, 0, 0)" stroke-linecap="round" stroke-linejoin="round" stroke-opacity="1" stroke-width="3.0"/>
    <path d="M 161.8040008544922 106.1385498046875 C 152.70896911621094 92.58065795898438 126.29949188232422 91.11068725585938 137.91061401367188 96.4321060180664" fill="none" stroke="rgb(0, 0, 0)" stroke-linecap="round" stroke-linejoin="round" stroke-opacity="1" stroke-width="3.0"/>
    <path d="M 98.36951446533203 87.57467651367188 C 88.94656372070312 90.01781463623047 93.68173217773438 85.87785339355469 64.68742370605469 105.71439361572266" fill="none" stroke="rgb(0, 0, 0)" stroke-linecap="round" stroke-linejoin="round" stroke-opacity="1" stroke-width="2.993964672088623"/>
    <path d="M 117.1677017211914 73.64000701904297 C 132.61480712890625 70.38433074951172 129.6540069580078 42.0214958190918 119.87893676757812 74.43619537353516" fill="none" stroke="rgb(0, 0, 0)" stroke-linecap="round" stroke-linejoin="round" stroke-opacity="1" stroke-width="3.0"/>
    <path d="M 119.1509780883789 122.81242370605469 C 102.65532684326172 124.55616760253906 101.08002471923828 118.18726348876953 105.05814361572266 111.2665786743164" fill="none" stroke="rgb(0, 0, 0)" stroke-linecap="round" stroke-linejoin="round" stroke-opacity="1" stroke-width="3.0"/>
    <path d="M 104.90950012207031 83.52938842773438 C 116.07164001464844 85.86858367919922 127.04781341552734 86.46903991699219 106.3841781616211 84.66216278076172" fill="none" stroke="rgb(0, 0, 0)" stroke-linecap="round" stroke-linejoin="round" stroke-opacity="1" stroke-width="2.9999780654907227"/>
    <path d="M 131.30885314941406 97.37001037597656 C 138.18309020996094 106.65044403076172 132.21971130371094 99.17666625976562 122.0146484375 93.28089141845703" fill="none" stroke="rgb(0, 0, 0)" stroke-linecap="round" stroke-linejoin="round" stroke-opacity="1" stroke-width="3.0"/>
    <path d="M 140.02415466308594 9.161211013793945 C 142.23867797851562 8.639183044433594 152.4523468017578 28.568906784057617 138.4900360107422 9.49237060546875" fill="none" stroke="rgb(0, 0, 0)" stroke-linecap="round" stroke-linejoin="round" stroke-opacity="1" stroke-width="2.9997148513793945"/>
    <path d="M 122.21527862548828 110.75959014892578 C 113.70447540283203 107.66343688964844 110.22742462158203 110.39381408691406 119.78409576416016 151.09315490722656" fill="none" stroke="rgb(0, 0, 0)" stroke-linecap="round" stroke-linejoin="round" stroke-opacity="1" stroke-width="2.9998159408569336"/>
    <path d="M 97.13079071044922 99.3140869140625 C 86.8776626586914 114.33551025390625 98.33722686767578 103.71326446533203 109.39276123046875 114.25001525878906" fill="none" stroke="rgb(0, 0, 0)" stroke-linecap="round" stroke-linejoin="round" stroke-opacity="1" stroke-width="3.0"/>
    <path d="M 128.96780395507812 105.93782043457031 C 115.38650512695312 85.60179138183594 115.6988754272461 82.29129791259766 133.57603454589844 103.41133117675781" fill="none" stroke="rgb(0, 0, 0)" stroke-linecap="round" stroke-linejoin="round" stroke-opacity="1" stroke-width="2.5674500465393066"/>
    <path d="M 111.55921936035156 164.37841796875 C 110.24197387695312 148.75865173339844 103.00039672851562 148.04469299316406 109.09502410888672 174.43605041503906" fill="none" stroke="rgb(0, 0, 0)" stroke-linecap="round" stroke-linejoin="round" stroke-opacity="1" stroke-width="2.9999914169311523"/>
    <path d="M 116.16050720214844 122.21929168701172 C 95.91555786132812 124.05621337890625 104.95352935791016 105.08673095703125 87.52278900146484 103.74974822998047" fill="none" stroke="rgb(0, 0, 0)" stroke-linecap="round" stroke-linejoin="round" stroke-opacity="1" stroke-width="2.999785900115967"/>
    <path d="M 80.11286926269531 67.407470703125 C 105.84428405761719 86.62696075439453 78.32671356201172 78.67545318603516 85.82379913330078 71.43352508544922" fill="none" stroke="rgb(0, 0, 0)" stroke-linecap="round" stroke-linejoin="round" stroke-opacity="1" stroke-width="3.0"/>
    <path d="M 106.50299835205078 87.12216186523438 C 124.09395599365234 92.83660125732422 117.36872863769531 85.47392272949219 120.87287902832031 85.0826644897461" fill="none" stroke="rgb(0, 0, 0)" stroke-linecap="round" stroke-linejoin="round" stroke-opacity="1" stroke-width="2.8813815116882324"/>
    <path d="M 103.4827880859375 112.39685821533203 C 113.67919158935547 122.55179595947266 121.71340942382812 119.98761749267578 119.49781036376953 112.8251953125" fill="none" stroke="rgb(0, 0, 0)" stroke-linecap="round" stroke-linejoin="round" stroke-opacity="1" stroke-width="2.9999449253082275"/>
    <path d="M 112.0040283203125 37.11518478393555 C 107.25711822509766 19.408262252807617 149.67506408691406 25.982162475585938 118.66165161132812 41.69696807861328" fill="none" stroke="rgb(0, 0, 0)" stroke-linecap="round" stroke-linejoin="round" stroke-opacity="1" stroke-width="3.0"/>
    <path d="M 102.72703552246094 115.8251953125 C 118.21349334716797 102.04659271240234 120.77544403076172 102.72832489013672 116.73612213134766 121.28638458251953" fill="none" stroke="rgb(0, 0, 0)" stroke-linecap="round" stroke-linejoin="round" stroke-opacity="1" stroke-width="2.970123291015625"/>
    <path d="M 79.9386215209961 64.91038513183594 C 91.13368225097656 55.252952575683594 99.69595336914062 70.73653411865234 96.77587890625 55.421199798583984" fill="none" stroke="rgb(0, 0, 0)" stroke-linecap="round" stroke-linejoin="round" stroke-opacity="1" stroke-width="2.99947452545166"/>
    <path d="M 146.7606964111328 46.738887786865234 C 133.43336486816406 53.4931755065918 155.5834503173828 38.40570831298828 155.661865234375 30.803916931152344" fill="none" stroke="rgb(0, 0, 0)" stroke-linecap="round" stroke-linejoin="round" stroke-opacity="1" stroke-width="2.999967575073242"/>
    <path d="M 121.84053039550781 87.46430206298828 C 108.68879699707031 79.5632553100586 127.82854461669922 65.97368621826172 119.74517822265625 81.06832122802734" fill="none" stroke="rgb(0, 0, 0)" stroke-linecap="round" stroke-linejoin="round" stroke-opacity="1" stroke-width="3.0"/>
    <path d="M 115.58186340332031 74.68447875976562 C 114.1748046875 68.6229476928711 111.37512969970703 82.44086456298828 119.15278625488281 86.43856048583984" fill="none" stroke="rgb(0, 0, 0)" stroke-linecap="round" stroke-linejoin="round" stroke-opacity="1" stroke-width="2.999997615814209"/>
    <path d="M 130.58827209472656 94.91583251953125 C 153.38919067382812 106.39111328125 139.84622192382812 113.41947937011719 155.27037048339844 108.98246765136719" fill="none" stroke="rgb(0, 0, 0)" stroke-linecap="round" stroke-linejoin="round" stroke-opacity="1" stroke-width="3.0"/>
    <path d="M 141.02914428710938 104.51615905761719 C 120.49417877197266 81.87947082519531 113.6802749633789 87.14659881591797 118.76029968261719 77.30413818359375" fill="none" stroke="rgb(0, 0, 0)" stroke-linecap="round" stroke-linejoin="round" stroke-opacity="1" stroke-width="2.971114158630371"/>
    <path d="M 117.04346466064453 187.3973846435547 C 118.15406799316406 216.3854522705078 101.09456634521484 226.4401092529297 117.87525939941406 191.3668212890625" fill="none" stroke="rgb(0, 0, 0)" stroke-linecap="round" stroke-linejoin="round" stroke-opacity="1" stroke-width="3.0"/>
    <path d="M 116.73706817626953 30.612545013427734 C 146.75184631347656 26.973011016845703 110.01602172851562 66.25556182861328 129.488037109375 51.37055587768555" fill="none" stroke="rgb(0, 0, 0)" stroke-linecap="round" stroke-linejoin="round" stroke-opacity="1" stroke-width="2.9982638359069824"/>
    <path d="M 149.34405517578125 42.713924407958984 C 140.10882568359375 61.98287582397461 143.1287841796875 51.11613464355469 134.3292999267578 62.5728759765625" fill="none" stroke="rgb(0, 0, 0)" stroke-linecap="round" stroke-linejoin="round" stroke-opacity="1" stroke-width="3.0"/>
    <path d="M 100.90973663330078 54.50984191894531 C 63.64340591430664 83.96702575683594 96.10514068603516 43.71596908569336 116.54876708984375 52.1356315612793" fill="none" stroke="rgb(0, 0, 0)" stroke-linecap="round" stroke-linejoin="round" stroke-opacity="1" stroke-width="2.5934386253356934"/>
    <path d="M 139.54273986816406 104.45867156982422 C 107.84449005126953 110.71390533447266 120.35615539550781 107.08008575439453 108.8223876953125 114.2362060546875" fill="none" stroke="rgb(0, 0, 0)" stroke-linecap="round" stroke-linejoin="round" stroke-opacity="1" stroke-width="3.0"/>
    <path d="M 120.34144592285156 75.25806427001953 C 140.4135284423828 53.991241455078125 116.20492553710938 63.03679656982422 139.0663299560547 56.090240478515625" fill="none" stroke="rgb(0, 0, 0)" stroke-linecap="round" stroke-linejoin="round" stroke-opacity="1" stroke-width="3.0"/>
    <path d="M 60.39169692993164 100.72643280029297 C 85.15872192382812 84.9882583618164 87.36750793457031 89.10244750976562 95.96472930908203 84.77070617675781" fill="none" stroke="rgb(0, 0, 0)" stroke-linecap="round" stroke-linejoin="round" stroke-opacity="1" stroke-width="2.9999775886535645"/>
    <path d="M 96.1858901977539 78.87504577636719 C 95.5034408569336 75.6036605834961 98.30145263671875 83.85920715332031 96.86577606201172 83.71656036376953" fill="none" stroke="rgb(0, 0, 0)" stroke-linecap="round" stroke-linejoin="round" stroke-opacity="1" stroke-width="3.0"/>
    <path d="M 143.85305786132812 51.23909378051758 C 133.4949951171875 59.62858963012695 85.4417953491211 50.30258560180664 136.0758056640625 60.0000114440918" fill="none" stroke="rgb(0, 0, 0)" stroke-linecap="round" stroke-linejoin="round" stroke-opacity="1" stroke-width="3.0"/>
    <path d="M 119.12554168701172 33.602115631103516 C 150.1785125732422 26.488378524780273 117.4516372680664 34.924713134765625 113.8371810913086 42.49606704711914" fill="none" stroke="rgb(0, 0, 0)" stroke-linecap="round" stroke-linejoin="round" stroke-opacity="1" stroke-width="2.999998092651367"/>
    <path d="M 143.06027221679688 107.80370330810547 C 138.96080017089844 106.86540985107422 120.97348022460938 103.09468841552734 123.0427474975586 99.65554809570312" fill="none" stroke="rgb(0, 0, 0)" stroke-linecap="round" stroke-linejoin="round" stroke-opacity="1" stroke-width="3.0"/>
    <path d="M 116.56045532226562 66.7243423461914 C 111.34471130371094 41.91744613647461 134.7642059326172 34.54238510131836 114.4118423461914 50.779354095458984" fill="none" stroke="rgb(0, 0, 0)" stroke-linecap="round" stroke-linejoin="round" stroke-opacity="1" stroke-width="3.0"/>
  </g>
</svg>
