<?xml version="1.0" ?>
<svg height="224" version="1.1" width="224" xmlns="http://www.w3.org/2000/svg">
  <defs/>
  <g>
    <path d="M 88.90784454345703 105.25968933105469 C 99.65164947509766 106.00682067871094 94.5702133178711 106.70995330810547 106.07019805908203 99.15091705322266" fill="none" stroke="rgb(0, 0, 0)" stroke-linecap="round" stroke-linejoin="round" stroke-opacity="1" stroke-width="2.9967260360717773"/>
    <path d="M 119.02918243408203 90.96710205078125 C 131.2522430419922 111.7728271484375 122.65889739990234 101.91582489013672 151.2091827392578 113.79385375976562" fill="none" stroke="rgb(0, 0, 0)" stroke-linecap="round" stroke-linejoin="round" stroke-opacity="1" stroke-width="2.999999523162842"/>
    <path d="M 125.73236846923828 62.90468215942383 C 111.63756561279297 88.85082244873047 119.754638671875 85.87957763671875 127.01728820800781 100.71517181396484" fill="none" stroke="rgb(0, 0, 0)" stroke-linecap="round" stroke-linejoin="round" stroke-opacity="1" stroke-width="3.0"/>
    <path d="M 115.71537780761719 111.29149627685547 C 98.11029815673828 116.53294372558594 103.5432357788086 125.80059051513672 118.377685546875 118.86559295654297" fill="none" stroke="rgb(0, 0, 0)" stroke-linecap="round" stroke-linejoin="round" stroke-opacity="1" stroke-width="3.0"/>
    <path d="M 118.12818908691406 99.81404113769531 C 134.9591522216797 92.1257553100586 130.0460662841797 95.41495513916016 120.94029235839844 87.25328826904297" fill="none" stroke="rgb(0, 0, 0)" stroke-linecap="round" stroke-linejoin="round" stroke-opacity="1" stroke-width="3.0"/>
    <path d="M 105.19377136230469 158.99472045898438 C 105.64613342285156 100.03925323486328 103.5582275390625 133.63040161132812 110.29692840576172 158.65960693359375" fill="none" stroke="rgb(0, 0, 0)" stroke-linecap="round" stroke-linejoin="round" stroke-opacity="1" stroke-width="3.0"/>
    <path d="M 108.31982421875 154.12936401367188 C 106.96028137207031 174.22567749023438 104.5032730102539 165.64662170410156 109.31778717041016 145.55442810058594" fill="none" stroke="rgb(0, 0, 0)" stroke-linecap="round" stroke-linejoin="round" stroke-opacity="1" stroke-width="2.9999890327453613"/>
    <path d="M 92.38419342041016 85.67452239990234 C 84.06377410888672 96.20830535888672 82.72985076904297 88.24072265625 91.66973876953125 88.0270004272461" fill="none" stroke="rgb(0, 0, 0)" stroke-linecap="round" stroke-linejoin="round" stroke-opacity="1" stroke-width="2.999660015106201"/>
    <path d="M 97.98591613769531 109.61195373535156 C 103.72003936767578 123.557373046875 108.37779235839844 131.36227416992188 117.61035919189453 124.41709899902344" fill="none" stroke="rgb(0, 0, 0)" stroke-linecap="round" stroke-linejoin="round" stroke-opacity="1" stroke-width="2.9999618530273438"/>
    <path d="M 150.5760040283203 109.80252075195312 C 134.64773559570312 100.52239227294922 139.56045532226562 92.31292724609375 123.77314758300781 88.21208953857422" fill="none" stroke="rgb(0, 0, 0)" stroke-linecap="round" stroke-linejoin="round" stroke-opacity="1" stroke-width="2.9535744190216064"/>
    <path d="M 139.8601837158203 101.2005615234375 C 128.0505828857422 88.25325012207031 132.80345153808594 90.54105377197266 140.6370849609375 117.4830551147461" fill="none" stroke="rgb(0, 0, 0)" stroke-linecap="round" stroke-linejoin="round" stroke-opacity="1" stroke-width="2.930227279663086"/>
    <path d="M 122.87283325195312 114.5384292602539 C 113.68724822998047 153.62208557128906 125.15543365478516 148.4322967529297 118.54939270019531 176.97850036621094" fill="none" stroke="rgb(0, 0, 0)" stroke-linecap="round" stroke-linejoin="round" stroke-opacity="1" stroke-width="3.0"/>
    <path d="M 138.51670837402344 2.4716711044311523 C 165.33059692382812 30.356260299682617 159.68948364257812 33.797119140625 148.02952575683594 45.87908935546875" fill="none" stroke="rgb(0, 0, 0)" stroke-linecap="round" stroke-linejoin="round" stroke-opacity="1" stroke-width="3.0"/>
    <path d="M 116.47785949707031 45.96357727050781 C 99.52960205078125 45.16804885864258 114.56226348876953 40.960811614990234 130.92434692382812 32.28539276123047" fill="none" stroke="rgb(0, 0, 0)" stroke-linecap="round" stroke-linejoin="round" stroke-opacity="1" stroke-width="2.9999990463256836"/>
    <path d="M 139.266357421875 9.69827651977539 C 143.32186889648438 11.880311965942383 145.86932373046875 11.501998901367188 156.35556030273438 29.109210968017578" fill="none" stroke="rgb(0, 0, 0)" stroke-linecap="round" stroke-linejoin="round" stroke-opacity="1" stroke-width="2.999997615814209"/>
    <path d="M 117.291015625 123.35198974609375 C 117.9870376586914 139.547119140625 114.3653793334961 114.14656829833984 116.63824462890625 136.33609008789062" fill="none" stroke="rgb(0, 0, 0)" stroke-linecap="round" stroke-linejoin="round" stroke-opacity="1" stroke-width="3.0"/>
    <path d="M 117.1999740600586 127.34550476074219 C 117.75650787353516 116.06458282470703 114.50407409667969 122.29066467285156 101.78153228759766 113.02970123291016" fill="none" stroke="rgb(0, 0, 0)" stroke-linecap="round" stroke-linejoin="round" stroke-opacity="1" stroke-width="2.9801480770111084"/>
    <path d="M 102.96482849121094 122.84595489501953 C 115.75167083740234 161.38284301757812 111.67928314208984 165.73458862304688 109.76960754394531 116.87980651855469" fill="none" stroke="rgb(0, 0, 0)" stroke-linecap="round" stroke-linejoin="round" stroke-opacity="1" stroke-width="3.0"/>
    <path d="M 109.03164672851562 206.9683380126953 C 111.48661804199219 186.08609008789062 104.94371032714844 190.91452026367188 109.27995300292969 154.12167358398438" fill="none" stroke="rgb(0, 0, 0)" stroke-linecap="round" stroke-linejoin="round" stroke-opacity="1" stroke-width="3.0"/>
    <path d="M 106.3755111694336 116.77816009521484 C 121.80001068115234 105.0059585571289 123.11872100830078 118.51578521728516 115.41222381591797 126.05937957763672" fill="none" stroke="rgb(0, 0, 0)" stroke-linecap="round" stroke-linejoin="round" stroke-opacity="1" stroke-width="2.9999964237213135"/>
    <path d="M 117.10318756103516 91.36042785644531 C 113.07056427001953 88.99894714355469 112.3984603881836 88.21363067626953 108.68280792236328 84.59391784667969" fill="none" stroke="rgb(0, 0, 0)" stroke-linecap="round" stroke-linejoin="round" stroke-opacity="1" stroke-width="3.0"/>
    <path d="M 104.47908782958984 129.5143585205078 C 90.32195281982422 111.07249450683594 107.46015167236328 107.4607925415039 73.32064056396484 106.69795227050781" fill="none" stroke="rgb(0, 0, 0)" stroke-linecap="round" stroke-linejoin="round" stroke-opacity="1" stroke-width="2.9991025924682617"/>
    <path d="M 142.02732849121094 51.56788635253906 C 140.3752899169922 45.4955940246582 156.31736755371094 38.54540252685547 152.13818359375 25.926576614379883" fill="none" stroke="rgb(0, 0, 0)" stroke-linecap="round" stroke-linejoin="round" stroke-opacity="1" stroke-width="3.0"/>
    <path d="M 64.7916030883789 97.99401092529297 C 58.2828483581543 107.24137115478516 93.95647430419922 104.3690414428711 93.93231964111328 108.93946075439453" fill="none" stroke="rgb(0, 0, 0)" stroke-linecap="round" stroke-linejoin="round" stroke-opacity="1" stroke-width="2.999997854232788"/>
    <path d="M 144.44766235351562 48.90329360961914 C 124.21861267089844 63.25554275512695 129.27215576171875 55.2537727355957 144.04820251464844 45.4911994934082" fill="none" stroke="rgb(0, 0, 0)" stroke-linecap="round" stroke-linejoin="round" stroke-opacity="1" stroke-width="3.0"/>
    <path d="M 160.12213134765625 107.06448364257812 C 155.38221740722656 92.50945281982422 127.3250503540039 92.49314880371094 123.78730010986328 98.39569854736328" fill="none" stroke="rgb(0, 0, 0)" stroke-linecap="round" stroke-linejoin="round" stroke-opacity="1" stroke-width="3.0"/>
    <path d="M 96.85875701904297 86.04358673095703 C 88.57347106933594 87.77505493164062 92.85693359375 86.14291381835938 59.502952575683594 101.99990844726562" fill="none" stroke="rgb(0, 0, 0)" stroke-linecap="round" stroke-linejoin="round" stroke-opacity="1" stroke-width="3.0"/>
    <path d="M 117.54804992675781 126.84771728515625 C 100.2260513305664 128.23951721191406 100.16658020019531 118.89466857910156 106.8297348022461 112.12448120117188" fill="none" stroke="rgb(0, 0, 0)" stroke-linecap="round" stroke-linejoin="round" stroke-opacity="1" stroke-width="2.999986410140991"/>
    <path d="M 124.4720458984375 102.83302307128906 C 145.66917419433594 110.555419921875 140.31129455566406 98.71031188964844 122.87388610839844 91.94861602783203" fill="none" stroke="rgb(0, 0, 0)" stroke-linecap="round" stroke-linejoin="round" stroke-opacity="1" stroke-width="2.9871466159820557"/>
    <path d="M 121.61320495605469 112.38136291503906 C 113.0769271850586 106.59050750732422 111.6717529296875 105.34847259521484 120.92533111572266 152.053955078125" fill="none" stroke="rgb(0, 0, 0)" stroke-linecap="round" stroke-linejoin="round" stroke-opacity="1" stroke-width="2.999974250793457"/>
    <path d="M 94.12751007080078 97.48542022705078 C 82.72663116455078 114.33820343017578 93.78047180175781 104.0683364868164 112.23251342773438 112.14855194091797" fill="none" stroke="rgb(0, 0, 0)" stroke-linecap="round" stroke-linejoin="round" stroke-opacity="1" stroke-width="2.9547009468078613"/>
    <path d="M 115.79199981689453 169.26646423339844 C 114.18516540527344 134.69039916992188 104.24944305419922 135.93878173828125 118.69010925292969 158.31277465820312" fill="none" stroke="rgb(0, 0, 0)" stroke-linecap="round" stroke-linejoin="round" stroke-opacity="1" stroke-width="3.0"/>
    <path d="M 120.09774780273438 117.77574157714844 C 96.07716369628906 123.53070068359375 102.54537963867188 108.3917007446289 84.83802032470703 100.16108703613281" fill="none" stroke="rgb(0, 0, 0)" stroke-linecap="round" stroke-linejoin="round" stroke-opacity="1" stroke-width="3.0"/>
    <path d="M 85.0133056640625 61.5516242980957 C 107.97986602783203 86.31982421875 81.6661605834961 75.61494445800781 88.00444030761719 65.99620056152344" fill="none" stroke="rgb(0, 0, 0)" stroke-linecap="round" stroke-linejoin="round" stroke-opacity="1" stroke-width="3.0"/>
    <path d="M 103.16236114501953 111.86738586425781 C 112.88572692871094 122.08647918701172 117.36564636230469 117.05430603027344 122.7458724975586 113.79653930664062" fill="none" stroke="rgb(0, 0, 0)" stroke-linecap="round" stroke-linejoin="round" stroke-opacity="1" stroke-width="3.0"/>
    <path d="M 110.81913757324219 36.00592803955078 C 103.50814056396484 19.98724937438965 148.92420959472656 28.502023696899414 123.22371673583984 41.80333709716797" fill="none" stroke="rgb(0, 0, 0)" stroke-linecap="round" stroke-linejoin="round" stroke-opacity="1" stroke-width="3.0"/>
    <path d="M 115.5465316772461 114.29443359375 C 111.94977569580078 117.95398712158203 92.50847625732422 103.88252258300781 110.34076690673828 121.5654296875" fill="none" stroke="rgb(0, 0, 0)" stroke-linecap="round" stroke-linejoin="round" stroke-opacity="1" stroke-width="2.9999935626983643"/>
    <path d="M 78.98181915283203 63.941307067871094 C 97.07542419433594 52.268009185791016 101.58336639404297 65.5071792602539 100.32284545898438 58.01801300048828" fill="none" stroke="rgb(0, 0, 0)" stroke-linecap="round" stroke-linejoin="round" stroke-opacity="1" stroke-width="3.0"/>
    <path d="M 143.01248168945312 45.69643020629883 C 135.74758911132812 56.538944244384766 157.29556274414062 40.29420471191406 154.6427459716797 30.456344604492188" fill="none" stroke="rgb(0, 0, 0)" stroke-linecap="round" stroke-linejoin="round" stroke-opacity="1" stroke-width="3.0"/>
    <path d="M 120.17902374267578 87.5119857788086 C 107.2008056640625 82.18140411376953 124.27386474609375 65.4638442993164 115.85787200927734 81.63631439208984" fill="none" stroke="rgb(0, 0, 0)" stroke-linecap="round" stroke-linejoin="round" stroke-opacity="1" stroke-width="3.0"/>
    <path d="M 134.65650939941406 95.36436462402344 C 159.94207763671875 103.97454833984375 146.50332641601562 113.7772216796875 148.13865661621094 109.61363983154297" fill="none" stroke="rgb(0, 0, 0)" stroke-linecap="round" stroke-linejoin="round" stroke-opacity="1" stroke-width="2.99985933303833"/>
    <path d="M 140.7890625 103.93279266357422 C 120.16732025146484 78.61892700195312 112.33998107910156 86.59335327148438 120.51312255859375 74.20541381835938" fill="none" stroke="rgb(0, 0, 0)" stroke-linecap="round" stroke-linejoin="round" stroke-opacity="1" stroke-width="3.0"/>
    <path d="M 119.11942291259766 184.42083740234375 C 120.3668441772461 216.5092315673828 105.81678771972656 236.473876953125 118.8692855834961 195.549560546875" fill="none" stroke="rgb(0, 0, 0)" stroke-linecap="round" stroke-linejoin="round" stroke-opacity="1" stroke-width="3.0"/>
    <path d="M 115.70235443115234 40.0732307434082 C 147.2832794189453 28.175228118896484 109.7255859375 66.1695556640625 134.9060516357422 53.23441696166992" fill="none" stroke="rgb(0, 0, 0)" stroke-linecap="round" stroke-linejoin="round" stroke-opacity="1" stroke-width="2.999999523162842"/>
    <path d="M 146.3454132080078 46.47003173828125 C 138.755615234375 60.11078643798828 140.4496307373047 49.94827651977539 128.73118591308594 59.73922348022461" fill="none" stroke="rgb(0, 0, 0)" stroke-linecap="round" stroke-linejoin="round" stroke-opacity="1" stroke-width="3.0"/>
    <path d="M 102.72998046875 54.8857421875 C 66.4380111694336 84.66645050048828 96.35725402832031 43.71537399291992 120.15046691894531 51.217437744140625" fill="none" stroke="rgb(0, 0, 0)" stroke-linecap="round" stroke-linejoin="round" stroke-opacity="1" stroke-width="3.0"/>
    <path d="M 144.7917022705078 102.78350830078125 C 106.98760986328125 109.12315368652344 120.74822235107422 110.13938903808594 110.18950653076172 116.2777099609375" fill="none" stroke="rgb(0, 0, 0)" stroke-linecap="round" stroke-linejoin="round" stroke-opacity="1" stroke-width="3.0"/>
    <path d="M 61.05096435546875 102.54689025878906 C 86.48262023925781 84.39897155761719 85.74542236328125 88.22261047363281 97.76780700683594 83.16332244873047" fill="none" stroke="rgb(0, 0, 0)" stroke-linecap="round" stroke-linejoin="round" stroke-opacity="1" stroke-width="3.0"/>
    <path d="M 94.33164978027344 66.67093658447266 C 102.04388427734375 74.01556396484375 102.21179962158203 86.3673324584961 98.08283996582031 61.879215240478516" fill="none" stroke="rgb(0, 0, 0)" stroke-linecap="round" stroke-linejoin="round" stroke-opacity="1" stroke-width="2.999999523162842"/>
    <path d="M 139.21092224121094 44.28645324707031 C 131.213623046875 56.43063735961914 93.17505645751953 48.95960998535156 133.89321899414062 59.98167419433594" fill="none" stroke="rgb(0, 0, 0)" stroke-linecap="round" stroke-linejoin="round" stroke-opacity="1" stroke-width="3.0"/>
    <path d="M 112.44112396240234 66.95252990722656 C 112.09634399414062 41.75310516357422 132.8004150390625 26.334945678710938 110.69337463378906 38.61884689331055" fill="none" stroke="rgb(0, 0, 0)" stroke-linecap="round" stroke-linejoin="round" stroke-opacity="1" stroke-width="3.0"/>
  </g>
</svg>
