<?xml version="1.0" ?>
<svg height="224" version="1.1" width="224" xmlns="http://www.w3.org/2000/svg">
  <defs/>
  <g>
    <path d="M 120.1673355102539 130.05877685546875 C 108.71454620361328 105.9090576171875 112.09638977050781 104.11235809326172 147.2978057861328 112.63037109375" fill="none" stroke="rgb(0, 0, 0)" stroke-linecap="round" stroke-linejoin="round" stroke-opacity="1" stroke-width="3.0"/>
    <path d="M 125.29467010498047 47.05929946899414 C 105.68736267089844 52.69840621948242 121.1353530883789 31.593074798583984 129.7747344970703 30.90699005126953" fill="none" stroke="rgb(0, 0, 0)" stroke-linecap="round" stroke-linejoin="round" stroke-opacity="1" stroke-width="3.0"/>
    <path d="M 124.37972259521484 106.9669189453125 C 128.5640106201172 127.11418914794922 121.2056655883789 124.98201751708984 115.09087371826172 171.4292755126953" fill="none" stroke="rgb(0, 0, 0)" stroke-linecap="round" stroke-linejoin="round" stroke-opacity="1" stroke-width="3.0"/>
    <path d="M 111.80779266357422 67.36611938476562 C 125.91571807861328 48.652156829833984 98.696044921875 54.5621452331543 77.26541137695312 65.1931381225586" fill="none" stroke="rgb(0, 0, 0)" stroke-linecap="round" stroke-linejoin="round" stroke-opacity="1" stroke-width="3.0"/>
    <path d="M 144.11752319335938 47.37007141113281 C 161.63702392578125 32.52202224731445 163.25302124023438 38.77342224121094 145.61361694335938 11.761190414428711" fill="none" stroke="rgb(0, 0, 0)" stroke-linecap="round" stroke-linejoin="round" stroke-opacity="1" stroke-width="3.0"/>
    <path d="M 112.0452880859375 86.92878723144531 C 118.89396667480469 78.04302215576172 126.66763305664062 85.30029296875 117.41096496582031 87.64958190917969" fill="none" stroke="rgb(0, 0, 0)" stroke-linecap="round" stroke-linejoin="round" stroke-opacity="1" stroke-width="2.9998931884765625"/>
    <path d="M 113.75975799560547 51.92511749267578 C 101.31807708740234 101.84742736816406 96.73252868652344 65.28352355957031 120.59508514404297 56.76409149169922" fill="none" stroke="rgb(0, 0, 0)" stroke-linecap="round" stroke-linejoin="round" stroke-opacity="1" stroke-width="2.999999523162842"/>
    <path d="M 124.48676300048828 159.2467498779297 C 114.5360336303711 133.60275268554688 114.16486358642578 119.56177520751953 115.43736267089844 109.80569458007812" fill="none" stroke="rgb(0, 0, 0)" stroke-linecap="round" stroke-linejoin="round" stroke-opacity="1" stroke-width="2.998029947280884"/>
    <path d="M 130.302001953125 42.984798431396484 C 115.53952026367188 71.67074584960938 121.59407806396484 34.492366790771484 100.48909759521484 61.118709564208984" fill="none" stroke="rgb(0, 0, 0)" stroke-linecap="round" stroke-linejoin="round" stroke-opacity="1" stroke-width="2.9993796348571777"/>
    <path d="M 122.33783721923828 108.28164672851562 C 125.693115234375 131.16812133789062 116.11257934570312 144.33404541015625 114.6903076171875 109.62775421142578" fill="none" stroke="rgb(0, 0, 0)" stroke-linecap="round" stroke-linejoin="round" stroke-opacity="1" stroke-width="2.9999306201934814"/>
    <path d="M 58.48289489746094 102.76409149169922 C 57.85838317871094 106.01937866210938 89.84310913085938 76.62486267089844 114.17236328125 87.24512481689453" fill="none" stroke="rgb(0, 0, 0)" stroke-linecap="round" stroke-linejoin="round" stroke-opacity="1" stroke-width="3.0"/>
    <path d="M 129.54067993164062 57.822792053222656 C 129.97743225097656 41.04451370239258 108.51800537109375 42.91411209106445 137.23672485351562 51.597801208496094" fill="none" stroke="rgb(0, 0, 0)" stroke-linecap="round" stroke-linejoin="round" stroke-opacity="1" stroke-width="3.0"/>
    <path d="M 97.15943908691406 110.37557220458984 C 119.81448364257812 102.86023712158203 121.00617980957031 108.84526824951172 116.2341079711914 137.58786010742188" fill="none" stroke="rgb(0, 0, 0)" stroke-linecap="round" stroke-linejoin="round" stroke-opacity="1" stroke-width="3.0"/>
    <path d="M 129.9532012939453 38.11277770996094 C 125.92316436767578 56.471397399902344 107.06938934326172 34.103450775146484 127.57487487792969 34.18996810913086" fill="none" stroke="rgb(0, 0, 0)" stroke-linecap="round" stroke-linejoin="round" stroke-opacity="1" stroke-width="3.0"/>
    <path d="M 107.84381103515625 137.8538055419922 C 104.05081176757812 130.9793243408203 104.08670043945312 128.39617919921875 114.22771453857422 149.675048828125" fill="none" stroke="rgb(0, 0, 0)" stroke-linecap="round" stroke-linejoin="round" stroke-opacity="1" stroke-width="2.999664306640625"/>
    <path d="M 124.54785919189453 163.78216552734375 C 113.47980499267578 231.319580078125 114.22541809082031 161.45294189453125 121.96319580078125 213.68470764160156" fill="none" stroke="rgb(0, 0, 0)" stroke-linecap="round" stroke-linejoin="round" stroke-opacity="1" stroke-width="3.0"/>
    <path d="M 107.51004791259766 202.32272338867188 C 118.353515625 161.3553466796875 93.76387786865234 151.5845489501953 108.3514404296875 109.33049011230469" fill="none" stroke="rgb(0, 0, 0)" stroke-linecap="round" stroke-linejoin="round" stroke-opacity="1" stroke-width="2.9476096630096436"/>
    <path d="M 100.30256652832031 95.68328094482422 C 116.77568817138672 83.96360778808594 100.39771270751953 84.15397644042969 114.67513275146484 94.33401489257812" fill="none" stroke="rgb(0, 0, 0)" stroke-linecap="round" stroke-linejoin="round" stroke-opacity="1" stroke-width="3.0"/>
    <path d="M 156.4578857421875 31.87071418762207 C 162.77499389648438 35.98590850830078 117.98870086669922 75.76963806152344 126.53866577148438 31.902936935424805" fill="none" stroke="rgb(0, 0, 0)" stroke-linecap="round" stroke-linejoin="round" stroke-opacity="1" stroke-width="2.999746799468994"/>
    <path d="M 116.0064926147461 215.5620574951172 C 107.56050109863281 172.69805908203125 131.89146423339844 236.30172729492188 110.34281158447266 208.36305236816406" fill="none" stroke="rgb(0, 0, 0)" stroke-linecap="round" stroke-linejoin="round" stroke-opacity="1" stroke-width="3.0"/>
    <path d="M 114.30192565917969 87.57758331298828 C 113.2353286743164 47.50282287597656 123.5313491821289 42.97163391113281 117.53787231445312 88.00148010253906" fill="none" stroke="rgb(0, 0, 0)" stroke-linecap="round" stroke-linejoin="round" stroke-opacity="1" stroke-width="2.9999704360961914"/>
    <path d="M 118.61045837402344 142.6226806640625 C 133.90585327148438 94.87165832519531 113.40595245361328 106.81472778320312 152.24537658691406 115.46332550048828" fill="none" stroke="rgb(0, 0, 0)" stroke-linecap="round" stroke-linejoin="round" stroke-opacity="1" stroke-width="2.9996871948242188"/>
    <path d="M 108.29973602294922 86.00271606445312 C 132.1740264892578 79.89620208740234 117.58596801757812 82.14594268798828 91.43359375 80.76717376708984" fill="none" stroke="rgb(0, 0, 0)" stroke-linecap="round" stroke-linejoin="round" stroke-opacity="1" stroke-width="3.0"/>
    <path d="M 128.61917114257812 39.31685256958008 C 124.32306671142578 13.458958625793457 105.8683090209961 17.8232421875 108.57997131347656 36.11195755004883" fill="none" stroke="rgb(0, 0, 0)" stroke-linecap="round" stroke-linejoin="round" stroke-opacity="1" stroke-width="3.0"/>
    <path d="M 116.69915771484375 150.02491760253906 C 110.75032043457031 126.20917510986328 118.05235290527344 129.5889434814453 118.3162841796875 149.47317504882812" fill="none" stroke="rgb(0, 0, 0)" stroke-linecap="round" stroke-linejoin="round" stroke-opacity="1" stroke-width="3.0"/>
    <path d="M 160.29299926757812 105.66792297363281 C 151.5897216796875 107.16658782958984 156.03245544433594 100.34162139892578 128.91592407226562 89.57913208007812" fill="none" stroke="rgb(0, 0, 0)" stroke-linecap="round" stroke-linejoin="round" stroke-opacity="1" stroke-width="3.0"/>
    <path d="M 113.3563461303711 133.92213439941406 C 117.11105346679688 94.91903686523438 97.27810668945312 98.98372650146484 98.51580810546875 131.95497131347656" fill="none" stroke="rgb(0, 0, 0)" stroke-linecap="round" stroke-linejoin="round" stroke-opacity="1" stroke-width="2.9998531341552734"/>
    <path d="M 136.66322326660156 116.15389251708984 C 101.15995788574219 81.3333969116211 139.65267944335938 91.3800277709961 154.5156707763672 112.58456420898438" fill="none" stroke="rgb(0, 0, 0)" stroke-linecap="round" stroke-linejoin="round" stroke-opacity="1" stroke-width="2.999999523162842"/>
    <path d="M 115.262451171875 157.6444091796875 C 106.9283447265625 139.1152801513672 104.8693618774414 136.23074340820312 113.66435241699219 154.20162963867188" fill="none" stroke="rgb(0, 0, 0)" stroke-linecap="round" stroke-linejoin="round" stroke-opacity="1" stroke-width="3.0"/>
    <path d="M 115.69229125976562 124.53758239746094 C 105.69709777832031 153.00479125976562 129.8414306640625 160.41555786132812 106.97430419921875 184.296630859375" fill="none" stroke="rgb(0, 0, 0)" stroke-linecap="round" stroke-linejoin="round" stroke-opacity="1" stroke-width="2.8800790309906006"/>
    <path d="M 143.40757751464844 6.0121989250183105 C 153.39434814453125 9.993806838989258 149.67135620117188 17.521081924438477 131.7742462158203 11.273362159729004" fill="none" stroke="rgb(0, 0, 0)" stroke-linecap="round" stroke-linejoin="round" stroke-opacity="1" stroke-width="3.0"/>
    <path d="M 131.89862060546875 38.57981491088867 C 102.53963470458984 58.31488800048828 143.37635803222656 55.179847717285156 124.98345947265625 47.60566329956055" fill="none" stroke="rgb(0, 0, 0)" stroke-linecap="round" stroke-linejoin="round" stroke-opacity="1" stroke-width="2.991344690322876"/>
    <path d="M 115.2633056640625 54.052391052246094 C 107.0013427734375 74.21795654296875 102.95665740966797 75.07093811035156 112.57648468017578 73.18138122558594" fill="none" stroke="rgb(0, 0, 0)" stroke-linecap="round" stroke-linejoin="round" stroke-opacity="1" stroke-width="2.9999947547912598"/>
    <path d="M 128.92575073242188 50.50541305541992 C 79.06678771972656 52.765987396240234 83.65640258789062 82.26551055908203 103.93885803222656 47.258541107177734" fill="none" stroke="rgb(0, 0, 0)" stroke-linecap="round" stroke-linejoin="round" stroke-opacity="1" stroke-width="2.999856472015381"/>
    <path d="M 97.0302963256836 120.20047760009766 C 93.08172607421875 112.50907135009766 102.30586242675781 132.48788452148438 101.90016174316406 130.76895141601562" fill="none" stroke="rgb(0, 0, 0)" stroke-linecap="round" stroke-linejoin="round" stroke-opacity="1" stroke-width="2.99988055229187"/>
    <path d="M 116.82978820800781 83.10411071777344 C 106.56421661376953 87.44194030761719 121.31690979003906 92.68013763427734 116.61076354980469 71.49125671386719" fill="none" stroke="rgb(0, 0, 0)" stroke-linecap="round" stroke-linejoin="round" stroke-opacity="1" stroke-width="3.0"/>
    <path d="M 108.39022827148438 140.02658081054688 C 100.19522857666016 128.3380889892578 104.10971069335938 128.52487182617188 114.07554626464844 159.44772338867188" fill="none" stroke="rgb(0, 0, 0)" stroke-linecap="round" stroke-linejoin="round" stroke-opacity="1" stroke-width="3.0"/>
    <path d="M 109.75090026855469 49.80534362792969 C 100.09193420410156 64.64445495605469 103.14380645751953 44.37306594848633 91.87104034423828 72.1127700805664" fill="none" stroke="rgb(0, 0, 0)" stroke-linecap="round" stroke-linejoin="round" stroke-opacity="1" stroke-width="2.9999892711639404"/>
    <path d="M 109.02080535888672 66.0391616821289 C 102.54390716552734 93.51893615722656 119.21620178222656 70.74750518798828 113.98395538330078 92.85912322998047" fill="none" stroke="rgb(0, 0, 0)" stroke-linecap="round" stroke-linejoin="round" stroke-opacity="1" stroke-width="2.999979019165039"/>
    <path d="M 119.1945571899414 137.01126098632812 C 122.69094848632812 101.02040100097656 111.80731964111328 105.93414306640625 143.04690551757812 105.68157958984375" fill="none" stroke="rgb(0, 0, 0)" stroke-linecap="round" stroke-linejoin="round" stroke-opacity="1" stroke-width="3.0"/>
    <path d="M 128.28225708007812 56.730491638183594 C 144.5752410888672 40.88051986694336 154.07127380371094 37.4665412902832 137.28213500976562 55.647727966308594" fill="none" stroke="rgb(0, 0, 0)" stroke-linecap="round" stroke-linejoin="round" stroke-opacity="1" stroke-width="3.0"/>
    <path d="M 104.7315673828125 120.79541015625 C 105.92610168457031 142.33929443359375 109.90193176269531 133.29318237304688 119.93397521972656 153.35687255859375" fill="none" stroke="rgb(0, 0, 0)" stroke-linecap="round" stroke-linejoin="round" stroke-opacity="1" stroke-width="3.0"/>
    <path d="M 115.94283294677734 156.6834259033203 C 118.28744506835938 147.84754943847656 128.81272888183594 170.46282958984375 118.34674072265625 179.98074340820312" fill="none" stroke="rgb(0, 0, 0)" stroke-linecap="round" stroke-linejoin="round" stroke-opacity="1" stroke-width="3.0"/>
    <path d="M 114.5360107421875 40.832401275634766 C 126.80469512939453 45.89151382446289 125.3558120727539 20.859172821044922 114.2116928100586 30.60191535949707" fill="none" stroke="rgb(0, 0, 0)" stroke-linecap="round" stroke-linejoin="round" stroke-opacity="1" stroke-width="3.0"/>
    <path d="M 130.12059020996094 38.43688201904297 C 132.6105499267578 19.65753173828125 114.99002075195312 19.574392318725586 126.60989379882812 46.377960205078125" fill="none" stroke="rgb(0, 0, 0)" stroke-linecap="round" stroke-linejoin="round" stroke-opacity="1" stroke-width="3.0"/>
    <path d="M 114.8232650756836 80.89996337890625 C 123.46692657470703 94.89920806884766 118.15774536132812 83.51399993896484 106.31552124023438 92.20191955566406" fill="none" stroke="rgb(0, 0, 0)" stroke-linecap="round" stroke-linejoin="round" stroke-opacity="1" stroke-width="3.0"/>
    <path d="M 108.8887710571289 107.97557067871094 C 106.69630432128906 108.21778106689453 105.68096160888672 99.270751953125 105.64873504638672 119.65711975097656" fill="none" stroke="rgb(0, 0, 0)" stroke-linecap="round" stroke-linejoin="round" stroke-opacity="1" stroke-width="2.668306589126587"/>
    <path d="M 116.58837890625 77.23446655273438 C 108.79602813720703 58.17970657348633 81.61624908447266 67.95917510986328 114.11521911621094 77.53006744384766" fill="none" stroke="rgb(0, 0, 0)" stroke-linecap="round" stroke-linejoin="round" stroke-opacity="1" stroke-width="3.0"/>
    <path d="M 93.34436798095703 101.26055145263672 C 74.57898712158203 125.10758972167969 79.74100494384766 100.24569702148438 105.78768157958984 108.94180297851562" fill="none" stroke="rgb(0, 0, 0)" stroke-linecap="round" stroke-linejoin="round" stroke-opacity="1" stroke-width="3.0"/>
    <path d="M 121.48973846435547 48.9498405456543 C 147.1477813720703 60.48027420043945 122.3183364868164 50.69587707519531 133.65809631347656 69.11920928955078" fill="none" stroke="rgb(0, 0, 0)" stroke-linecap="round" stroke-linejoin="round" stroke-opacity="1" stroke-width="2.999769687652588"/>
    <path d="M 117.47225952148438 82.56056213378906 C 119.96984100341797 92.74747467041016 132.5860595703125 86.56718444824219 153.8693389892578 114.41535949707031" fill="none" stroke="rgb(0, 0, 0)" stroke-linecap="round" stroke-linejoin="round" stroke-opacity="1" stroke-width="3.0"/>
    <path d="M 90.86576080322266 108.58374786376953 C 94.6807861328125 110.96652221679688 52.86616516113281 111.40579223632812 56.64110565185547 102.34245300292969" fill="none" stroke="rgb(0, 0, 0)" stroke-linecap="round" stroke-linejoin="round" stroke-opacity="1" stroke-width="3.0"/>
    <path d="M 131.10870361328125 70.84164428710938 C 155.96539306640625 46.21039962768555 164.5615997314453 40.56499481201172 148.69285583496094 20.435396194458008" fill="none" stroke="rgb(0, 0, 0)" stroke-linecap="round" stroke-linejoin="round" stroke-opacity="1" stroke-width="3.0"/>
    <path d="M 143.2313995361328 47.278785705566406 C 119.45170593261719 55.14206314086914 124.4069595336914 56.446563720703125 128.24290466308594 55.248435974121094" fill="none" stroke="rgb(0, 0, 0)" stroke-linecap="round" stroke-linejoin="round" stroke-opacity="1" stroke-width="3.0"/>
    <path d="M 112.7884521484375 68.41580200195312 C 106.38687896728516 82.45285034179688 92.19788360595703 86.49016571044922 113.04034423828125 77.90742492675781" fill="none" stroke="rgb(0, 0, 0)" stroke-linecap="round" stroke-linejoin="round" stroke-opacity="1" stroke-width="2.9999985694885254"/>
    <path d="M 109.93330383300781 77.4686050415039 C 100.88200378417969 64.49908447265625 96.59221649169922 93.61062622070312 80.65170288085938 73.05809020996094" fill="none" stroke="rgb(0, 0, 0)" stroke-linecap="round" stroke-linejoin="round" stroke-opacity="1" stroke-width="3.0"/>
    <path d="M 118.0694351196289 83.16549682617188 C 122.5583724975586 85.5527114868164 118.81829071044922 99.22229766845703 116.192138671875 65.4030532836914" fill="none" stroke="rgb(0, 0, 0)" stroke-linecap="round" stroke-linejoin="round" stroke-opacity="1" stroke-width="2.999210834503174"/>
    <path d="M 111.67384338378906 71.54768371582031 C 121.27815246582031 97.4066162109375 121.10369873046875 87.63060760498047 105.86234283447266 92.91715240478516" fill="none" stroke="rgb(0, 0, 0)" stroke-linecap="round" stroke-linejoin="round" stroke-opacity="1" stroke-width="2.999997854232788"/>
    <path d="M 92.0202865600586 75.49172973632812 C 116.10169982910156 100.8621597290039 97.0728530883789 69.22933197021484 61.39053726196289 104.00060272216797" fill="none" stroke="rgb(0, 0, 0)" stroke-linecap="round" stroke-linejoin="round" stroke-opacity="1" stroke-width="2.9999985694885254"/>
  </g>
</svg>
