<?xml version="1.0" ?>
<svg height="224" version="1.1" width="224" xmlns="http://www.w3.org/2000/svg">
  <defs/>
  <g>
    <path d="M 111.87012481689453 56.19832229614258 C 128.54698181152344 52.82685852050781 122.03526306152344 45.14046096801758 120.6916275024414 27.45755386352539" fill="none" stroke="rgb(0, 0, 0)" stroke-linecap="round" stroke-linejoin="round" stroke-opacity="1" stroke-width="3.0"/>
    <path d="M 99.95692443847656 182.83615112304688 C 111.71531677246094 177.22300720214844 107.96531677246094 156.80555725097656 105.31553649902344 178.7363739013672" fill="none" stroke="rgb(0, 0, 0)" stroke-linecap="round" stroke-linejoin="round" stroke-opacity="1" stroke-width="2.161285161972046"/>
    <path d="M 112.6786880493164 114.65428924560547 C 113.4009780883789 131.02037048339844 125.60115814208984 142.09698486328125 122.5114517211914 161.74148559570312" fill="none" stroke="rgb(0, 0, 0)" stroke-linecap="round" stroke-linejoin="round" stroke-opacity="1" stroke-width="2.9684038162231445"/>
    <path d="M 106.67278289794922 94.68163299560547 C 113.8372802734375 83.83659362792969 117.96473693847656 88.76534271240234 120.82927703857422 55.19698715209961" fill="none" stroke="rgb(0, 0, 0)" stroke-linecap="round" stroke-linejoin="round" stroke-opacity="1" stroke-width="2.9707517623901367"/>
    <path d="M 117.2236328125 69.29141235351562 C 105.71240997314453 53.1529426574707 109.39375305175781 45.703121185302734 113.0766830444336 70.54198455810547" fill="none" stroke="rgb(0, 0, 0)" stroke-linecap="round" stroke-linejoin="round" stroke-opacity="1" stroke-width="3.0"/>
    <path d="M 116.58966064453125 122.67044830322266 C 123.10708618164062 101.6155776977539 114.16117858886719 116.33396911621094 114.87492370605469 141.49913024902344" fill="none" stroke="rgb(0, 0, 0)" stroke-linecap="round" stroke-linejoin="round" stroke-opacity="1" stroke-width="3.0"/>
    <path d="M 128.14657592773438 52.4943733215332 C 128.0885772705078 78.57905578613281 120.0052719116211 57.78599548339844 129.07708740234375 52.77568817138672" fill="none" stroke="rgb(0, 0, 0)" stroke-linecap="round" stroke-linejoin="round" stroke-opacity="1" stroke-width="2.996662139892578"/>
    <path d="M 80.67913055419922 66.33324432373047 C 86.84346771240234 90.01944732666016 99.47422790527344 79.06101989746094 119.46214294433594 85.30311584472656" fill="none" stroke="rgb(0, 0, 0)" stroke-linecap="round" stroke-linejoin="round" stroke-opacity="1" stroke-width="3.0"/>
    <path d="M 114.2475814819336 120.63394927978516 C 113.20636749267578 105.29407501220703 131.5467529296875 108.54437255859375 122.26826477050781 137.43917846679688" fill="none" stroke="rgb(0, 0, 0)" stroke-linecap="round" stroke-linejoin="round" stroke-opacity="1" stroke-width="2.9999051094055176"/>
    <path d="M 124.11514282226562 28.422271728515625 C 133.0059814453125 50.67173767089844 122.58934783935547 55.84984588623047 123.18527221679688 26.48280143737793" fill="none" stroke="rgb(0, 0, 0)" stroke-linecap="round" stroke-linejoin="round" stroke-opacity="1" stroke-width="2.9996585845947266"/>
    <path d="M 105.0251235961914 106.8907241821289 C 113.2248306274414 132.6752471923828 114.22343444824219 119.04109954833984 113.64969635009766 134.30392456054688" fill="none" stroke="rgb(0, 0, 0)" stroke-linecap="round" stroke-linejoin="round" stroke-opacity="1" stroke-width="3.0"/>
    <path d="M 109.50757598876953 151.64988708496094 C 122.14812469482422 218.6078338623047 104.22229766845703 160.75314331054688 114.15509033203125 211.373291015625" fill="none" stroke="rgb(0, 0, 0)" stroke-linecap="round" stroke-linejoin="round" stroke-opacity="1" stroke-width="3.0"/>
    <path d="M 110.50050354003906 186.37948608398438 C 134.06524658203125 157.89662170410156 111.59346771240234 153.81320190429688 108.94393157958984 113.48389434814453" fill="none" stroke="rgb(0, 0, 0)" stroke-linecap="round" stroke-linejoin="round" stroke-opacity="1" stroke-width="3.0"/>
    <path d="M 150.6088104248047 12.5267972946167 C 161.49783325195312 33.08453369140625 165.1453094482422 31.532032012939453 143.103271484375 60.46274948120117" fill="none" stroke="rgb(0, 0, 0)" stroke-linecap="round" stroke-linejoin="round" stroke-opacity="1" stroke-width="3.0"/>
    <path d="M 107.3482437133789 202.77064514160156 C 92.82495880126953 186.84893798828125 125.51758575439453 234.46395874023438 106.02752685546875 215.2670135498047" fill="none" stroke="rgb(0, 0, 0)" stroke-linecap="round" stroke-linejoin="round" stroke-opacity="1" stroke-width="2.999995708465576"/>
    <path d="M 116.74884796142578 117.3487548828125 C 117.54872131347656 116.58465576171875 118.22843170166016 111.38658142089844 136.2272491455078 117.8084487915039" fill="none" stroke="rgb(0, 0, 0)" stroke-linecap="round" stroke-linejoin="round" stroke-opacity="1" stroke-width="2.9999642372131348"/>
    <path d="M 93.92986297607422 100.54756927490234 C 117.76634979248047 60.1989860534668 119.5654067993164 69.29764556884766 105.71269989013672 98.22413635253906" fill="none" stroke="rgb(0, 0, 0)" stroke-linecap="round" stroke-linejoin="round" stroke-opacity="1" stroke-width="2.9372029304504395"/>
    <path d="M 119.3673095703125 144.0669403076172 C 133.8705291748047 110.11339569091797 120.06522369384766 83.7442398071289 118.57347106933594 137.5258331298828" fill="none" stroke="rgb(0, 0, 0)" stroke-linecap="round" stroke-linejoin="round" stroke-opacity="1" stroke-width="2.9301834106445312"/>
    <path d="M 156.4182891845703 112.97392272949219 C 135.10546875 115.0180435180664 142.26397705078125 117.05643463134766 126.88410949707031 97.80305480957031" fill="none" stroke="rgb(0, 0, 0)" stroke-linecap="round" stroke-linejoin="round" stroke-opacity="1" stroke-width="2.989600658416748"/>
    <path d="M 111.59037017822266 89.50273132324219 C 122.28556823730469 87.63377380371094 143.16397094726562 82.58922576904297 159.8311004638672 107.81829071044922" fill="none" stroke="rgb(0, 0, 0)" stroke-linecap="round" stroke-linejoin="round" stroke-opacity="1" stroke-width="3.0"/>
    <path d="M 109.66885375976562 108.70742797851562 C 110.27618408203125 137.82696533203125 111.84158325195312 141.60647583007812 109.92801666259766 131.64410400390625" fill="none" stroke="rgb(0, 0, 0)" stroke-linecap="round" stroke-linejoin="round" stroke-opacity="1" stroke-width="2.999997138977051"/>
    <path d="M 123.67044067382812 119.48003387451172 C 116.36448669433594 149.41539001464844 131.1659698486328 159.54986572265625 110.86253356933594 177.7113494873047" fill="none" stroke="rgb(0, 0, 0)" stroke-linecap="round" stroke-linejoin="round" stroke-opacity="1" stroke-width="3.0"/>
    <path d="M 130.77975463867188 42.6427116394043 C 137.08563232421875 41.0522346496582 120.4208984375 14.258793830871582 133.52700805664062 34.81939697265625" fill="none" stroke="rgb(0, 0, 0)" stroke-linecap="round" stroke-linejoin="round" stroke-opacity="1" stroke-width="2.999997854232788"/>
    <path d="M 120.3270263671875 70.40431213378906 C 106.67822265625 74.04216003417969 109.46357727050781 55.424346923828125 114.73033905029297 70.4344711303711" fill="none" stroke="rgb(0, 0, 0)" stroke-linecap="round" stroke-linejoin="round" stroke-opacity="1" stroke-width="2.9910833835601807"/>
    <path d="M 125.36455535888672 45.866458892822266 C 117.07117462158203 57.82579803466797 117.41812133789062 50.43471145629883 131.66552734375 41.115848541259766" fill="none" stroke="rgb(0, 0, 0)" stroke-linecap="round" stroke-linejoin="round" stroke-opacity="1" stroke-width="3.0"/>
    <path d="M 110.62076568603516 115.496337890625 C 123.64170837402344 111.94351196289062 70.48068237304688 116.54814910888672 61.12407684326172 102.26152038574219" fill="none" stroke="rgb(0, 0, 0)" stroke-linecap="round" stroke-linejoin="round" stroke-opacity="1" stroke-width="3.0"/>
    <path d="M 149.38790893554688 109.58952331542969 C 125.38729095458984 83.57140350341797 113.97061920166016 92.96876525878906 118.39569091796875 70.69092559814453" fill="none" stroke="rgb(0, 0, 0)" stroke-linecap="round" stroke-linejoin="round" stroke-opacity="1" stroke-width="3.0"/>
    <path d="M 153.87120056152344 30.435470581054688 C 142.45286560058594 12.44051456451416 145.73789978027344 17.7647705078125 140.45606994628906 10.679527282714844" fill="none" stroke="rgb(0, 0, 0)" stroke-linecap="round" stroke-linejoin="round" stroke-opacity="1" stroke-width="2.9848544597625732"/>
    <path d="M 122.1135025024414 122.79032135009766 C 119.77759552001953 109.89361572265625 154.76300048828125 108.95601654052734 143.21255493164062 111.98645782470703" fill="none" stroke="rgb(0, 0, 0)" stroke-linecap="round" stroke-linejoin="round" stroke-opacity="1" stroke-width="2.9997172355651855"/>
    <path d="M 122.8663558959961 52.61088943481445 C 141.07725524902344 53.258365631103516 137.85543823242188 49.4727897644043 155.25604248046875 32.20460891723633" fill="none" stroke="rgb(0, 0, 0)" stroke-linecap="round" stroke-linejoin="round" stroke-opacity="1" stroke-width="3.0"/>
    <path d="M 110.781494140625 160.37091064453125 C 113.1404037475586 133.33029174804688 98.79765319824219 146.4803009033203 90.50061798095703 116.05230712890625" fill="none" stroke="rgb(0, 0, 0)" stroke-linecap="round" stroke-linejoin="round" stroke-opacity="1" stroke-width="2.9999992847442627"/>
    <path d="M 115.93346405029297 39.96836853027344 C 113.226318359375 33.655094146728516 123.40137481689453 20.10190200805664 119.54094696044922 44.97101974487305" fill="none" stroke="rgb(0, 0, 0)" stroke-linecap="round" stroke-linejoin="round" stroke-opacity="1" stroke-width="2.999786853790283"/>
    <path d="M 113.81570434570312 28.281448364257812 C 138.52471923828125 18.2961368560791 129.47711181640625 28.763551712036133 113.28954315185547 44.6351203918457" fill="none" stroke="rgb(0, 0, 0)" stroke-linecap="round" stroke-linejoin="round" stroke-opacity="1" stroke-width="2.9999990463256836"/>
    <path d="M 123.66728973388672 81.43991088867188 C 110.63220977783203 104.39724731445312 116.15802001953125 95.8406982421875 120.25899505615234 56.83528137207031" fill="none" stroke="rgb(0, 0, 0)" stroke-linecap="round" stroke-linejoin="round" stroke-opacity="1" stroke-width="2.9999985694885254"/>
    <path d="M 132.55422973632812 53.1154670715332 C 125.96061706542969 81.76741027832031 117.92877197265625 73.11658477783203 119.9239273071289 91.5102767944336" fill="none" stroke="rgb(0, 0, 0)" stroke-linecap="round" stroke-linejoin="round" stroke-opacity="1" stroke-width="3.0"/>
    <path d="M 84.1092300415039 105.56039428710938 C 74.94628143310547 113.86797332763672 100.66824340820312 115.43330383300781 98.13670349121094 104.19732666015625" fill="none" stroke="rgb(0, 0, 0)" stroke-linecap="round" stroke-linejoin="round" stroke-opacity="1" stroke-width="3.0"/>
    <path d="M 156.50759887695312 28.325000762939453 C 151.36077880859375 55.69890594482422 141.14865112304688 66.5323486328125 129.8063201904297 54.18558883666992" fill="none" stroke="rgb(0, 0, 0)" stroke-linecap="round" stroke-linejoin="round" stroke-opacity="1" stroke-width="2.999999523162842"/>
    <path d="M 122.9198226928711 89.52375030517578 C 117.05830383300781 71.33049011230469 120.59788513183594 71.16680908203125 127.40115356445312 85.5531005859375" fill="none" stroke="rgb(0, 0, 0)" stroke-linecap="round" stroke-linejoin="round" stroke-opacity="1" stroke-width="2.999948501586914"/>
    <path d="M 56.42454147338867 98.51372528076172 C 93.55140686035156 65.38259887695312 99.7479476928711 98.00668334960938 75.42472839355469 71.3523941040039" fill="none" stroke="rgb(0, 0, 0)" stroke-linecap="round" stroke-linejoin="round" stroke-opacity="1" stroke-width="2.999992847442627"/>
    <path d="M 128.67239379882812 57.01614761352539 C 153.29942321777344 31.970823287963867 162.58255004882812 43.360687255859375 147.32077026367188 19.94753646850586" fill="none" stroke="rgb(0, 0, 0)" stroke-linecap="round" stroke-linejoin="round" stroke-opacity="1" stroke-width="2.999997854232788"/>
    <path d="M 121.42906188964844 74.21766662597656 C 117.77411651611328 55.63521957397461 109.8060302734375 47.354087829589844 95.8311996459961 72.91592407226562" fill="none" stroke="rgb(0, 0, 0)" stroke-linecap="round" stroke-linejoin="round" stroke-opacity="1" stroke-width="3.0"/>
    <path d="M 124.57825469970703 84.99320220947266 C 106.61388397216797 89.41352081298828 129.0782928466797 82.60102081298828 155.03228759765625 107.00688934326172" fill="none" stroke="rgb(0, 0, 0)" stroke-linecap="round" stroke-linejoin="round" stroke-opacity="1" stroke-width="2.9994137287139893"/>
    <path d="M 91.12416076660156 57.090972900390625 C 63.17649841308594 69.14788055419922 71.43048095703125 75.96561431884766 102.63978576660156 59.710994720458984" fill="none" stroke="rgb(0, 0, 0)" stroke-linecap="round" stroke-linejoin="round" stroke-opacity="1" stroke-width="2.9997849464416504"/>
  </g>
</svg>
