<?xml version="1.0" ?>
<svg height="224" version="1.1" width="224" xmlns="http://www.w3.org/2000/svg">
  <defs/>
  <g>
    <path d="M 118.99646759033203 92.27783203125 C 131.6673583984375 110.68851470947266 119.22412109375 102.15728759765625 145.65478515625 114.40148162841797" fill="none" stroke="rgb(0, 0, 0)" stroke-linecap="round" stroke-linejoin="round" stroke-opacity="1" stroke-width="3.0"/>
    <path d="M 118.37940216064453 109.1482925415039 C 98.13895416259766 112.05252838134766 105.64753723144531 117.3698959350586 116.8052978515625 114.80155944824219" fill="none" stroke="rgb(0, 0, 0)" stroke-linecap="round" stroke-linejoin="round" stroke-opacity="1" stroke-width="3.0"/>
    <path d="M 121.05636596679688 94.753173828125 C 131.65869140625 88.00813293457031 132.4822540283203 92.87557983398438 112.63789367675781 85.52767944335938" fill="none" stroke="rgb(0, 0, 0)" stroke-linecap="round" stroke-linejoin="round" stroke-opacity="1" stroke-width="2.9999775886535645"/>
    <path d="M 113.25473022460938 153.88978576660156 C 112.63455200195312 105.68087768554688 109.66519165039062 134.9161834716797 109.259521484375 164.4807586669922" fill="none" stroke="rgb(0, 0, 0)" stroke-linecap="round" stroke-linejoin="round" stroke-opacity="1" stroke-width="3.0"/>
    <path d="M 109.44721984863281 155.8964080810547 C 111.84037780761719 175.1814422607422 104.37875366210938 166.93324279785156 107.82237243652344 150.51364135742188" fill="none" stroke="rgb(0, 0, 0)" stroke-linecap="round" stroke-linejoin="round" stroke-opacity="1" stroke-width="3.0"/>
    <path d="M 97.73921966552734 84.65631866455078 C 86.63847351074219 92.24723815917969 83.68001556396484 87.8931655883789 95.6341323852539 87.98633575439453" fill="none" stroke="rgb(0, 0, 0)" stroke-linecap="round" stroke-linejoin="round" stroke-opacity="1" stroke-width="3.0"/>
    <path d="M 118.27880096435547 117.19023895263672 C 117.24171447753906 152.28329467773438 127.13626098632812 149.80670166015625 120.52318572998047 176.3070831298828" fill="none" stroke="rgb(0, 0, 0)" stroke-linecap="round" stroke-linejoin="round" stroke-opacity="1" stroke-width="2.9993574619293213"/>
    <path d="M 113.1304702758789 49.8306884765625 C 97.23719787597656 46.067771911621094 112.3756332397461 40.223941802978516 128.5812530517578 36.14743423461914" fill="none" stroke="rgb(0, 0, 0)" stroke-linecap="round" stroke-linejoin="round" stroke-opacity="1" stroke-width="3.0"/>
    <path d="M 137.57937622070312 8.329998016357422 C 145.80056762695312 13.661805152893066 147.7526092529297 7.738657474517822 155.7869873046875 32.708683013916016" fill="none" stroke="rgb(0, 0, 0)" stroke-linecap="round" stroke-linejoin="round" stroke-opacity="1" stroke-width="3.0"/>
    <path d="M 111.58473205566406 123.9931411743164 C 117.02969360351562 117.047607421875 117.06153869628906 119.2463607788086 107.97647857666016 111.18827819824219" fill="none" stroke="rgb(0, 0, 0)" stroke-linecap="round" stroke-linejoin="round" stroke-opacity="1" stroke-width="3.0"/>
    <path d="M 99.7304916381836 125.81985473632812 C 111.65294647216797 161.6210479736328 113.58116912841797 161.7458038330078 111.72592163085938 115.38912200927734" fill="none" stroke="rgb(0, 0, 0)" stroke-linecap="round" stroke-linejoin="round" stroke-opacity="1" stroke-width="3.0"/>
    <path d="M 113.75129699707031 205.22601318359375 C 114.8979263305664 183.21923828125 108.27648162841797 185.94155883789062 108.72444915771484 155.9625244140625" fill="none" stroke="rgb(0, 0, 0)" stroke-linecap="round" stroke-linejoin="round" stroke-opacity="1" stroke-width="3.0"/>
    <path d="M 120.0836410522461 86.39591217041016 C 112.49187469482422 82.79237365722656 108.25175476074219 83.85214233398438 115.94159698486328 83.1147689819336" fill="none" stroke="rgb(0, 0, 0)" stroke-linecap="round" stroke-linejoin="round" stroke-opacity="1" stroke-width="2.997016191482544"/>
    <path d="M 103.09111022949219 126.36579895019531 C 89.9244613647461 112.50505065917969 105.23640441894531 110.00312805175781 74.21597290039062 107.90719604492188" fill="none" stroke="rgb(0, 0, 0)" stroke-linecap="round" stroke-linejoin="round" stroke-opacity="1" stroke-width="2.999943494796753"/>
    <path d="M 140.3841552734375 52.58293914794922 C 139.5858612060547 45.37504959106445 152.016357421875 36.82451248168945 148.69664001464844 28.05030632019043" fill="none" stroke="rgb(0, 0, 0)" stroke-linecap="round" stroke-linejoin="round" stroke-opacity="1" stroke-width="2.999946117401123"/>
    <path d="M 69.77156066894531 102.71676635742188 C 60.05180358886719 108.4884033203125 96.26911926269531 107.75588989257812 97.85359191894531 112.48420715332031" fill="none" stroke="rgb(0, 0, 0)" stroke-linecap="round" stroke-linejoin="round" stroke-opacity="1" stroke-width="2.6275973320007324"/>
    <path d="M 143.8207550048828 46.969688415527344 C 122.23799896240234 59.014915466308594 126.98705291748047 52.48434066772461 132.69448852539062 40.77044677734375" fill="none" stroke="rgb(0, 0, 0)" stroke-linecap="round" stroke-linejoin="round" stroke-opacity="1" stroke-width="2.999999523162842"/>
    <path d="M 161.43882751464844 106.2882308959961 C 153.6637725830078 94.42488098144531 131.3347930908203 91.33842468261719 126.91294860839844 93.6086196899414" fill="none" stroke="rgb(0, 0, 0)" stroke-linecap="round" stroke-linejoin="round" stroke-opacity="1" stroke-width="2.9998397827148438"/>
    <path d="M 100.94104766845703 85.72901153564453 C 91.40900421142578 89.31471252441406 95.3475570678711 89.75277709960938 60.61540603637695 102.29930877685547" fill="none" stroke="rgb(0, 0, 0)" stroke-linecap="round" stroke-linejoin="round" stroke-opacity="1" stroke-width="3.0"/>
    <path d="M 119.34896850585938 120.30323028564453 C 102.55103302001953 121.28902435302734 99.106201171875 114.1716537475586 106.7989273071289 112.54238891601562" fill="none" stroke="rgb(0, 0, 0)" stroke-linecap="round" stroke-linejoin="round" stroke-opacity="1" stroke-width="3.0"/>
    <path d="M 121.85880279541016 104.71932983398438 C 148.9371337890625 108.0097885131836 147.25112915039062 94.77034759521484 126.05879211425781 89.2629165649414" fill="none" stroke="rgb(0, 0, 0)" stroke-linecap="round" stroke-linejoin="round" stroke-opacity="1" stroke-width="2.999999523162842"/>
    <path d="M 112.76472473144531 114.58422088623047 C 113.11841583251953 107.66525268554688 117.61820220947266 106.43675994873047 112.76766204833984 145.9530029296875" fill="none" stroke="rgb(0, 0, 0)" stroke-linecap="round" stroke-linejoin="round" stroke-opacity="1" stroke-width="3.0"/>
    <path d="M 125.3360824584961 106.68638610839844 C 117.33568572998047 90.96196746826172 121.25694274902344 85.81004333496094 136.3601837158203 98.33893585205078" fill="none" stroke="rgb(0, 0, 0)" stroke-linecap="round" stroke-linejoin="round" stroke-opacity="1" stroke-width="2.999959945678711"/>
    <path d="M 83.10425567626953 63.43756866455078 C 109.92687225341797 87.32980346679688 82.27123260498047 78.27007293701172 85.52749633789062 73.71614837646484" fill="none" stroke="rgb(0, 0, 0)" stroke-linecap="round" stroke-linejoin="round" stroke-opacity="1" stroke-width="2.9999992847442627"/>
    <path d="M 98.56633758544922 112.69319152832031 C 117.58489990234375 120.99024200439453 119.39622497558594 118.90425109863281 121.06395721435547 114.26229858398438" fill="none" stroke="rgb(0, 0, 0)" stroke-linecap="round" stroke-linejoin="round" stroke-opacity="1" stroke-width="3.0"/>
    <path d="M 126.88897705078125 36.42033004760742 C 115.2757339477539 22.401241302490234 139.2110595703125 27.539474487304688 117.53801727294922 38.654632568359375" fill="none" stroke="rgb(0, 0, 0)" stroke-linecap="round" stroke-linejoin="round" stroke-opacity="1" stroke-width="3.0"/>
    <path d="M 86.19817352294922 62.849979400634766 C 99.77537536621094 50.0289306640625 102.21682739257812 61.86967468261719 98.54232025146484 56.64460754394531" fill="none" stroke="rgb(0, 0, 0)" stroke-linecap="round" stroke-linejoin="round" stroke-opacity="1" stroke-width="3.0"/>
    <path d="M 145.3084716796875 50.08330535888672 C 138.8190155029297 58.5040168762207 158.6790313720703 41.77293014526367 156.2700653076172 32.50509262084961" fill="none" stroke="rgb(0, 0, 0)" stroke-linecap="round" stroke-linejoin="round" stroke-opacity="1" stroke-width="2.9999828338623047"/>
    <path d="M 125.15644073486328 87.56949615478516 C 116.44229888916016 82.05634307861328 129.1958770751953 70.20233917236328 117.5162353515625 81.06338500976562" fill="none" stroke="rgb(0, 0, 0)" stroke-linecap="round" stroke-linejoin="round" stroke-opacity="1" stroke-width="3.0"/>
    <path d="M 134.4578399658203 96.25660705566406 C 154.29336547851562 106.19161987304688 143.5594024658203 112.93704223632812 146.2717742919922 107.05358123779297" fill="none" stroke="rgb(0, 0, 0)" stroke-linecap="round" stroke-linejoin="round" stroke-opacity="1" stroke-width="2.949038505554199"/>
    <path d="M 138.58042907714844 104.26978302001953 C 116.9052963256836 82.16179656982422 112.54176330566406 86.30915832519531 116.63128662109375 68.59154510498047" fill="none" stroke="rgb(0, 0, 0)" stroke-linecap="round" stroke-linejoin="round" stroke-opacity="1" stroke-width="2.999748706817627"/>
    <path d="M 120.59422302246094 186.2615966796875 C 118.97339630126953 214.767333984375 103.63614654541016 231.8337860107422 112.93729400634766 190.59173583984375" fill="none" stroke="rgb(0, 0, 0)" stroke-linecap="round" stroke-linejoin="round" stroke-opacity="1" stroke-width="3.0"/>
    <path d="M 117.18040466308594 42.34577560424805 C 145.05075073242188 29.84088897705078 111.91080474853516 65.11375427246094 131.61224365234375 52.48231887817383" fill="none" stroke="rgb(0, 0, 0)" stroke-linecap="round" stroke-linejoin="round" stroke-opacity="1" stroke-width="3.0"/>
    <path d="M 147.44725036621094 45.18115234375 C 137.11732482910156 56.624107360839844 137.16493225097656 49.17192077636719 127.59236145019531 67.49100494384766" fill="none" stroke="rgb(0, 0, 0)" stroke-linecap="round" stroke-linejoin="round" stroke-opacity="1" stroke-width="3.0"/>
    <path d="M 104.61019134521484 52.641422271728516 C 73.5660629272461 80.4845962524414 96.73009490966797 43.7418098449707 113.99931335449219 52.18700408935547" fill="none" stroke="rgb(0, 0, 0)" stroke-linecap="round" stroke-linejoin="round" stroke-opacity="1" stroke-width="3.0"/>
    <path d="M 144.56932067871094 103.7876968383789 C 120.08079528808594 110.22205352783203 130.53289794921875 115.63447570800781 115.02678680419922 126.74337768554688" fill="none" stroke="rgb(0, 0, 0)" stroke-linecap="round" stroke-linejoin="round" stroke-opacity="1" stroke-width="3.0"/>
    <path d="M 134.63870239257812 44.02496337890625 C 129.5081787109375 53.32487106323242 92.34961700439453 44.77046203613281 134.06967163085938 53.97840881347656" fill="none" stroke="rgb(0, 0, 0)" stroke-linecap="round" stroke-linejoin="round" stroke-opacity="1" stroke-width="3.0"/>
  </g>
</svg>
