<?xml version="1.0" ?>
<svg height="224" version="1.1" width="224" xmlns="http://www.w3.org/2000/svg">
  <defs/>
  <g>
    <path d="M 110.04412841796875 45.585487365722656 C 125.95530700683594 53.68136978149414 118.20703125 46.55672073364258 117.8727798461914 30.398651123046875" fill="none" stroke="rgb(0, 0, 0)" stroke-linecap="round" stroke-linejoin="round" stroke-opacity="1" stroke-width="3.0"/>
    <path d="M 108.25321197509766 70.72345733642578 C 107.09596252441406 55.245208740234375 108.63194274902344 46.116783142089844 108.11982727050781 68.45013427734375" fill="none" stroke="rgb(0, 0, 0)" stroke-linecap="round" stroke-linejoin="round" stroke-opacity="1" stroke-width="2.999873399734497"/>
    <path d="M 107.41466522216797 113.70686340332031 C 107.55823516845703 145.27114868164062 111.18121337890625 127.39331817626953 110.20354461669922 137.538818359375" fill="none" stroke="rgb(0, 0, 0)" stroke-linecap="round" stroke-linejoin="round" stroke-opacity="1" stroke-width="2.999999523162842"/>
    <path d="M 109.8070297241211 150.28297424316406 C 127.0682144165039 216.00540161132812 111.26057434082031 165.101318359375 113.8127212524414 203.9741668701172" fill="none" stroke="rgb(0, 0, 0)" stroke-linecap="round" stroke-linejoin="round" stroke-opacity="1" stroke-width="3.0"/>
    <path d="M 109.16240692138672 192.52000427246094 C 129.76754760742188 155.147216796875 106.71066284179688 155.41363525390625 110.75926971435547 114.26602935791016" fill="none" stroke="rgb(0, 0, 0)" stroke-linecap="round" stroke-linejoin="round" stroke-opacity="1" stroke-width="3.0"/>
    <path d="M 149.26260375976562 12.152543067932129 C 159.87974548339844 37.56205749511719 162.30825805664062 26.41452407836914 130.6503448486328 60.1745719909668" fill="none" stroke="rgb(0, 0, 0)" stroke-linecap="round" stroke-linejoin="round" stroke-opacity="1" stroke-width="3.0"/>
    <path d="M 108.97712707519531 206.54354858398438 C 95.08515167236328 179.3948211669922 132.65179443359375 224.54881286621094 109.74806213378906 212.8931121826172" fill="none" stroke="rgb(0, 0, 0)" stroke-linecap="round" stroke-linejoin="round" stroke-opacity="1" stroke-width="3.0"/>
    <path d="M 156.76609802246094 109.57672119140625 C 127.5453109741211 112.97632598876953 136.51644897460938 116.26612091064453 127.38265991210938 100.62003326416016" fill="none" stroke="rgb(0, 0, 0)" stroke-linecap="round" stroke-linejoin="round" stroke-opacity="1" stroke-width="2.9376299381256104"/>
    <path d="M 103.70988464355469 86.97992706298828 C 114.56026458740234 86.73605346679688 140.7120361328125 86.20516204833984 159.98023986816406 107.32433319091797" fill="none" stroke="rgb(0, 0, 0)" stroke-linecap="round" stroke-linejoin="round" stroke-opacity="1" stroke-width="3.0"/>
    <path d="M 124.59565734863281 112.40010833740234 C 117.24053192138672 147.43344116210938 130.6573486328125 156.9052276611328 117.99156951904297 176.78173828125" fill="none" stroke="rgb(0, 0, 0)" stroke-linecap="round" stroke-linejoin="round" stroke-opacity="1" stroke-width="2.9982123374938965"/>
    <path d="M 131.19960021972656 46.450523376464844 C 138.88693237304688 38.22870635986328 126.51209259033203 15.840118408203125 122.19949340820312 39.15646743774414" fill="none" stroke="rgb(0, 0, 0)" stroke-linecap="round" stroke-linejoin="round" stroke-opacity="1" stroke-width="2.9999990463256836"/>
    <path d="M 110.10508728027344 116.06639099121094 C 132.3968505859375 111.65203094482422 74.25086975097656 115.77023315429688 64.60836029052734 104.01756286621094" fill="none" stroke="rgb(0, 0, 0)" stroke-linecap="round" stroke-linejoin="round" stroke-opacity="1" stroke-width="3.0"/>
    <path d="M 147.76004028320312 110.27828979492188 C 124.15538787841797 84.94566345214844 119.78328704833984 92.1090087890625 122.30155944824219 63.30634307861328" fill="none" stroke="rgb(0, 0, 0)" stroke-linecap="round" stroke-linejoin="round" stroke-opacity="1" stroke-width="3.0"/>
    <path d="M 125.47703552246094 50.1051139831543 C 138.9068603515625 48.51620864868164 140.3070068359375 49.2406005859375 155.44821166992188 26.966684341430664" fill="none" stroke="rgb(0, 0, 0)" stroke-linecap="round" stroke-linejoin="round" stroke-opacity="1" stroke-width="2.9954845905303955"/>
    <path d="M 116.6073989868164 45.059669494628906 C 104.82569885253906 39.9262809753418 141.278076171875 19.596275329589844 126.79900360107422 47.88274383544922" fill="none" stroke="rgb(0, 0, 0)" stroke-linecap="round" stroke-linejoin="round" stroke-opacity="1" stroke-width="2.994126319885254"/>
    <path d="M 114.03137969970703 28.188682556152344 C 134.98178100585938 23.433256149291992 122.70233917236328 26.777225494384766 112.9710464477539 38.89282989501953" fill="none" stroke="rgb(0, 0, 0)" stroke-linecap="round" stroke-linejoin="round" stroke-opacity="1" stroke-width="2.999917507171631"/>
    <path d="M 85.7511215209961 106.90817260742188 C 77.29875946044922 112.9139404296875 102.5558853149414 113.8836441040039 101.15367889404297 104.69889831542969" fill="none" stroke="rgb(0, 0, 0)" stroke-linecap="round" stroke-linejoin="round" stroke-opacity="1" stroke-width="3.0"/>
    <path d="M 157.09608459472656 31.746849060058594 C 145.6640167236328 52.847679138183594 127.10087585449219 67.18504333496094 125.88565826416016 60.92308807373047" fill="none" stroke="rgb(0, 0, 0)" stroke-linecap="round" stroke-linejoin="round" stroke-opacity="1" stroke-width="2.9992241859436035"/>
    <path d="M 117.3760757446289 92.3700180053711 C 120.55435180664062 79.6305923461914 115.1451416015625 83.54537963867188 126.01270294189453 95.8162841796875" fill="none" stroke="rgb(0, 0, 0)" stroke-linecap="round" stroke-linejoin="round" stroke-opacity="1" stroke-width="2.9998607635498047"/>
    <path d="M 59.37484359741211 98.64430236816406 C 90.40435028076172 65.90058135986328 90.37551879882812 101.71730041503906 75.06391906738281 69.5132827758789" fill="none" stroke="rgb(0, 0, 0)" stroke-linecap="round" stroke-linejoin="round" stroke-opacity="1" stroke-width="2.9999992847442627"/>
    <path d="M 124.35395050048828 73.86409759521484 C 135.3060302734375 46.57666015625 113.6100845336914 43.864646911621094 91.85374450683594 77.9007568359375" fill="none" stroke="rgb(0, 0, 0)" stroke-linecap="round" stroke-linejoin="round" stroke-opacity="1" stroke-width="2.999971866607666"/>
    <path d="M 91.88998413085938 56.89810562133789 C 63.31901168823242 66.03826904296875 67.69263458251953 74.76446533203125 102.70489501953125 55.2730827331543" fill="none" stroke="rgb(0, 0, 0)" stroke-linecap="round" stroke-linejoin="round" stroke-opacity="1" stroke-width="2.7838149070739746"/>
  </g>
</svg>
