<?xml version="1.0" ?>
<svg height="224" version="1.1" width="224" xmlns="http://www.w3.org/2000/svg">
  <defs/>
  <g>
    <path d="M 120.38298797607422 134.2274169921875 C 107.73128509521484 103.15034484863281 108.94084167480469 101.0662612915039 145.71905517578125 110.72562408447266" fill="none" stroke="rgb(0, 0, 0)" stroke-linecap="round" stroke-linejoin="round" stroke-opacity="1" stroke-width="2.999999523162842"/>
    <path d="M 124.05301666259766 43.55814743041992 C 100.92689514160156 49.52444839477539 116.8229751586914 27.22947120666504 128.47650146484375 31.014616012573242" fill="none" stroke="rgb(0, 0, 0)" stroke-linecap="round" stroke-linejoin="round" stroke-opacity="1" stroke-width="3.0"/>
    <path d="M 110.016845703125 64.35372924804688 C 127.18246459960938 45.75455093383789 98.83765411376953 52.05205535888672 76.4182357788086 64.67416381835938" fill="none" stroke="rgb(0, 0, 0)" stroke-linecap="round" stroke-linejoin="round" stroke-opacity="1" stroke-width="3.0"/>
    <path d="M 145.9072723388672 50.420440673828125 C 162.08538818359375 31.9038143157959 161.42727661132812 39.3509407043457 142.61038208007812 10.036157608032227" fill="none" stroke="rgb(0, 0, 0)" stroke-linecap="round" stroke-linejoin="round" stroke-opacity="1" stroke-width="3.0"/>
    <path d="M 107.30599975585938 47.974632263183594 C 100.42977142333984 103.0196304321289 98.32789611816406 68.94965362548828 118.8711166381836 61.184940338134766" fill="none" stroke="rgb(0, 0, 0)" stroke-linecap="round" stroke-linejoin="round" stroke-opacity="1" stroke-width="2.993539333343506"/>
    <path d="M 125.16651153564453 105.81489562988281 C 127.08040618896484 131.65101623535156 115.657470703125 148.1214141845703 112.46102905273438 106.07088470458984" fill="none" stroke="rgb(0, 0, 0)" stroke-linecap="round" stroke-linejoin="round" stroke-opacity="1" stroke-width="2.99282169342041"/>
    <path d="M 55.03909683227539 107.84229278564453 C 60.54370880126953 110.70500183105469 93.0994644165039 75.15605926513672 114.9874038696289 83.73234558105469" fill="none" stroke="rgb(0, 0, 0)" stroke-linecap="round" stroke-linejoin="round" stroke-opacity="1" stroke-width="3.0"/>
    <path d="M 97.41461181640625 110.31494140625 C 123.90887451171875 99.41539001464844 125.71044158935547 105.6276626586914 117.01760864257812 138.41712951660156" fill="none" stroke="rgb(0, 0, 0)" stroke-linecap="round" stroke-linejoin="round" stroke-opacity="1" stroke-width="2.6078031063079834"/>
    <path d="M 127.53701782226562 37.10403060913086 C 126.97274780273438 52.318504333496094 105.56942749023438 32.19202423095703 129.8250274658203 36.175533294677734" fill="none" stroke="rgb(0, 0, 0)" stroke-linecap="round" stroke-linejoin="round" stroke-opacity="1" stroke-width="2.999021530151367"/>
    <path d="M 121.0580825805664 164.24267578125 C 114.83365631103516 235.45623779296875 109.06883239746094 164.17747497558594 115.1137466430664 216.0802459716797" fill="none" stroke="rgb(0, 0, 0)" stroke-linecap="round" stroke-linejoin="round" stroke-opacity="1" stroke-width="3.0"/>
    <path d="M 106.75321197509766 212.0089111328125 C 116.00475311279297 163.56373596191406 96.35096740722656 156.18287658691406 104.9936294555664 106.08399200439453" fill="none" stroke="rgb(0, 0, 0)" stroke-linecap="round" stroke-linejoin="round" stroke-opacity="1" stroke-width="2.204500436782837"/>
    <path d="M 98.91167449951172 99.75347900390625 C 117.20586395263672 84.5151138305664 99.85193634033203 85.15652465820312 124.968505859375 89.25385284423828" fill="none" stroke="rgb(0, 0, 0)" stroke-linecap="round" stroke-linejoin="round" stroke-opacity="1" stroke-width="3.0"/>
    <path d="M 110.04888153076172 210.03460693359375 C 109.53207397460938 173.30213928222656 132.64060974121094 236.30242919921875 107.69772338867188 205.56814575195312" fill="none" stroke="rgb(0, 0, 0)" stroke-linecap="round" stroke-linejoin="round" stroke-opacity="1" stroke-width="3.0"/>
    <path d="M 114.4494857788086 88.28661346435547 C 112.36509704589844 47.738189697265625 121.76007843017578 41.40406799316406 117.70791625976562 88.17767333984375" fill="none" stroke="rgb(0, 0, 0)" stroke-linecap="round" stroke-linejoin="round" stroke-opacity="1" stroke-width="2.999936103820801"/>
    <path d="M 106.74246978759766 85.1591567993164 C 132.0155029296875 79.83028411865234 117.78836059570312 82.50163269042969 86.06664276123047 77.4686279296875" fill="none" stroke="rgb(0, 0, 0)" stroke-linecap="round" stroke-linejoin="round" stroke-opacity="1" stroke-width="3.0"/>
    <path d="M 131.70889282226562 37.07069396972656 C 128.78244018554688 15.002612113952637 105.790283203125 19.62666130065918 107.02064514160156 36.41265106201172" fill="none" stroke="rgb(0, 0, 0)" stroke-linecap="round" stroke-linejoin="round" stroke-opacity="1" stroke-width="3.0"/>
    <path d="M 119.07445526123047 137.7914581298828 C 112.06121826171875 124.29347229003906 115.55503845214844 131.19647216796875 118.7833251953125 150.78207397460938" fill="none" stroke="rgb(0, 0, 0)" stroke-linecap="round" stroke-linejoin="round" stroke-opacity="1" stroke-width="3.0"/>
    <path d="M 159.19882202148438 110.01602172851562 C 153.43325805664062 105.91144561767578 156.54400634765625 99.79011535644531 127.28887176513672 97.14741516113281" fill="none" stroke="rgb(0, 0, 0)" stroke-linecap="round" stroke-linejoin="round" stroke-opacity="1" stroke-width="2.4275107383728027"/>
    <path d="M 130.75390625 118.33699798583984 C 99.24006652832031 77.63333892822266 138.1420440673828 92.48737335205078 154.41162109375 113.86373901367188" fill="none" stroke="rgb(0, 0, 0)" stroke-linecap="round" stroke-linejoin="round" stroke-opacity="1" stroke-width="3.0"/>
    <path d="M 114.04005432128906 159.10183715820312 C 109.32403564453125 138.41397094726562 105.72657775878906 134.3508758544922 113.48367309570312 154.55186462402344" fill="none" stroke="rgb(0, 0, 0)" stroke-linecap="round" stroke-linejoin="round" stroke-opacity="1" stroke-width="3.0"/>
    <path d="M 116.1536636352539 120.49375915527344 C 105.18522644042969 151.72434997558594 125.41636657714844 157.31893920898438 104.33851623535156 186.4886932373047" fill="none" stroke="rgb(0, 0, 0)" stroke-linecap="round" stroke-linejoin="round" stroke-opacity="1" stroke-width="2.9383983612060547"/>
    <path d="M 139.05796813964844 11.025557518005371 C 151.39535522460938 6.4746809005737305 147.34222412109375 21.95874786376953 131.14085388183594 12.535807609558105" fill="none" stroke="rgb(0, 0, 0)" stroke-linecap="round" stroke-linejoin="round" stroke-opacity="1" stroke-width="3.0"/>
    <path d="M 127.2414321899414 49.5949821472168 C 75.79280090332031 52.968021392822266 79.7614517211914 81.35932922363281 103.28934478759766 50.62140655517578" fill="none" stroke="rgb(0, 0, 0)" stroke-linecap="round" stroke-linejoin="round" stroke-opacity="1" stroke-width="2.999413251876831"/>
    <path d="M 115.92166137695312 83.17070770263672 C 105.95822143554688 90.0950927734375 120.28065490722656 95.10932159423828 113.26412200927734 70.36927032470703" fill="none" stroke="rgb(0, 0, 0)" stroke-linecap="round" stroke-linejoin="round" stroke-opacity="1" stroke-width="2.999999523162842"/>
    <path d="M 110.70230102539062 142.2707061767578 C 102.35643005371094 129.5305938720703 102.52689361572266 130.70274353027344 112.56920623779297 163.84030151367188" fill="none" stroke="rgb(0, 0, 0)" stroke-linecap="round" stroke-linejoin="round" stroke-opacity="1" stroke-width="3.0"/>
    <path d="M 111.0088119506836 47.72462844848633 C 99.13673400878906 66.34883117675781 101.3167495727539 44.28223419189453 92.35223388671875 73.92362213134766" fill="none" stroke="rgb(0, 0, 0)" stroke-linecap="round" stroke-linejoin="round" stroke-opacity="1" stroke-width="2.951294183731079"/>
    <path d="M 119.3285140991211 135.9512939453125 C 120.22142791748047 94.91988372802734 105.73931884765625 103.96646118164062 143.78656005859375 106.43972778320312" fill="none" stroke="rgb(0, 0, 0)" stroke-linecap="round" stroke-linejoin="round" stroke-opacity="1" stroke-width="3.0"/>
    <path d="M 125.41114807128906 59.27086639404297 C 145.5238037109375 44.00551986694336 154.9349365234375 39.37416076660156 134.7041015625 59.1533088684082" fill="none" stroke="rgb(0, 0, 0)" stroke-linecap="round" stroke-linejoin="round" stroke-opacity="1" stroke-width="3.0"/>
    <path d="M 99.93799591064453 116.20996856689453 C 104.89644622802734 144.23582458496094 111.12877655029297 129.9440155029297 121.4984359741211 155.0487518310547" fill="none" stroke="rgb(0, 0, 0)" stroke-linecap="round" stroke-linejoin="round" stroke-opacity="1" stroke-width="2.9995884895324707"/>
    <path d="M 123.0297622680664 156.70350646972656 C 119.7789535522461 146.59310913085938 129.91770935058594 168.97921752929688 116.1697769165039 180.88523864746094" fill="none" stroke="rgb(0, 0, 0)" stroke-linecap="round" stroke-linejoin="round" stroke-opacity="1" stroke-width="3.0"/>
    <path d="M 121.47639465332031 49.43397521972656 C 127.7389907836914 43.73290252685547 128.7479248046875 18.719289779663086 114.3111572265625 27.743553161621094" fill="none" stroke="rgb(0, 0, 0)" stroke-linecap="round" stroke-linejoin="round" stroke-opacity="1" stroke-width="3.0"/>
    <path d="M 129.73988342285156 42.312252044677734 C 127.0447006225586 26.615074157714844 110.08721160888672 24.154428482055664 125.566650390625 48.15867614746094" fill="none" stroke="rgb(0, 0, 0)" stroke-linecap="round" stroke-linejoin="round" stroke-opacity="1" stroke-width="3.0"/>
    <path d="M 113.11814880371094 79.91132354736328 C 121.94798278808594 94.32276153564453 113.85494995117188 80.9876708984375 102.64700317382812 88.357666015625" fill="none" stroke="rgb(0, 0, 0)" stroke-linecap="round" stroke-linejoin="round" stroke-opacity="1" stroke-width="2.169649124145508"/>
    <path d="M 120.91593933105469 75.33851623535156 C 109.05159759521484 58.73206329345703 73.09330749511719 72.08180236816406 106.50933837890625 83.50235748291016" fill="none" stroke="rgb(0, 0, 0)" stroke-linecap="round" stroke-linejoin="round" stroke-opacity="1" stroke-width="3.0"/>
    <path d="M 123.35924530029297 43.571475982666016 C 146.36227416992188 56.116981506347656 123.05939483642578 46.453392028808594 128.5343780517578 75.19658660888672" fill="none" stroke="rgb(0, 0, 0)" stroke-linecap="round" stroke-linejoin="round" stroke-opacity="1" stroke-width="2.9975857734680176"/>
    <path d="M 121.18318939208984 78.28816223144531 C 121.56016540527344 94.25727081298828 135.4187469482422 84.65099334716797 162.81065368652344 109.70819854736328" fill="none" stroke="rgb(0, 0, 0)" stroke-linecap="round" stroke-linejoin="round" stroke-opacity="1" stroke-width="3.0"/>
    <path d="M 94.85601043701172 111.38522338867188 C 102.4399642944336 120.91189575195312 52.26632308959961 115.29793548583984 54.00214385986328 106.82971954345703" fill="none" stroke="rgb(0, 0, 0)" stroke-linecap="round" stroke-linejoin="round" stroke-opacity="1" stroke-width="3.0"/>
    <path d="M 126.84195709228516 69.57141876220703 C 155.2942657470703 44.81803512573242 163.52667236328125 42.45988082885742 144.76046752929688 18.1209774017334" fill="none" stroke="rgb(0, 0, 0)" stroke-linecap="round" stroke-linejoin="round" stroke-opacity="1" stroke-width="3.0"/>
    <path d="M 113.07137298583984 69.87824249267578 C 107.78152465820312 84.86279296875 92.68093872070312 87.98814392089844 113.05145263671875 76.3452377319336" fill="none" stroke="rgb(0, 0, 0)" stroke-linecap="round" stroke-linejoin="round" stroke-opacity="1" stroke-width="2.968522787094116"/>
    <path d="M 113.48268127441406 77.83796691894531 C 100.00979614257812 63.139991760253906 95.19917297363281 93.65340423583984 77.98548889160156 76.50538635253906" fill="none" stroke="rgb(0, 0, 0)" stroke-linecap="round" stroke-linejoin="round" stroke-opacity="1" stroke-width="3.0"/>
    <path d="M 118.91239166259766 81.6499252319336 C 122.75503540039062 85.82930755615234 115.58409881591797 101.7030029296875 115.07025909423828 62.998287200927734" fill="none" stroke="rgb(0, 0, 0)" stroke-linecap="round" stroke-linejoin="round" stroke-opacity="1" stroke-width="2.99996280670166"/>
    <path d="M 85.53489685058594 71.26689147949219 C 119.96000671386719 102.97698211669922 94.7869644165039 70.11137390136719 61.76279067993164 102.32486724853516" fill="none" stroke="rgb(0, 0, 0)" stroke-linecap="round" stroke-linejoin="round" stroke-opacity="1" stroke-width="2.9999992847442627"/>
  </g>
</svg>
