<?xml version="1.0" ?>
<svg height="224" version="1.1" width="224" xmlns="http://www.w3.org/2000/svg">
  <defs/>
  <g>
    <path d="M 105.92731475830078 44.34634017944336 C 125.27247619628906 50.780723571777344 109.17949676513672 45.983158111572266 114.23096466064453 29.342391967773438" fill="none" stroke="rgb(0, 0, 0)" stroke-linecap="round" stroke-linejoin="round" stroke-opacity="1" stroke-width="2.199889659881592"/>
    <path d="M 111.13457489013672 144.605712890625 C 124.50927734375 219.93710327148438 112.19276428222656 172.71377563476562 113.86253356933594 202.18592834472656" fill="none" stroke="rgb(0, 0, 0)" stroke-linecap="round" stroke-linejoin="round" stroke-opacity="1" stroke-width="3.0"/>
    <path d="M 109.62541961669922 194.8063201904297 C 138.1813507080078 141.5604248046875 109.3093032836914 156.64309692382812 108.2883071899414 116.104736328125" fill="none" stroke="rgb(0, 0, 0)" stroke-linecap="round" stroke-linejoin="round" stroke-opacity="1" stroke-width="3.0"/>
    <path d="M 146.7486114501953 12.25053596496582 C 158.86083984375 36.62909698486328 165.16632080078125 28.31751823425293 124.93003845214844 65.22213745117188" fill="none" stroke="rgb(0, 0, 0)" stroke-linecap="round" stroke-linejoin="round" stroke-opacity="1" stroke-width="3.0"/>
    <path d="M 108.61628723144531 209.298583984375 C 91.52757263183594 181.4423370361328 133.06517028808594 226.5241241455078 109.71977233886719 212.92166137695312" fill="none" stroke="rgb(0, 0, 0)" stroke-linecap="round" stroke-linejoin="round" stroke-opacity="1" stroke-width="2.9995250701904297"/>
    <path d="M 155.05894470214844 108.6834487915039 C 117.51879119873047 112.42877960205078 142.74879455566406 112.88912963867188 127.95497131347656 107.37849426269531" fill="none" stroke="rgb(0, 0, 0)" stroke-linecap="round" stroke-linejoin="round" stroke-opacity="1" stroke-width="2.605250597000122"/>
    <path d="M 103.52821350097656 76.82232666015625 C 114.01903533935547 90.51506042480469 137.49002075195312 79.37456512451172 158.7825164794922 106.78214263916016" fill="none" stroke="rgb(0, 0, 0)" stroke-linecap="round" stroke-linejoin="round" stroke-opacity="1" stroke-width="3.0"/>
    <path d="M 123.84740447998047 46.26791000366211 C 136.4591064453125 38.57994842529297 123.85108184814453 14.928648948669434 113.06504821777344 38.118011474609375" fill="none" stroke="rgb(0, 0, 0)" stroke-linecap="round" stroke-linejoin="round" stroke-opacity="1" stroke-width="2.9999942779541016"/>
    <path d="M 109.2606430053711 114.65494537353516 C 134.76075744628906 111.57511901855469 74.79755401611328 118.62753295898438 64.53223419189453 103.89846801757812" fill="none" stroke="rgb(0, 0, 0)" stroke-linecap="round" stroke-linejoin="round" stroke-opacity="1" stroke-width="3.0"/>
    <path d="M 149.19529724121094 109.98135375976562 C 125.50106048583984 83.29443359375 123.16776275634766 93.00263214111328 123.67880249023438 64.63102722167969" fill="none" stroke="rgb(0, 0, 0)" stroke-linecap="round" stroke-linejoin="round" stroke-opacity="1" stroke-width="2.999584674835205"/>
    <path d="M 114.21296691894531 43.91773223876953 C 91.55744934082031 34.63749313354492 141.69091796875 25.140113830566406 121.15342712402344 43.8817024230957" fill="none" stroke="rgb(0, 0, 0)" stroke-linecap="round" stroke-linejoin="round" stroke-opacity="1" stroke-width="2.999940872192383"/>
    <path d="M 108.22410583496094 31.339027404785156 C 127.78713989257812 18.06801414489746 120.7147216796875 27.577831268310547 107.23118591308594 34.50578308105469" fill="none" stroke="rgb(0, 0, 0)" stroke-linecap="round" stroke-linejoin="round" stroke-opacity="1" stroke-width="2.9415743350982666"/>
    <path d="M 80.68330383300781 102.34992980957031 C 64.7830810546875 116.00064849853516 104.30309295654297 120.96208190917969 103.78899383544922 103.75897979736328" fill="none" stroke="rgb(0, 0, 0)" stroke-linecap="round" stroke-linejoin="round" stroke-opacity="1" stroke-width="3.0"/>
    <path d="M 57.93761444091797 98.60179138183594 C 92.47532653808594 70.51908111572266 71.331298828125 107.10676574707031 76.48368072509766 65.77568054199219" fill="none" stroke="rgb(0, 0, 0)" stroke-linecap="round" stroke-linejoin="round" stroke-opacity="1" stroke-width="3.0"/>
    <path d="M 125.430908203125 80.9464111328125 C 140.2421417236328 42.898658752441406 113.48656463623047 37.05162811279297 86.31416320800781 81.7526626586914" fill="none" stroke="rgb(0, 0, 0)" stroke-linecap="round" stroke-linejoin="round" stroke-opacity="1" stroke-width="3.0"/>
    <path d="M 99.68180084228516 61.056060791015625 C 65.08470153808594 60.93782424926758 67.96333312988281 74.82307434082031 103.95320129394531 52.666412353515625" fill="none" stroke="rgb(0, 0, 0)" stroke-linecap="round" stroke-linejoin="round" stroke-opacity="1" stroke-width="2.9666590690612793"/>
  </g>
</svg>
