<?xml version="1.0" ?>
<svg height="224" version="1.1" width="224" xmlns="http://www.w3.org/2000/svg">
  <defs/>
  <g>
    <path d="M 118.62249755859375 98.58235168457031 C 128.28453063964844 110.07852935791016 118.78561401367188 103.4223861694336 143.6631317138672 113.58275604248047" fill="none" stroke="rgb(0, 0, 0)" stroke-linecap="round" stroke-linejoin="round" stroke-opacity="1" stroke-width="2.999998092651367"/>
    <path d="M 116.59217834472656 109.88967895507812 C 95.91709899902344 114.19937896728516 103.63009643554688 118.11066436767578 114.45093536376953 114.75028991699219" fill="none" stroke="rgb(0, 0, 0)" stroke-linecap="round" stroke-linejoin="round" stroke-opacity="1" stroke-width="3.0"/>
    <path d="M 111.03738403320312 149.6729278564453 C 112.82861328125 110.4293441772461 108.44930267333984 135.22406005859375 110.84384155273438 164.6411895751953" fill="none" stroke="rgb(0, 0, 0)" stroke-linecap="round" stroke-linejoin="round" stroke-opacity="1" stroke-width="3.0"/>
    <path d="M 92.42549133300781 78.06461334228516 C 88.93054962158203 92.3740234375 83.56178283691406 87.01441192626953 97.06588745117188 85.24565124511719" fill="none" stroke="rgb(0, 0, 0)" stroke-linecap="round" stroke-linejoin="round" stroke-opacity="1" stroke-width="3.0"/>
    <path d="M 113.16390228271484 121.37747955322266 C 117.60505676269531 153.3279571533203 126.0493392944336 153.53033447265625 121.45237731933594 172.4979248046875" fill="none" stroke="rgb(0, 0, 0)" stroke-linecap="round" stroke-linejoin="round" stroke-opacity="1" stroke-width="3.0"/>
    <path d="M 116.4622573852539 45.998817443847656 C 102.49452209472656 45.00190353393555 115.27191162109375 42.929813385009766 128.34844970703125 39.46119689941406" fill="none" stroke="rgb(0, 0, 0)" stroke-linecap="round" stroke-linejoin="round" stroke-opacity="1" stroke-width="2.999995231628418"/>
    <path d="M 139.3419189453125 7.70834493637085 C 146.31118774414062 11.819275856018066 151.26646423339844 7.768815994262695 156.83349609375 33.374603271484375" fill="none" stroke="rgb(0, 0, 0)" stroke-linecap="round" stroke-linejoin="round" stroke-opacity="1" stroke-width="3.0"/>
    <path d="M 115.74687194824219 124.6100082397461 C 116.81139373779297 116.74947357177734 119.7344970703125 118.09043884277344 110.09857177734375 110.52831268310547" fill="none" stroke="rgb(0, 0, 0)" stroke-linecap="round" stroke-linejoin="round" stroke-opacity="1" stroke-width="2.999948501586914"/>
    <path d="M 105.16368103027344 131.85533142089844 C 110.5111083984375 160.0066680908203 112.5584487915039 158.58114624023438 114.76974487304688 115.05134582519531" fill="none" stroke="rgb(0, 0, 0)" stroke-linecap="round" stroke-linejoin="round" stroke-opacity="1" stroke-width="3.0"/>
    <path d="M 111.94076538085938 199.79519653320312 C 115.7715835571289 183.64947509765625 110.91757202148438 188.83447265625 109.95457458496094 157.01768493652344" fill="none" stroke="rgb(0, 0, 0)" stroke-linecap="round" stroke-linejoin="round" stroke-opacity="1" stroke-width="3.0"/>
    <path d="M 147.54454040527344 46.9351692199707 C 130.24948120117188 65.83602142333984 125.04864501953125 52.81852340698242 131.3319854736328 44.66638946533203" fill="none" stroke="rgb(0, 0, 0)" stroke-linecap="round" stroke-linejoin="round" stroke-opacity="1" stroke-width="3.0"/>
    <path d="M 159.85472106933594 108.09793853759766 C 151.21641540527344 94.09759521484375 133.35340881347656 91.78044128417969 130.47222900390625 95.65637969970703" fill="none" stroke="rgb(0, 0, 0)" stroke-linecap="round" stroke-linejoin="round" stroke-opacity="1" stroke-width="3.0"/>
    <path d="M 102.1460952758789 88.86075592041016 C 90.40554809570312 89.14484405517578 94.62158203125 88.1995849609375 70.75536346435547 101.9072036743164" fill="none" stroke="rgb(0, 0, 0)" stroke-linecap="round" stroke-linejoin="round" stroke-opacity="1" stroke-width="3.0"/>
    <path d="M 113.83497619628906 117.91845703125 C 103.80683898925781 119.63057708740234 99.73894500732422 115.29126739501953 108.9509048461914 114.2439193725586" fill="none" stroke="rgb(0, 0, 0)" stroke-linecap="round" stroke-linejoin="round" stroke-opacity="1" stroke-width="2.9999966621398926"/>
    <path d="M 122.82976531982422 105.72518157958984 C 142.98521423339844 104.6850357055664 142.56756591796875 94.8361587524414 121.2696304321289 86.66954040527344" fill="none" stroke="rgb(0, 0, 0)" stroke-linecap="round" stroke-linejoin="round" stroke-opacity="1" stroke-width="2.999999523162842"/>
    <path d="M 119.21662902832031 113.91886901855469 C 106.706787109375 108.56010437011719 111.1658706665039 105.17300415039062 111.38063049316406 142.94644165039062" fill="none" stroke="rgb(0, 0, 0)" stroke-linecap="round" stroke-linejoin="round" stroke-opacity="1" stroke-width="2.999555826187134"/>
    <path d="M 111.28340148925781 169.81101989746094 C 108.11865997314453 140.98826599121094 102.57134246826172 143.68280029296875 115.6417007446289 160.28367614746094" fill="none" stroke="rgb(0, 0, 0)" stroke-linecap="round" stroke-linejoin="round" stroke-opacity="1" stroke-width="2.76005220413208"/>
    <path d="M 87.14395904541016 67.73568725585938 C 110.08828735351562 89.10140228271484 84.13853454589844 80.36380004882812 82.78257751464844 73.53357696533203" fill="none" stroke="rgb(0, 0, 0)" stroke-linecap="round" stroke-linejoin="round" stroke-opacity="1" stroke-width="3.0"/>
    <path d="M 98.16543579101562 111.39696502685547 C 117.07125854492188 120.57798767089844 119.15990447998047 117.24396514892578 123.7938003540039 111.68391418457031" fill="none" stroke="rgb(0, 0, 0)" stroke-linecap="round" stroke-linejoin="round" stroke-opacity="1" stroke-width="3.0"/>
    <path d="M 131.5178680419922 37.439598083496094 C 120.08948516845703 21.086360931396484 133.426025390625 29.575071334838867 120.75778198242188 45.61270523071289" fill="none" stroke="rgb(0, 0, 0)" stroke-linecap="round" stroke-linejoin="round" stroke-opacity="1" stroke-width="3.0"/>
    <path d="M 80.39643096923828 64.73226165771484 C 101.55850219726562 53.52084732055664 101.80674743652344 61.44102096557617 96.73655700683594 57.950897216796875" fill="none" stroke="rgb(0, 0, 0)" stroke-linecap="round" stroke-linejoin="round" stroke-opacity="1" stroke-width="3.0"/>
    <path d="M 149.94239807128906 40.5418815612793 C 140.2037353515625 53.24717330932617 156.95338439941406 40.501914978027344 154.67706298828125 32.559444427490234" fill="none" stroke="rgb(0, 0, 0)" stroke-linecap="round" stroke-linejoin="round" stroke-opacity="1" stroke-width="3.0"/>
    <path d="M 126.09329223632812 85.70528411865234 C 116.76412963867188 81.91142272949219 126.7455062866211 76.84708404541016 116.48744201660156 69.97013092041016" fill="none" stroke="rgb(0, 0, 0)" stroke-linecap="round" stroke-linejoin="round" stroke-opacity="1" stroke-width="2.999999523162842"/>
    <path d="M 114.91930389404297 188.0150909423828 C 119.00746154785156 214.5384979248047 101.11266326904297 227.2132568359375 107.71820068359375 189.99737548828125" fill="none" stroke="rgb(0, 0, 0)" stroke-linecap="round" stroke-linejoin="round" stroke-opacity="1" stroke-width="3.0"/>
    <path d="M 117.39015197753906 38.23917770385742 C 142.04641723632812 29.678600311279297 114.83142852783203 64.68956756591797 131.95388793945312 54.728759765625" fill="none" stroke="rgb(0, 0, 0)" stroke-linecap="round" stroke-linejoin="round" stroke-opacity="1" stroke-width="3.0"/>
    <path d="M 144.00509643554688 48.890750885009766 C 134.8090057373047 52.4414176940918 136.58538818359375 47.5686149597168 124.34477996826172 73.1392593383789" fill="none" stroke="rgb(0, 0, 0)" stroke-linecap="round" stroke-linejoin="round" stroke-opacity="1" stroke-width="3.0"/>
    <path d="M 105.50564575195312 54.94873046875 C 79.2486572265625 76.324951171875 99.55908966064453 47.182464599609375 116.27600860595703 49.14789962768555" fill="none" stroke="rgb(0, 0, 0)" stroke-linecap="round" stroke-linejoin="round" stroke-opacity="1" stroke-width="3.0"/>
    <path d="M 137.1882781982422 95.85404968261719 C 119.83395385742188 107.73469543457031 130.8929901123047 109.23298645019531 111.70272064208984 113.83113098144531" fill="none" stroke="rgb(0, 0, 0)" stroke-linecap="round" stroke-linejoin="round" stroke-opacity="1" stroke-width="3.0"/>
    <path d="M 66.79865264892578 103.30269622802734 C 85.7201156616211 84.91700744628906 87.94209289550781 90.12913513183594 100.86187744140625 86.62091064453125" fill="none" stroke="rgb(0, 0, 0)" stroke-linecap="round" stroke-linejoin="round" stroke-opacity="1" stroke-width="3.0"/>
    <path d="M 141.4630584716797 48.67196273803711 C 130.4169464111328 55.007652282714844 94.3764419555664 50.22383117675781 133.6150360107422 54.35346221923828" fill="none" stroke="rgb(0, 0, 0)" stroke-linecap="round" stroke-linejoin="round" stroke-opacity="1" stroke-width="3.0"/>
  </g>
</svg>
