<?xml version="1.0" ?>
<svg height="224" version="1.1" width="224" xmlns="http://www.w3.org/2000/svg">
  <defs/>
  <g>
    <path d="M 122.12915802001953 39.5317497253418 C 103.61700439453125 52.98047637939453 115.86188507080078 27.43150520324707 127.57209014892578 29.70734977722168" fill="none" stroke="rgb(0, 0, 0)" stroke-linecap="round" stroke-linejoin="round" stroke-opacity="1" stroke-width="3.0"/>
    <path d="M 115.53817749023438 70.6468505859375 C 128.41566467285156 47.0500373840332 97.3673095703125 51.3659782409668 79.33305358886719 69.27889251708984" fill="none" stroke="rgb(0, 0, 0)" stroke-linecap="round" stroke-linejoin="round" stroke-opacity="1" stroke-width="3.0"/>
    <path d="M 144.30697631835938 48.24367141723633 C 164.1161346435547 25.300506591796875 160.90533447265625 40.256778717041016 143.13255310058594 8.820028305053711" fill="none" stroke="rgb(0, 0, 0)" stroke-linecap="round" stroke-linejoin="round" stroke-opacity="1" stroke-width="3.0"/>
    <path d="M 56.375030517578125 103.38378143310547 C 58.95899963378906 110.05712127685547 89.65087127685547 73.19546508789062 113.22837829589844 82.82817077636719" fill="none" stroke="rgb(0, 0, 0)" stroke-linecap="round" stroke-linejoin="round" stroke-opacity="1" stroke-width="2.979400396347046"/>
    <path d="M 123.61105346679688 166.83624267578125 C 111.59874725341797 237.63633728027344 105.9888916015625 167.56971740722656 113.17082214355469 211.82000732421875" fill="none" stroke="rgb(0, 0, 0)" stroke-linecap="round" stroke-linejoin="round" stroke-opacity="1" stroke-width="3.0"/>
    <path d="M 94.47055053710938 99.2697525024414 C 108.92325592041016 80.55274200439453 88.87040710449219 87.35320281982422 124.52591705322266 84.83821105957031" fill="none" stroke="rgb(0, 0, 0)" stroke-linecap="round" stroke-linejoin="round" stroke-opacity="1" stroke-width="3.0"/>
    <path d="M 108.7968978881836 204.83885192871094 C 107.59473419189453 161.4757843017578 127.10081481933594 235.51412963867188 106.07225036621094 208.74746704101562" fill="none" stroke="rgb(0, 0, 0)" stroke-linecap="round" stroke-linejoin="round" stroke-opacity="1" stroke-width="3.0"/>
    <path d="M 112.39646911621094 85.33434295654297 C 111.8753662109375 47.612892150878906 126.76580047607422 40.94206619262695 122.13760375976562 87.24765014648438" fill="none" stroke="rgb(0, 0, 0)" stroke-linecap="round" stroke-linejoin="round" stroke-opacity="1" stroke-width="2.9999148845672607"/>
    <path d="M 106.41020202636719 85.08084869384766 C 134.86099243164062 79.62403106689453 118.5739974975586 81.69660949707031 85.8707275390625 82.65491485595703" fill="none" stroke="rgb(0, 0, 0)" stroke-linecap="round" stroke-linejoin="round" stroke-opacity="1" stroke-width="2.999999523162842"/>
    <path d="M 128.66912841796875 45.40330505371094 C 130.37925720214844 20.20471954345703 105.96588134765625 24.572763442993164 107.33539581298828 36.839637756347656" fill="none" stroke="rgb(0, 0, 0)" stroke-linecap="round" stroke-linejoin="round" stroke-opacity="1" stroke-width="3.0"/>
    <path d="M 116.80148315429688 140.7369384765625 C 109.74195098876953 126.7757797241211 115.27478790283203 133.1587677001953 115.00502014160156 152.45779418945312" fill="none" stroke="rgb(0, 0, 0)" stroke-linecap="round" stroke-linejoin="round" stroke-opacity="1" stroke-width="2.9981982707977295"/>
    <path d="M 127.80606842041016 114.49768829345703 C 77.51806640625 68.23773193359375 129.631591796875 89.39904022216797 148.86524963378906 109.88194274902344" fill="none" stroke="rgb(0, 0, 0)" stroke-linecap="round" stroke-linejoin="round" stroke-opacity="1" stroke-width="3.0"/>
    <path d="M 114.83467102050781 157.9296417236328 C 112.60183715820312 129.9839630126953 100.8318862915039 130.68434143066406 114.13272857666016 153.05625915527344" fill="none" stroke="rgb(0, 0, 0)" stroke-linecap="round" stroke-linejoin="round" stroke-opacity="1" stroke-width="3.0"/>
    <path d="M 111.46774291992188 112.58649444580078 C 108.5945816040039 152.3536834716797 122.28034973144531 159.9988555908203 107.93389892578125 187.22059631347656" fill="none" stroke="rgb(0, 0, 0)" stroke-linecap="round" stroke-linejoin="round" stroke-opacity="1" stroke-width="2.9962613582611084"/>
    <path d="M 140.05548095703125 7.311354160308838 C 151.63853454589844 8.107148170471191 146.09344482421875 17.42584800720215 136.37632751464844 7.826674461364746" fill="none" stroke="rgb(0, 0, 0)" stroke-linecap="round" stroke-linejoin="round" stroke-opacity="1" stroke-width="2.999999523162842"/>
    <path d="M 127.88996887207031 51.355716705322266 C 76.09361267089844 52.58015441894531 88.35742950439453 89.40104675292969 102.75794219970703 50.84754943847656" fill="none" stroke="rgb(0, 0, 0)" stroke-linecap="round" stroke-linejoin="round" stroke-opacity="1" stroke-width="3.0"/>
    <path d="M 110.37345886230469 142.03652954101562 C 97.38047790527344 131.69586181640625 103.10972595214844 129.95889282226562 111.28551483154297 164.8995819091797" fill="none" stroke="rgb(0, 0, 0)" stroke-linecap="round" stroke-linejoin="round" stroke-opacity="1" stroke-width="2.9988648891448975"/>
    <path d="M 121.35673522949219 152.55628967285156 C 132.20208740234375 94.09534454345703 109.57200622558594 114.04447937011719 145.34921264648438 109.91130828857422" fill="none" stroke="rgb(0, 0, 0)" stroke-linecap="round" stroke-linejoin="round" stroke-opacity="1" stroke-width="3.0"/>
    <path d="M 126.39764404296875 56.2226676940918 C 147.37936401367188 45.28392791748047 157.2385711669922 39.24129104614258 132.56576538085938 57.96786880493164" fill="none" stroke="rgb(0, 0, 0)" stroke-linecap="round" stroke-linejoin="round" stroke-opacity="1" stroke-width="3.0"/>
    <path d="M 123.08150482177734 154.8692626953125 C 121.44662475585938 149.31114196777344 130.6072235107422 166.89517211914062 116.47557830810547 185.3572540283203" fill="none" stroke="rgb(0, 0, 0)" stroke-linecap="round" stroke-linejoin="round" stroke-opacity="1" stroke-width="3.0"/>
    <path d="M 114.99661254882812 47.478973388671875 C 125.79667663574219 50.73968505859375 126.72868347167969 22.775163650512695 115.19124603271484 31.202510833740234" fill="none" stroke="rgb(0, 0, 0)" stroke-linecap="round" stroke-linejoin="round" stroke-opacity="1" stroke-width="3.0"/>
    <path d="M 124.96874237060547 43.025150299072266 C 129.9810791015625 33.012325286865234 106.20584869384766 31.515092849731445 124.24170684814453 53.48134994506836" fill="none" stroke="rgb(0, 0, 0)" stroke-linecap="round" stroke-linejoin="round" stroke-opacity="1" stroke-width="3.0"/>
    <path d="M 115.79371643066406 71.9988784790039 C 121.567138671875 99.97796630859375 140.3512420654297 82.38014221191406 158.6681365966797 106.65365600585938" fill="none" stroke="rgb(0, 0, 0)" stroke-linecap="round" stroke-linejoin="round" stroke-opacity="1" stroke-width="3.0"/>
    <path d="M 95.59475708007812 109.15135192871094 C 95.72748565673828 114.8116683959961 54.122440338134766 109.33390808105469 55.77252960205078 105.6192855834961" fill="none" stroke="rgb(0, 0, 0)" stroke-linecap="round" stroke-linejoin="round" stroke-opacity="1" stroke-width="3.0"/>
    <path d="M 126.71737670898438 68.54766082763672 C 154.538818359375 41.79001998901367 165.95675659179688 36.56080627441406 151.26136779785156 14.310188293457031" fill="none" stroke="rgb(0, 0, 0)" stroke-linecap="round" stroke-linejoin="round" stroke-opacity="1" stroke-width="2.999999523162842"/>
    <path d="M 114.48783111572266 74.75655364990234 C 124.7033462524414 85.87438201904297 119.84489440917969 104.00687408447266 110.16873931884766 63.62900161743164" fill="none" stroke="rgb(0, 0, 0)" stroke-linecap="round" stroke-linejoin="round" stroke-opacity="1" stroke-width="2.9999871253967285"/>
    <path d="M 86.58753967285156 78.23666381835938 C 117.97821044921875 99.81717681884766 97.69035339355469 68.05301666259766 60.348243713378906 103.08602142333984" fill="none" stroke="rgb(0, 0, 0)" stroke-linecap="round" stroke-linejoin="round" stroke-opacity="1" stroke-width="2.9999992847442627"/>
  </g>
</svg>
