<?xml version="1.0" ?>
<svg height="224" version="1.1" width="224" xmlns="http://www.w3.org/2000/svg">
  <defs/>
  <g>
    <path d="M 113.82527160644531 72.6345443725586 C 127.53578186035156 45.34768295288086 99.61836242675781 52.90040969848633 81.93144226074219 69.05661010742188" fill="none" stroke="rgb(0, 0, 0)" stroke-linecap="round" stroke-linejoin="round" stroke-opacity="1" stroke-width="3.0"/>
    <path d="M 143.5286865234375 50.4973258972168 C 161.99899291992188 28.45176124572754 162.50547790527344 35.872074127197266 141.94898986816406 7.457013130187988" fill="none" stroke="rgb(0, 0, 0)" stroke-linecap="round" stroke-linejoin="round" stroke-opacity="1" stroke-width="3.0"/>
    <path d="M 121.34565734863281 167.8555908203125 C 118.79576110839844 241.45663452148438 113.86868286132812 162.65057373046875 110.20195007324219 213.92335510253906" fill="none" stroke="rgb(0, 0, 0)" stroke-linecap="round" stroke-linejoin="round" stroke-opacity="1" stroke-width="3.0"/>
    <path d="M 108.21736907958984 202.2244110107422 C 113.514892578125 162.44595336914062 124.5209732055664 225.59121704101562 105.39213562011719 214.80580139160156" fill="none" stroke="rgb(0, 0, 0)" stroke-linecap="round" stroke-linejoin="round" stroke-opacity="1" stroke-width="3.0"/>
    <path d="M 125.36871337890625 47.75142288208008 C 128.39767456054688 22.31029510498047 104.87860870361328 26.742891311645508 107.73884582519531 37.97202682495117" fill="none" stroke="rgb(0, 0, 0)" stroke-linecap="round" stroke-linejoin="round" stroke-opacity="1" stroke-width="3.0"/>
    <path d="M 128.02432250976562 115.3576889038086 C 76.09768676757812 60.304466247558594 123.2563247680664 90.83202362060547 152.1726531982422 109.52526092529297" fill="none" stroke="rgb(0, 0, 0)" stroke-linecap="round" stroke-linejoin="round" stroke-opacity="1" stroke-width="3.0"/>
    <path d="M 120.43858337402344 163.2919464111328 C 109.19989776611328 130.0331268310547 103.3733139038086 129.5561981201172 112.2188949584961 160.8583984375" fill="none" stroke="rgb(0, 0, 0)" stroke-linecap="round" stroke-linejoin="round" stroke-opacity="1" stroke-width="2.999910354614258"/>
    <path d="M 108.46061706542969 112.24083709716797 C 108.3684310913086 153.75975036621094 120.65250396728516 170.379638671875 109.80110168457031 185.30992126464844" fill="none" stroke="rgb(0, 0, 0)" stroke-linecap="round" stroke-linejoin="round" stroke-opacity="1" stroke-width="2.9995315074920654"/>
    <path d="M 140.59991455078125 13.859567642211914 C 152.4433135986328 4.164200782775879 151.13552856445312 24.362760543823242 137.91896057128906 8.327159881591797" fill="none" stroke="rgb(0, 0, 0)" stroke-linecap="round" stroke-linejoin="round" stroke-opacity="1" stroke-width="2.999999523162842"/>
    <path d="M 134.06057739257812 52.53657531738281 C 74.67559051513672 47.981204986572266 90.27023315429688 94.05178833007812 101.01499938964844 50.35013961791992" fill="none" stroke="rgb(0, 0, 0)" stroke-linecap="round" stroke-linejoin="round" stroke-opacity="1" stroke-width="2.9999992847442627"/>
    <path d="M 119.33743286132812 149.72821044921875 C 132.89926147460938 90.59400177001953 111.27339172363281 116.94854736328125 147.8013153076172 108.63906860351562" fill="none" stroke="rgb(0, 0, 0)" stroke-linecap="round" stroke-linejoin="round" stroke-opacity="1" stroke-width="3.0"/>
    <path d="M 127.15084075927734 61.840579986572266 C 146.0254364013672 42.63078689575195 159.68101501464844 39.30746078491211 128.02774047851562 64.88375091552734" fill="none" stroke="rgb(0, 0, 0)" stroke-linecap="round" stroke-linejoin="round" stroke-opacity="1" stroke-width="3.0"/>
    <path d="M 121.45177459716797 151.35614013671875 C 118.62503814697266 151.42422485351562 130.09805297851562 168.19952392578125 118.3593978881836 184.82606506347656" fill="none" stroke="rgb(0, 0, 0)" stroke-linecap="round" stroke-linejoin="round" stroke-opacity="1" stroke-width="2.9999964237213135"/>
    <path d="M 112.75886535644531 45.16309356689453 C 121.24024200439453 56.16603088378906 124.79530334472656 29.63789176940918 116.89362335205078 34.77803421020508" fill="none" stroke="rgb(0, 0, 0)" stroke-linecap="round" stroke-linejoin="round" stroke-opacity="1" stroke-width="3.0"/>
    <path d="M 121.6426010131836 49.604347229003906 C 127.2972183227539 35.403533935546875 103.92050170898438 33.41455078125 124.57103729248047 55.287437438964844" fill="none" stroke="rgb(0, 0, 0)" stroke-linecap="round" stroke-linejoin="round" stroke-opacity="1" stroke-width="3.0"/>
    <path d="M 110.98773193359375 65.581298828125 C 116.05525970458984 103.50940704345703 139.904296875 81.79540252685547 158.24903869628906 106.7195816040039" fill="none" stroke="rgb(0, 0, 0)" stroke-linecap="round" stroke-linejoin="round" stroke-opacity="1" stroke-width="3.0"/>
    <path d="M 96.35255432128906 105.7836685180664 C 100.14850616455078 116.22898864746094 51.65397262573242 108.93622589111328 53.54365539550781 107.09894561767578" fill="none" stroke="rgb(0, 0, 0)" stroke-linecap="round" stroke-linejoin="round" stroke-opacity="1" stroke-width="3.0"/>
    <path d="M 114.09383392333984 70.3164291381836 C 122.89462280273438 83.58790588378906 114.62670135498047 99.30242156982422 108.06151580810547 62.794403076171875" fill="none" stroke="rgb(0, 0, 0)" stroke-linecap="round" stroke-linejoin="round" stroke-opacity="1" stroke-width="2.999999523162842"/>
    <path d="M 85.13079071044922 80.47500610351562 C 120.05268096923828 99.17235565185547 99.84566497802734 70.43211364746094 59.40987777709961 101.44013977050781" fill="none" stroke="rgb(0, 0, 0)" stroke-linecap="round" stroke-linejoin="round" stroke-opacity="1" stroke-width="3.0"/>
  </g>
</svg>
