<?xml version="1.0" ?>
<svg height="224" version="1.1" width="224" xmlns="http://www.w3.org/2000/svg">
  <defs/>
  <g>
    <path d="M 112.52428436279297 138.61172485351562 C 125.78093719482422 223.16046142578125 114.58383178710938 172.77952575683594 114.58744812011719 204.9091033935547" fill="none" stroke="rgb(0, 0, 0)" stroke-linecap="round" stroke-linejoin="round" stroke-opacity="1" stroke-width="3.0"/>
    <path d="M 111.03419494628906 195.71873474121094 C 140.90965270996094 137.14305114746094 112.4587631225586 155.98733520507812 106.77738952636719 115.1682357788086" fill="none" stroke="rgb(0, 0, 0)" stroke-linecap="round" stroke-linejoin="round" stroke-opacity="1" stroke-width="2.9999306201934814"/>
    <path d="M 146.44833374023438 11.948468208312988 C 159.2265167236328 36.235740661621094 166.24081420898438 28.323678970336914 126.07725524902344 66.88349151611328" fill="none" stroke="rgb(0, 0, 0)" stroke-linecap="round" stroke-linejoin="round" stroke-opacity="1" stroke-width="3.0"/>
    <path d="M 108.5849838256836 211.8715057373047 C 91.21292114257812 184.63473510742188 132.33592224121094 227.05789184570312 108.74629211425781 212.3782501220703" fill="none" stroke="rgb(0, 0, 0)" stroke-linecap="round" stroke-linejoin="round" stroke-opacity="1" stroke-width="2.9964418411254883"/>
    <path d="M 89.2596435546875 99.44902038574219 C 119.88048553466797 61.24561309814453 118.36325073242188 70.57832336425781 107.9322509765625 98.14620971679688" fill="none" stroke="rgb(0, 0, 0)" stroke-linecap="round" stroke-linejoin="round" stroke-opacity="1" stroke-width="2.974999189376831"/>
    <path d="M 155.72891235351562 107.47463989257812 C 115.47898864746094 112.67131042480469 143.842529296875 114.00505828857422 127.80657196044922 99.60981750488281" fill="none" stroke="rgb(0, 0, 0)" stroke-linecap="round" stroke-linejoin="round" stroke-opacity="1" stroke-width="3.0"/>
    <path d="M 104.7762222290039 75.21974182128906 C 115.56242370605469 88.69022369384766 137.68167114257812 77.0989761352539 158.1900634765625 105.82928466796875" fill="none" stroke="rgb(0, 0, 0)" stroke-linecap="round" stroke-linejoin="round" stroke-opacity="1" stroke-width="3.0"/>
    <path d="M 119.80633544921875 46.99463653564453 C 134.65234375 39.0197868347168 118.74016571044922 14.347945213317871 108.33708190917969 39.22173309326172" fill="none" stroke="rgb(0, 0, 0)" stroke-linecap="round" stroke-linejoin="round" stroke-opacity="1" stroke-width="2.9981884956359863"/>
    <path d="M 108.45465850830078 111.38844299316406 C 132.3941192626953 109.95075225830078 74.36125183105469 118.95252990722656 62.98305892944336 102.2292709350586" fill="none" stroke="rgb(0, 0, 0)" stroke-linecap="round" stroke-linejoin="round" stroke-opacity="1" stroke-width="3.0"/>
    <path d="M 111.62543487548828 46.26752471923828 C 88.57584381103516 27.528846740722656 137.87489318847656 29.52254295349121 120.02074432373047 40.349327087402344" fill="none" stroke="rgb(0, 0, 0)" stroke-linecap="round" stroke-linejoin="round" stroke-opacity="1" stroke-width="3.0"/>
    <path d="M 57.88347244262695 97.78804016113281 C 88.99285888671875 71.7674331665039 71.4007797241211 109.87284851074219 75.8331069946289 65.15641021728516" fill="none" stroke="rgb(0, 0, 0)" stroke-linecap="round" stroke-linejoin="round" stroke-opacity="1" stroke-width="2.9999992847442627"/>
    <path d="M 125.66496276855469 80.49081420898438 C 139.32125854492188 43.92021942138672 113.09015655517578 36.009803771972656 82.84248352050781 85.32138061523438" fill="none" stroke="rgb(0, 0, 0)" stroke-linecap="round" stroke-linejoin="round" stroke-opacity="1" stroke-width="3.0"/>
    <path d="M 98.99081420898438 61.36673355102539 C 62.358699798583984 58.7244758605957 68.21315002441406 76.41470336914062 101.92327880859375 53.30706787109375" fill="none" stroke="rgb(0, 0, 0)" stroke-linecap="round" stroke-linejoin="round" stroke-opacity="1" stroke-width="2.9999964237213135"/>
  </g>
</svg>
