<?xml version="1.0" ?>
<svg height="224" version="1.1" width="224" xmlns="http://www.w3.org/2000/svg">
  <defs/>
  <g>
    <path d="M 109.19989776611328 147.39804077148438 C 112.35135650634766 111.9293441772461 108.06803894042969 136.9257049560547 110.53988647460938 161.03067016601562" fill="none" stroke="rgb(0, 0, 0)" stroke-linecap="round" stroke-linejoin="round" stroke-opacity="1" stroke-width="2.9999895095825195"/>
    <path d="M 79.43317413330078 91.55278015136719 C 86.9907455444336 89.6985855102539 87.19966888427734 84.0835952758789 100.10002136230469 84.3841552734375" fill="none" stroke="rgb(0, 0, 0)" stroke-linecap="round" stroke-linejoin="round" stroke-opacity="1" stroke-width="2.9999990463256836"/>
    <path d="M 114.75694274902344 123.69690704345703 C 116.73845672607422 154.32669067382812 127.1163101196289 154.49501037597656 121.31843566894531 170.28689575195312" fill="none" stroke="rgb(0, 0, 0)" stroke-linecap="round" stroke-linejoin="round" stroke-opacity="1" stroke-width="3.0"/>
    <path d="M 139.23867797851562 9.18558120727539 C 144.74737548828125 13.408117294311523 149.87408447265625 10.170833587646484 157.5348663330078 34.153587341308594" fill="none" stroke="rgb(0, 0, 0)" stroke-linecap="round" stroke-linejoin="round" stroke-opacity="1" stroke-width="3.0"/>
    <path d="M 113.20098876953125 124.7577133178711 C 112.85022735595703 114.79850769042969 117.9068832397461 118.67700958251953 110.74044799804688 111.02798461914062" fill="none" stroke="rgb(0, 0, 0)" stroke-linecap="round" stroke-linejoin="round" stroke-opacity="1" stroke-width="2.986767292022705"/>
    <path d="M 107.94525146484375 133.603515625 C 110.35064697265625 155.7229766845703 109.71253204345703 154.6141815185547 109.04535675048828 115.61522674560547" fill="none" stroke="rgb(0, 0, 0)" stroke-linecap="round" stroke-linejoin="round" stroke-opacity="1" stroke-width="3.0"/>
    <path d="M 112.21397399902344 199.73806762695312 C 116.4915542602539 184.92633056640625 112.10321044921875 190.081298828125 110.73633575439453 157.4158935546875" fill="none" stroke="rgb(0, 0, 0)" stroke-linecap="round" stroke-linejoin="round" stroke-opacity="1" stroke-width="3.0"/>
    <path d="M 148.72731018066406 48.126583099365234 C 136.86471557617188 62.39728546142578 130.3590545654297 51.599647521972656 131.1457977294922 44.14927291870117" fill="none" stroke="rgb(0, 0, 0)" stroke-linecap="round" stroke-linejoin="round" stroke-opacity="1" stroke-width="3.0"/>
    <path d="M 159.43316650390625 106.4247055053711 C 151.40614318847656 93.93391418457031 132.7649383544922 92.91221618652344 129.66275024414062 88.32479095458984" fill="none" stroke="rgb(0, 0, 0)" stroke-linecap="round" stroke-linejoin="round" stroke-opacity="1" stroke-width="3.0"/>
    <path d="M 98.32869720458984 86.68206024169922 C 91.92110443115234 88.29338836669922 93.33930969238281 83.08992004394531 68.98051452636719 102.05352783203125" fill="none" stroke="rgb(0, 0, 0)" stroke-linecap="round" stroke-linejoin="round" stroke-opacity="1" stroke-width="2.9997825622558594"/>
    <path d="M 114.59349822998047 117.70372772216797 C 103.42692565917969 120.46833801269531 99.9935073852539 114.8047103881836 108.66206359863281 112.29920196533203" fill="none" stroke="rgb(0, 0, 0)" stroke-linecap="round" stroke-linejoin="round" stroke-opacity="1" stroke-width="2.9999680519104004"/>
    <path d="M 115.4150161743164 109.6458969116211 C 143.4015655517578 108.0453109741211 138.68597412109375 98.66508483886719 121.0809326171875 84.50045776367188" fill="none" stroke="rgb(0, 0, 0)" stroke-linecap="round" stroke-linejoin="round" stroke-opacity="1" stroke-width="3.0"/>
    <path d="M 85.30384063720703 64.05659484863281 C 106.57259368896484 88.99371337890625 85.96221923828125 77.92326354980469 86.47137451171875 71.5787353515625" fill="none" stroke="rgb(0, 0, 0)" stroke-linecap="round" stroke-linejoin="round" stroke-opacity="1" stroke-width="3.0"/>
    <path d="M 97.81898498535156 110.27252197265625 C 114.98690032958984 119.08702087402344 116.67268371582031 114.26241302490234 119.92524719238281 108.06200408935547" fill="none" stroke="rgb(0, 0, 0)" stroke-linecap="round" stroke-linejoin="round" stroke-opacity="1" stroke-width="3.0"/>
    <path d="M 124.02909851074219 39.60593795776367 C 119.10516357421875 23.249401092529297 131.4359130859375 29.631296157836914 113.66008758544922 40.69198989868164" fill="none" stroke="rgb(0, 0, 0)" stroke-linecap="round" stroke-linejoin="round" stroke-opacity="1" stroke-width="3.0"/>
    <path d="M 87.54800415039062 63.92774200439453 C 102.90448760986328 56.355281829833984 102.20301818847656 61.166954040527344 95.84072875976562 57.78092575073242" fill="none" stroke="rgb(0, 0, 0)" stroke-linecap="round" stroke-linejoin="round" stroke-opacity="1" stroke-width="2.9999992847442627"/>
    <path d="M 148.30252075195312 37.802276611328125 C 144.36502075195312 51.92033767700195 155.76348876953125 44.80329513549805 154.37904357910156 30.072423934936523" fill="none" stroke="rgb(0, 0, 0)" stroke-linecap="round" stroke-linejoin="round" stroke-opacity="1" stroke-width="3.0"/>
    <path d="M 111.58000183105469 191.3263397216797 C 119.2076416015625 210.84373474121094 102.55868530273438 221.01943969726562 115.45462799072266 190.50634765625" fill="none" stroke="rgb(0, 0, 0)" stroke-linecap="round" stroke-linejoin="round" stroke-opacity="1" stroke-width="3.0"/>
    <path d="M 123.57439422607422 45.272613525390625 C 140.66224670410156 30.624897003173828 115.7618179321289 62.06694030761719 134.10342407226562 56.550201416015625" fill="none" stroke="rgb(0, 0, 0)" stroke-linecap="round" stroke-linejoin="round" stroke-opacity="1" stroke-width="3.0"/>
    <path d="M 138.56149291992188 52.03165054321289 C 131.5006866455078 49.07680892944336 132.4097442626953 45.81035232543945 127.01018524169922 72.28788757324219" fill="none" stroke="rgb(0, 0, 0)" stroke-linecap="round" stroke-linejoin="round" stroke-opacity="1" stroke-width="3.0"/>
    <path d="M 105.59101867675781 51.45705795288086 C 80.02007293701172 74.67169189453125 98.94239807128906 44.911376953125 114.86023712158203 50.59823226928711" fill="none" stroke="rgb(0, 0, 0)" stroke-linecap="round" stroke-linejoin="round" stroke-opacity="1" stroke-width="3.0"/>
    <path d="M 140.42581176757812 98.90419006347656 C 118.02635192871094 107.40911865234375 132.11489868164062 109.6795654296875 110.82738494873047 111.87205505371094" fill="none" stroke="rgb(0, 0, 0)" stroke-linecap="round" stroke-linejoin="round" stroke-opacity="1" stroke-width="2.9999985694885254"/>
    <path d="M 140.8062744140625 47.420997619628906 C 131.4554901123047 54.83358383178711 98.6642074584961 50.45964050292969 130.9616241455078 55.536624908447266" fill="none" stroke="rgb(0, 0, 0)" stroke-linecap="round" stroke-linejoin="round" stroke-opacity="1" stroke-width="3.0"/>
  </g>
</svg>
