<?xml version="1.0" ?>
<svg height="224" version="1.1" width="224" xmlns="http://www.w3.org/2000/svg">
  <defs/>
  <g>
    <path d="M 112.7412338256836 75.55956268310547 C 129.866455078125 44.258995056152344 100.22686004638672 52.7686767578125 82.44185638427734 68.44493103027344" fill="none" stroke="rgb(0, 0, 0)" stroke-linecap="round" stroke-linejoin="round" stroke-opacity="1" stroke-width="2.9999709129333496"/>
    <path d="M 134.57737731933594 56.88326644897461 C 164.6095428466797 31.814817428588867 164.67784118652344 37.46995162963867 141.46876525878906 7.9206461906433105" fill="none" stroke="rgb(0, 0, 0)" stroke-linecap="round" stroke-linejoin="round" stroke-opacity="1" stroke-width="3.0"/>
    <path d="M 119.47195434570312 162.20675659179688 C 123.42822265625 248.4561767578125 126.37213134765625 162.3263397216797 114.00955200195312 213.31849670410156" fill="none" stroke="rgb(0, 0, 0)" stroke-linecap="round" stroke-linejoin="round" stroke-opacity="1" stroke-width="3.0"/>
    <path d="M 112.29592895507812 206.6425018310547 C 122.6609878540039 163.62985229492188 125.67625427246094 221.5457763671875 107.10022735595703 216.19830322265625" fill="none" stroke="rgb(0, 0, 0)" stroke-linecap="round" stroke-linejoin="round" stroke-opacity="1" stroke-width="3.0"/>
    <path d="M 124.09573364257812 46.48701858520508 C 125.83407592773438 23.368492126464844 104.0496826171875 28.857746124267578 106.61719512939453 39.68885040283203" fill="none" stroke="rgb(0, 0, 0)" stroke-linecap="round" stroke-linejoin="round" stroke-opacity="1" stroke-width="3.0"/>
    <path d="M 128.7803192138672 114.5020523071289 C 84.28515625 59.71281814575195 121.26458740234375 96.02814483642578 154.36167907714844 109.67586517333984" fill="none" stroke="rgb(0, 0, 0)" stroke-linecap="round" stroke-linejoin="round" stroke-opacity="1" stroke-width="3.0"/>
    <path d="M 103.90022277832031 112.3603744506836 C 100.4720687866211 160.77438354492188 126.36022186279297 178.41128540039062 112.95309448242188 191.49911499023438" fill="none" stroke="rgb(0, 0, 0)" stroke-linecap="round" stroke-linejoin="round" stroke-opacity="1" stroke-width="3.0"/>
    <path d="M 133.24253845214844 53.22008514404297 C 75.29786682128906 44.57976150512695 92.36363220214844 100.85652923583984 99.79925537109375 51.50538635253906" fill="none" stroke="rgb(0, 0, 0)" stroke-linecap="round" stroke-linejoin="round" stroke-opacity="1" stroke-width="3.0"/>
    <path d="M 118.91291809082031 154.4253692626953 C 133.1181182861328 84.7054214477539 111.88683319091797 117.037841796875 150.3079071044922 108.0005111694336" fill="none" stroke="rgb(0, 0, 0)" stroke-linecap="round" stroke-linejoin="round" stroke-opacity="1" stroke-width="2.999990701675415"/>
    <path d="M 113.22755432128906 45.158321380615234 C 116.73048400878906 57.880916595458984 127.44815826416016 31.714630126953125 114.11888885498047 34.02499008178711" fill="none" stroke="rgb(0, 0, 0)" stroke-linecap="round" stroke-linejoin="round" stroke-opacity="1" stroke-width="2.9999990463256836"/>
    <path d="M 120.98597717285156 50.569969177246094 C 125.1633529663086 34.1767692565918 99.26061248779297 30.665597915649414 129.86434936523438 58.113224029541016" fill="none" stroke="rgb(0, 0, 0)" stroke-linecap="round" stroke-linejoin="round" stroke-opacity="1" stroke-width="3.0"/>
    <path d="M 108.96710205078125 71.10540771484375 C 118.88858032226562 102.30351257324219 144.32388305664062 84.24656677246094 158.45240783691406 107.6943359375" fill="none" stroke="rgb(0, 0, 0)" stroke-linecap="round" stroke-linejoin="round" stroke-opacity="1" stroke-width="3.0"/>
    <path d="M 95.3940658569336 102.68008422851562 C 90.32662963867188 116.81578063964844 54.45730209350586 106.62661743164062 57.353851318359375 108.57097625732422" fill="none" stroke="rgb(0, 0, 0)" stroke-linecap="round" stroke-linejoin="round" stroke-opacity="1" stroke-width="3.0"/>
    <path d="M 113.45326232910156 59.441925048828125 C 119.07611846923828 85.16499328613281 119.63968658447266 94.42707824707031 111.019287109375 62.01753616333008" fill="none" stroke="rgb(0, 0, 0)" stroke-linecap="round" stroke-linejoin="round" stroke-opacity="1" stroke-width="2.9962146282196045"/>
    <path d="M 85.92916107177734 80.3945083618164 C 120.78971862792969 102.48417663574219 108.44174194335938 67.23970794677734 59.03842544555664 101.75619506835938" fill="none" stroke="rgb(0, 0, 0)" stroke-linecap="round" stroke-linejoin="round" stroke-opacity="1" stroke-width="3.0"/>
  </g>
</svg>
