<?xml version="1.0" ?>
<svg height="224" version="1.1" width="224" xmlns="http://www.w3.org/2000/svg">
  <defs/>
  <g>
    <path d="M 104.51177978515625 128.7552490234375 C 127.72489166259766 232.57080078125 122.47575378417969 197.57899475097656 107.24469757080078 216.695068359375" fill="none" stroke="rgb(0, 0, 0)" stroke-linecap="round" stroke-linejoin="round" stroke-opacity="1" stroke-width="3.0"/>
    <path d="M 110.89646911621094 205.75845336914062 C 139.00770568847656 122.98857116699219 110.54313659667969 159.41580200195312 100.09044647216797 112.1067123413086" fill="none" stroke="rgb(0, 0, 0)" stroke-linecap="round" stroke-linejoin="round" stroke-opacity="1" stroke-width="3.0"/>
    <path d="M 147.4720916748047 7.274287223815918 C 159.17770385742188 34.3643798828125 170.7553253173828 21.42178726196289 120.77237701416016 70.14778137207031" fill="none" stroke="rgb(0, 0, 0)" stroke-linecap="round" stroke-linejoin="round" stroke-opacity="1" stroke-width="3.0"/>
    <path d="M 101.55963134765625 61.006282806396484 C 97.76525115966797 92.4535903930664 135.184814453125 72.11555480957031 158.18272399902344 103.6036148071289" fill="none" stroke="rgb(0, 0, 0)" stroke-linecap="round" stroke-linejoin="round" stroke-opacity="1" stroke-width="3.0"/>
    <path d="M 118.1864242553711 47.307472229003906 C 135.18922424316406 34.817840576171875 110.52356719970703 14.055651664733887 104.35935974121094 39.62030792236328" fill="none" stroke="rgb(0, 0, 0)" stroke-linecap="round" stroke-linejoin="round" stroke-opacity="1" stroke-width="2.999999523162842"/>
    <path d="M 101.29063415527344 115.50293731689453 C 136.59915161132812 108.08060455322266 68.94035339355469 118.82586669921875 57.69451904296875 102.6122055053711" fill="none" stroke="rgb(0, 0, 0)" stroke-linecap="round" stroke-linejoin="round" stroke-opacity="1" stroke-width="3.0"/>
    <path d="M 107.17009735107422 48.07489013671875 C 80.7751693725586 23.136837005615234 136.5240478515625 30.0767765045166 117.04856872558594 40.74583053588867" fill="none" stroke="rgb(0, 0, 0)" stroke-linecap="round" stroke-linejoin="round" stroke-opacity="1" stroke-width="2.999932289123535"/>
    <path d="M 83.01746368408203 97.71819305419922 C 58.34088897705078 117.52164459228516 102.39595794677734 123.6255874633789 102.91522979736328 98.38019561767578" fill="none" stroke="rgb(0, 0, 0)" stroke-linecap="round" stroke-linejoin="round" stroke-opacity="1" stroke-width="2.8860106468200684"/>
    <path d="M 127.03545379638672 84.39601135253906 C 141.72195434570312 41.36464309692383 116.45244598388672 36.320709228515625 67.28140258789062 90.85530853271484" fill="none" stroke="rgb(0, 0, 0)" stroke-linecap="round" stroke-linejoin="round" stroke-opacity="1" stroke-width="3.0"/>
    <path d="M 112.32177734375 66.35367584228516 C 67.96224975585938 55.5477409362793 70.45462799072266 76.9141616821289 107.76253509521484 51.19363784790039" fill="none" stroke="rgb(0, 0, 0)" stroke-linecap="round" stroke-linejoin="round" stroke-opacity="1" stroke-width="2.9703593254089355"/>
  </g>
</svg>
