<?xml version="1.0" ?>
<svg height="224" version="1.1" width="224" xmlns="http://www.w3.org/2000/svg">
  <defs/>
  <g>
    <path d="M 138.61949157714844 9.05590534210205 C 144.79466247558594 11.431930541992188 151.28793334960938 7.290560722351074 157.1125030517578 32.98843765258789" fill="none" stroke="rgb(0, 0, 0)" stroke-linecap="round" stroke-linejoin="round" stroke-opacity="1" stroke-width="3.0"/>
    <path d="M 105.0755844116211 120.17218017578125 C 111.19879150390625 113.97767639160156 124.14595031738281 117.48310852050781 102.98275756835938 110.8172607421875" fill="none" stroke="rgb(0, 0, 0)" stroke-linecap="round" stroke-linejoin="round" stroke-opacity="1" stroke-width="2.9999191761016846"/>
    <path d="M 110.07052612304688 127.76251983642578 C 113.60015869140625 160.96328735351562 116.02581787109375 161.41624450683594 116.11980438232422 111.63935852050781" fill="none" stroke="rgb(0, 0, 0)" stroke-linecap="round" stroke-linejoin="round" stroke-opacity="1" stroke-width="3.0"/>
    <path d="M 114.44678497314453 198.15321350097656 C 120.27523803710938 185.0698699951172 107.84564971923828 191.6712646484375 114.78275299072266 144.229736328125" fill="none" stroke="rgb(0, 0, 0)" stroke-linecap="round" stroke-linejoin="round" stroke-opacity="1" stroke-width="3.0"/>
    <path d="M 159.1125030517578 106.26853942871094 C 153.3619842529297 93.92916870117188 132.00344848632812 95.31023406982422 124.24402618408203 85.14604949951172" fill="none" stroke="rgb(0, 0, 0)" stroke-linecap="round" stroke-linejoin="round" stroke-opacity="1" stroke-width="3.0"/>
    <path d="M 112.65513610839844 119.38265991210938 C 106.35585021972656 125.72534942626953 98.1895980834961 110.88414001464844 109.71199798583984 116.47647857666016" fill="none" stroke="rgb(0, 0, 0)" stroke-linecap="round" stroke-linejoin="round" stroke-opacity="1" stroke-width="2.812553882598877"/>
    <path d="M 113.20800018310547 111.728515625 C 155.78305053710938 105.81086730957031 143.02859497070312 111.72328186035156 120.48410034179688 85.12079620361328" fill="none" stroke="rgb(0, 0, 0)" stroke-linecap="round" stroke-linejoin="round" stroke-opacity="1" stroke-width="3.0"/>
    <path d="M 84.98296356201172 63.79778289794922 C 106.88992309570312 87.2211685180664 82.48141479492188 75.06453704833984 79.28972625732422 67.25194549560547" fill="none" stroke="rgb(0, 0, 0)" stroke-linecap="round" stroke-linejoin="round" stroke-opacity="1" stroke-width="3.0"/>
    <path d="M 90.72289276123047 108.969482421875 C 110.83423614501953 116.09040069580078 112.49440002441406 107.97636413574219 120.11279296875 108.5274658203125" fill="none" stroke="rgb(0, 0, 0)" stroke-linecap="round" stroke-linejoin="round" stroke-opacity="1" stroke-width="3.0"/>
    <path d="M 131.9344024658203 39.41566467285156 C 127.79597473144531 22.16267967224121 124.38436889648438 26.36294937133789 112.46849822998047 37.5672721862793" fill="none" stroke="rgb(0, 0, 0)" stroke-linecap="round" stroke-linejoin="round" stroke-opacity="1" stroke-width="3.0"/>
    <path d="M 152.53887939453125 36.50119400024414 C 137.7506103515625 54.4721794128418 153.35679626464844 45.193817138671875 157.11080932617188 29.96785545349121" fill="none" stroke="rgb(0, 0, 0)" stroke-linecap="round" stroke-linejoin="round" stroke-opacity="1" stroke-width="3.0"/>
    <path d="M 111.04033660888672 192.54396057128906 C 118.0981216430664 216.62132263183594 104.81765747070312 228.71429443359375 113.36009979248047 187.4438018798828" fill="none" stroke="rgb(0, 0, 0)" stroke-linecap="round" stroke-linejoin="round" stroke-opacity="1" stroke-width="3.0"/>
    <path d="M 121.47014617919922 42.81377410888672 C 141.317138671875 24.704607009887695 113.84489440917969 58.451904296875 128.28411865234375 50.85619354248047" fill="none" stroke="rgb(0, 0, 0)" stroke-linecap="round" stroke-linejoin="round" stroke-opacity="1" stroke-width="3.0"/>
    <path d="M 139.2664794921875 54.2300910949707 C 132.1025848388672 55.678489685058594 134.218994140625 49.743927001953125 124.0592041015625 75.35124206542969" fill="none" stroke="rgb(0, 0, 0)" stroke-linecap="round" stroke-linejoin="round" stroke-opacity="1" stroke-width="3.0"/>
    <path d="M 101.38792419433594 56.005592346191406 C 72.52603149414062 78.85669708251953 94.61719512939453 46.409427642822266 116.14527130126953 51.264869689941406" fill="none" stroke="rgb(0, 0, 0)" stroke-linecap="round" stroke-linejoin="round" stroke-opacity="1" stroke-width="3.0"/>
    <path d="M 145.92466735839844 45.267635345458984 C 140.358642578125 58.789329528808594 99.26285552978516 49.842437744140625 137.22535705566406 57.30049133300781" fill="none" stroke="rgb(0, 0, 0)" stroke-linecap="round" stroke-linejoin="round" stroke-opacity="1" stroke-width="3.0"/>
  </g>
</svg>
