<?xml version="1.0" ?>
<svg height="224" version="1.1" width="224" xmlns="http://www.w3.org/2000/svg">
  <defs/>
  <g>
    <path d="M 108.60043334960938 124.99227142333984 C 127.2059555053711 232.62960815429688 115.5145492553711 202.2241973876953 107.23036193847656 213.90383911132812" fill="none" stroke="rgb(0, 0, 0)" stroke-linecap="round" stroke-linejoin="round" stroke-opacity="1" stroke-width="3.0"/>
    <path d="M 113.2094955444336 201.34170532226562 C 137.12017822265625 121.82234954833984 112.1280746459961 185.48739624023438 96.95542907714844 115.09525299072266" fill="none" stroke="rgb(0, 0, 0)" stroke-linecap="round" stroke-linejoin="round" stroke-opacity="1" stroke-width="2.9999303817749023"/>
    <path d="M 138.8385009765625 8.820980072021484 C 156.60305786132812 26.586219787597656 173.38084411621094 21.96953582763672 126.76173400878906 65.10309600830078" fill="none" stroke="rgb(0, 0, 0)" stroke-linecap="round" stroke-linejoin="round" stroke-opacity="1" stroke-width="3.0"/>
    <path d="M 84.57551574707031 103.10236358642578 C 121.87647247314453 62.32231521606445 115.38330078125 70.34376525878906 104.54862213134766 96.92383575439453" fill="none" stroke="rgb(0, 0, 0)" stroke-linecap="round" stroke-linejoin="round" stroke-opacity="1" stroke-width="2.5550763607025146"/>
    <path d="M 156.62620544433594 105.17704772949219 C 72.55685424804688 115.05308532714844 152.46502685546875 117.18836975097656 108.81333923339844 106.96214294433594" fill="none" stroke="rgb(0, 0, 0)" stroke-linecap="round" stroke-linejoin="round" stroke-opacity="1" stroke-width="3.0"/>
    <path d="M 106.52005767822266 54.92771530151367 C 103.46833801269531 101.16268157958984 125.6602554321289 55.722755432128906 158.6943817138672 104.34954071044922" fill="none" stroke="rgb(0, 0, 0)" stroke-linecap="round" stroke-linejoin="round" stroke-opacity="1" stroke-width="3.0"/>
    <path d="M 100.79407501220703 56.11473846435547 C 136.25421142578125 60.36700439453125 104.82704162597656 6.747143745422363 95.28065490722656 39.87057876586914" fill="none" stroke="rgb(0, 0, 0)" stroke-linecap="round" stroke-linejoin="round" stroke-opacity="1" stroke-width="3.0"/>
    <path d="M 82.71024322509766 116.5522689819336 C 141.62884521484375 109.26712036132812 65.56967163085938 119.43128967285156 55.68413543701172 103.91859436035156" fill="none" stroke="rgb(0, 0, 0)" stroke-linecap="round" stroke-linejoin="round" stroke-opacity="1" stroke-width="3.0"/>
    <path d="M 95.46485900878906 46.00347900390625 C 77.45675659179688 12.223221778869629 131.4753875732422 41.38639450073242 107.79191589355469 42.61442565917969" fill="none" stroke="rgb(0, 0, 0)" stroke-linecap="round" stroke-linejoin="round" stroke-opacity="1" stroke-width="3.0"/>
    <path d="M 125.98568725585938 82.53807067871094 C 146.6658172607422 13.874457359313965 139.81141662597656 40.41250991821289 63.59828567504883 102.33169555664062" fill="none" stroke="rgb(0, 0, 0)" stroke-linecap="round" stroke-linejoin="round" stroke-opacity="1" stroke-width="3.0"/>
  </g>
</svg>
