<?xml version="1.0" ?>
<svg height="224" version="1.1" width="224" xmlns="http://www.w3.org/2000/svg">
  <defs/>
  <g>
    <path d="M 139.71954345703125 8.516226768493652 C 144.20541381835938 11.791424751281738 152.69821166992188 8.05402946472168 156.62164306640625 32.215599060058594" fill="none" stroke="rgb(0, 0, 0)" stroke-linecap="round" stroke-linejoin="round" stroke-opacity="1" stroke-width="3.0"/>
    <path d="M 113.03411865234375 130.18455505371094 C 113.11193084716797 157.15640258789062 116.74262237548828 156.1693572998047 121.16008758544922 112.66519165039062" fill="none" stroke="rgb(0, 0, 0)" stroke-linecap="round" stroke-linejoin="round" stroke-opacity="1" stroke-width="3.0"/>
    <path d="M 112.61758422851562 198.88865661621094 C 118.81352996826172 184.6765899658203 110.0678939819336 192.27304077148438 116.68818664550781 144.95697021484375" fill="none" stroke="rgb(0, 0, 0)" stroke-linecap="round" stroke-linejoin="round" stroke-opacity="1" stroke-width="3.0"/>
    <path d="M 158.8124542236328 106.8394546508789 C 153.1408233642578 93.78443908691406 132.67025756835938 94.44344329833984 124.98113250732422 84.17372131347656" fill="none" stroke="rgb(0, 0, 0)" stroke-linecap="round" stroke-linejoin="round" stroke-opacity="1" stroke-width="3.0"/>
    <path d="M 112.25082397460938 111.26907348632812 C 153.38002014160156 103.83870697021484 140.4275665283203 114.32020568847656 119.39387512207031 89.67121887207031" fill="none" stroke="rgb(0, 0, 0)" stroke-linecap="round" stroke-linejoin="round" stroke-opacity="1" stroke-width="3.0"/>
    <path d="M 85.1276626586914 64.99654388427734 C 106.18933868408203 87.5725326538086 83.96246337890625 76.13224792480469 79.81405639648438 67.2196044921875" fill="none" stroke="rgb(0, 0, 0)" stroke-linecap="round" stroke-linejoin="round" stroke-opacity="1" stroke-width="3.0"/>
    <path d="M 98.05168151855469 107.93672943115234 C 109.54525756835938 114.31043243408203 111.67019653320312 105.95589447021484 119.68788146972656 108.10041046142578" fill="none" stroke="rgb(0, 0, 0)" stroke-linecap="round" stroke-linejoin="round" stroke-opacity="1" stroke-width="3.0"/>
    <path d="M 134.0709991455078 36.64659881591797 C 128.768310546875 20.0260009765625 128.4516143798828 26.661561965942383 112.54967498779297 38.1129150390625" fill="none" stroke="rgb(0, 0, 0)" stroke-linecap="round" stroke-linejoin="round" stroke-opacity="1" stroke-width="3.0"/>
    <path d="M 154.0680694580078 36.06153106689453 C 139.4442138671875 54.20564651489258 154.4766845703125 45.03245162963867 157.08074951171875 30.725563049316406" fill="none" stroke="rgb(0, 0, 0)" stroke-linecap="round" stroke-linejoin="round" stroke-opacity="1" stroke-width="3.0"/>
    <path d="M 113.42333984375 193.28033447265625 C 115.85211944580078 215.74598693847656 107.6505355834961 227.9334716796875 111.16731262207031 186.47854614257812" fill="none" stroke="rgb(0, 0, 0)" stroke-linecap="round" stroke-linejoin="round" stroke-opacity="1" stroke-width="3.0"/>
    <path d="M 129.11915588378906 44.33378982543945 C 137.265869140625 23.812095642089844 113.71215057373047 54.540931701660156 131.74380493164062 52.70545196533203" fill="none" stroke="rgb(0, 0, 0)" stroke-linecap="round" stroke-linejoin="round" stroke-opacity="1" stroke-width="3.0"/>
    <path d="M 141.19520568847656 55.06446838378906 C 132.77474975585938 56.654781341552734 138.77952575683594 51.92563247680664 129.0958709716797 76.23229217529297" fill="none" stroke="rgb(0, 0, 0)" stroke-linecap="round" stroke-linejoin="round" stroke-opacity="1" stroke-width="3.0"/>
    <path d="M 101.65724182128906 55.8574104309082 C 74.58952331542969 77.86116027832031 94.7345962524414 47.120113372802734 114.52509307861328 50.7955322265625" fill="none" stroke="rgb(0, 0, 0)" stroke-linecap="round" stroke-linejoin="round" stroke-opacity="1" stroke-width="3.0"/>
    <path d="M 144.1396942138672 44.12388610839844 C 136.16058349609375 56.376590728759766 100.76383972167969 49.446041107177734 139.32626342773438 57.79756546020508" fill="none" stroke="rgb(0, 0, 0)" stroke-linecap="round" stroke-linejoin="round" stroke-opacity="1" stroke-width="3.0"/>
  </g>
</svg>
