<?xml version="1.0" ?>
<svg height="224" version="1.1" width="224" xmlns="http://www.w3.org/2000/svg">
  <defs/>
  <g>
    <path d="M 134.49656677246094 57.31318283081055 C 166.05262756347656 31.181777954101562 165.1005859375 34.7905387878418 142.9911346435547 7.112396717071533" fill="none" stroke="rgb(0, 0, 0)" stroke-linecap="round" stroke-linejoin="round" stroke-opacity="1" stroke-width="3.0"/>
    <path d="M 120.31476593017578 153.53179931640625 C 123.23172760009766 243.43890380859375 130.39669799804688 154.52548217773438 114.86795043945312 211.64236450195312" fill="none" stroke="rgb(0, 0, 0)" stroke-linecap="round" stroke-linejoin="round" stroke-opacity="1" stroke-width="3.0"/>
    <path d="M 113.65168762207031 204.98196411132812 C 124.5234146118164 159.9696807861328 126.77302551269531 222.21279907226562 107.82699584960938 215.4688720703125" fill="none" stroke="rgb(0, 0, 0)" stroke-linecap="round" stroke-linejoin="round" stroke-opacity="1" stroke-width="3.0"/>
    <path d="M 124.1610107421875 46.680213928222656 C 125.31643676757812 22.73934555053711 103.8188705444336 27.41575813293457 106.58052062988281 39.72755813598633" fill="none" stroke="rgb(0, 0, 0)" stroke-linecap="round" stroke-linejoin="round" stroke-opacity="1" stroke-width="3.0"/>
    <path d="M 130.2510223388672 113.648681640625 C 85.3901138305664 55.19235610961914 118.0454330444336 97.54776000976562 154.32955932617188 107.9328842163086" fill="none" stroke="rgb(0, 0, 0)" stroke-linecap="round" stroke-linejoin="round" stroke-opacity="1" stroke-width="3.0"/>
    <path d="M 105.7345199584961 110.3672866821289 C 100.0309066772461 160.59799194335938 126.60730743408203 171.374267578125 113.88008880615234 191.98541259765625" fill="none" stroke="rgb(0, 0, 0)" stroke-linecap="round" stroke-linejoin="round" stroke-opacity="1" stroke-width="3.0"/>
    <path d="M 132.7857666015625 53.978092193603516 C 72.93032836914062 42.851505279541016 96.78887939453125 101.42021179199219 97.1501693725586 50.24296569824219" fill="none" stroke="rgb(0, 0, 0)" stroke-linecap="round" stroke-linejoin="round" stroke-opacity="1" stroke-width="3.0"/>
    <path d="M 113.3077392578125 45.36383819580078 C 114.80913543701172 56.98493576049805 128.33587646484375 32.74785232543945 113.84333038330078 33.07468032836914" fill="none" stroke="rgb(0, 0, 0)" stroke-linecap="round" stroke-linejoin="round" stroke-opacity="1" stroke-width="2.999978542327881"/>
    <path d="M 121.15823364257812 51.16679382324219 C 125.7005615234375 34.68543243408203 98.9620361328125 29.207019805908203 129.97935485839844 58.349151611328125" fill="none" stroke="rgb(0, 0, 0)" stroke-linecap="round" stroke-linejoin="round" stroke-opacity="1" stroke-width="3.0"/>
    <path d="M 106.45661163330078 68.59507751464844 C 121.27862548828125 104.44478607177734 145.9462432861328 83.20165252685547 159.10816955566406 108.59444427490234" fill="none" stroke="rgb(0, 0, 0)" stroke-linecap="round" stroke-linejoin="round" stroke-opacity="1" stroke-width="3.0"/>
    <path d="M 95.42252349853516 103.60175323486328 C 92.38665771484375 114.97059631347656 57.03022384643555 103.4772720336914 58.40910720825195 105.38321685791016" fill="none" stroke="rgb(0, 0, 0)" stroke-linecap="round" stroke-linejoin="round" stroke-opacity="1" stroke-width="3.0"/>
    <path d="M 114.20421600341797 58.69134521484375 C 115.28630065917969 86.66377258300781 115.20364379882812 97.81474304199219 110.5893783569336 61.68770217895508" fill="none" stroke="rgb(0, 0, 0)" stroke-linecap="round" stroke-linejoin="round" stroke-opacity="1" stroke-width="2.995133399963379"/>
    <path d="M 88.8633041381836 83.21240234375 C 124.90957641601562 105.23135375976562 109.47877502441406 64.67105865478516 58.65789031982422 100.27127838134766" fill="none" stroke="rgb(0, 0, 0)" stroke-linecap="round" stroke-linejoin="round" stroke-opacity="1" stroke-width="3.0"/>
  </g>
</svg>
