<?xml version="1.0" ?>
<svg height="224" version="1.1" width="224" xmlns="http://www.w3.org/2000/svg">
  <defs/>
  <g>
    <path d="M 139.0800323486328 8.460441589355469 C 144.06100463867188 10.675942420959473 153.6517333984375 9.483863830566406 156.66673278808594 32.03409194946289" fill="none" stroke="rgb(0, 0, 0)" stroke-linecap="round" stroke-linejoin="round" stroke-opacity="1" stroke-width="3.0"/>
    <path d="M 113.80166625976562 128.70584106445312 C 114.15666198730469 156.29075622558594 117.32797241210938 154.22459411621094 120.64866638183594 110.44171142578125" fill="none" stroke="rgb(0, 0, 0)" stroke-linecap="round" stroke-linejoin="round" stroke-opacity="1" stroke-width="3.0"/>
    <path d="M 159.9004669189453 106.4507064819336 C 153.34954833984375 92.90094757080078 132.75621032714844 93.63492584228516 125.86124420166016 87.11865997314453" fill="none" stroke="rgb(0, 0, 0)" stroke-linecap="round" stroke-linejoin="round" stroke-opacity="1" stroke-width="2.9999947547912598"/>
    <path d="M 112.3097152709961 105.95572662353516 C 153.61767578125 100.9189224243164 141.39532470703125 109.37770080566406 115.93582153320312 90.47195434570312" fill="none" stroke="rgb(0, 0, 0)" stroke-linecap="round" stroke-linejoin="round" stroke-opacity="1" stroke-width="3.0"/>
    <path d="M 85.42271423339844 64.06529235839844 C 108.09423828125 86.90545654296875 83.22923278808594 77.47970581054688 79.40604400634766 67.92549133300781" fill="none" stroke="rgb(0, 0, 0)" stroke-linecap="round" stroke-linejoin="round" stroke-opacity="1" stroke-width="3.0"/>
    <path d="M 99.01643371582031 108.35192108154297 C 108.2291488647461 110.48128509521484 109.81462097167969 106.12704467773438 120.7222900390625 110.2278060913086" fill="none" stroke="rgb(0, 0, 0)" stroke-linecap="round" stroke-linejoin="round" stroke-opacity="1" stroke-width="3.0"/>
    <path d="M 127.33657836914062 39.83094787597656 C 129.43328857421875 19.601350784301758 129.16151428222656 26.089513778686523 116.0582504272461 41.63893508911133" fill="none" stroke="rgb(0, 0, 0)" stroke-linecap="round" stroke-linejoin="round" stroke-opacity="1" stroke-width="3.0"/>
    <path d="M 152.68316650390625 39.774444580078125 C 139.7036590576172 57.1573371887207 154.43141174316406 46.0013313293457 157.30987548828125 30.762359619140625" fill="none" stroke="rgb(0, 0, 0)" stroke-linecap="round" stroke-linejoin="round" stroke-opacity="1" stroke-width="3.0"/>
    <path d="M 114.21817779541016 195.7480926513672 C 114.55876159667969 216.9630584716797 111.32567596435547 229.12147521972656 111.4074478149414 182.97076416015625" fill="none" stroke="rgb(0, 0, 0)" stroke-linecap="round" stroke-linejoin="round" stroke-opacity="1" stroke-width="3.0"/>
    <path d="M 129.99244689941406 43.50973892211914 C 140.57052612304688 24.374061584472656 114.2815170288086 56.08723068237305 132.58123779296875 51.59833526611328" fill="none" stroke="rgb(0, 0, 0)" stroke-linecap="round" stroke-linejoin="round" stroke-opacity="1" stroke-width="3.0"/>
    <path d="M 146.9187774658203 50.11849594116211 C 134.48989868164062 61.30097579956055 139.27777099609375 51.7823600769043 129.4571075439453 75.2656021118164" fill="none" stroke="rgb(0, 0, 0)" stroke-linecap="round" stroke-linejoin="round" stroke-opacity="1" stroke-width="3.0"/>
    <path d="M 99.8362808227539 56.429466247558594 C 73.8892593383789 79.47240447998047 95.10519409179688 47.43231201171875 113.59834289550781 50.49177932739258" fill="none" stroke="rgb(0, 0, 0)" stroke-linecap="round" stroke-linejoin="round" stroke-opacity="1" stroke-width="3.0"/>
  </g>
</svg>
