<?xml version="1.0" ?>
<svg height="224" version="1.1" width="224" xmlns="http://www.w3.org/2000/svg">
  <defs/>
  <g>
    <path d="M 126.7486572265625 62.42237854003906 C 172.0460662841797 28.64740753173828 161.9297637939453 32.96128463745117 142.09783935546875 7.299684047698975" fill="none" stroke="rgb(0, 0, 0)" stroke-linecap="round" stroke-linejoin="round" stroke-opacity="1" stroke-width="3.0"/>
    <path d="M 122.82333374023438 147.50033569335938 C 104.11605834960938 290.39422607421875 132.92701721191406 173.63967895507812 113.71430969238281 201.9852752685547" fill="none" stroke="rgb(0, 0, 0)" stroke-linecap="round" stroke-linejoin="round" stroke-opacity="1" stroke-width="3.0"/>
    <path d="M 117.89414978027344 47.5860710144043 C 126.47006225585938 26.17259407043457 94.28013610839844 26.976730346679688 100.39285278320312 38.605594635009766" fill="none" stroke="rgb(0, 0, 0)" stroke-linecap="round" stroke-linejoin="round" stroke-opacity="1" stroke-width="3.0"/>
    <path d="M 133.0984344482422 114.11137390136719 C 91.4139175415039 45.26384353637695 112.609130859375 100.6812515258789 153.83970642089844 105.11869049072266" fill="none" stroke="rgb(0, 0, 0)" stroke-linecap="round" stroke-linejoin="round" stroke-opacity="1" stroke-width="3.0"/>
    <path d="M 106.03748321533203 110.46566009521484 C 98.78175354003906 142.10980224609375 128.9581756591797 157.20370483398438 112.42305755615234 198.01132202148438" fill="none" stroke="rgb(0, 0, 0)" stroke-linecap="round" stroke-linejoin="round" stroke-opacity="1" stroke-width="3.0"/>
    <path d="M 131.61203002929688 52.99833679199219 C 75.00503540039062 45.881160736083984 98.70783996582031 99.79471588134766 100.4646224975586 50.3574333190918" fill="none" stroke="rgb(0, 0, 0)" stroke-linecap="round" stroke-linejoin="round" stroke-opacity="1" stroke-width="3.0"/>
    <path d="M 109.32914733886719 44.365447998046875 C 130.2783966064453 42.51103591918945 92.7665023803711 15.521166801452637 126.81595611572266 66.22358703613281" fill="none" stroke="rgb(0, 0, 0)" stroke-linecap="round" stroke-linejoin="round" stroke-opacity="1" stroke-width="3.0"/>
    <path d="M 112.93355560302734 64.12657928466797 C 111.22220611572266 100.50714874267578 144.5742645263672 85.21502685546875 158.29690551757812 111.47637939453125" fill="none" stroke="rgb(0, 0, 0)" stroke-linecap="round" stroke-linejoin="round" stroke-opacity="1" stroke-width="3.0"/>
    <path d="M 95.49436950683594 108.8879165649414 C 92.34941101074219 115.80310821533203 57.847782135009766 105.15167236328125 59.410133361816406 104.57959747314453" fill="none" stroke="rgb(0, 0, 0)" stroke-linecap="round" stroke-linejoin="round" stroke-opacity="1" stroke-width="3.0"/>
    <path d="M 95.19881439208984 81.8821029663086 C 132.071533203125 110.11752319335938 115.11112213134766 63.1651611328125 61.30966567993164 100.02246856689453" fill="none" stroke="rgb(0, 0, 0)" stroke-linecap="round" stroke-linejoin="round" stroke-opacity="1" stroke-width="3.0"/>
  </g>
</svg>
